<?xml version="1.0" encoding="utf-8"?>
<!-- Generator: Adobe Illustrator 24.0.1, SVG Export Plug-In . SVG Version: 6.00 Build 0)  -->
<svg version="1.1" id="Layer_1" xmlns="http://www.w3.org/2000/svg" xmlns:xlink="http://www.w3.org/1999/xlink" x="0px" y="0px"
	 viewBox="0 0 438 129" style="enable-background:new 0 0 438 129;" xml:space="preserve">
<style type="text/css">
	.st0{fill:#FFFFFF;}
</style>
<g>
	<g>
		<g>
			<g>
				<path class="st0" d="M39.1,10.6c-8.7,0-16.6,3.7-21.3,9.9l-3,4l8,6l3-4c2.8-3.7,7.8-6,13.2-6c8.4,0,15.2,5.3,15.2,11.9v3.9
					c0,1.9-1,2.3-1.9,2.3H38.1c-14.4,0-26.2,9.8-26.2,21.9s11.7,21.9,26.2,21.9s26.2-9.8,26.2-21.8V32.5
					C64.2,20.6,52.7,10.6,39.1,10.6z M54.3,48.5v12c0,6.3-7.6,11.9-16.3,11.9c-8.7,0-16.3-5.5-16.3-11.9c0-6.4,7.3-11.6,16.3-11.7
					l14.1-0.1C52.5,48.6,53.2,48.6,54.3,48.5z"/>
			</g>
		</g>
		<g>
			<path class="st0" d="M103.1,10.6c-14.4,0-26.2,12.5-26.2,27.8v44h10v-44c0-9.8,7.3-17.8,16.2-17.8c8.9,0,16.2,8,16.2,17.8v44h10
				v-44C129.2,23.1,117.5,10.6,103.1,10.6z"/>
		</g>
		<g>
			<g>
				<path class="st0" d="M169.1,10.6c-8.7,0-16.6,3.7-21.3,9.9l-3,4l8,6l3-4c2.8-3.7,7.8-6,13.2-6c8.4,0,15.2,5.3,15.2,11.9v3.9
					c0,1.9-1,2.3-1.9,2.3H168c-14.4,0-26.2,9.8-26.2,21.9s11.7,21.9,26.2,21.9s26.2-9.8,26.2-21.8V32.5
					C194.2,20.6,182.7,10.6,169.1,10.6z M184.2,48.5v12c0,6.3-7.6,11.9-16.3,11.9c-8.7,0-16.3-5.5-16.3-11.9
					c0-6.4,7.3-11.6,16.3-11.7l14.1-0.1C182.4,48.6,183.2,48.6,184.2,48.5z"/>
			</g>
		</g>
		<g>
			<path class="st0" d="M206.4,38.5v43.9h10v-44c0-9.8,7.3-17.8,16.2-17.8h2.1v-10h-2.1C218.1,10.6,206.4,23.1,206.4,38.5z"/>
		</g>
		<g>
			<g>
				<path class="st0" d="M400.8,10.6c-8.7,0-16.6,3.7-21.3,9.9l-3,4l8,6l3-4c2.8-3.7,7.8-6,13.2-6c8.4,0,15.2,5.3,15.2,11.9v3.9
					c0,1.9-1,2.3-1.9,2.3h-14.3c-14.4,0-26.2,9.8-26.2,21.9s11.7,21.9,26.2,21.9c14.4,0,26.1-9.8,26.1-21.8V32.5
					C425.9,20.6,414.4,10.6,400.8,10.6z M415.9,48.5v12c0,6.3-7.6,11.9-16.3,11.9c-8.7,0-16.3-5.5-16.3-11.9
					c0-6.4,7.3-11.6,16.3-11.7l14.1-0.1C414.1,48.6,414.9,48.6,415.9,48.5z"/>
			</g>
		</g>
	</g>
</g>
<path class="st0" d="M334.5,82.5c7.4,0,24-35.2,25.9-41.7c0,0-5.1,3.3-10.9,4.7c-0.2,0-0.7,0.1-0.8,0.6c0,0-8.5,18.3-14.2,25.5
	c-0.3,0.2-0.5,0-0.5,0c-5.7-7.2-14.2-25.5-14.2-25.5c-0.1-0.4-0.6-0.5-0.8-0.6c-5.8-1.5-10.9-4.7-10.9-4.7
	c1.9,6.5,18.4,41.6,25.9,41.6L334.5,82.5L334.5,82.5z"/>
<path class="st0" d="M319,40h0.7l0.2-0.6c0,0,1.4-3.9,3.7-7.1c2.3-3.2,6-6.5,11.2-9.5c3.6-2,14.6-6.3,19.6-6.3
	c1.4,0,1.5,0.5,1.5,0.6c-0.1,0.3-0.3,1.6-3.5,2.9c-0.4,0.2-0.7,0.3-0.8,0.4c-0.4,0.2-1,0.5-1.7,0.8c-6.6,3-18.5,8.4-15.3,14.9
	c1.2,2.4,4.4,3,6.6,3.2l0.1,0c1.5,0.2,2.9,0.3,4.4,0.3c2.8,0,5.6-0.4,8.2-1.1c4.7-1.2,7.3-2.6,8.4-5.6c2.3-6,4.2-11.6,5.6-16.9
	c0.3-0.7,0.3-1.3,0.3-1.7c-0.1-3.1-2.9-5.3-10-5.3c-3.5,0-10.4,0.7-12.6,1.3c-6.2,1.7-13,3.5-20.6,7.7c-4.5,2.5-14,8.6-16.4,16.5
	l-0.1,0.5l0.3,0.4C310.5,37.3,315.6,40,319,40z"/>
<path class="st0" d="M267.2,82.5c7.4,0,24-35.2,25.9-41.7c0,0-5.1,3.3-10.9,4.7c-0.2,0-0.7,0.1-0.8,0.6c0,0-8.5,18.3-14.2,25.5
	c-0.3,0.2-0.5,0-0.5,0c-5.7-7.2-14.2-25.5-14.2-25.5c-0.1-0.4-0.6-0.5-0.8-0.6c-5.8-1.5-10.9-4.7-10.9-4.7
	c1.9,6.5,18.4,41.6,25.9,41.6L267.2,82.5L267.2,82.5z"/>
<path class="st0" d="M251.7,40h0.7l0.2-0.6c0,0,1.4-3.9,3.7-7.1c2.3-3.2,6-6.5,11.2-9.5c3.6-2,14.6-6.3,19.6-6.3
	c1.4,0,1.5,0.5,1.5,0.6c-0.1,0.3-0.3,1.6-3.5,2.9c-0.4,0.2-0.7,0.3-0.8,0.4c-0.4,0.2-1,0.5-1.7,0.8c-6.6,3-18.5,8.4-15.3,14.9
	c1.2,2.4,4.4,3,6.6,3.2l0.1,0c1.5,0.2,2.9,0.3,4.4,0.3c2.8,0,5.6-0.4,8.2-1.1c4.7-1.2,7.3-2.6,8.4-5.6c2.3-6,4.2-11.6,5.6-16.9
	c0.3-0.7,0.3-1.3,0.3-1.7c-0.1-3.1-2.9-5.3-10-5.3c-3.5,0-10.4,0.7-12.6,1.3c-6.2,1.7-13,3.5-20.6,7.7c-4.5,2.5-14,8.6-16.4,16.5
	l-0.1,0.5l0.3,0.4C243.2,37.3,248.2,40,251.7,40z"/>
<path class="st0" d="M333.2,100.4c-14.2,13-47.8,12.8-62.3,0.6c-1.3-1.1-3.1-3.8-4.2-2c-0.5,1.2,3.1,5.9,5.1,8.4
	c6.3,7.8,19.4,14.6,30,14.6c12.3,0,24.6-7.9,30.8-15.6c2-2.5,4.7-6.4,3.8-7.8C335.3,97.5,334,99.6,333.2,100.4z"/>
<g>
	<g>
		<path class="st0" d="M271.6,92c-1-0.3-2.4-0.3-3.9-0.1c-4.8,0.9-8.1,5.6-7.3,10.5c0.2,1.1,1,1.9,1.9,1.9c0.4,0,0.9-0.2,1.2-0.5
			c0.4-0.3,0.6-0.6,0.8-1.1c0.2-0.5,0.2-1,0.3-1.5c0-0.3,0-0.5,0.1-0.8c0.4-2.4,2.4-4.1,5.1-4.3c0.2,0,0.4,0,0.6,0
			c0.1,0,0.3,0,0.4,0c0.5,0,1.1-0.1,1.6-0.5c0.6-0.6,0.9-1.3,0.7-2C273,92.9,272.4,92.3,271.6,92z"/>
		<path class="st0" d="M335.8,92c-1.5-0.3-2.9-0.3-3.9,0.1c-0.8,0.3-1.4,0.9-1.6,1.7c-0.2,0.7,0.1,1.5,0.7,2
			c0.5,0.5,1.1,0.5,1.6,0.5c0.1,0,0.3,0,0.4,0c0.2,0,0.4,0,0.6,0c2.7,0.2,4.7,1.8,5.1,4.3c0,0.3,0.1,0.5,0.1,0.8
			c0,0.5,0.1,1,0.3,1.5c0.2,0.4,0.4,0.8,0.8,1.1c0.4,0.3,0.8,0.5,1.2,0.5c1,0,1.7-0.8,1.9-1.9C343.9,97.6,340.6,92.9,335.8,92z"/>
	</g>
</g>
</svg>
