<?xml version="1.0" encoding="utf-8"?>
<!-- Generator: Adobe Illustrator 15.1.0, SVG Export Plug-In . SVG Version: 6.00 Build 0)  -->
<!DOCTYPE svg PUBLIC "-//W3C//DTD SVG 1.1//EN" "http://www.w3.org/Graphics/SVG/1.1/DTD/svg11.dtd">
<svg version="1.1" id="Layer_1" xmlns="http://www.w3.org/2000/svg" xmlns:xlink="http://www.w3.org/1999/xlink" x="0px" y="0px"
	 width="438px" height="129px" viewBox="0 0 438 129" enable-background="new 0 0 438 129" xml:space="preserve">
<g>
	<g>
		<g>
			<g>
				<path fill="#008ECC" d="M39.134,10.586c-8.666,0-16.629,3.719-21.301,9.947l-2.989,3.993l7.976,5.983l2.99-3.987
					c2.828-3.734,7.766-5.963,13.209-5.963c8.404,0,15.243,5.318,15.243,11.856v3.861c0,1.869-1.04,2.262-1.912,2.262H38.079
					c-14.424,0-26.157,9.846-26.157,21.947c0,12.101,11.733,21.945,26.157,21.945s26.158-9.793,26.158-21.828V32.533
					C64.237,20.636,52.742,10.586,39.134,10.586z M54.262,48.47v12.017c0,6.314-7.615,11.853-16.298,11.853
					c-8.681,0-16.297-5.539-16.297-11.853c0-6.359,7.315-11.625,16.306-11.737l14.145-0.116
					C52.483,48.633,53.223,48.633,54.262,48.47z"/>
			</g>
		</g>
		<g>
			<path fill="#008ECC" d="M103.06,10.586c-14.423,0-26.155,12.47-26.155,27.796v44.049h9.973V38.382
				c0-9.826,7.26-17.822,16.183-17.822c8.924,0,16.183,7.996,16.183,17.822v44.049h9.976V38.382
				C129.218,23.056,117.482,10.586,103.06,10.586z"/>
		</g>
		<g>
			<g>
				<path fill="#008ECC" d="M169.07,10.586c-8.663,0-16.627,3.719-21.305,9.948l-2.986,3.993l7.977,5.981l2.992-3.986
					c2.829-3.734,7.768-5.963,13.207-5.963c8.407,0,15.245,5.318,15.245,11.856v3.861c0,1.869-1.042,2.262-1.916,2.262h-14.268
					c-14.423,0-26.155,9.846-26.155,21.947c0,12.101,11.732,21.945,26.155,21.945s26.158-9.793,26.158-21.828V32.533
					C194.175,20.636,182.68,10.586,169.07,10.586z M184.2,48.47v12.017c0,6.314-7.617,11.853-16.3,11.853
					c-8.682,0-16.298-5.539-16.298-11.853c0-6.359,7.315-11.625,16.306-11.737l14.142-0.116
					C182.417,48.633,183.158,48.633,184.2,48.47z"/>
			</g>
		</g>
		<g>
			<path fill="#008ECC" d="M206.412,38.499v43.933h9.978V38.382c0-9.826,7.259-17.822,16.181-17.822h2.066v-9.974h-2.066
				C218.146,10.586,206.412,23.108,206.412,38.499z"/>
		</g>
		<g>
			<g>
				<path fill="#008ECC" d="M400.769,10.586c-8.662,0-16.625,3.719-21.299,9.947l-2.992,3.993l7.983,5.983l2.986-3.986
					c2.83-3.735,7.769-5.964,13.209-5.964c8.404,0,15.242,5.318,15.242,11.856v3.861c0,1.869-1.04,2.262-1.911,2.262h-14.265
					c-14.425,0-26.16,9.846-26.16,21.947c0,12.101,11.735,21.945,26.16,21.945c14.419,0,26.15-9.793,26.15-21.828V32.533
					C425.873,20.636,414.377,10.586,400.769,10.586z M415.898,48.47v12.017c0,6.314-7.615,11.853-16.296,11.853
					c-8.685,0-16.304-5.539-16.304-11.853c0-6.359,7.319-11.625,16.311-11.737l14.143-0.116
					C414.119,48.633,414.857,48.633,415.898,48.47z"/>
			</g>
		</g>
	</g>
</g>
<path fill="#EF820D" d="M334.514,82.512c7.445,0,24.029-35.178,25.904-41.678c0,0-5.111,3.272-10.912,4.745
	c-0.163,0.042-0.656,0.141-0.806,0.561c0,0-8.534,18.349-14.2,25.542c-0.313,0.244-0.541,0-0.541,0
	c-5.666-7.193-14.2-25.542-14.2-25.542c-0.149-0.42-0.643-0.52-0.806-0.561c-5.801-1.472-10.869-4.661-10.869-4.661
	c1.875,6.5,18.416,41.595,25.861,41.595H334.514z"/>
<path fill="#EF820D" d="M319.034,40.001h0.686l0.178-0.638c0.015-0.05,1.431-3.89,3.73-7.112c2.295-3.214,6.008-6.531,11.237-9.473
	c3.577-2.013,14.629-6.319,19.565-6.319c1.418,0,1.479,0.469,1.509,0.585c-0.112,0.308-0.289,1.583-3.461,2.928
	c-0.363,0.153-0.659,0.28-0.843,0.368c-0.435,0.21-1.028,0.478-1.736,0.798c-6.569,2.972-18.477,8.393-15.335,14.892
	c1.184,2.448,4.425,2.951,6.65,3.2l0.142,0.017c1.477,0.167,2.947,0.251,4.374,0.251c2.779,0,5.592-0.444,8.171-1.087
	c4.709-1.173,7.288-2.627,8.416-5.552c2.333-6.038,4.172-11.579,5.604-16.873c0.255-0.697,0.293-1.294,0.279-1.663
	c-0.087-3.144-2.906-5.294-9.973-5.294c-3.469,0-10.359,0.671-12.595,1.268c-6.234,1.663-13.042,3.483-20.567,7.749
	c-4.472,2.535-13.978,8.64-16.391,16.544l-0.14,0.454l0.323,0.355C310.543,37.253,315.557,40.001,319.034,40.001z"/>
<path fill="#EF820D" d="M267.181,82.512c7.445,0,24.029-35.178,25.904-41.678c0,0-5.111,3.272-10.912,4.745
	c-0.163,0.042-0.656,0.141-0.806,0.561c0,0-8.534,18.349-14.2,25.542c-0.313,0.244-0.541,0-0.541,0
	c-5.666-7.193-14.2-25.542-14.2-25.542c-0.149-0.42-0.643-0.52-0.806-0.561c-5.801-1.472-10.869-4.661-10.869-4.661
	c1.875,6.5,18.416,41.595,25.861,41.595H267.181z"/>
<path fill="#EF820D" d="M251.701,40.001h0.686l0.178-0.638c0.015-0.05,1.431-3.89,3.73-7.112c2.295-3.214,6.008-6.531,11.237-9.473
	c3.577-2.013,14.629-6.319,19.565-6.319c1.418,0,1.479,0.469,1.509,0.585c-0.112,0.308-0.289,1.583-3.461,2.928
	c-0.363,0.153-0.659,0.28-0.843,0.368c-0.435,0.21-1.028,0.478-1.736,0.798c-6.569,2.972-18.477,8.393-15.335,14.892
	c1.184,2.448,4.425,2.951,6.65,3.2l0.142,0.017c1.477,0.167,2.947,0.251,4.374,0.251c2.779,0,5.592-0.444,8.171-1.087
	c4.709-1.173,7.288-2.627,8.416-5.552c2.333-6.038,4.172-11.579,5.604-16.873c0.255-0.697,0.293-1.294,0.279-1.663
	c-0.087-3.144-2.906-5.294-9.973-5.294c-3.469,0-10.359,0.671-12.595,1.268c-6.234,1.663-13.042,3.483-20.567,7.749
	c-4.472,2.535-13.978,8.64-16.391,16.544l-0.14,0.454l0.323,0.355C243.21,37.253,248.224,40.001,251.701,40.001z"/>
<path fill="#EF820D" d="M333.227,100.393c-14.249,12.957-47.779,12.783-62.256,0.555c-1.271-1.074-3.099-3.752-4.181-1.951
	c-0.54,1.16,3.109,5.881,5.114,8.352c6.3,7.764,19.417,14.58,29.996,14.58c12.263,0,24.551-7.889,30.763-15.648
	c2.001-2.5,4.709-6.416,3.813-7.832C335.289,97.529,334.045,99.639,333.227,100.393z"/>
<g>
	<g>
		<path fill="#EF820D" d="M271.597,92.019c-1.013-0.327-2.37-0.341-3.867-0.053c-4.812,0.907-8.085,5.626-7.298,10.515
			c0.175,1.137,0.965,1.932,1.921,1.932c0.428,0,0.856-0.164,1.237-0.471c0.36-0.284,0.621-0.639,0.798-1.092
			c0.185-0.49,0.229-1.006,0.271-1.504c0.022-0.262,0.044-0.524,0.089-0.779c0.432-2.416,2.443-4.091,5.13-4.266
			c0.2-0.014,0.403-0.006,0.607,0.002c0.135,0.005,0.271,0.01,0.404,0.01c0.481,0,1.102-0.061,1.624-0.535
			c0.602-0.55,0.854-1.29,0.694-2.031C273.034,92.947,272.417,92.285,271.597,92.019z"/>
		<path fill="#EF820D" d="M335.802,91.966c-1.503-0.288-2.864-0.274-3.871,0.053c-0.82,0.267-1.437,0.929-1.609,1.728
			c-0.16,0.742,0.094,1.482,0.696,2.031c0.521,0.475,1.141,0.535,1.622,0.535c0.134,0,0.27-0.005,0.404-0.01
			c0.205-0.008,0.401-0.018,0.612-0.001c2.684,0.174,4.694,1.848,5.124,4.265c0.046,0.256,0.067,0.52,0.089,0.781
			c0.042,0.5,0.086,1.018,0.273,1.498c0.156,0.428,0.423,0.795,0.792,1.092c0.385,0.311,0.814,0.475,1.241,0.475
			c0.954,0,1.744-0.793,1.921-1.928C343.887,97.592,340.613,92.873,335.802,91.966z"/>
	</g>
</g>
</svg>
