<?xml version="1.0" standalone="no"?>
<!DOCTYPE svg PUBLIC "-//W3C//DTD SVG 1.1//EN" "http://www.w3.org/Graphics/SVG/1.1/DTD/svg11.dtd" >
<svg xmlns="http://www.w3.org/2000/svg" xmlns:xlink="http://www.w3.org/1999/xlink" version="1.1">
<metadata>
Created by FontForge 20170731 at Sun Jul  2 22:27:08 2017
 By Aleksey,,,
Copyright (c) 2017 by The Refinery LLC. All rights reserved.
</metadata>
<defs>
<font id="ClarikaGrotesque-Medium" horiz-adv-x="537" >
  <font-face 
    font-family="Clarika Grotesque Medium"
    font-weight="500"
    font-stretch="normal"
    units-per-em="1000"
    panose-1="0 0 6 0 0 0 0 0 0 0"
    ascent="800"
    descent="-200"
    x-height="454"
    cap-height="640"
    bbox="-620 -264 1167 971"
    underline-thickness="50"
    underline-position="-200"
    unicode-range="U+000D-FB02"
  />
<missing-glyph horiz-adv-x="260" 
d="M129.5 85q19.5 0 33.5 -14.5t14 -35.5q0 -20 -14 -35t-33.5 -15t-33 15t-13.5 35q0 21 13.5 35.5t33 14.5z" />
    <glyph glyph-name="onequarter" unicode="&#x31;&#x2f;&#x34;" horiz-adv-x="743" 
d="M530 641h76l-409 -640h-76zM168 260v294l-82 -50l-33 60l123 76h72v-380h-80zM690 140v-66h-45v-74h-78l1 74h-177l-20 55l147 251h87l-145 -240h109l1 91h75v-91h45z" />
    <glyph glyph-name="onehalf" unicode="&#x31;&#x2f;&#x32;" horiz-adv-x="789" 
d="M530 641h76l-409 -640h-76zM168 260v294l-82 -50l-33 60l123 76h72v-380h-80zM541 65h195v-65h-291v21q0 33 14.5 61t37 45.5t48.5 35t48 31t37 31.5t15 38q0 25 -14.5 41t-42.5 16q-14 0 -26.5 -5t-24.5 -16.5t-16.5 -16.5t-15.5 -20l-56 46q23 32 60 57t86 25
q59 0 97 -32.5t38 -87.5q0 -31 -16.5 -57t-41.5 -44.5t-51 -34t-49 -33.5t-31 -36z" />
    <glyph glyph-name="threequarters" unicode="&#x33;&#x2f;&#x34;" horiz-adv-x="819" 
d="M606 641h76l-409 -640h-76zM192 317q33 0 52.5 14.5t21.5 37.5q3 39 -34 56q-34 16 -87 -3l-26 46l104 106h-146v66h259v-37l-117 -121q55 1 94 -29t38 -83q0 -54 -41 -86.5t-112 -33.5q-79 0 -145 54l41 57q46 -44 98 -44zM766 140v-66h-45v-74h-78l1 74h-177l-20 55
l147 251h86l-144 -240h109v91h76v-91h45z" />
    <glyph glyph-name="uni2153" unicode="&#x31;&#x2f;&#x33;" horiz-adv-x="807" 
d="M530 641h76l-409 -640h-76zM168 260v294l-82 -50l-33 60l123 76h72v-380h-80zM621 222q55 1 94 -29t39 -83q-1 -35 -19 -62t-53 -42t-81 -16q-80 0 -146 54l41 57q47 -44 98 -44q33 0 52.5 14.5t21.5 37.5q3 39 -34 56q-34 16 -86 -3l-27 46l105 106h-147v66h259v-37z
" />
    <glyph glyph-name="uni2154" unicode="&#x32;&#x2f;&#x33;" horiz-adv-x="893" 
d="M344 325v-65h-291v21q0 33 15 61t37 45.5t48 35t48 31t37 31.5t15 38q0 25 -14.5 41t-41.5 16q-15 0 -27.5 -5t-24 -16.5t-16 -16.5t-16.5 -20l-56 46q23 32 60 57t86 25q59 0 97.5 -33t38.5 -87q0 -31 -16.5 -57t-42 -44.5t-51.5 -34t-49 -33.5t-31 -36h195zM616 641h76
l-409 -640h-76zM707 222q55 1 94.5 -29t38.5 -83q-1 -54 -42 -86.5t-111 -33.5q-80 0 -145 54l40 57q47 -44 99 -44q33 0 52.5 14.5t20.5 37.5q3 39 -34 56q-34 16 -86 -3l-26 46l104 106h-147v66h259v-37z" />
    <glyph glyph-name="oneeighth" unicode="&#x31;&#x2f;&#x38;" horiz-adv-x="787" 
d="M530 641h76l-409 -640h-76zM168 260v294l-82 -50l-33 60l123 76h72v-380h-80zM660 205q22 -8 39 -22.5t25.5 -34.5t8.5 -42q0 -47 -37 -81.5t-109 -34.5t-109 34.5t-37 81.5q0 22 9 42t25.5 34.5t39.5 22.5q-59 25 -59 84q0 43 36 72t95 29q60 0 96 -29t36 -72
q0 -59 -59 -84zM587 327q-22 0 -37 -12.5t-15 -33.5q0 -13 7 -23.5t19 -16.5t26 -6q11 0 20.5 3.5t16.5 9.5t11 14.5t4 18.5q0 21 -15 33.5t-37 12.5zM587 53q27 0 45.5 16.5t18.5 41.5t-18.5 41t-45.5 16q-17 0 -31.5 -7t-23.5 -20t-9 -30q0 -25 18.5 -41.5t45.5 -16.5z
" />
    <glyph glyph-name="threeeighths" unicode="&#x33;&#x2f;&#x38;" horiz-adv-x="853" 
d="M596 641h76l-409 -640h-76zM192 317q33 0 52.5 14.5t21.5 37.5q3 39 -34 56q-34 16 -87 -3l-26 46l104 106h-146v66h259v-37l-117 -121q55 1 94 -29t38 -83q0 -54 -41 -86.5t-112 -33.5q-79 0 -145 54l41 57q46 -44 98 -44zM726 205q34 -12 54 -38.5t20 -60.5
q0 -47 -37 -81.5t-109 -34.5t-109.5 34.5t-37.5 81.5q0 17 5 32.5t15 28t23.5 22.5t30.5 16q-59 25 -59 84q0 43 36 72t96 29q39 0 69.5 -14t46 -36.5t15.5 -50.5q0 -59 -59 -84zM654 327q-22 0 -37 -12.5t-15 -33.5q0 -13 7 -23.5t18.5 -16.5t26.5 -6q10 0 19.5 3.5
t16.5 9.5t11 14.5t4 18.5q0 21 -14.5 33.5t-36.5 12.5zM654 53q26 0 45 16.5t19 41.5t-19 41t-45 16q-18 0 -32.5 -7t-23.5 -20t-9 -30q0 -25 19 -41.5t46 -16.5z" />
    <glyph glyph-name="fiveeighths" unicode="&#x35;&#x2f;&#x38;" horiz-adv-x="853" 
d="M596 641h76l-409 -640h-76zM198 316q34 0 52.5 19t18.5 44q0 17 -7.5 30t-20.5 20t-30 8q-20 0 -35 -5.5t-20 -11.5l-6 -5l-69 30l36 195h210v-66h-150l-18 -93q27 19 64 19q59 -1 94 -34t35 -87q0 -34 -17 -63t-51.5 -47.5t-78.5 -18.5q-87 0 -152 57l40 59l6.5 -6
t7.5 -7t7.5 -6t9 -7t9 -6t11 -6t11.5 -4.5t13 -4t14 -2.5t16 -1zM726 205q34 -12 54 -38.5t20 -61.5q0 -47 -37 -81t-109.5 -34t-109.5 34.5t-37 80.5q0 35 19.5 61.5t54.5 38.5q-59 25 -59 84q0 42 36 71.5t95 29.5q60 0 96 -29.5t36 -71.5q0 -59 -59 -84zM653 327
q-22 0 -37 -13t-15 -33q0 -13 7 -23.5t19 -16.5t26 -6q11 0 20.5 3.5t16.5 9.5t11 14.5t4 18.5q0 14 -7 24.5t-18.5 16t-26.5 5.5zM653 53q27 0 45.5 16.5t18.5 41.5t-18.5 41t-45.5 16q-26 0 -45 -16t-19 -41t18.5 -41.5t45.5 -16.5z" />
    <glyph glyph-name="seveneighths" unicode="&#x37;&#x2f;&#x38;" horiz-adv-x="743" 
d="M486 641h76l-409 -640h-76zM106 260q0 78 29.5 153.5t92.5 159.5h-175v67h275v-45q-75 -88 -106 -166.5t-31 -168.5h-85zM616 205q34 -12 54 -38.5t20 -60.5q0 -47 -37 -81.5t-109 -34.5t-109.5 34.5t-37.5 81.5q0 17 5 32.5t15 28t23.5 22.5t30.5 16q-59 25 -59 84
q0 43 36 72t96 29q59 0 95 -29t36 -72q0 -59 -59 -84zM544 327q-15 0 -26.5 -5.5t-18.5 -16t-7 -24t7 -24t18.5 -16.5t26.5 -6q21 0 36 13t15 33.5t-14.5 33t-36.5 12.5zM544 53q26 0 45 16.5t19 41.5t-19 41t-45 16q-13 0 -25 -4t-21 -11.5t-14 -18.5t-5 -23
q0 -25 19 -41.5t46 -16.5z" />
    <glyph glyph-name="arrowleft" unicode="&#x3c;&#x2d;&#x2d;" horiz-adv-x="652" 
d="M601 328v-81h-423l187 -188l-54 -54l-228 228l-55 54v0l55 55l228 228l54 -55l-187 -187h423z" />
    <glyph glyph-name="arrowup" unicode="&#x3c;__" horiz-adv-x="652" 
d="M609 300l-55 -54l-187 187v-423h-81v423l-188 -187l-54 54l228 228l54 55v0l55 -55z" />
    <glyph glyph-name="arrowright" unicode="&#x2d;&#x2d;&#x3e;" horiz-adv-x="652" 
d="M625 287h-1h1l-55 -54l-228 -228l-55 54l188 188h-423v81h423l-188 187l55 55l228 -228z" />
    <glyph glyph-name="arrowdown" unicode="__&#x3e;" horiz-adv-x="652" 
d="M609 294l-228 -228l-55 -55v0l-54 55l-228 228l54 54l188 -187v423h81v-423l187 187z" />
    <glyph glyph-name="arrowboth" unicode="&#x3c;&#x2d;&#x2d;&#x3e;" horiz-adv-x="925" 
d="M885 287v0l-54 -55l-228 -228l-55 55l188 188h-547l188 -188l-54 -55l-228 228h-1l-54 55v0l54 55l1 -1l228 228l54 -54l-188 -188h547l-188 188l55 54l228 -228v1z" />
    <glyph glyph-name="arrowupdn" unicode="&#x3c;__&#x3e;" horiz-adv-x="652" 
d="M554 231l55 -55l-228 -228l-55 -54v0l-54 54l-228 228l54 55l188 -188v547l-188 -188l-54 55l228 228l54 54v0l55 -54l228 -228l-55 -55l-187 188v-547z" />
    <glyph glyph-name="uni2196" unicode="&#x3c;&#x2d;_" horiz-adv-x="652" 
d="M575 100l-58 -58l-351 351v-265h-77v322v77v1h77v-1h323v-77h-265z" />
    <glyph glyph-name="uni2197" unicode="_&#x2d;&#x3e;" horiz-adv-x="652" 
d="M564 527v-77h-1v-323h-77v265l-350 -350l-58 57l351 351h-265v77h322h77h1z" />
    <glyph glyph-name="uni2198" unicode="&#x2d;_&#x3e;" horiz-adv-x="652" 
d="M563 120v-77h-1h-77h-322v78h265l-351 350l58 58l350 -351v265h77v-323h1z" />
    <glyph glyph-name="uni2199" unicode="&#x3c;_&#x2d;" horiz-adv-x="652" 
d="M574 471l-350 -351h265v-77h-323h-77v0v77v323h77v-265l351 350z" />
    <glyph glyph-name="fi" unicode="fi" horiz-adv-x="542" 
d="M242 614q-52 0 -52 -75v-85h94v-78h-94v-376h-97v376h-57v78h57v78q0 80 38 122.5t101 42.5q44 0 80 -20l-33 -73q-18 10 -37 10zM426 666q26 0 44.5 -18t18.5 -44q0 -12 -5 -23.5t-13.5 -20t-20 -13t-24.5 -4.5q-26 0 -44 18t-18 43q0 13 4.5 24.5t13 19.5t20 13t24.5 5
zM375 0v454h95v-454h-95z" />
    <glyph glyph-name="fl" unicode="fl" horiz-adv-x="563" 
d="M245 614q-52 0 -52 -75v-85h95v-78h-95v-376h-97v376h-60v78h60v78q0 80 38 122.5t101 42.5q44 0 80 -20l-28 -77q-19 14 -42 14zM398 680h97v-680h-97v680z" />
    <glyph glyph-name="f_f" unicode="ff" horiz-adv-x="595" 
d="M529 614q-52 0 -52 -75v-85h95v-78h-95v-376h-97v376h-189v-376h-96v376h-59v78h59v78q0 80 37.5 122.5t101.5 42.5q51 0 96 -28l-42 -71q-21 16 -45 16q-52 0 -52 -75v-85h189v78q0 80 38 122.5t101 42.5q51 0 96 -28l-42 -71q-20 16 -44 16z" />
    <glyph glyph-name="f_f_i" unicode="ffi" horiz-adv-x="837" 
d="M537 614q-52 0 -52 -75v-85h95v-78h-95v-376h-97v376h-197v-376h-96v376h-59v78h59v78q0 80 37.5 122.5t101.5 42.5q51 0 96 -28l-42 -71q-21 16 -45 16q-52 0 -52 -75v-85h197v78q0 80 38 122.5t101 42.5q44 0 80 -20l-33 -73q-17 10 -37 10zM721 665q26 0 44.5 -18
t18.5 -44q0 -12 -5 -23.5t-13.5 -20t-20 -13t-24.5 -4.5q-26 0 -44 18t-18 43q0 13 5 24.5t13 19.5t20 13t24 5zM670 0v454h95v-454h-95z" />
    <glyph glyph-name="f_f_l" unicode="ffl" horiz-adv-x="837" 
d="M529 606q-52 0 -52 -75v-77h95v-78h-95v-376h-97v376h-189v-376h-96v376h-59v78h59v70q0 80 37.5 122.5t101.5 42.5q51 0 96 -28l-42 -71q-21 16 -45 16q-52 0 -52 -75v-77h189v70q0 80 38 122.5t101 42.5q44 0 80 -20l-33 -73q-18 10 -37 10zM672 680h97v-680h-97v680z
" />
    <glyph glyph-name="f_t" unicode="ft" horiz-adv-x="588" 
d="M552 83l13 -79q-28 -13 -78 -13q-23 0 -43 6t-39 20t-30 42t-11 67v251h-171v-377h-96v377h-61v77h61v78q0 80 37.5 122.5t100.5 42.5q45 0 81 -20l-34 -73q-17 10 -37 10q-52 0 -52 -75v-85h171v109l96 21l1 -130h97v-78h-97v-242q0 -59 50 -59q12 0 22 2t15 4z" />
    <glyph glyph-name="t_t" unicode="tt" horiz-adv-x="608" 
d="M572 83l13 -79q-28 -13 -78 -13q-23 0 -43 6t-39 20t-30 42t-11 66v251h-183l1 -242q0 -59 50 -59q12 0 22 2t14 4l4 2l13 -79q-27 -13 -77 -13q-23 0 -43 6t-39 20t-30.5 42t-11.5 66v251h-60v78h60v130h97v-130h183v130h96l1 -130h97v-78h-97v-242q0 -59 50 -59
q12 0 22 2t15 4z" />
    <glyph glyph-name=".notdef" horiz-adv-x="260" 
d="M129.5 85q19.5 0 33.5 -14.5t14 -35.5q0 -20 -14 -35t-33.5 -15t-33 15t-13.5 35q0 21 13.5 35.5t33 14.5z" />
    <glyph glyph-name=".null" horiz-adv-x="600" 
 />
    <glyph glyph-name="nonmarkingreturn" horiz-adv-x="333" 
 />
    <glyph glyph-name="CR" unicode="&#xd;" horiz-adv-x="600" 
 />
    <glyph glyph-name="space" unicode=" " horiz-adv-x="256" 
 />
    <glyph glyph-name="exclam" unicode="!" horiz-adv-x="251" 
d="M182 640l-16 -462h-80l-16 462h112zM126 -9q-26 0 -44.5 18t-18.5 44t18.5 44t44.5 18t44 -18t18 -44t-18 -44t-44 -18z" />
    <glyph glyph-name="quotedbl" unicode="&#x22;" horiz-adv-x="359" 
d="M79 388q-6 64 -20.5 127t-14.5 82q0 9 2 16.5t5.5 14t9 11.5t11.5 9t13 6t15 2q23 0 39 -17t16 -42q0 -18 -6 -45t-15 -70.5t-14 -93.5h-41zM239 388q-6 64 -20.5 127t-14.5 82q0 17 7.5 30.5t20 21t28.5 7.5q23 0 39 -17t16 -42q0 -19 -14.5 -82t-20.5 -127h-41z" />
    <glyph glyph-name="numbersign" unicode="#" horiz-adv-x="518" 
d="M515 388h-117l-36 -134h100v-66h-118l-50 -188h-70l50 188h-104l-50 -188h-70l51 188h-98v66h116l35 134h-98v66h116l51 189h70l-51 -189h104l51 189h69l-50 -189h99v-66zM292 254l36 134h-104l-36 -134h104z" />
    <glyph glyph-name="dollar" unicode="$" horiz-adv-x="533" 
d="M480 168q0 -43 -16 -76.5t-43 -54.5t-59 -33t-67 -16v-86h-60v86q-123 10 -202 97l64 66q54 -71 138 -79v223q-38 16 -63.5 31t-48.5 36.5t-34 51t-11 67.5q0 65 44.5 111.5t112.5 59.5v92h60v-88q98 -5 178 -76l-59 -64q-57 53 -119 56v-202q7 -4 15 -7
q80 -35 125 -79.5t45 -115.5zM180 482q0 -18 6 -32.5t17.5 -26t31.5 -23.5v163q-25 -10 -40 -31.5t-15 -49.5zM295 75q34 8 57 30.5t23 57.5q0 37 -20.5 62t-59.5 45v-195z" />
    <glyph glyph-name="percent" unicode="%" horiz-adv-x="781" 
d="M200 363q-65 0 -106 42.5t-41 104.5t41.5 104.5t106.5 42.5t106 -42.5t41 -104.5t-41.5 -104.5t-106.5 -42.5zM146 0l409 640h76l-409 -640h-76zM201 432q16 0 29.5 6t22.5 16.5t14 25t5 30.5q0 21 -8.5 39t-25 28.5t-37.5 10.5q-33 0 -52.5 -22.5t-19.5 -55.5
q0 -16 5.5 -30.5t14.5 -25t22.5 -16.5t29.5 -6zM581 -12q-66 0 -107 42.5t-41 104.5q0 40 18.5 73.5t52.5 53.5t77 20q65 0 106 -42.5t41 -104.5t-41 -104.5t-106 -42.5zM581 57q32 0 51.5 22.5t19.5 55.5t-19.5 55.5t-51.5 22.5q-22 0 -38 -10.5t-24.5 -28t-8.5 -39.5
q0 -33 19.5 -55.5t51.5 -22.5z" />
    <glyph glyph-name="ampersand" unicode="&#x26;" horiz-adv-x="623" 
d="M611 44l-71 -61l-81 90q-85 -86 -195 -86q-98 0 -154.5 51.5t-56.5 126.5q0 40 14.5 77t45.5 71t76 60q-57 66 -53 139q3 44 23.5 76.5t57 50t85 18t89 -23.5t64.5 -67l-74 -45q-29 54 -81 54q-30 0 -48 -18.5t-20 -48.5q-2 -21 10.5 -46t22.5 -37t30 -33l164 -181
q26 40 57 102l81 -35q-49 -89 -79 -132zM275 75q68 4 127 62l-156 173q-44 -23 -68.5 -59.5t-24.5 -76.5q0 -45 34 -73.5t88 -25.5z" />
    <glyph glyph-name="quotesingle" unicode="'" horiz-adv-x="199" 
d="M79 388q-6 64 -20.5 127t-14.5 82q0 9 2 16.5t5.5 14t9 11.5t11.5 9t13 6t15 2q23 0 39 -17t16 -42q0 -18 -6 -45t-15 -70.5t-14 -93.5h-41z" />
    <glyph glyph-name="parenleft" unicode="(" horiz-adv-x="333" 
d="M252 -171q-8 6 -21.5 18.5t-48 56t-60.5 93.5t-47.5 132t-21.5 171q0 62 11 122t28.5 105.5t39 86t42.5 68.5t38.5 48.5t28.5 30.5l11 9l53 -59q-7 -6 -17.5 -17.5t-38.5 -51t-49 -83.5t-38.5 -114.5t-17.5 -144.5q0 -77 16.5 -147.5t40.5 -116.5t47.5 -81t39.5 -51
l17 -16z" />
    <glyph glyph-name="parenright" unicode=")" horiz-adv-x="333" 
d="M81 -171l-53 59q7 6 17.5 17t38.5 49.5t49 82.5t38.5 115t17.5 148q0 74 -16.5 143.5t-40.5 116t-47.5 82.5t-39.5 52l-17 17l53 59q4 -3 11.5 -9.5t28 -29.5t39 -49t41.5 -68t39.5 -86.5t28 -105t11.5 -122.5q0 -65 -11 -126t-28.5 -106.5t-39 -85.5t-42.5 -67.5
t-38.5 -47.5t-28.5 -29z" />
    <glyph glyph-name="asterisk" unicode="*" horiz-adv-x="408" 
d="M364 539l-103 -31l66 -89l-61 -44l-63 90l-63 -90l-62 45l67 88l-101 31l23 72l101 -34l-2 101h75l-1 -102l101 35z" />
    <glyph glyph-name="plus" unicode="+" horiz-adv-x="520" 
d="M471 327v-80h-171v-170h-80v170h-171v80h171v171h80v-171h171z" />
    <glyph glyph-name="comma" unicode="," horiz-adv-x="266" 
d="M73 -145l-18 45q75 36 78 94q-26 -6 -48.5 10.5t-21.5 46.5q1 28 20 45t48 16q34 -1 53.5 -28t18.5 -65q-2 -50 -34.5 -96t-95.5 -68z" />
    <glyph glyph-name="hyphen" unicode="-" horiz-adv-x="352" 
d="M49 247v80h253v-80h-253z" />
    <glyph glyph-name="period" unicode="." horiz-adv-x="251" 
d="M126 -9q-26 0 -44.5 18t-18.5 44t18.5 44t44.5 18t44 -18t18 -44t-18 -44t-44 -18z" />
    <glyph glyph-name="slash" unicode="/" horiz-adv-x="448" 
d="M3 -120l360 817h82l-359 -817h-83z" />
    <glyph glyph-name="zero" unicode="0" horiz-adv-x="602" 
d="M301 -13q-112 0 -180 91.5t-68 243t68 243t180 91.5t180 -91.5t68 -243t-68 -243t-180 -91.5zM301 70q73 0 110.5 70t37.5 182t-37.5 181.5t-110.5 69.5q-49 0 -83 -34t-49.5 -89.5t-15.5 -127.5q0 -112 37.5 -182t110.5 -70z" />
    <glyph glyph-name="one" unicode="1" horiz-adv-x="406" 
d="M249 640h84v-640h-97v530l-153 -95l-40 77l206 128v0z" />
    <glyph glyph-name="two" unicode="2" horiz-adv-x="551" 
d="M169 83h329v-83h-445v34q0 41 18 78.5t47.5 67.5t64.5 58t70.5 54.5t64.5 52.5t47 57t18 64q1 45 -31 76t-80 31q-78 -1 -131 -84l-74 49q12 21 29 39.5t42 37.5t60 30t75 11q97 -1 154 -53.5t57 -133.5q0 -45 -21.5 -86.5t-53.5 -72t-71 -61.5t-73.5 -56t-61.5 -54
t-34 -56z" />
    <glyph glyph-name="three" unicode="3" horiz-adv-x="561" 
d="M297 376q87 2 149.5 -49t61.5 -142q-1 -58 -29.5 -102.5t-83 -69.5t-126.5 -25q-132 -1 -226 81l54 77q35 -35 72.5 -55t93.5 -20q65 0 104 33t40 83q0 24 -8 45t-24 37t-38 26q-31 13 -65 14t-72 -6l-28 50l188 204h-280v83h401v-65z" />
    <glyph glyph-name="four" unicode="4" horiz-adv-x="576" 
d="M543 217v-83h-66v-134h-97v134h-313l-24 70l254 436h105l-248 -423h226v172h97v-172h66z" />
    <glyph glyph-name="five" unicode="5" horiz-adv-x="549" 
d="M286 396q92 1 151 -54t59 -144q0 -87 -62 -149t-173 -62q-125 0 -218 81l51 78q72 -76 162 -76q65 0 101 38t36 88q0 54 -35 86.5t-92 32.5q-32 1 -57 -9t-34 -20l-9 -11l-77 38l54 327h317v-83h-236l-31 -182q39 21 93 21z" />
    <glyph glyph-name="six" unicode="6" horiz-adv-x="588" 
d="M307 -13q-68 0 -121 31.5t-86 88.5q-47 84 -47 204q0 101 38 180.5t102 122t141 42.5q88 0 156 -38l-46 -73q-50 28 -105 28q-60 0 -106.5 -41t-67.5 -102t-18 -126q28 48 73.5 76t102.5 28q53 0 95 -18.5t66.5 -48.5t37.5 -65t13 -72q0 -89 -62 -153t-166 -64zM306.5 67
q53.5 0 91 38.5t37.5 92.5q0 36 -17 66t-46.5 47.5t-65.5 17.5q-52 0 -90 -38.5t-38 -92.5t37.5 -92.5t91 -38.5z" />
    <glyph glyph-name="seven" unicode="7" horiz-adv-x="529" 
d="M43 640h443v-66q-244 -304 -244 -574h-102q0 126 65.5 278.5t167.5 278.5h-330v83z" />
    <glyph glyph-name="eight" unicode="8" horiz-adv-x="574" 
d="M399 347q57 -21 89.5 -65t32.5 -102q0 -36 -13.5 -69.5t-41 -61.5t-74 -45t-105.5 -17t-105.5 17t-73.5 45t-41 61.5t-14 69.5q0 58 33 102t89 65q-95 41 -95 141q0 70 57 119t150.5 49t150 -49t56.5 -119q0 -100 -95 -141zM287.5 576q-47.5 0 -80 -26.5t-32.5 -68.5
q0 -44 32.5 -71.5t80 -27.5t80 27.5t32.5 71.5q0 42 -32.5 68.5t-80 26.5zM287 67q37 0 67.5 15t49 42t18.5 60q0 51 -40 84t-95 33t-94.5 -33t-39.5 -84t39 -84t95 -33z" />
    <glyph glyph-name="nine" unicode="9" horiz-adv-x="588" 
d="M280 655q69 0 122 -31t86 -89q47 -83 47 -203q0 -152 -81.5 -248.5t-200.5 -96.5q-88 0 -155 37l45 73q50 -28 105 -28q61 0 107 41.5t67.5 102t18.5 125.5q-28 -48 -73.5 -75.5t-103.5 -27.5q-52 0 -94 18.5t-66.5 48.5t-37.5 65t-13 71q0 90 62 153.5t165 63.5z
M281.5 575q-53.5 0 -91 -38t-37.5 -92.5t37.5 -92.5t90.5 -38t91 38t38 92q0 55 -37.5 93t-91 38z" />
    <glyph glyph-name="colon" unicode=":" horiz-adv-x="251" 
d="M126 343q-26 0 -44.5 18t-18.5 43.5t18.5 44t44.5 18.5q17 0 31.5 -8.5t23 -22.5t8.5 -31q0 -26 -18.5 -44t-44.5 -18zM126 -9q-26 0 -44.5 18t-18.5 44t18.5 44t44.5 18t44 -18t18 -44t-18 -44t-44 -18z" />
    <glyph glyph-name="semicolon" unicode=";" horiz-adv-x="314" 
d="M151 343q-26 0 -44 18t-18 44t18 44t44 18t44.5 -18t18.5 -44t-18.5 -44t-44.5 -18zM101 -144l-17 45q75 36 78 95q-26 -7 -49 9.5t-21 46.5q0 18 8.5 32.5t24 22t35.5 6.5q34 -1 53.5 -28t18.5 -65q-2 -50 -35 -95.5t-96 -68.5z" />
    <glyph glyph-name="less" unicode="&#x3c;" horiz-adv-x="525" 
d="M475 493v-91l-328 -115l328 -115v-91l-426 168v77z" />
    <glyph glyph-name="equal" unicode="=" horiz-adv-x="520" 
d="M49 328v79h422v-79h-422zM49 169v79h422v-79h-422z" />
    <glyph glyph-name="greater" unicode="&#x3e;" horiz-adv-x="525" 
d="M49 493l426 -167v-78l-426 -167v91l329 115l-329 115v91z" />
    <glyph glyph-name="question" unicode="?" horiz-adv-x="444" 
d="M142 179v167q74 -1 121.5 28.5t46.5 89.5q-1 47 -33.5 78t-82.5 31q-78 0 -124 -66l-67 54q74 95 194 95q91 0 151.5 -50t62.5 -132q0 -36 -11 -66.5t-28.5 -51t-41 -36t-46.5 -23.5t-47 -12v-106h-95zM189 -9q-26 0 -44.5 18t-18.5 44t18.5 44t44.5 18t44.5 -18
t18.5 -44t-18.5 -44t-44.5 -18z" />
    <glyph glyph-name="at" unicode="@" horiz-adv-x="767" 
d="M413 612q73 0 131.5 -23.5t95 -64t55.5 -92.5t19 -111q0 -117 -54 -184.5t-127 -67.5q-22 0 -41 8t-32.5 21.5t-19.5 29.5q-58 -62 -140 -62q-74 0 -113.5 55t-24 145t75 145t133.5 55q79 0 114 -67l12 55h90l-53 -248q-8 -40 3 -59t32 -19q35 0 70 51t35 142
q0 112 -68 183t-197 71q-86 0 -159 -49t-114.5 -129t-41.5 -169q0 -109 64.5 -178.5t175.5 -69.5q96 0 175 44l18 -31q-90 -50 -196 -50q-126 0 -202 80t-76 203q0 77 29 149t77.5 123.5t115 82.5t138.5 31zM335 137q49 0 85.5 34.5t45.5 87.5q9 59 -14 97.5t-69 38.5
q-47 0 -82.5 -37.5t-44.5 -92.5q-9 -59 12 -93.5t67 -34.5z" />
    <glyph glyph-name="A" unicode="A" horiz-adv-x="615" 
d="M502 0l-63 170l-264 -1l-62 -169h-110l253 640h103l253 -640h-110zM202 242h211l-106 285z" />
    <glyph glyph-name="B" unicode="B" horiz-adv-x="633" 
d="M413 354q80 -11 123.5 -55.5t43.5 -114.5q0 -85 -62.5 -134.5t-169.5 -49.5h-265v640h236q95 0 149.5 -41t54.5 -112q0 -34 -12.5 -60.5t-37 -45t-60.5 -27.5zM423 479q0 41 -27.5 63t-79.5 22h-131v-176h128q52 0 81 24t29 67zM335 76q65 0 102 31.5t37 84.5
q0 54 -38 84t-104 30h-147v-230h150z" />
    <glyph glyph-name="C" unicode="C" horiz-adv-x="623" 
d="M390 -13q-99 0 -176.5 45t-119 121t-41.5 168.5t41.5 168.5t119 121t176.5 45q114 0 200 -61l-54 -81q-62 51 -146 51q-103 0 -167 -71t-64 -173q0 -101 64 -172t167 -71q84 0 146 51l54 -81q-86 -61 -200 -61z" />
    <glyph glyph-name="D" unicode="D" horiz-adv-x="671" 
d="M273 640q82 0 148 -24.5t108.5 -68t65.5 -101.5t23 -125.5t-23 -125.5t-65.5 -101.5t-108.5 -68.5t-148 -25h-190v640h190zM257 83q126 0 190.5 63.5t64.5 174.5q0 54 -16 97t-47 74.5t-79.5 48t-112.5 16.5h-72v-474h72z" />
    <glyph glyph-name="E" unicode="E" horiz-adv-x="571" 
d="M518 554h-333v-195h283v-78h-283v-195h333v-86h-435v640h435v-86z" />
    <glyph glyph-name="F" unicode="F" horiz-adv-x="521" 
d="M518 554h-333v-196h283v-77h-283v-281h-102v640h73h362v-86z" />
    <glyph glyph-name="G" unicode="G" horiz-adv-x="695" 
d="M379 348h263v-297q-4 -3 -10.5 -7t-29.5 -15t-49.5 -19.5t-69 -15.5t-87.5 -7q-105 0 -184 46t-119 121.5t-40 167.5q0 93 40 168t119.5 120.5t184.5 45.5q119 0 215 -59l-49 -81q-79 50 -164 49q-72 0 -127 -32t-84 -87t-29 -124q0 -105 64 -175t174 -71q95 0 145 29
v164h-163v79z" />
    <glyph glyph-name="H" unicode="H" horiz-adv-x="697" 
d="M512 640h102v-640h-102v288h-327v-288h-102v640h102v-269h327v269z" />
    <glyph glyph-name="I" unicode="I" horiz-adv-x="268" 
d="M185 640v-640h-102v640h102z" />
    <glyph glyph-name="J" unicode="J" horiz-adv-x="280" 
d="M47 -208q-29 0 -67 10l18 88q29 -7 45 -7q52 0 52 85v672h102v-665q0 -101 -40.5 -142t-109.5 -41z" />
    <glyph glyph-name="K" unicode="K" horiz-adv-x="614" 
d="M476 0l-216 298l-75 -81v-217h-102v640h102v-288l261 288h129l-248 -269l279 -371h-130z" />
    <glyph glyph-name="L" unicode="L" horiz-adv-x="504" 
d="M185 88h295v-88h-397v640h102v-552z" />
    <glyph glyph-name="M" unicode="M" horiz-adv-x="819" 
d="M645 640h91v-640h-101v415l-190 -415h-71l-191 415v-415h-100v640h91l235 -523z" />
    <glyph glyph-name="N" unicode="N" horiz-adv-x="701" 
d="M519 640h99v-640h-95l-341 477v-477h-99v640h96l340 -476v476z" />
    <glyph glyph-name="O" unicode="O" horiz-adv-x="784" 
d="M392.5 -13q-99.5 0 -177.5 45t-120 121t-42 169q0 92 42 168t120 121t177 45q75 0 139 -26.5t107.5 -71t68 -106t24.5 -130.5q0 -93 -41.5 -169t-119.5 -121t-177.5 -45zM392 78q104 0 168.5 71t64.5 173t-64 172.5t-168.5 70.5t-169 -70.5t-64.5 -172.5t64.5 -173
t168.5 -71z" />
    <glyph glyph-name="P" unicode="P" horiz-adv-x="597" 
d="M338 640q83 0 144.5 -52t61.5 -141q0 -88 -61.5 -140t-144.5 -52l-183 -1v-254h-102v640h285zM301 333q66 0 101.5 29.5t35.5 84.5t-35.5 84.5t-101.5 29.5l-146 -1v-226z" />
    <glyph glyph-name="Q" unicode="Q" horiz-adv-x="785" 
d="M501 3q11 -38 41.5 -54.5t65.5 -10.5t61 29l44 -73q-24 -21 -57.5 -32.5t-71 -10t-72 14.5t-62 44.5t-39.5 77.5q-10 -1 -19 -1q-99 0 -177 45t-120 121t-42 169q0 92 42 168t120 121t177 45q75 0 139 -26.5t107.5 -71t68 -106t24.5 -130.5q0 -75 -28 -140t-80 -111.5
t-122 -67.5zM159 322q0 -102 64.5 -173t168.5 -71t168.5 71t64.5 173t-64 172.5t-169 70.5q-69 0 -123 -33.5t-82 -88.5t-28 -121z" />
    <glyph glyph-name="R" unicode="R" horiz-adv-x="646" 
d="M497 221q16 -27 50.5 -105t65.5 -116h-128q-16 29 -43.5 102.5t-50.5 107.5q-48 68 -173 69q-22 1 -33 1v-280h-102v640h275q90 0 153 -48.5t63 -124.5q0 -72 -46 -116t-124 -59q65 -24 93 -71zM330 559h-145v-206h161q59 0 90.5 26.5t31.5 74.5q0 50 -36 77.5t-102 27.5
z" />
    <glyph glyph-name="S" unicode="S" horiz-adv-x="586" 
d="M290 -13q-89 0 -150.5 24.5t-106.5 73.5l72 70q36 -43 79 -61.5t104 -18.5q57 0 97 24.5t40 69.5q0 23 -10.5 41t-32 32t-41.5 23t-52 21q-29 10 -45.5 16.5t-42.5 17.5t-41 21t-33 25t-28 30.5t-16.5 37t-6.5 45.5q0 78 62 127.5t150 49.5q53 0 96.5 -11t72 -26.5
t56.5 -39.5l-67 -68q-67 57 -148 57q-50 0 -83 -24.5t-33 -61.5t38 -60.5t132 -57.5q40 -14 69 -29t56 -37t41.5 -53t14.5 -70q0 -49 -20 -86t-55 -59t-77 -32.5t-91 -10.5z" />
    <glyph glyph-name="T" unicode="T" horiz-adv-x="516" 
d="M503 640v-87h-194v-553h-102v553h-194v87h490z" />
    <glyph glyph-name="U" unicode="U" horiz-adv-x="686" 
d="M343 -13q-122 0 -193.5 64t-71.5 197v392h102v-380q0 -48 12 -83.5t34.5 -57t51.5 -31.5t65 -10q75 0 119 44t44 138v380h102v-392q0 -133 -71.5 -197t-193.5 -64z" />
    <glyph glyph-name="V" unicode="V" horiz-adv-x="615" 
d="M500 640h112l-261 -640h-87l-261 640h112l192 -514z" />
    <glyph glyph-name="W" unicode="W" horiz-adv-x="910" 
d="M789 640h108l-211 -640h-86l-145 492l-145 -492h-86l-211 640h108l148 -498l143 498h85l144 -498z" />
    <glyph glyph-name="X" unicode="X" horiz-adv-x="618" 
d="M595 0h-126l-160 249l-160 -249h-126l224 326l-211 314h121l152 -238l154 238h119l-211 -314z" />
    <glyph glyph-name="Y" unicode="Y" horiz-adv-x="542" 
d="M549 640l-227 -343v-297h-102v297l-227 343h118l160 -248l161 248h117z" />
    <glyph glyph-name="Z" unicode="Z" horiz-adv-x="572" 
d="M180 88h339v-88h-466v76l319 476h-301v88h430v-74z" />
    <glyph glyph-name="bracketleft" unicode="[" horiz-adv-x="297" 
d="M256 764v-66h-85v-798h85v-66h-173v930h173z" />
    <glyph glyph-name="backslash" unicode="\" horiz-adv-x="448" 
d="M445 -120h-82l-360 817h83z" />
    <glyph glyph-name="bracketright" unicode="]" horiz-adv-x="297" 
d="M42 764h172v-930h-172v66h84v798h-84v66z" />
    <glyph glyph-name="asciicircum" unicode="^" horiz-adv-x="528" 
d="M475 326h-94l-117 238l-118 -238h-93l169 317h84z" />
    <glyph glyph-name="underscore" unicode="_" horiz-adv-x="480" 
d="M0 -114v49h480v-49h-480z" />
    <glyph glyph-name="grave" unicode="`" horiz-adv-x="305" 
d="M124 566l-80 84l90 15l127 -155h-36q-25 0 -46 10t-55 46z" />
    <glyph glyph-name="a" unicode="a" horiz-adv-x="494" 
d="M186 -12q-66 0 -109.5 35t-43.5 100q0 82 74.5 125.5t214.5 19.5l12 -2v25q0 48 -27 72t-71 25q-63 0 -114 -41l-41 68q66 51 158 51q192 0 192 -194v-272h-81l-16 58q-24 -35 -64.5 -52.5t-83.5 -17.5zM218 58q50 0 83 35t33 95v19l-12 2q-97 15 -142.5 -8t-45.5 -72
q0 -33 22.5 -52t61.5 -19z" />
    <glyph glyph-name="b" unicode="b" horiz-adv-x="562" 
d="M317 466q91 0 151.5 -65t60.5 -174t-60.5 -174.5t-151.5 -65.5q-100 0 -158 76l-11 -63h-80v680h97v-283q57 69 152 69zM294 69q61 0 98.5 45t37.5 113t-37.5 112.5t-98.5 44.5q-63 0 -101.5 -44.5t-38.5 -112.5t38.5 -113t101.5 -45z" />
    <glyph glyph-name="c" unicode="c" horiz-adv-x="443" 
d="M271 -13q-104 0 -171 69t-67 171t67 170.5t171 68.5q91 0 157 -51l-56 -70q-40 38 -99 38q-43 0 -75 -20.5t-49 -56t-17 -79.5q0 -69 38.5 -113t102.5 -44q59 0 99 38l56 -69q-66 -52 -157 -52z" />
    <glyph glyph-name="d" unicode="d" horiz-adv-x="562" 
d="M397 680h96v-680h-79l-12 63q-57 -76 -158 -76q-91 0 -151.5 65.5t-60.5 174.5t60.5 174t151.5 65q96 0 153 -69v283zM268 69q31 0 57 12t44 33t28.5 50t10.5 63q0 68 -39 112.5t-101 44.5q-61 0 -99 -44.5t-38 -112.5t38 -113t99 -45z" />
    <glyph glyph-name="e" unicode="e" horiz-adv-x="523" 
d="M490 237v-31h-355q5 -63 42.5 -102t99.5 -39q76 0 120 52l67 -55q-66 -75 -186 -75q-110 0 -177.5 68.5t-67.5 171.5q0 101 66 170t167 69q66 0 117 -29t79 -81.5t28 -118.5zM266 390q-50 0 -84 -33.5t-44 -87.5h256q-6 56 -40 88.5t-88 32.5z" />
    <glyph glyph-name="f" unicode="f" horiz-adv-x="311" 
d="M245 614q-52 0 -52 -75v-85h95v-78h-95v-376h-97v376h-60v78h60v78q0 80 38 122.5t101 42.5q51 0 96 -28l-42 -71q-20 16 -44 16z" />
    <glyph glyph-name="g" unicode="g" horiz-adv-x="527" 
d="M269 70q63 0 111.5 -12.5t81 -44.5t32.5 -80q0 -70 -59 -106.5t-165 -36.5q-109 0 -173 30.5t-64 94.5q0 34 19 63t53 45q-44 24 -44 72q0 58 61 90q-57 47 -57 118q0 68 54 115.5t136 47.5q58 0 103 -24q15 23 40 35t48.5 11.5t45.5 -3.5l-14 -69q-21 6 -40.5 2.5
t-29.5 -16.5q37 -43 37 -99q0 -69 -54 -116.5t-136 -47.5q-35 0 -66 10q-21 -6 -34 -17.5t-13 -23.5q0 -23 26 -30.5t101 -7.5zM255 393q-45 0 -71 -25.5t-26 -64.5q0 -26 11.5 -46t33.5 -32.5t52 -12.5q45 0 71 26t26 65t-26 64.5t-71 25.5zM269 -140q127 0 127 70
q0 25 -19 40t-51 20.5t-81 5.5q-28 0 -52 3q-30 -10 -46 -29t-16 -42q0 -68 138 -68z" />
    <glyph glyph-name="h" unicode="h" 
d="M305 466q32 0 60.5 -9.5t54 -30t40.5 -58t15 -87.5v-281h-97v260q0 57 -24.5 90t-75.5 33q-47 0 -80 -37.5t-33 -120.5v-225h-97v680h97v-280q51 66 140 66z" />
    <glyph glyph-name="i" unicode="i" horiz-adv-x="231" 
d="M115 543q-26 0 -44 18t-18 43q0 13 5 24.5t13 19.5t20 13t24 5q26 0 44.5 -18t18.5 -43.5t-18.5 -43.5t-44.5 -18zM68 0v454h95v-454h-95z" />
    <glyph glyph-name="j" unicode="j" horiz-adv-x="212" 
d="M110.5 543q-25.5 0 -44 18t-18.5 43q0 13 5 24.5t13.5 19.5t20 13t24.5 5q25 0 43.5 -18t18.5 -43.5t-18.5 -43.5t-44 -18zM159 454v-496q0 -168 -143 -168l-36 4l7 82q9 -3 22 -3q21 0 37 16t16 60v505h97z" />
    <glyph glyph-name="k" unicode="k" horiz-adv-x="501" 
d="M378 0l-153 210l-60 -59v-151h-97v680h97v-407l187 181h124l-183 -178l210 -276h-125z" />
    <glyph glyph-name="l" unicode="l" horiz-adv-x="233" 
d="M68 0v680h97v-680h-97z" />
    <glyph glyph-name="m" unicode="m" horiz-adv-x="796" 
d="M569 466q72 0 118 -48t46 -152v-266h-97v259q0 38 -9 65t-29 43t-50 16q-47 0 -73 -36t-26 -103v-244h-97v259q0 58 -21 91t-66 33q-30 0 -52 -14.5t-34.5 -43.5t-13.5 -71v-254h-97v454h85l10 -57q19 34 52 51.5t73 17.5q90 0 133 -72q15 23 33.5 38t47.5 24.5t67 9.5z
" />
    <glyph glyph-name="n" unicode="n" 
d="M304 466q32 0 60.5 -9.5t54 -30t40.5 -58t15 -87.5v-281h-97v260q0 57 -24.5 90t-75.5 33q-43 0 -75 -31.5t-37 -100.5v-251h-97v454h85l11 -53q52 65 140 65z" />
    <glyph glyph-name="o" unicode="o" horiz-adv-x="552" 
d="M276.5 -13q-70.5 0 -126.5 32t-86.5 86.5t-30.5 121.5q0 102 68.5 170.5t175 68.5t174.5 -68.5t68 -170.5q0 -67 -30.5 -121.5t-86 -86.5t-126 -32zM276 70q62 0 102.5 45t40.5 112q0 44 -18 79.5t-51 56t-74 20.5q-31 0 -57.5 -12t-45 -33t-29 -49.5t-10.5 -61.5
q0 -67 40 -112t102 -45z" />
    <glyph glyph-name="p" unicode="p" horiz-adv-x="562" 
d="M317 466q91 0 151.5 -65t60.5 -174t-60.5 -174.5t-151.5 -65.5q-95 0 -152 69v-266h-97v664h85l8 -61q58 73 156 73zM294 69q61 0 98.5 45t37.5 113t-37.5 112.5t-98.5 44.5q-63 0 -101.5 -44.5t-38.5 -112.5t38.5 -113t101.5 -45z" />
    <glyph glyph-name="q" unicode="q" horiz-adv-x="562" 
d="M410 454h84v-664h-96v266q-58 -69 -153 -69q-91 0 -151.5 65.5t-60.5 174.5t60.5 174t151.5 65q99 0 156 -73zM269 69q31 0 57 12t44 33.5t28 50t10 62.5q0 68 -38.5 112.5t-100.5 44.5q-61 0 -99 -44.5t-38 -112.5t38 -113t99 -45z" />
    <glyph glyph-name="r" unicode="r" horiz-adv-x="351" 
d="M280 466q18 0 35 -3.5t25 -7.5l8 -4l-28 -83q-21 9 -45 9q-51 0 -80.5 -40.5t-29.5 -99.5v-237h-97v454h84l13 -64q20 38 47 57t68 19z" />
    <glyph glyph-name="s" unicode="s" horiz-adv-x="429" 
d="M28 64l64 58q45 -56 116 -56q41 0 63 15t22 41q0 21 -17.5 35t-44 21t-57 18t-57 23.5t-44 40t-17.5 65.5q0 63 47.5 102t127.5 39q32 0 63 -8t54 -21t38 -30l-55 -60q-43 41 -98 41q-19 -1 -33.5 -5t-24 -11.5t-14.5 -18t-5 -24.5q0 -23 17.5 -39t44.5 -23.5t58 -18
t58 -22.5t44.5 -38t17.5 -64q0 -62 -49 -99.5t-132 -37.5q-62 0 -111.5 21t-75.5 56z" />
    <glyph glyph-name="t" unicode="t" horiz-adv-x="328" 
d="M292 83l13 -79q-27 -13 -77 -13q-23 0 -43 6t-39 20t-30.5 42t-11.5 66v251h-60v78h60v130h97v-130h96v-78h-96l1 -242q0 -59 50 -59q12 0 22 2t14 4z" />
    <glyph glyph-name="u" unicode="u" 
d="M372 454h97v-454h-85l-11 53q-52 -65 -140 -65q-32 0 -60.5 9.5t-54 30t-40.5 58t-15 87.5v281h97v-259q0 -58 25 -91t75 -33q43 0 75 31.5t37 100.5v251z" />
    <glyph glyph-name="v" unicode="v" horiz-adv-x="469" 
d="M367 454h103l-196 -454h-80l-196 454h104l132 -340z" />
    <glyph glyph-name="w" unicode="w" horiz-adv-x="748" 
d="M626 454h104l-173 -454h-81l-102 341l-103 -341h-81l-172 454h104l111 -329l101 329h80l101 -329z" />
    <glyph glyph-name="x" unicode="x" horiz-adv-x="446" 
d="M448 0h-112l-113 169l-113 -169h-112l171 237l-153 217h110l97 -149l97 149h110l-153 -217z" />
    <glyph glyph-name="y" unicode="y" horiz-adv-x="471" 
d="M369 454h104l-238 -571q-39 -93 -125 -93q-15 0 -28.5 2.5t-19.5 5.5l-6 2l17 82q14 -9 33 -9q34 0 52 47l31 78l-191 456h103l134 -340z" />
    <glyph glyph-name="z" unicode="z" horiz-adv-x="473" 
d="M164 83h271v-83h-397v68l256 303h-241v83h364v-72z" />
    <glyph glyph-name="braceleft" unicode="{" horiz-adv-x="330" 
d="M217 404q0 -25 -8.5 -44.5t-20.5 -30.5t-24 -18t-21 -10l-8 -2q3 -1 8.5 -2.5t20 -9.5t25 -18.5t19.5 -30t9 -44.5v-244q0 -31 13 -40.5t43 -9.5h29v-66h-68q-47 0 -75.5 32.5t-28.5 81.5v240q0 20 -8 36t-19.5 24t-22.5 13t-19 6l-8 1v62q2 0 4.5 0.5t10.5 2.5t15.5 5
t16 9.5t15 14.5t11 20.5t4.5 27.5v240q0 32 12.5 58t36.5 41t55 15h68v-66h-29q-30 0 -43 -9.5t-13 -41.5v-243z" />
    <glyph glyph-name="bar" unicode="|" horiz-adv-x="241" 
d="M83 710h75v-870h-75v870z" />
    <glyph glyph-name="braceright" unicode="}" horiz-adv-x="330" 
d="M201 410q0 -20 7.5 -36t19 -24t22.5 -13t19 -6l8 -1v-62q-3 0 -8 -1t-18.5 -6t-23.5 -13t-18 -24t-8 -36v-240q0 -24 -8 -45t-21.5 -36.5t-32.5 -24t-42 -8.5h-69v66h29q30 0 43 9.5t13 40.5v244q0 25 8.5 44.5t20.5 30.5t24 18t21 10l8 2q-3 1 -8.5 2.5t-20 9.5
t-25 18.5t-19.5 30t-9 44.5v243q0 32 -13 41.5t-43 9.5h-29v66h69q46 0 75 -32.5t29 -81.5v-240z" />
    <glyph glyph-name="asciitilde" unicode="~" horiz-adv-x="485" 
d="M314 224q-28 0 -51.5 13.5t-44.5 26.5t-41 13q-24 0 -38.5 -12.5t-27.5 -33.5l-62 40q1 1 7 10l8 12t8.5 11.5t11 12.5t12 10.5t14.5 10t16 7.5t19 5.5t21 1.5q23 0 44 -8t34.5 -18t31 -18.5t33.5 -8.5q21 0 34 13t24 36l66 -37q-8 -16 -15 -26.5t-21.5 -26.5t-35.5 -25
t-47 -9z" />
    <glyph glyph-name="uni00A0" unicode="&#xa0;" horiz-adv-x="256" 
 />
    <glyph glyph-name="exclamdown" unicode="&#xa1;" horiz-adv-x="251" 
d="M126 466q26 0 44 -18t18 -43.5t-18 -43.5t-44 -18t-44.5 18t-18.5 43.5t18.5 43.5t44.5 18zM69 -182l16 462h80l17 -462h-113z" />
    <glyph glyph-name="cent" unicode="&#xa2;" horiz-adv-x="443" 
d="M273 163q59 0 99 38l56 -69q-66 -52 -157 -52q-12 0 -23 1l-17 -81h-61l19 93q-71 25 -113.5 86t-42.5 141q0 102 67 170.5t171 68.5h13l16 81h61l-18 -90q47 -12 85 -42l-56 -70q-20 19 -46 29l-61 -303q4 -1 8 -1zM132 320q0 -48 19.5 -85t55.5 -56l60 297
q-62 -2 -98.5 -46t-36.5 -110z" />
    <glyph glyph-name="sterling" unicode="&#xa3;" horiz-adv-x="571" 
d="M237 285v-202h265v-83h-449v65l87 14v206h-87v74h87v65q0 111 60.5 171.5t156.5 60.5q91 0 161 -61l-53 -70q-45 45 -104 45q-57 0 -90.5 -37.5t-33.5 -110.5v-63h221v-74h-221z" />
    <glyph glyph-name="currency" unicode="&#xa4;" horiz-adv-x="564" 
d="M477 325q0 -61 -33 -110l67 -64l-52 -54l-69 66q-48 -30 -107 -30q-61 0 -110 31l-67 -67l-53 53l67 67q-31 48 -31 108q0 61 32 109l-68 67l53 53l68 -67q48 31 109 31q60 0 108 -31l67 67l53 -53l-66 -66q32 -49 32 -110zM174 325q0 -49 31 -82.5t77.5 -33.5t78 33.5
t31.5 82.5t-31.5 82.5t-78 33.5t-77.5 -33.5t-31 -82.5z" />
    <glyph glyph-name="yen" unicode="&#xa5;" horiz-adv-x="583" 
d="M566 640l-210 -320h132v-67h-148v-51h148v-67h-148v-135h-97v135h-147v67h147v51h-147v67h131l-210 320h109l166 -261l166 261h108z" />
    <glyph glyph-name="brokenbar" unicode="&#xa6;" horiz-adv-x="241" 
d="M83 625h75v-285h-75v285zM83 210h75v-285h-75v285z" />
    <glyph glyph-name="section" unicode="&#xa7;" horiz-adv-x="485" 
d="M431 215q-4 -77 -66 -118q49 -46 45 -115q-2 -35 -17 -62.5t-40.5 -44.5t-58 -26t-70.5 -9q-34 -1 -65.5 7.5t-53.5 20.5t-39 24t-25 20l-8 9l57 64q1 -2 3 -4t8 -8.5t12.5 -12t18 -13t23 -13t27.5 -9t33 -4.5q47 -2 74.5 17t28.5 48q2 32 -20.5 56t-82.5 53
q-25 12 -42 22t-42 29t-40.5 37t-27 44.5t-10.5 55.5q0 85 73 124q-51 46 -50 105q0 58 41.5 100t120.5 44q28 1 55 -5t46 -14.5t34 -17.5t22 -15l7 -6l-54 -63q-4 4 -12 11.5t-33.5 20t-50.5 13.5t-45 -7.5t-32 -24t-12 -34.5q0 -29 28.5 -54t99.5 -59q71 -35 107 -83
t33 -103zM136 291q-1 -34 34 -66.5t119 -77.5q54 20 57 72q2 37 -26 64.5t-104 66.5q-11 6 -16 8q-29 -8 -46.5 -25.5t-17.5 -41.5z" />
    <glyph glyph-name="dieresis" unicode="&#xa8;" horiz-adv-x="380" 
d="M96.5 629q21.5 0 37.5 -15.5t16 -37.5q0 -23 -15.5 -39t-38 -16t-37.5 16t-15 39q0 22 15.5 37.5t37 15.5zM282 629q22 0 38 -15.5t16 -37.5q0 -23 -16 -39t-38 -16t-37 16t-15 39q0 22 15 37.5t37 15.5z" />
    <glyph glyph-name="copyright" unicode="&#xa9;" horiz-adv-x="775" 
d="M387 -12q-95 0 -172 45t-119.5 120.5t-42.5 167.5t42.5 168.5t119.5 121.5t172 45t172 -45t120 -121.5t43 -168.5q0 -91 -43 -167.5t-120 -121t-172 -44.5zM387 35q124 0 204.5 83.5t80.5 202.5q0 120 -80 204t-205 84q-84 0 -149.5 -39.5t-100 -105t-34.5 -143.5
t34.5 -143t100 -104t149.5 -39zM395 121q-89 0 -145 57.5t-56 143t56 142.5t145 57q68 0 119 -35l-37 -59q-33 25 -82 25q-55 0 -89 -38t-34 -93q0 -35 14.5 -65t43 -48t65.5 -18q49 0 82 24l37 -57q-51 -36 -119 -36z" />
    <glyph glyph-name="ordfeminine" unicode="&#xaa;" horiz-adv-x="361" 
d="M146 309q-32 0 -57 10.5t-40.5 32t-15.5 52.5q0 53 47 81t135 28h38v13q0 22 -8 36.5t-25 21.5t-43 7q-21 0 -40.5 -6.5t-29.5 -13.5l-9 -7l-32 52q50 39 117 39q145 0 145 -140v-197h-64l-11 41q-17 -25 -47 -37.5t-60 -12.5zM168 371q36 0 60.5 21t24.5 52v14h-36
q-100 0 -100 -49q0 -17 13.5 -27.5t37.5 -10.5zM40 197v64h288v-64h-288z" />
    <glyph glyph-name="guillemotleft" unicode="&#xab;" horiz-adv-x="465" 
d="M274 420l-150 -178l150 -178h-94l-147 178l147 178h94zM431 420l-149 -178l149 -178h-93l-147 178l147 178h93z" />
    <glyph glyph-name="logicalnot" unicode="&#xac;" horiz-adv-x="471" 
d="M49 294v76h373v-195h-75v119h-298z" />
    <glyph glyph-name="uni00AD" unicode="&#xad;" horiz-adv-x="352" 
d="M49 247v80h253v-80h-253z" />
    <glyph glyph-name="registered" unicode="&#xae;" horiz-adv-x="511" 
d="M256 657q92 0 151.5 -61t59.5 -150t-59.5 -150t-151.5 -61q-61 0 -110 28t-75.5 76.5t-26.5 106.5q0 88 60 149.5t152 61.5zM256 268q79 0 128 51.5t49 126t-49 126.5t-128 52t-128.5 -52t-49.5 -126q0 -75 49.5 -126.5t128.5 -51.5zM344 488q0 -27 -16 -44t-41 -22
l69 -88h-65l-63 86h-5v-86h-50v223h38h5h7l45 -1q31 0 53.5 -18t22.5 -50zM257 511h-34v-51h34q31 0 31 25q0 26 -31 26z" />
    <glyph glyph-name="macron" unicode="&#xaf;" horiz-adv-x="391" 
d="M44 655v57h303v-57h-303z" />
    <glyph glyph-name="degree" unicode="&#xb0;" horiz-adv-x="377" 
d="M188 656q40 0 73 -19t52.5 -52.5t19.5 -72.5q0 -59 -42.5 -101t-102 -42t-102 42t-42.5 101.5t42.5 101.5t101.5 42zM188 433q33 0 56 23t23 56q0 22 -10.5 40.5t-28.5 29t-40 10.5q-32 0 -55 -23.5t-23 -56.5q0 -21 10.5 -39.5t28.5 -29t39 -10.5z" />
    <glyph glyph-name="plusminus" unicode="&#xb1;" horiz-adv-x="522" 
d="M220 133v170h-171v80h171v171h80v-171h171v-80h-171v-170h-80zM51 79h421v-79h-421v79z" />
    <glyph glyph-name="uni00B2" unicode="&#xb2;" horiz-adv-x="378" 
d="M139 425h195v-65h-291v21q0 33 15 61t37 45.5t48 35t48 31t37 31.5t15 38q0 16 -6 28.5t-19 20.5t-31 8q-15 0 -27.5 -5t-24 -16.5t-16 -16.5t-16.5 -20l-56 46q23 32 60 57t86 25q59 0 97.5 -33t38.5 -87q0 -31 -16.5 -57t-42 -44.5t-51.5 -34t-49 -33.5t-31 -36z" />
    <glyph glyph-name="uni00B3" unicode="&#xb3;" horiz-adv-x="375" 
d="M199 582q55 1 94 -29t38 -83q0 -36 -18.5 -62.5t-53 -41.5t-81.5 -16q-79 0 -145 54l41 57q46 -44 98 -44q33 0 52.5 14.5t21.5 37.5q3 39 -34 56q-34 16 -87 -3l-26 46l104 106h-146v66h259v-37z" />
    <glyph glyph-name="acute" unicode="&#xb4;" horiz-adv-x="305" 
d="M182 566q-34 -36 -55 -46t-47 -10h-36l128 155l89 -15z" />
    <glyph glyph-name="uni00B5" unicode="&#xb5;" horiz-adv-x="542" 
d="M377 454h97v-454h-85l-11 53q-52 -65 -132 -65q-44 0 -87 28l-10 -206h-81v644h97v-259q0 -58 25 -91t75 -33q43 0 75 31.5t37 100.5v251z" />
    <glyph glyph-name="paragraph" unicode="&#xb6;" horiz-adv-x="501" 
d="M418 640v-790h-64v731h-86v-731h-64v436h-6q-68 0 -111.5 50t-43.5 126q0 77 43.5 127.5t111.5 50.5h220z" />
    <glyph glyph-name="periodcentered" unicode="&#xb7;" horiz-adv-x="231" 
d="M116 214q-26 0 -44.5 18t-18.5 43.5t18.5 43.5t44.5 18q17 0 31.5 -8t22.5 -22.5t8 -31.5q0 -25 -18 -43t-44 -18z" />
    <glyph glyph-name="cedilla" unicode="&#xb8;" horiz-adv-x="333" 
d="M202 -41q28 -4 48 -23t20 -52q0 -35 -31 -57.5t-84 -23.5q-29 -1 -54.5 4.5t-36.5 11.5l-11 6l23 45q28 -16 69 -17q27 -1 40 10t12 26q-1 23 -29 28t-51 -8l-30 25l64 88l45 -3v-13l-43 -54q2 1 5.5 2.5t16 4t27.5 0.5z" />
    <glyph glyph-name="uni00B9" unicode="&#xb9;" horiz-adv-x="252" 
d="M136 740h72v-380h-80v294l-82 -50l-33 60z" />
    <glyph glyph-name="ordmasculine" unicode="&#xba;" horiz-adv-x="419" 
d="M209.5 312q-77.5 0 -127 49.5t-49.5 122.5q0 47 22 85.5t62.5 62t92 23.5t92 -23.5t62.5 -62t22 -85.5q0 -73 -49.5 -122.5t-127 -49.5zM209 383q28 0 49 14t32 36.5t11 50.5q0 42 -25.5 70.5t-66.5 28.5t-66 -28.5t-25 -70.5t25.5 -71.5t65.5 -29.5zM40 197v64h339v-64
h-339z" />
    <glyph glyph-name="guillemotright" unicode="&#xbb;" horiz-adv-x="465" 
d="M126 420l148 -178l-148 -178h-93l149 178l-149 178h93zM284 420l147 -178l-147 -178h-93l149 178l-149 178h93z" />
    <glyph glyph-name="questiondown" unicode="&#xbf;" horiz-adv-x="491" 
d="M275 467q26 0 44 -18t18 -43q0 -17 -8.5 -31.5t-22.5 -22.5t-31 -8q-26 0 -44.5 18t-18.5 43.5t18.5 43.5t44.5 18zM321 280v-168q-73 2 -120.5 -28t-46.5 -89q1 -48 33.5 -78.5t82.5 -30.5q78 0 124 65l67 -53q-74 -95 -195 -95q-91 0 -151.5 49.5t-61.5 132.5
q-1 44 15.5 79.5t43.5 57.5t55.5 34.5t59.5 17.5v106h94z" />
    <glyph glyph-name="Agrave" unicode="&#xc0;" horiz-adv-x="615" 
d="M369 690q-25 0 -46 10t-55 46l-80 84l90 15l128 -155h-37zM502 0l-63 170l-264 -1l-62 -169h-110l253 640h103l253 -640h-110zM202 242h211l-106 285z" />
    <glyph glyph-name="Aacute" unicode="&#xc1;" horiz-adv-x="615" 
d="M365 746q-34 -36 -55 -46t-47 -10h-36l128 155l89 -15zM502 0l-63 170l-264 -1l-62 -169h-110l253 640h103l253 -640h-110zM202 242h211l-106 285z" />
    <glyph glyph-name="Acircumflex" unicode="&#xc2;" horiz-adv-x="615" 
d="M266 714q-14 -14 -24 -19t-27 -5h-59l109 118h84l109 -118h-59q-17 0 -27 5t-24 19l-41 41zM502 0l-63 170l-264 -1l-62 -169h-110l253 640h103l253 -640h-110zM202 242h211l-106 285z" />
    <glyph glyph-name="Atilde" unicode="&#xc3;" horiz-adv-x="615" 
d="M256 735q-31 0 -53 -38l-50 33q1 1 5.5 8t6.5 9.5t7 9.5t8.5 10t9.5 8.5t12 8t13 6t15.5 4.5t17.5 1q29 0 63 -21.5t52 -21.5q28 0 46 39l53 -29q-6 -13 -11.5 -21.5t-17.5 -21.5t-29 -20t-37 -7q-28 0 -60 21.5t-51 21.5zM502 0l-63 170l-264 -1l-62 -169h-110l253 640
h103l253 -640h-110zM202 242h211l-106 285z" />
    <glyph glyph-name="Adieresis" unicode="&#xc4;" horiz-adv-x="615" 
d="M214 701q-22 0 -37 15.5t-15 38.5q0 15 6.5 27t19 19t26.5 7q22 0 38 -15.5t16 -37.5t-16 -38t-38 -16zM400 701q-22 0 -37.5 15.5t-15.5 38.5q0 22 15.5 37.5t37.5 15.5t37.5 -15.5t15.5 -37.5t-15.5 -38t-37.5 -16zM502 0l-63 170l-264 -1l-62 -169h-110l253 640h103
l253 -640h-110zM202 242h211l-106 285z" />
    <glyph glyph-name="Aring" unicode="&#xc5;" horiz-adv-x="615" 
d="M307 670q-47 0 -80 32t-33 77.5t33 77.5t80.5 32t80.5 -32t33 -78q0 -22 -9 -42t-24 -35t-36 -23.5t-45 -8.5zM307 832q-23 0 -39 -15.5t-16 -37.5t16 -37.5t39.5 -15.5t39.5 15.5t16 37.5q0 15 -7.5 27t-20 19t-28.5 7zM502 0l-63 170l-264 -1l-62 -169h-110l253 640
h103l253 -640h-110zM202 242h211l-106 285z" />
    <glyph glyph-name="AE" unicode="&#xc6;" horiz-adv-x="796" 
d="M743 556h-363l56 -197h257v-78h-235l55 -195h230v-86h-308l-41 162h-226l-57 -162h-108l253 643h487v-87zM197 243h177l-75 293z" />
    <glyph glyph-name="Ccedilla" unicode="&#xc7;" horiz-adv-x="623" 
d="M390 -13h-1l-28 -37q1 1 5 3t16.5 4t26.5 0q29 -3 49 -22t19 -52q0 -35 -31 -58t-84 -23q-28 -1 -53.5 4.5t-36.5 11.5l-12 5l23 46q28 -17 69 -18q27 -1 40 10t13 27q-1 22 -29.5 27t-51.5 -7l-29 25l42 58q-128 17 -206 109.5t-78 220.5q0 93 41.5 169t119 121
t176.5 45q114 0 200 -61l-54 -81q-62 51 -146 51q-103 0 -167 -71t-64 -173q0 -101 64 -172t167 -71q84 0 146 51l54 -81q-86 -61 -200 -61z" />
    <glyph glyph-name="Egrave" unicode="&#xc8;" horiz-adv-x="571" 
d="M365 690q-25 0 -46 10t-55 46l-80 84l90 15l127 -155h-36zM518 554h-333v-195h283v-78h-283v-195h333v-86h-435v640h435v-86z" />
    <glyph glyph-name="Eacute" unicode="&#xc9;" horiz-adv-x="571" 
d="M360 746q-23 -25 -42 -37.5t-30.5 -15.5t-28.5 -3h-36l127 155l90 -15zM518 554h-333v-195h283v-78h-283v-195h333v-86h-435v640h435v-86z" />
    <glyph glyph-name="Ecircumflex" unicode="&#xca;" horiz-adv-x="571" 
d="M262 714q-15 -14 -24.5 -19t-27.5 -5h-58l109 118h83l109 -118h-58q-17 0 -27 5t-24 19l-41 41zM518 554h-333v-195h283v-78h-283v-195h333v-86h-435v640h435v-86z" />
    <glyph glyph-name="Edieresis" unicode="&#xcb;" horiz-adv-x="571" 
d="M210 701q-22 0 -37.5 15.5t-15.5 38.5q0 22 15.5 37.5t37.5 15.5t37.5 -15.5t15.5 -37.5t-15.5 -38t-37.5 -16zM395 701q-22 0 -37 15.5t-15 38.5q0 22 15 37.5t37 15.5t38 -15.5t16 -37.5t-16 -38t-38 -16zM518 554h-333v-195h283v-78h-283v-195h333v-86h-435v640h435
v-86z" />
    <glyph glyph-name="Igrave" unicode="&#xcc;" horiz-adv-x="268" 
d="M94 746l-79 84l90 15l127 -155h-36q-25 0 -46 10t-56 46zM185 640v-640h-102v640h102z" />
    <glyph glyph-name="Iacute" unicode="&#xcd;" horiz-adv-x="268" 
d="M191 746q-34 -36 -55 -46t-46 -10h-36l127 155l90 -15zM185 640v-640h-102v640h102z" />
    <glyph glyph-name="Icircumflex" unicode="&#xce;" horiz-adv-x="268" 
d="M175 808l109 -118h-58q-18 0 -27.5 5t-24.5 19l-40 41l-41 -41q-15 -14 -24.5 -19t-27.5 -5h-58l109 118h83zM83 0v640h102v-640h-102z" />
    <glyph glyph-name="Idieresis" unicode="&#xcf;" horiz-adv-x="268" 
d="M41 808q14 0 26.5 -7t19.5 -19.5t7 -26.5q0 -22 -15.5 -38t-37.5 -16t-37.5 15.5t-15.5 38.5q0 22 15.5 37.5t37.5 15.5zM226 808q15 0 27 -7t19.5 -19.5t7.5 -26.5q0 -22 -16 -38t-38 -16t-37 15.5t-15 38.5q0 22 15 37.5t37 15.5zM185 640v-640h-102v640h102z" />
    <glyph glyph-name="Eth" unicode="&#xd0;" horiz-adv-x="671" 
d="M273 640q82 0 148 -24.5t108.5 -68t65.5 -101.5t23 -125.5t-23 -125.5t-65.5 -101.5t-108.5 -68.5t-148 -25h-190v294h-61v56h61v290h190zM257 83q126 0 190.5 63.5t64.5 174.5q0 54 -16 97t-47 74.5t-79.5 48t-112.5 16.5h-72v-207h140v-56h-140v-211h72z" />
    <glyph glyph-name="Ntilde" unicode="&#xd1;" horiz-adv-x="701" 
d="M299 735q-31 0 -53 -38l-50 33q1 1 5.5 8t6.5 9.5t7.5 9.5t9 10t9.5 8.5t11.5 8t12.5 6t15.5 4.5t17.5 1q29 0 63 -21.5t52 -21.5q28 0 46 39l54 -29q-7 -13 -12.5 -21.5t-17.5 -21.5t-28.5 -20t-37.5 -7q-28 0 -60 21.5t-51 21.5zM519 640h99v-640h-95l-341 477v-477
h-99v640h96l340 -476v476z" />
    <glyph glyph-name="Ograve" unicode="&#xd2;" horiz-adv-x="784" 
d="M353 746l-80 84l90 15l127 -155h-36q-25 0 -46 10t-55 46zM392.5 -13q-99.5 0 -177.5 45t-120 121t-42 169q0 92 42 168t120 121t177 45q75 0 139 -26.5t107.5 -71t68 -106t24.5 -130.5q0 -93 -41.5 -169t-119.5 -121t-177.5 -45zM392 78q104 0 168.5 71t64.5 173
t-64 172.5t-168.5 70.5t-169 -70.5t-64.5 -172.5t64.5 -173t168.5 -71z" />
    <glyph glyph-name="Oacute" unicode="&#xd3;" horiz-adv-x="784" 
d="M450 746q-24 -25 -43 -37.5t-30.5 -15.5t-28.5 -3h-36l127 155l90 -15zM392.5 -13q-99.5 0 -177.5 45t-120 121t-42 169q0 92 42 168t120 121t177 45q75 0 139 -26.5t107.5 -71t68 -106t24.5 -130.5q0 -93 -41.5 -169t-119.5 -121t-177.5 -45zM392 78q104 0 168.5 71
t64.5 173t-64 172.5t-168.5 70.5t-169 -70.5t-64.5 -172.5t64.5 -173t168.5 -71z" />
    <glyph glyph-name="Ocircumflex" unicode="&#xd4;" horiz-adv-x="784" 
d="M351 714q-15 -14 -24.5 -19t-27.5 -5h-58l109 118h83l110 -118h-59q-17 0 -27 5t-24 19l-41 41zM392 656q75 0 139 -26.5t107.5 -71t68 -106t24.5 -130.5q0 -93 -41.5 -169t-119.5 -121t-177.5 -45t-177.5 45t-120 121t-42 169q0 92 42 168t120 121t177 45zM392 78
q104 0 168.5 71t64.5 173t-64 172.5t-169 70.5q-69 0 -123 -33.5t-82 -88.5t-28 -121q0 -102 64.5 -173t168.5 -71z" />
    <glyph glyph-name="Otilde" unicode="&#xd5;" horiz-adv-x="784" 
d="M452 692q-29 0 -61 21.5t-50 21.5q-31 0 -53 -38l-50 33q0 1 5 8t7 9.5t7 9.5t8.5 10t9.5 8.5t12 8t13 6t15 4.5t17 1q30 0 63.5 -21.5t52.5 -21.5q28 0 46 39l53 -29q-6 -13 -12 -21.5t-17.5 -21.5t-28.5 -20t-37 -7zM392.5 -13q-99.5 0 -177.5 45t-120 121t-42 169
q0 92 42 168t120 121t177 45q75 0 139 -26.5t107.5 -71t68 -106t24.5 -130.5q0 -93 -41.5 -169t-119.5 -121t-177.5 -45zM392 78q104 0 168.5 71t64.5 173t-64 172.5t-169 70.5q-52 0 -96.5 -19.5t-74 -53t-46 -77.5t-16.5 -93q0 -102 64.5 -173t168.5 -71z" />
    <glyph glyph-name="Odieresis" unicode="&#xd6;" horiz-adv-x="784" 
d="M299 808q22 0 37.5 -15.5t15.5 -37.5t-15.5 -38t-37.5 -16t-37.5 15.5t-15.5 38.5q0 22 15.5 37.5t37.5 15.5zM485 808q22 0 37.5 -15.5t15.5 -37.5t-15.5 -38t-37.5 -16t-37.5 15.5t-15.5 38.5q0 22 15.5 37.5t37.5 15.5zM392.5 -13q-99.5 0 -177.5 45t-120 121t-42 169
q0 92 42 168t120 121t177 45q75 0 139 -26.5t107.5 -71t68 -106t24.5 -130.5q0 -93 -41.5 -169t-119.5 -121t-177.5 -45zM392 78q104 0 168.5 71t64.5 173t-64 172.5t-169 70.5q-69 0 -123 -33.5t-82 -88.5t-28 -121q0 -102 64.5 -173t168.5 -71z" />
    <glyph glyph-name="multiply" unicode="&#xd7;" horiz-adv-x="453" 
d="M404 409l-121 -121l121 -121l-57 -56l-120 120l-121 -120l-57 56l121 121l-121 121l57 56l121 -120l120 120z" />
    <glyph glyph-name="Oslash" unicode="&#xd8;" horiz-adv-x="784" 
d="M641 555q90 -94 90 -233q0 -93 -41.5 -169t-119.5 -121t-178 -45q-119 0 -206 64l-74 -82l-43 38l74 81q-90 95 -90 234q0 92 42 168t120 121t177 45q119 0 206 -63l74 82l43 -38zM159 322q0 -92 52 -158l321 356q-59 45 -140 45q-104 0 -168.5 -70.5t-64.5 -172.5z
M392 78q104 0 168.5 71t64.5 173q0 91 -52 158l-322 -356q60 -46 141 -46z" />
    <glyph glyph-name="Ugrave" unicode="&#xd9;" horiz-adv-x="686" 
d="M304 746l-80 84l90 15l127 -155h-36q-25 0 -46 10t-55 46zM343 -13q-122 0 -193.5 64t-71.5 197v392h102v-380q0 -48 12 -83.5t34.5 -57t51.5 -31.5t65 -10q75 0 119 44t44 138v380h102v-392q0 -133 -71.5 -197t-193.5 -64z" />
    <glyph glyph-name="Uacute" unicode="&#xda;" horiz-adv-x="686" 
d="M401 746q-35 -36 -56 -46t-46 -10h-36l127 155l90 -15zM343 -13q-122 0 -193.5 64t-71.5 197v392h102v-380q0 -94 44 -138t119 -44t119 44t44 138v380h102v-392q0 -54 -12.5 -97.5t-36 -74t-56.5 -50.5t-73 -29.5t-87 -9.5z" />
    <glyph glyph-name="Ucircumflex" unicode="&#xdb;" horiz-adv-x="686" 
d="M302 714q-10 -9 -16.5 -14t-15 -7.5t-20.5 -2.5h-58l109 118h83l110 -118h-59q-17 0 -27 5t-24 19l-41 41zM506 640h102v-392q0 -133 -71.5 -197t-193.5 -64t-193.5 64t-71.5 197v392h102v-380q0 -48 12 -83.5t34.5 -57t51.5 -31.5t65 -10q75 0 119 44t44 138v380z" />
    <glyph glyph-name="Udieresis" unicode="&#xdc;" horiz-adv-x="686" 
d="M249.5 808q14.5 0 27 -7t19.5 -19.5t7 -26.5q0 -22 -15.5 -38t-37.5 -16t-37.5 15.5t-15.5 38.5q0 15 7 27t19 19t26.5 7zM436 808q14 0 26.5 -7t19.5 -19.5t7 -26.5q0 -22 -15.5 -38t-37.5 -16t-37.5 15.5t-15.5 38.5q0 22 15.5 37.5t37.5 15.5zM343 -13
q-122 0 -193.5 64t-71.5 197v392h102v-380q0 -48 12 -83.5t34.5 -57t51.5 -31.5t65 -10q75 0 119 44t44 138v380h102v-392q0 -133 -71.5 -197t-193.5 -64z" />
    <glyph glyph-name="Yacute" unicode="&#xdd;" horiz-adv-x="542" 
d="M329 746q-35 -36 -56 -46t-46 -10h-36l127 155l90 -15zM549 640l-227 -343v-297h-102v297l-227 343h118l160 -248l161 248h117z" />
    <glyph glyph-name="Thorn" unicode="&#xde;" horiz-adv-x="615" 
d="M366 526q82 0 144 -52t62 -141t-62 -140.5t-144 -51.5l-182 -1v-140h-101v639l101 1v-114h182zM330 219q66 0 101.5 29.5t35.5 84t-35.5 84.5t-101.5 30l-146 -2v-225z" />
    <glyph glyph-name="germandbls" unicode="&#xdf;" horiz-adv-x="565" 
d="M254 -4l-14 89q77 -9 123 17.5t47 89.5q1 61 -43.5 91.5t-108.5 30.5h-18v79h19q50 0 82 30t31 79q0 41 -28 65t-63 24q-49 0 -75 -39t-26 -104v-448h-97v450q0 63 17 109t47 71t65 37t77 12q76 0 128.5 -47.5t52.5 -120.5q0 -42 -16.5 -75.5t-36 -50t-41.5 -26.5
q59 -14 97.5 -57t38.5 -113q0 -105 -72.5 -155.5t-185.5 -37.5z" />
    <glyph glyph-name="agrave" unicode="&#xe0;" horiz-adv-x="494" 
d="M207 591l-79 83l89 16l128 -156h-36q-26 0 -47 10t-55 47zM186 -12q-66 0 -109.5 35t-43.5 100q0 82 74.5 125.5t214.5 19.5l12 -2v25q0 48 -27 72t-71 25q-63 0 -114 -41l-41 68q66 51 158 51q192 0 192 -194v-272h-81l-16 58q-24 -35 -64.5 -52.5t-83.5 -17.5zM218 58
q50 0 83 35t33 95v19l-12 2q-97 15 -142.5 -8t-45.5 -72q0 -33 22.5 -52t61.5 -19z" />
    <glyph glyph-name="aacute" unicode="&#xe1;" horiz-adv-x="494" 
d="M304 591q-24 -26 -42.5 -38.5t-30 -15.5t-28.5 -3h-37l128 156l90 -16zM186 -12q-66 0 -109.5 35t-43.5 100q0 82 74.5 125.5t214.5 19.5l12 -2v25q0 48 -27 72t-71 25q-63 0 -114 -41l-41 68q66 51 158 51q192 0 192 -194v-272h-81l-16 58q-24 -35 -64.5 -52.5
t-83.5 -17.5zM218 58q50 0 83 35t33 95v19l-12 2q-97 15 -142.5 -7.5t-45.5 -72.5q0 -33 22.5 -52t61.5 -19z" />
    <glyph glyph-name="acircumflex" unicode="&#xe2;" horiz-adv-x="494" 
d="M205 558q-14 -14 -24 -19t-27 -5h-59l110 118h83l109 -118h-58q-18 0 -27.5 5t-24.5 19l-41 41zM239 466q192 0 192 -194v-272h-81l-16 58q-24 -35 -64.5 -52.5t-83.5 -17.5q-66 0 -109.5 35t-43.5 100q0 82 74.5 125.5t214.5 19.5l12 -2v25q0 48 -27 72t-71 25
q-63 0 -114 -41l-41 68q66 51 158 51zM334 188v19l-12 2q-97 15 -142.5 -8t-45.5 -72q0 -33 22.5 -52t61.5 -19q50 0 83 35t33 95z" />
    <glyph glyph-name="atilde" unicode="&#xe3;" horiz-adv-x="494" 
d="M306 536q-28 0 -60 21.5t-51 21.5q-31 0 -52 -38l-51 33q1 1 6 8t6.5 9.5t7 9.5t9 10t9.5 8.5t11.5 8t13 6t15.5 4.5t17 1q29 0 63 -21.5t52 -21.5q28 0 46 39l54 -29q-7 -13 -12.5 -21t-17 -21.5t-28.5 -20.5t-38 -7zM186 -12q-66 0 -109.5 35t-43.5 100
q0 82 74.5 125.5t214.5 19.5l12 -2v25q0 48 -27 72t-71 25q-63 0 -114 -41l-41 68q66 51 158 51q192 0 192 -194v-272h-81l-16 58q-24 -35 -64.5 -52.5t-83.5 -17.5zM218 58q50 0 83 35t33 95v19l-12 2q-97 15 -142.5 -8t-45.5 -72q0 -33 22.5 -52t61.5 -19z" />
    <glyph glyph-name="adieresis" unicode="&#xe4;" horiz-adv-x="494" 
d="M153 653q22 0 38 -16t16 -38t-15.5 -38t-38 -16t-37.5 16t-15 38q0 15 7 27t19 19.5t26 7.5zM339 653q22 0 38 -16t16 -38t-16 -38t-38 -16t-37 16t-15 38t15 38t37 16zM186 -12q-66 0 -109.5 35t-43.5 100q0 82 74.5 125.5t214.5 19.5l12 -2v25q0 48 -27 72t-71 25
q-63 0 -114 -41l-41 68q66 51 158 51q192 0 192 -194v-272h-81l-16 58q-24 -35 -64.5 -52.5t-83.5 -17.5zM218 58q50 0 83 35t33 95v19l-12 2q-97 15 -142.5 -8t-45.5 -72q0 -33 22.5 -52t61.5 -19z" />
    <glyph glyph-name="aring" unicode="&#xe5;" horiz-adv-x="494" 
d="M246.5 733q47.5 0 80.5 -32t33 -77.5t-33 -77.5t-80.5 -32t-80.5 32t-33 77.5t33 77.5t80.5 32zM246.5 570q23.5 0 39.5 15.5t16 38t-16 38t-39 15.5q-12 0 -22 -4.5t-17.5 -11.5t-12 -17t-4.5 -20q0 -23 16 -38.5t39.5 -15.5zM186 -12q-66 0 -109.5 35t-43.5 100
q0 82 74.5 125.5t214.5 19.5l12 -2v25q0 48 -27 72t-71 25q-63 0 -114 -41l-41 68q66 51 158 51q192 0 192 -194v-272h-81l-16 58q-24 -35 -64.5 -52.5t-83.5 -17.5zM218 58q50 0 83 35t33 95v19l-12 2q-97 15 -142.5 -8t-45.5 -72q0 -33 22.5 -52t61.5 -19z" />
    <glyph glyph-name="ae" unicode="&#xe6;" horiz-adv-x="827" 
d="M799 237v-31h-355q5 -63 42.5 -102t99.5 -39q76 0 120 52l67 -55q-66 -75 -186 -75q-66 0 -118.5 26.5t-84.5 73.5q-35 -50 -77.5 -74.5t-109.5 -24.5q-69 0 -114 35.5t-45 100.5q0 81 68 118.5t184 33.5l49 -1v18q0 48 -25 71t-81 23q-28 0 -55 -9.5t-39 -20.5l-12 -10
l-41 68q66 51 158 51q112 0 161 -73q66 73 170 73q99 0 161.5 -64t62.5 -165zM575 390q-50 0 -84 -33.5t-44 -87.5h256q-4 37 -20.5 64t-44 42t-63.5 15zM339 190v28h-56q-84 0 -114 -23.5t-30 -62.5q0 -34 22.5 -53t61.5 -19q48 0 82 37.5t34 92.5z" />
    <glyph glyph-name="ccedilla" unicode="&#xe7;" horiz-adv-x="443" 
d="M428 39q-62 -48 -145 -52l-28 -36q2 2 5.5 3.5t16 3.5t27.5 1q28 -4 48 -23t20 -52q0 -35 -31 -58t-84 -23q-28 -1 -53.5 4.5t-37.5 11.5l-11 6l23 45q28 -17 69 -18q27 -1 40 10.5t12 26.5q0 22 -28.5 27.5t-51.5 -7.5l-30 25l41 56q-88 14 -142.5 80t-54.5 157
q0 102 67 170.5t171 68.5q91 0 157 -51l-56 -70q-40 38 -99 38q-43 0 -75 -20.5t-49 -56t-17 -79.5q0 -69 38.5 -113t102.5 -44q59 0 99 38z" />
    <glyph glyph-name="egrave" unicode="&#xe8;" horiz-adv-x="523" 
d="M328 534q-25 0 -46 10t-55 47l-80 83l90 16l128 -156h-37zM490 237v-31h-355q3 -41 20.5 -73t49 -50t72.5 -18q76 0 120 52l67 -55q-66 -75 -186 -75q-110 0 -177.5 68.5t-67.5 171.5q0 101 66 170t167 69q66 0 117 -29t79 -81.5t28 -118.5zM266 390q-50 0 -84 -33.5
t-44 -87.5h256q-2 22 -9 41t-18.5 33.5t-26 25t-33.5 16t-41 5.5z" />
    <glyph glyph-name="eacute" unicode="&#xe9;" horiz-adv-x="523" 
d="M324 591q-24 -26 -42.5 -38.5t-30.5 -15.5t-28 -3h-37l128 156l90 -16zM490 237v-31h-355q3 -41 20.5 -73t49 -50t72.5 -18q76 0 120 52l67 -55q-66 -75 -186 -75q-110 0 -177.5 68.5t-67.5 171.5q0 101 66 170t167 69q66 0 117 -29t79 -81.5t28 -118.5zM266 390
q-50 0 -84 -33.5t-44 -87.5h256q-2 22 -9 41t-18.5 33.5t-26 25t-33.5 16t-41 5.5z" />
    <glyph glyph-name="ecircumflex" unicode="&#xea;" horiz-adv-x="523" 
d="M225 558q-14 -14 -24 -18.5t-27 -4.5h-59l109 117h84l109 -117h-58q-18 0 -28 4.5t-24 18.5l-41 41zM490 237v-31h-355q3 -41 20.5 -73t49 -50t72.5 -18q76 0 120 52l67 -55q-66 -75 -186 -75q-110 0 -177.5 68.5t-67.5 171.5q0 101 66 170t167 69q66 0 117 -29t79 -81.5
t28 -118.5zM266 390q-50 0 -84 -33.5t-44 -87.5h256q-2 22 -9 41t-18.5 33.5t-26 25t-33.5 16t-41 5.5z" />
    <glyph glyph-name="edieresis" unicode="&#xeb;" horiz-adv-x="523" 
d="M173 545q-22 0 -37 16t-15 38t15 38t37 16q11 0 21 -4.5t17 -11.5t11.5 -17t4.5 -21q0 -22 -16 -38t-38 -16zM359 545q-22 0 -37.5 16t-15.5 38t15.5 38t37.5 16q14 0 26.5 -7.5t19.5 -19.5t7 -27q0 -22 -15.5 -38t-37.5 -16zM490 237v-31h-355q3 -41 20.5 -73t49 -50
t72.5 -18q76 0 120 52l67 -55q-66 -75 -186 -75q-73 0 -129 32t-86 86.5t-30 121.5q0 101 66 170t167 69q66 0 117 -29t79 -81.5t28 -118.5zM266 390q-50 0 -84 -33.5t-44 -87.5h256q-6 56 -40 88.5t-88 32.5z" />
    <glyph glyph-name="igrave" unicode="&#xec;" horiz-adv-x="231" 
d="M76 591l-80 83l90 16l128 -156h-37q-25 0 -46 10t-55 47zM68 0v454h95v-454h-95z" />
    <glyph glyph-name="iacute" unicode="&#xed;" horiz-adv-x="231" 
d="M173 591q-24 -26 -42.5 -38.5t-30.5 -15.5t-29 -3h-36l128 156l89 -16zM68 0v454h95v-454h-95z" />
    <glyph glyph-name="icircumflex" unicode="&#xee;" horiz-adv-x="231" 
d="M157 652l109 -118h-59q-17 0 -27 5t-24 19l-41 41l-41 -41q-14 -14 -24 -19t-27 -5h-59l109 118h84zM68 0v454h95v-454h-95z" />
    <glyph glyph-name="idieresis" unicode="&#xef;" horiz-adv-x="231" 
d="M22 653q15 0 27 -7.5t19.5 -19.5t7.5 -27q0 -22 -16 -38t-38 -16t-37 16t-15 38t15 38t37 16zM208 653q14 0 26.5 -7.5t19.5 -19.5t7 -27q0 -22 -15.5 -38t-37.5 -16t-37.5 16t-15.5 38t15.5 38t37.5 16zM68 0v454h95v-454h-95z" />
    <glyph glyph-name="eth" unicode="&#xf0;" horiz-adv-x="541" 
d="M325 574q95 -100 139 -184.5t44 -169.5q0 -99 -66.5 -165.5t-170.5 -66.5t-171 66.5t-67 165.5q0 96 62.5 162.5t162.5 68.5q36 1 62 -9q-31 38 -84 91l-101 -47l-46 47l100 46q-27 26 -61 57l84 47q36 -33 67 -63l94 43l52 -42zM271 70q63 0 101 42.5t38 107.5
t-38 107.5t-101 42.5q-32 0 -58.5 -11.5t-44 -31.5t-27.5 -47.5t-10 -59.5q0 -65 38.5 -107.5t101.5 -42.5z" />
    <glyph glyph-name="ntilde" unicode="&#xf1;" 
d="M220 579q-31 0 -53 -38l-50 33q1 2 4 6q11 17 19 27t28 21t43 11q30 0 63.5 -21.5t52.5 -21.5q28 0 46 39l53 -29q-6 -13 -12 -21t-17.5 -21.5t-28.5 -20.5t-37 -7q-29 0 -61 21.5t-50 21.5zM304 466q32 0 60.5 -9.5t54 -30t40.5 -58t15 -87.5v-281h-97v260
q0 57 -24.5 90t-75.5 33q-43 0 -75 -31.5t-37 -100.5v-251h-97v454h85l11 -53q52 65 140 65z" />
    <glyph glyph-name="ograve" unicode="&#xf2;" horiz-adv-x="552" 
d="M237 591l-80 83l90 16l128 -156h-37q-17 0 -28.5 3t-30.5 15.5t-42 38.5zM276 -13q-70 0 -126 32t-86.5 86.5t-30.5 121.5q0 102 68.5 170.5t175 68.5t174.5 -68.5t68 -170.5t-68 -171t-175 -69zM276 70q62 0 102.5 45t40.5 112t-40.5 111.5t-102.5 44.5q-31 0 -57.5 -12
t-45 -33t-29 -49.5t-10.5 -61.5q0 -44 18 -80t50.5 -56.5t73.5 -20.5z" />
    <glyph glyph-name="oacute" unicode="&#xf3;" horiz-adv-x="552" 
d="M334 591q-34 -37 -55 -47t-47 -10h-36l127 156l90 -16zM276.5 -13q-70.5 0 -126.5 32t-86.5 86.5t-30.5 121.5q0 102 68.5 170.5t175 68.5t174.5 -68.5t68 -170.5q0 -67 -30.5 -121.5t-86 -86.5t-126 -32zM276 70q62 0 102.5 45t40.5 112t-40.5 111.5t-102.5 44.5
q-31 0 -57.5 -12t-45 -33t-29 -49.5t-10.5 -61.5q0 -67 40 -112t102 -45z" />
    <glyph glyph-name="ocircumflex" unicode="&#xf4;" horiz-adv-x="552" 
d="M235 558q-14 -14 -24 -19t-28 -5h-58l109 118h84l109 -118h-59q-12 0 -20 2.5t-14.5 7.5t-16.5 14l-41 41zM276.5 466q106.5 0 174.5 -68.5t68 -170.5q0 -67 -30.5 -121.5t-86 -86.5t-126 -32t-126.5 32t-86.5 86.5t-30.5 121.5q0 102 68.5 170.5t175 68.5zM276 70
q62 0 102.5 45t40.5 112q0 44 -18 79.5t-51 56t-74 20.5q-31 0 -57.5 -12t-45 -33t-29 -49.5t-10.5 -61.5q0 -67 40 -112t102 -45z" />
    <glyph glyph-name="otilde" unicode="&#xf5;" horiz-adv-x="552" 
d="M336 536q-28 0 -60 21.5t-51 21.5q-31 0 -53 -38l-50 33q0 1 5 8t7 9.5t7 9.5t8.5 10t9.5 8.5t12 8t13 6t15.5 4.5t17.5 1q29 0 62.5 -21.5t52.5 -21.5q28 0 46 39l53 -29q-6 -13 -11.5 -21t-17.5 -21.5t-29 -20.5t-37 -7zM276.5 -13q-70.5 0 -126.5 32t-86.5 86.5
t-30.5 121.5q0 102 68.5 170.5t175 68.5t174.5 -68.5t68 -170.5q0 -67 -30.5 -121.5t-86 -86.5t-126 -32zM276 70q62 0 102.5 45t40.5 112t-40.5 111.5t-102.5 44.5t-102 -44.5t-40 -111.5t40 -112t102 -45z" />
    <glyph glyph-name="odieresis" unicode="&#xf6;" horiz-adv-x="552" 
d="M183 653q14 0 26.5 -7.5t19.5 -19.5t7 -27q0 -22 -15.5 -38t-37.5 -16t-37 15.5t-15 38.5q0 22 15 38t37 16zM369 653q14 0 26.5 -7.5t19.5 -19.5t7 -27q0 -22 -15.5 -38t-37.5 -16t-37.5 15.5t-15.5 38.5q0 22 15.5 38t37.5 16zM276.5 -13q-70.5 0 -126.5 32t-86.5 86.5
t-30.5 121.5q0 102 68.5 170.5t175 68.5t174.5 -68.5t68 -170.5q0 -67 -30.5 -121.5t-86 -86.5t-126 -32zM276 70q62 0 102.5 45t40.5 112t-40.5 111.5t-102.5 44.5q-31 0 -57.5 -12t-45 -33t-29 -49.5t-10.5 -61.5q0 -67 40 -112t102 -45z" />
    <glyph glyph-name="divide" unicode="&#xf7;" horiz-adv-x="520" 
d="M260.5 390q-23.5 0 -40.5 16.5t-17 39.5t17 39.5t40.5 16.5t40 -16.5t16.5 -39.5t-16.5 -39.5t-40 -16.5zM49 247v80h422v-80h-422zM260 73q-23 0 -40 16.5t-17 39.5t17 39.5t40.5 16.5t40 -16.5t16.5 -39.5q0 -15 -7.5 -28t-20.5 -20.5t-29 -7.5z" />
    <glyph glyph-name="oslash" unicode="&#xf8;" horiz-adv-x="552" 
d="M457 392q62 -67 62 -165q0 -103 -67.5 -171.5t-175.5 -68.5q-83 0 -145 43l-52 -57l-36 31l52 58q-62 66 -62 165q0 102 67.5 170.5t175.5 68.5q84 0 145 -43l52 58l36 -32zM127 227q0 -57 27 -100l211 234q-38 28 -89 28q-67 0 -108 -46t-41 -116zM276 64q67 0 107.5 46
t40.5 117q0 56 -27 98l-210 -233q38 -28 89 -28z" />
    <glyph glyph-name="ugrave" unicode="&#xf9;" 
d="M324 534q-25 0 -46 10t-55 47l-80 83l90 16l128 -156h-37zM372 454h97v-454h-85l-11 53q-52 -65 -140 -65q-32 0 -60.5 9.5t-54 30t-40.5 58t-15 87.5v281h97v-259q0 -58 25 -91t75 -33q43 0 75 31.5t37 100.5v251z" />
    <glyph glyph-name="uacute" unicode="&#xfa;" 
d="M320 591q-34 -37 -55 -47t-47 -10h-36l127 156l90 -16zM372 454h97v-454h-85l-11 53q-52 -65 -140 -65q-32 0 -60.5 9.5t-54 30t-40.5 58t-15 87.5v281h97v-259q0 -38 10 -65t33 -43t57 -16q43 0 75 31.5t37 100.5v251z" />
    <glyph glyph-name="ucircumflex" unicode="&#xfb;" 
d="M221 558q-14 -14 -24 -18.5t-28 -4.5h-58l109 117h84l109 -117h-59q-17 0 -27 4.5t-24 18.5l-41 41zM372 454h97v-454h-85l-11 53q-52 -65 -140 -65q-32 0 -60.5 9.5t-54 30t-40.5 58t-15 87.5v281h97v-259q0 -58 25 -91t75 -33q43 0 75 31.5t37 100.5v251z" />
    <glyph glyph-name="udieresis" unicode="&#xfc;" 
d="M169 545q-22 0 -37 16t-15 38t15 38t37 16q11 0 21 -4.5t17 -11.5t11 -17t4 -21q0 -22 -15.5 -38t-37.5 -16zM355 545q-22 0 -37.5 16t-15.5 38t15.5 38t37.5 16t37.5 -16t15.5 -38t-15.5 -38t-37.5 -16zM372 454h97v-454h-85l-11 53q-52 -65 -140 -65q-32 0 -60.5 9.5
t-54 30t-40.5 58t-15 87.5v281h97v-259q0 -58 25 -91t75 -33q43 0 75 31.5t37 100.5v251z" />
    <glyph glyph-name="yacute" unicode="&#xfd;" horiz-adv-x="471" 
d="M293 591q-24 -26 -43 -38.5t-30.5 -15.5t-28.5 -3h-36l128 156l89 -16zM369 454h104l-238 -571q-39 -93 -125 -93q-9 0 -18 1t-15.5 2.5t-11 3l-7.5 2.5l-2 1l17 82q14 -9 33 -9q34 0 52 47l31 78l-191 456h103l134 -340z" />
    <glyph glyph-name="thorn" unicode="&#xfe;" horiz-adv-x="564" 
d="M317 466q91 0 151.5 -65t60.5 -174t-60.5 -174.5t-151.5 -65.5q-95 0 -152 69v-246h-97v830h97v-243q57 69 152 69zM294 69q61 0 98.5 45t37.5 113t-37.5 112.5t-98.5 44.5q-63 0 -101.5 -44.5t-38.5 -112.5t38.5 -113t101.5 -45z" />
    <glyph glyph-name="ydieresis" unicode="&#xff;" horiz-adv-x="471" 
d="M142 545q-22 0 -37 16t-15 38t15 38t37 16q11 0 21 -4.5t17 -11.5t11.5 -17t4.5 -21q0 -22 -16 -38t-38 -16zM328 545q-22 0 -37.5 16t-15.5 38t15.5 38t37.5 16q14 0 26.5 -7.5t19.5 -19.5t7 -27q0 -22 -15.5 -38t-37.5 -16zM369 454h104l-238 -571q-39 -93 -125 -93
q-15 0 -28.5 2.5t-19.5 5.5l-6 2l17 82q14 -9 33 -9q34 0 52 47l31 78l-191 456h103l134 -340z" />
    <glyph glyph-name="Amacron" unicode="&#x100;" horiz-adv-x="615" 
d="M447 778v-57h-280v57h280zM502 0l-63 170l-264 -1l-62 -169h-110l253 640h103l253 -640h-110zM202 242h211l-106 285z" />
    <glyph glyph-name="amacron" unicode="&#x101;" horiz-adv-x="494" 
d="M107 565v57h280v-57h-280zM186 -12q-66 0 -109.5 35t-43.5 100q0 82 74.5 125.5t214.5 19.5l12 -2v25q0 48 -27 72t-71 25q-63 0 -114 -41l-41 68q66 51 158 51q192 0 192 -194v-272h-81l-16 58q-24 -35 -64.5 -52.5t-83.5 -17.5zM218 58q50 0 83 35t33 95v19l-12 2
q-97 15 -142.5 -8t-45.5 -72q0 -33 22.5 -52t61.5 -19z" />
    <glyph glyph-name="Abreve" unicode="&#x102;" horiz-adv-x="615" 
d="M307 690q-45 0 -78 15t-49.5 41.5t-18.5 60.5h61q4 -25 25 -42.5t60 -17.5t60.5 17.5t24.5 42.5h61q-2 -53 -40 -85t-106 -32zM502 0l-63 170l-264 -1l-62 -169h-110l253 640h103l253 -640h-110zM202 242h211l-106 285z" />
    <glyph glyph-name="abreve" unicode="&#x103;" horiz-adv-x="494" 
d="M246.5 534q-67.5 0 -105.5 32t-40 85h61q3 -25 24.5 -42.5t60.5 -17.5t60 17.5t25 42.5h61q-2 -53 -40.5 -85t-106 -32zM186 -12q-66 0 -109.5 35t-43.5 100q0 82 74.5 125.5t214.5 19.5l12 -2v25q0 48 -27 72t-71 25q-63 0 -114 -41l-41 68q66 51 158 51q192 0 192 -194
v-272h-81l-16 58q-24 -35 -64.5 -52.5t-83.5 -17.5zM218 58q50 0 83 35t33 95v19l-12 2q-97 15 -142.5 -8t-45.5 -72q0 -33 22.5 -52t61.5 -19z" />
    <glyph glyph-name="Aogonek" unicode="&#x104;" horiz-adv-x="615" 
d="M561 -11q-60 -33 -66 -76q-5 -33 26 -41q25 -5 58 8l18 -48q-42 -28 -93.5 -20.5t-68.5 46.5q-12 26 -6 52t24.5 48.5t48.5 41.5l-63 170l-264 -1l-62 -169h-110l253 640h103l253 -640h-30zM202 241h211l-106 286z" />
    <glyph glyph-name="aogonek" unicode="&#x105;" horiz-adv-x="494" 
d="M420 -119l17 -49q-42 -28 -93 -20.5t-69 46.5q-12 27 -5.5 53.5t27 50t52.5 42.5l-15 54q-24 -35 -64.5 -52.5t-83.5 -17.5q-66 0 -109.5 35t-43.5 100q0 82 74.5 125.5t214.5 19.5l12 -2v25q0 48 -27 72t-71 25q-63 0 -114 -41l-41 68q66 51 158 51q192 0 192 -194v-272
h-9l-20 -11q-61 -33 -67 -76q-5 -33 27 -41q24 -5 58 9zM334 188v19l-12 2q-97 15 -142.5 -8t-45.5 -72q0 -33 22.5 -52t61.5 -19q50 0 83 35t33 95z" />
    <glyph glyph-name="Cacute" unicode="&#x106;" horiz-adv-x="623" 
d="M433 746q-35 -36 -56 -46t-46 -10h-36l127 155l90 -15zM390 -13q-99 0 -176.5 45t-119 121t-41.5 168.5t41.5 168.5t119 121t176.5 45q114 0 200 -61l-54 -81q-62 51 -146 51q-103 0 -167 -71t-64 -173q0 -101 64 -172t167 -71q84 0 146 51l54 -81q-86 -61 -200 -61z" />
    <glyph glyph-name="cacute" unicode="&#x107;" horiz-adv-x="443" 
d="M322 591q-34 -37 -55 -47t-47 -10h-36l128 156l89 -16zM271 -13q-104 0 -171 69t-67 171t67 170.5t171 68.5q91 0 157 -51l-56 -70q-40 38 -99 38q-43 0 -75 -20.5t-49 -56t-17 -79.5q0 -69 38.5 -113t102.5 -44q59 0 99 38l56 -69q-66 -52 -157 -52z" />
    <glyph glyph-name="Ccircumflex" unicode="&#x108;" horiz-adv-x="623" 
d="M334 714q-15 -14 -24.5 -19t-27.5 -5h-58l109 118h83l109 -118h-58q-17 0 -27 5t-24 19l-41 41zM390 78q84 0 146 51l54 -81q-86 -61 -200 -61q-99 0 -176.5 45t-119 121t-41.5 168.5t41.5 168.5t119 121t176.5 45q114 0 200 -61l-54 -81q-62 51 -146 51q-103 0 -167 -71
t-64 -173q0 -101 64 -172t167 -71z" />
    <glyph glyph-name="ccircumflex" unicode="&#x109;" horiz-adv-x="443" 
d="M223 558q-14 -14 -24 -18.5t-27 -4.5h-59l109 117h84l109 -117h-59q-17 0 -27 4.5t-24 18.5l-41 41zM273 70q59 0 99 38l56 -69q-66 -52 -157 -52q-104 0 -171 69t-67 171t67 170.5t171 68.5q91 0 157 -51l-56 -70q-40 38 -99 38q-64 0 -102.5 -44t-38.5 -112.5
t38.5 -112.5t102.5 -44z" />
    <glyph glyph-name="Cdotaccent" unicode="&#x10a;" horiz-adv-x="623" 
d="M376 701q-17 0 -31 8t-22 21.5t-8 30.5q0 24 18 41.5t43 17.5t42.5 -17.5t17.5 -42t-17.5 -42t-42.5 -17.5zM390 -13q-99 0 -176.5 45t-119 121t-41.5 168.5t41.5 168.5t119 121t176.5 45q114 0 200 -61l-54 -81q-62 51 -146 51q-103 0 -167 -71t-64 -173q0 -101 64 -172
t167 -71q84 0 146 51l54 -81q-86 -61 -200 -61z" />
    <glyph glyph-name="cdotaccent" unicode="&#x10b;" horiz-adv-x="443" 
d="M265 545q-25 0 -43 17.5t-18 42.5t18 42t43 17q16 0 30 -7.5t22 -21.5t8 -30q0 -25 -17.5 -42.5t-42.5 -17.5zM271 -13q-104 0 -171 69t-67 171t67 170.5t171 68.5q91 0 157 -51l-56 -70q-40 38 -99 38q-43 0 -75 -20.5t-49 -56t-17 -79.5q0 -69 38.5 -113t102.5 -44
q59 0 99 38l56 -69q-66 -52 -157 -52z" />
    <glyph glyph-name="Ccaron" unicode="&#x10c;" horiz-adv-x="623" 
d="M417 691h-84l-109 117h59q17 0 27 -5t24 -19l41 -40l41 40q14 14 24 19t27 5h59zM390 78q84 0 146 51l54 -81q-86 -61 -200 -61q-99 0 -176.5 45t-119 121t-41.5 168.5t41.5 168.5t119 121t176.5 45q114 0 200 -61l-54 -81q-62 51 -146 51q-103 0 -167 -71t-64 -173
q0 -101 64 -172t167 -71z" />
    <glyph glyph-name="ccaron" unicode="&#x10d;" horiz-adv-x="443" 
d="M306 535h-83l-110 117h59q17 0 27 -5t24 -19l41 -40l41 40q15 14 24.5 19t27.5 5h58zM273 70q59 0 99 38l56 -69q-66 -52 -157 -52q-104 0 -171 69t-67 171t67 170.5t171 68.5q91 0 157 -51l-56 -70q-40 38 -99 38q-43 0 -75 -20.5t-49 -56t-17 -79.5q0 -69 38.5 -113
t102.5 -44z" />
    <glyph glyph-name="Dcaron" unicode="&#x10e;" horiz-adv-x="671" 
d="M344 691h-84l-109 117h59q17 0 27 -5t24 -19l41 -40l41 40q14 14 24 19t27 5h59zM273 640q82 0 148 -24.5t108.5 -68t65.5 -101.5t23 -125.5t-23 -125.5t-65.5 -101.5t-108.5 -68.5t-148 -25h-190v640h190zM257 83q126 0 190.5 63.5t64.5 174.5q0 54 -16 97t-47 74.5
t-79.5 48t-112.5 16.5h-72v-474h72z" />
    <glyph glyph-name="dcaron" unicode="&#x10f;" horiz-adv-x="595" 
d="M608 684q27 -1 42 -22.5t14 -51.5q-1 -39 -27 -75t-75 -54l-14 36q59 28 61 74q-20 -5 -38 8t-17 37q1 22 15.5 35.5t38.5 12.5zM398 397v283h96v-680h-79l-12 63q-58 -76 -158 -76q-91 0 -151.5 65.5t-60.5 174.5t60.5 174t151.5 65q95 0 153 -69zM269 69q31 0 57 12
t44 33t28 50t10 63q0 68 -38.5 112.5t-100.5 44.5q-61 0 -99 -44.5t-38 -112.5t38 -113t99 -45z" />
    <glyph glyph-name="Dcroat" unicode="&#x110;" horiz-adv-x="671" 
d="M273 640q82 0 148 -24.5t108.5 -68t65.5 -101.5t23 -125.5t-23 -125.5t-65.5 -101.5t-108.5 -68.5t-148 -25h-190v294h-61v56h61v290h190zM257 83q126 0 190.5 63.5t64.5 174.5q0 54 -16 97t-47 74.5t-79.5 48t-112.5 16.5h-72v-207h140v-56h-140v-211h72z" />
    <glyph glyph-name="dcroat" unicode="&#x111;" horiz-adv-x="562" 
d="M552 580v-56h-59v-524h-79l-12 63q-57 -76 -158 -76q-91 0 -151.5 65.5t-60.5 174.5t60.5 174t151.5 65q96 0 153 -69v127h-149v56h149v100h96v-100h59zM268 69q41 0 73 21t49.5 56.5t17.5 80.5q0 68 -39 112.5t-101 44.5q-61 0 -99 -44.5t-38 -112.5t38 -113t99 -45z
" />
    <glyph glyph-name="Emacron" unicode="&#x112;" horiz-adv-x="571" 
d="M443 778v-57h-280v57h280zM518 554h-333v-195h283v-78h-283v-195h333v-86h-435v640h435v-86z" />
    <glyph glyph-name="emacron" unicode="&#x113;" horiz-adv-x="523" 
d="M406 622v-57h-279v57h279zM490 237v-31h-355q5 -63 42.5 -102t99.5 -39q76 0 120 52l67 -55q-66 -75 -186 -75q-73 0 -129 32t-86 86.5t-30 121.5q0 101 66 170t167 69q100 0 162 -64t62 -165zM266 390q-50 0 -84 -33.5t-44 -87.5h256q-6 56 -40 88.5t-88 32.5z" />
    <glyph glyph-name="Ebreve" unicode="&#x114;" horiz-adv-x="571" 
d="M303 690q-45 0 -78 15t-50 41.5t-18 60.5h61q3 -25 24.5 -42.5t60.5 -17.5t60.5 17.5t24.5 42.5h61q-2 -53 -40 -85t-106 -32zM518 554h-333v-195h283v-78h-283v-195h333v-86h-435v640h435v-86z" />
    <glyph glyph-name="ebreve" unicode="&#x115;" horiz-adv-x="523" 
d="M266.5 534q-67.5 0 -105.5 32t-40 85h61q3 -25 24.5 -42.5t60.5 -17.5t60 17.5t25 42.5h61q-2 -53 -40.5 -85t-106 -32zM490 237v-31h-355q3 -41 20.5 -73t49 -50t72.5 -18q76 0 120 52l67 -55q-66 -75 -186 -75q-110 0 -177.5 68.5t-67.5 171.5q0 101 66 170t167 69
q66 0 117 -29t79 -81.5t28 -118.5zM266 390q-50 0 -84 -33.5t-44 -87.5h256q-6 56 -40 88.5t-88 32.5z" />
    <glyph glyph-name="Edotaccent" unicode="&#x116;" horiz-adv-x="571" 
d="M303.5 701q-25.5 0 -43 17.5t-17.5 42t17.5 42t43 17.5t43 -17.5t17.5 -42t-17.5 -42t-43 -17.5zM518 554h-333v-195h283v-78h-283v-195h333v-86h-435v640h435v-86z" />
    <glyph glyph-name="edotaccent" unicode="&#x117;" horiz-adv-x="523" 
d="M267 545q-25 0 -42.5 17.5t-17.5 42.5t17.5 42t42.5 17q16 0 30 -7.5t22.5 -21.5t8.5 -30q0 -25 -18 -42.5t-43 -17.5zM490 237v-31h-355q5 -63 42.5 -102t99.5 -39q76 0 120 52l67 -55q-66 -75 -186 -75q-110 0 -177.5 68.5t-67.5 171.5q0 101 66 170t167 69
q66 0 117 -29t79 -81.5t28 -118.5zM266 390q-50 0 -84 -33.5t-44 -87.5h256q-6 56 -40 88.5t-88 32.5z" />
    <glyph glyph-name="Eogonek" unicode="&#x118;" horiz-adv-x="571" 
d="M514 -119l18 -49q-42 -28 -93 -20.5t-69 46.5q-17 38 2 75.5t65 66.5h-354v640h435v-86h-333v-195h283v-78h-283v-195h333v-86h-1l-21 -11q-60 -33 -66 -76q-5 -33 27 -41q23 -6 57 9z" />
    <glyph glyph-name="eogonek" unicode="&#x119;" horiz-adv-x="523" 
d="M490 237v-31h-355q3 -41 20.5 -73t49 -50t72.5 -18q76 0 120 52l67 -55q-43 -49 -113 -66l-13 -7q-60 -33 -67 -76q-4 -33 27 -41q24 -5 58 9l17 -49q-41 -28 -92.5 -20.5t-69.5 46.5q-14 36 -0.5 69t50.5 61q-68 3 -120.5 36t-80 85.5t-27.5 117.5q0 101 66 170t167 69
q66 0 117 -29t79 -81.5t28 -118.5zM266 390q-50 0 -84 -33.5t-44 -87.5h256q-6 56 -40 88.5t-88 32.5z" />
    <glyph glyph-name="Ecaron" unicode="&#x11a;" horiz-adv-x="571" 
d="M345 691h-84l-109 117h59q17 0 27 -5t24 -19l41 -40l41 40q14 14 24 19t27 5h59zM518 554h-333v-195h283v-78h-283v-195h333v-86h-435v640h435v-86z" />
    <glyph glyph-name="ecaron" unicode="&#x11b;" horiz-adv-x="523" 
d="M308 535h-83l-109 117h58q18 0 27.5 -5t24.5 -19l41 -40l40 40q15 14 24.5 19t27.5 5h58zM490 237v-31h-355q5 -63 42.5 -102t99.5 -39q76 0 120 52l67 -55q-66 -75 -186 -75q-110 0 -177.5 68.5t-67.5 171.5q0 101 66 170t167 69q66 0 117 -29t79 -81.5t28 -118.5z
M266 390q-50 0 -84 -33.5t-44 -87.5h256q-6 56 -40 88.5t-88 32.5z" />
    <glyph glyph-name="Gcircumflex" unicode="&#x11c;" horiz-adv-x="695" 
d="M352 714q-15 -14 -24.5 -19t-27.5 -5h-58l109 118h83l110 -118h-59q-17 0 -27 5t-24 19l-41 41zM379 348h263v-297q-4 -3 -10.5 -7t-29.5 -15t-49.5 -19.5t-69 -15.5t-87.5 -7q-105 0 -184 46t-119 121.5t-40 167.5q0 93 40 168t119.5 120.5t184.5 45.5q119 0 215 -59
l-49 -81q-80 50 -164 49q-109 0 -174.5 -69t-65.5 -174t64 -175t174 -71q95 0 145 29v164h-163v79z" />
    <glyph glyph-name="gcircumflex" unicode="&#x11d;" horiz-adv-x="527" 
d="M213 560q-14 -14 -24 -19t-27 -5h-59l109 117h84l109 -117h-58q-18 0 -28 5t-24 19l-41 40zM269 70q63 0 111.5 -12.5t81 -44.5t32.5 -80q0 -70 -59 -106.5t-165 -36.5q-109 0 -173 30.5t-64 94.5q0 34 19 63t53 45q-44 24 -44 72q0 58 61 90q-56 47 -56 118
q0 68 53.5 115.5t135.5 47.5q58 0 103 -24q15 23 40 35t48.5 11.5t45.5 -3.5l-14 -69q-21 6 -40.5 2.5t-29.5 -16.5q37 -43 37 -99q0 -69 -54 -116.5t-136 -47.5q-35 0 -66 10q-21 -6 -34 -17.5t-13 -23.5q0 -23 26 -30.5t101 -7.5zM255 393q-45 0 -71 -25.5t-26 -64.5
q0 -26 11.5 -46t33.5 -32.5t52 -12.5q45 0 71 26t26 65t-26 64.5t-71 25.5zM269 -140q127 0 127 70q0 25 -19 40t-51 20.5t-81 5.5q-28 0 -52 3q-20 -7 -34 -18t-21 -24.5t-7 -28.5q0 -68 138 -68z" />
    <glyph glyph-name="Gbreve" unicode="&#x11e;" horiz-adv-x="695" 
d="M393 690q-45 0 -78 15t-50 41.5t-18 60.5h61q4 -25 25 -42.5t60 -17.5t60.5 17.5t24.5 42.5h61q-2 -53 -40 -85t-106 -32zM379 348h263v-297q-4 -3 -10.5 -7t-29.5 -15t-49.5 -19.5t-69 -15.5t-87.5 -7q-105 0 -184 46t-119 121.5t-40 167.5q0 93 40 168t119.5 120.5
t184.5 45.5q119 0 215 -59l-49 -81q-79 50 -164 49q-109 0 -174.5 -69t-65.5 -174t64 -175t174 -71q95 0 145 29v164h-163v79z" />
    <glyph glyph-name="gbreve" unicode="&#x11f;" horiz-adv-x="527" 
d="M255 536q-68 0 -106 32t-40 85h61q2 -16 11 -29.5t28 -22.5t46 -9q39 0 60 17.5t25 43.5h61q-1 -26 -11 -47.5t-28.5 -37t-45.5 -24t-61 -8.5zM269 70q63 0 111.5 -12.5t81 -44.5t32.5 -80q0 -70 -59 -106.5t-165 -36.5q-109 0 -173 30.5t-64 94.5q0 34 19 63t53 45
q-44 24 -44 72q0 58 61 90q-57 47 -57 118q0 68 54 115.5t136 47.5q58 0 103 -24q15 23 40 35t48.5 11.5t45.5 -3.5l-14 -69q-21 6 -40.5 2.5t-29.5 -16.5q37 -43 37 -99q0 -69 -54 -116.5t-136 -47.5q-35 0 -66 10q-21 -6 -34 -17.5t-13 -23.5q0 -23 26 -30.5t101 -7.5z
M255 393q-45 0 -71 -25.5t-26 -64.5q0 -26 11.5 -46t33.5 -32.5t52 -12.5q45 0 71 26t26 65t-26 64.5t-71 25.5zM269 -140q127 0 127 70q0 25 -19 40t-51 20.5t-81 5.5q-28 0 -52 3q-30 -10 -46 -29t-16 -42q0 -68 138 -68z" />
    <glyph glyph-name="Gdotaccent" unicode="&#x120;" horiz-adv-x="695" 
d="M394 701q-17 0 -31 8t-22 21.5t-8 30.5q0 24 18 41.5t43 17.5q12 0 23 -4.5t19.5 -12.5t13 -19t4.5 -23q0 -25 -17.5 -42.5t-42.5 -17.5zM379 348h263v-297q-4 -3 -10.5 -7t-29.5 -15t-49.5 -19.5t-69 -15.5t-87.5 -7q-105 0 -184 46t-119 121.5t-40 167.5q0 93 40 168
t119.5 120.5t184.5 45.5q119 0 215 -59l-49 -81q-79 50 -164 49q-72 0 -127 -32t-84 -87t-29 -124q0 -105 64 -175t174 -71q95 0 145 29v164h-163v79z" />
    <glyph glyph-name="gdotaccent" unicode="&#x121;" horiz-adv-x="527" 
d="M255 547q-25 0 -42.5 17.5t-17.5 42t17.5 42t42.5 17.5t43 -17.5t18 -42t-18 -42t-43 -17.5zM269 70q63 0 111.5 -12.5t81 -44.5t32.5 -80q0 -70 -59 -106.5t-165 -36.5q-109 0 -173 30.5t-64 94.5q0 34 19 63t53 45q-44 24 -44 72q0 58 61 90q-57 47 -57 118
q0 68 54 115.5t136 47.5q58 0 103 -24q15 23 40 35t48.5 11.5t45.5 -3.5l-14 -69q-21 6 -40.5 2.5t-29.5 -16.5q37 -43 37 -99q0 -69 -54 -116.5t-136 -47.5q-35 0 -66 10q-21 -6 -34 -17.5t-13 -23.5q0 -23 26 -30.5t101 -7.5zM255 393q-45 0 -71 -25.5t-26 -64.5
q0 -26 11.5 -46t33.5 -32.5t52 -12.5q45 0 71 26t26 65t-26 64.5t-71 25.5zM269 -140q127 0 127 70q0 25 -19 40t-51 20.5t-81 5.5q-28 0 -52 3q-30 -10 -46 -29t-16 -42q0 -68 138 -68z" />
    <glyph glyph-name="Gcommaaccent" unicode="&#x122;" horiz-adv-x="695" 
d="M379 348h263v-297q-4 -3 -10.5 -7t-29.5 -15t-49.5 -19.5t-69 -15.5t-87.5 -7q-105 0 -184 46t-119 121.5t-40 167.5q0 93 40 168t119.5 120.5t184.5 45.5q119 0 215 -59l-49 -81q-79 50 -164 49q-72 0 -127 -32t-84 -87t-29 -124q0 -105 64 -175t174 -71q95 0 145 29
v164h-163v79zM394 -60q27 -1 42 -22.5t14 -50.5q-1 -26 -11.5 -49.5t-34 -45.5t-56.5 -34l-14 35q59 29 61 75q-20 -6 -38 7t-17 37q1 22 15.5 35.5t38.5 12.5z" />
    <glyph glyph-name="gcommaaccent" unicode="&#x123;" horiz-adv-x="527" 
d="M250 551q-26 2 -41.5 23t-14.5 51q2 40 27.5 75.5t75.5 53.5l14 -35q-60 -29 -62 -75q21 6 38.5 -7t17.5 -37q-1 -22 -16 -35.5t-39 -13.5zM269 70q63 0 111.5 -12.5t81 -44.5t32.5 -80q0 -70 -59 -106.5t-165 -36.5q-109 0 -173 30.5t-64 94.5q0 34 19 63t53 45
q-44 24 -44 72q0 58 61 90q-57 47 -57 118q0 68 54 115.5t136 47.5q58 0 103 -24q15 23 40 35t48.5 11.5t45.5 -3.5l-14 -69q-21 6 -40.5 2.5t-29.5 -16.5q37 -43 37 -99q0 -69 -54 -116.5t-136 -47.5q-35 0 -66 10q-21 -6 -34 -17.5t-13 -23.5q0 -23 26 -30.5t101 -7.5z
M255 393q-45 0 -71 -25.5t-26 -64.5q0 -26 11.5 -46t33.5 -32.5t52 -12.5q45 0 71 26t26 65t-26 64.5t-71 25.5zM269 -140q127 0 127 70q0 25 -19 40t-51 20.5t-81 5.5q-28 0 -52 3q-30 -10 -46 -29t-16 -42q0 -68 138 -68z" />
    <glyph glyph-name="Hcircumflex" unicode="&#x124;" horiz-adv-x="697" 
d="M307 714q-14 -14 -24 -19t-27 -5h-59l109 118h84l109 -118h-59q-17 0 -27 5t-24 19l-41 41zM512 640h102v-640h-102v288h-327v-288h-102v640h102v-269h327v269z" />
    <glyph glyph-name="hcircumflex" unicode="&#x125;" 
d="M114 775l-41 -41q-14 -14 -24 -19t-27 -5h-59l110 118h83l109 -118h-58q-18 0 -27.5 5t-24.5 19zM305 466q32 0 60.5 -9.5t54 -30t40.5 -58t15 -87.5v-281h-97v260q0 57 -24.5 90t-75.5 33q-47 0 -80 -37.5t-33 -120.5v-225h-97v680h97v-280q51 66 140 66z" />
    <glyph glyph-name="Hbar" unicode="&#x126;" horiz-adv-x="667" 
d="M512 640h102v-640h-102v288h-327v-288h-102v640h102v-117h327v117zM185 371h327v93h-327v-93z" />
    <glyph glyph-name="hbar" unicode="&#x127;" 
d="M305 466q32 0 60.5 -9.5t54 -30t40.5 -58t15 -87.5v-281h-97v260q0 57 -24.5 90t-75.5 33q-47 0 -80 -37.5t-33 -120.5v-225h-97v524h-93v56h93v100h97v-100h113v-56h-113v-124q51 66 140 66z" />
    <glyph glyph-name="Itilde" unicode="&#x128;" horiz-adv-x="268" 
d="M194 692q-29 0 -61 21.5t-50 21.5q-31 0 -53 -38l-50 33q0 1 5 8t6.5 9.5t7 9.5t9 10t9.5 8.5t11.5 8t13 6t15.5 4.5t17 1q29 0 63 -21.5t52 -21.5q28 0 47 39l53 -29q-7 -13 -12.5 -21.5t-17 -21.5t-28.5 -20t-37 -7zM185 640v-640h-102v640h102z" />
    <glyph glyph-name="itilde" unicode="&#x129;" horiz-adv-x="231" 
d="M175 536q-28 0 -60 21.5t-51 21.5q-31 0 -53 -38l-50 33q1 1 5.5 8t6.5 9.5t7 9.5t9 10t10 8.5t11.5 8t12.5 6t15.5 4.5t17.5 1q29 0 63 -21.5t52 -21.5q28 0 46 39l54 -29q-7 -13 -12.5 -21t-17.5 -21.5t-28.5 -20.5t-37.5 -7zM68 0v454h95v-454h-95z" />
    <glyph glyph-name="Imacron" unicode="&#x12a;" horiz-adv-x="268" 
d="M-6 721v57h280v-57h-280zM185 640v-640h-102v640h102z" />
    <glyph glyph-name="imacron" unicode="&#x12b;" horiz-adv-x="231" 
d="M-24 565v57h279v-57h-279zM68 0v454h95v-454h-95z" />
    <glyph glyph-name="Ibreve" unicode="&#x12c;" horiz-adv-x="268" 
d="M134 690q-34 0 -61.5 8.5t-45.5 24t-28 37t-11 47.5h61q2 -16 11 -29t28 -22t46 -9q39 0 60.5 17.5t24.5 42.5h61q-1 -34 -18 -60.5t-50 -41.5t-78 -15zM185 640v-640h-102v640h102z" />
    <glyph glyph-name="ibreve" unicode="&#x12d;" horiz-adv-x="231" 
d="M115.5 534q-67.5 0 -106 32t-40.5 85h61q4 -25 25 -42.5t60.5 -17.5t60.5 17.5t25 42.5h61q-2 -53 -40.5 -85t-106 -32zM68 0v454h95v-454h-95z" />
    <glyph glyph-name="Iogonek" unicode="&#x12e;" horiz-adv-x="268" 
d="M183 -119l18 -49q-42 -28 -93.5 -20.5t-68.5 46.5q-17 38 2 75.5t65 66.5h-23v640h102v-640h1l-21 -11q-60 -33 -66 -76q-5 -33 27 -41q24 -5 57 9z" />
    <glyph glyph-name="iogonek" unicode="&#x12f;" horiz-adv-x="231" 
d="M116 545q-16 0 -30 8t-22.5 22t-8.5 30q0 25 18 42t43 17t42.5 -17t17.5 -42t-17.5 -42.5t-42.5 -17.5zM139 -11q-61 -33 -67 -76q-5 -33 27 -41q23 -6 57 9l18 -49q-42 -28 -93 -20.5t-69 46.5q-17 38 2.5 75.5t64.5 66.5h-11v454h95v-454h-4z" />
    <glyph glyph-name="Idotaccent" unicode="&#x130;" horiz-adv-x="268" 
d="M134 701q-16 0 -30 8t-22 21.5t-8 30.5q0 24 17.5 41.5t42.5 17.5t43 -17.5t18 -42t-18 -42t-43 -17.5zM185 640v-640h-102v640h102z" />
    <glyph glyph-name="dotlessi" unicode="&#x131;" horiz-adv-x="231" 
d="M68 0v454h95v-454h-95z" />
    <glyph glyph-name="ij" unicode="&#x133;" horiz-adv-x="443" 
d="M115 543q-26 0 -44 18t-18 43q0 13 5 24.5t13 19.5t20 13t24 5q26 0 44.5 -18t18.5 -43.5t-18.5 -43.5t-44.5 -18zM341.5 543q-25.5 0 -44 18t-18.5 43q0 13 5 24.5t13.5 19.5t20 13t24.5 5q17 0 31 -8t22.5 -22.5t8.5 -31.5q0 -25 -18.5 -43t-44 -18zM68 0v454h95v-454
h-95zM390 454v-496q0 -168 -143 -168l-36 4l7 82q9 -3 22 -3q21 0 37 16t16 60v505h97z" />
    <glyph glyph-name="Jcircumflex" unicode="&#x134;" horiz-adv-x="280" 
d="M187 798l109 -118h-58q-18 0 -28 5t-24 19l-41 41l-41 -41q-14 -14 -24 -19t-27 -5h-59l109 118h84zM95 -32v672h102v-665q0 -101 -40.5 -142t-109.5 -41q-29 0 -67 10l18 88q29 -7 45 -7q52 0 52 85z" />
    <glyph glyph-name="jcircumflex" unicode="&#x135;" horiz-adv-x="222" 
d="M162 642l109 -118h-58q-18 0 -27.5 5t-24.5 19l-41 41l-41 -41q-14 -14 -24 -19t-27 -5h-59l109 118h84zM72 -51v505h97v-496q0 -168 -143 -168l-36 4l7 82q9 -3 22 -3q9 0 17 3t17 10.5t14 23.5t5 39z" />
    <glyph glyph-name="Kcommaaccent" unicode="&#x136;" horiz-adv-x="614" 
d="M327 371l279 -371h-130l-216 298l-75 -81v-217h-102v640h102v-288l261 288h129zM317 -60q27 -1 42 -22.5t14 -50.5q-1 -26 -11.5 -49.5t-34 -45.5t-56.5 -34l-14 35q59 29 61 75q-20 -6 -38 7t-17 37q1 22 15.5 35.5t38.5 12.5z" />
    <glyph glyph-name="kcommaaccent" unicode="&#x137;" horiz-adv-x="501" 
d="M293 276l210 -276h-125l-153 210l-60 -59v-151h-97v680h97v-407l187 181h124zM265 -60q27 -1 42.5 -22.5t13.5 -50.5q-1 -40 -27 -76t-75 -53l-14 35q59 29 62 75q-21 -6 -39 7t-17 37q1 22 16 35.5t38 12.5z" />
    <glyph glyph-name="kgreenlandic" unicode="&#x138;" horiz-adv-x="503" 
d="M380 0l-154 210l-61 -59v-151h-97v454h97v-182l189 182h124l-185 -178l212 -276h-125z" />
    <glyph glyph-name="Lacute" unicode="&#x139;" horiz-adv-x="504" 
d="M199 746q-34 -36 -55 -46t-47 -10h-36l127 155l90 -15zM185 88h295v-88h-397v640h102v-552z" />
    <glyph glyph-name="lacute" unicode="&#x13a;" horiz-adv-x="233" 
d="M174 787q-34 -36 -55 -46t-47 -10h-36l128 155l89 -15zM68 0v680h97v-680h-97z" />
    <glyph glyph-name="Lcommaaccent" unicode="&#x13b;" horiz-adv-x="504" 
d="M185 88h295v-88h-397v640h102v-552zM277 -60q27 -1 42.5 -22.5t14.5 -50.5q-2 -40 -27.5 -76t-75.5 -53l-14 35q59 29 62 75q-21 -6 -39 7t-17 37q1 22 16 35.5t38 12.5z" />
    <glyph glyph-name="lcommaaccent" unicode="&#x13c;" horiz-adv-x="233" 
d="M68 0v680h97v-680h-97zM71 -262l-14 35q59 29 62 75q-21 -6 -39 7t-17 37q1 22 16 35.5t38 12.5q27 -1 42.5 -22.5t14.5 -50.5q-2 -40 -27.5 -76t-75.5 -53z" />
    <glyph glyph-name="Lcaron" unicode="&#x13d;" horiz-adv-x="504" 
d="M265 484q59 28 62 74q-21 -5 -38.5 8t-17.5 37q1 22 16 35.5t38 12.5q27 -1 42.5 -22.5t14.5 -51.5q-1 -18 -7.5 -36.5t-18.5 -36t-31.5 -32.5t-45.5 -24zM185 88h295v-88h-397v640h102v-552z" />
    <glyph glyph-name="lcaron" unicode="&#x13e;" horiz-adv-x="233" 
d="M234 489l-14 36q59 28 61 74q-20 -5 -38 7.5t-17 36.5q1 22 15.5 36t38.5 13q27 -1 42 -22.5t14 -51.5q-1 -39 -27 -75t-75 -54zM68 0v680h97v-680h-97z" />
    <glyph glyph-name="Ldot" unicode="&#x13f;" horiz-adv-x="456" 
d="M185 88h295v-88h-397v640h102v-552zM336 317q-17 0 -30.5 8t-22 21.5t-8.5 30.5q0 24 18 41.5t43 17.5q16 0 30 -8t22 -21.5t8 -29.5q0 -25 -17.5 -42.5t-42.5 -17.5z" />
    <glyph glyph-name="ldot" unicode="&#x140;" horiz-adv-x="379" 
d="M68 0v680h97v-680h-97zM287 287q-25 0 -43 17.5t-18 42t18 42t43 17.5q16 0 30 -8t22 -21.5t8 -29.5q0 -25 -17.5 -42.5t-42.5 -17.5z" />
    <glyph glyph-name="Lslash" unicode="&#x141;" horiz-adv-x="504" 
d="M185 88h295v-88h-397v242l-64 -49v80l64 49v318h102v-239l65 50v-80l-65 -50v-233z" />
    <glyph glyph-name="lslash" unicode="&#x142;" horiz-adv-x="233" 
d="M232 465v-80l-67 -52v-333h-97v259l-67 -52v80l67 52v341h97v-267z" />
    <glyph glyph-name="Nacute" unicode="&#x143;" horiz-adv-x="701" 
d="M408 747q-34 -37 -55 -47t-46 -10h-37l128 156l90 -16zM519 640h99v-640h-95l-341 477v-477h-99v640h96l340 -476v476z" />
    <glyph glyph-name="nacute" unicode="&#x144;" 
d="M328 591q-34 -37 -55 -47t-46 -10h-36l127 156l90 -16zM304 466q32 0 60.5 -9.5t54 -30t40.5 -58t15 -87.5v-281h-97v260q0 57 -24.5 90t-75.5 33q-43 0 -75 -31.5t-37 -100.5v-251h-97v454h85l11 -53q52 65 140 65z" />
    <glyph glyph-name="Ncommaaccent" unicode="&#x145;" horiz-adv-x="701" 
d="M519 640h99v-640h-95l-341 477v-477h-99v640h96l340 -476v476zM351 -60q27 -1 42.5 -22.5t14.5 -50.5q-2 -40 -27.5 -76t-75.5 -53l-14 35q59 29 62 75q-21 -6 -39 7t-17 37q1 22 16 35.5t38 12.5z" />
    <glyph glyph-name="ncommaaccent" unicode="&#x146;" 
d="M304 466q32 0 60.5 -9.5t54 -30t40.5 -58t15 -87.5v-281h-97v260q0 57 -24.5 90t-75.5 33q-43 0 -75 -31.5t-37 -100.5v-251h-97v454h85l11 -53q52 65 140 65zM272 -60q27 -1 42 -22.5t14 -50.5q-1 -40 -27 -76t-75 -53l-14 35q59 29 61 75q-20 -6 -38 7t-17 37
q1 22 15.5 35.5t38.5 12.5z" />
    <glyph glyph-name="Ncaron" unicode="&#x147;" horiz-adv-x="701" 
d="M392 691h-83l-109 117h58q8 0 13.5 -1t10 -2.5t9 -4.5t9 -6.5t10.5 -9.5l41 -40l40 40q15 14 25 19t27 5h58zM519 640h99v-640h-95l-341 477v-477h-99v640h96l340 -476v476z" />
    <glyph glyph-name="ncaron" unicode="&#x148;" 
d="M313 535h-84l-109 117h59q17 0 27 -5t24 -19l41 -40l41 40q14 14 24 19t27 5h59zM304 466q32 0 60.5 -9.5t54 -30t40.5 -58t15 -87.5v-281h-97v260q0 57 -24.5 90t-75.5 33q-43 0 -75 -31.5t-37 -100.5v-251h-97v454h85l11 -53q52 65 140 65z" />
    <glyph glyph-name="napostrophe" unicode="&#x149;" horiz-adv-x="640" 
d="M91 656q34 -1 53.5 -28t18.5 -65q-2 -50 -34.5 -95.5t-95.5 -68.5l-18 45q75 36 78 95q-26 -7 -48.5 9.5t-21.5 46.5q1 28 20 45t48 16zM407 466q32 0 61 -9.5t54 -30t40 -58t15 -87.5v-281h-96v260q0 57 -25 90t-76 33q-43 0 -74.5 -31.5t-37.5 -100.5v-251h-97v454h85
l12 -53q51 65 139 65z" />
    <glyph glyph-name="Eng" unicode="&#x14a;" horiz-adv-x="701" 
d="M519 640h99v-640h-1v-30q0 -46 -12.5 -79.5t-32 -50.5t-43 -26.5t-47 -10.5t-43 0.5t-31.5 4.5l-13 3l12 87q2 0 6 -1t15.5 -3t22 -2t23.5 3.5t22.5 11t16 22t6.5 34.5v37l-236 336l-101 141v-477h-99v640h96l340 -476v476z" />
    <glyph glyph-name="eng" unicode="&#x14b;" 
d="M304 466q25 0 48.5 -5.5t46 -19t39 -34t26.5 -53t10 -73.5v-329q0 -78 -43 -115.5t-115 -24.5v79q61 -8 61 57v312q0 57 -24.5 90t-75.5 33q-43 0 -75 -31.5t-37 -100.5v-251h-97v454h85l11 -53q52 65 140 65z" />
    <glyph glyph-name="Omacron" unicode="&#x14c;" horiz-adv-x="784" 
d="M252 721v57h280v-57h-280zM392.5 -13q-99.5 0 -177.5 45t-120 121t-42 169q0 92 42 168t120 121t177 45q75 0 139 -26.5t107.5 -71t68 -106t24.5 -130.5q0 -93 -41.5 -169t-119.5 -121t-177.5 -45zM392 78q104 0 168.5 71t64.5 173t-64 172.5t-168.5 70.5t-169 -70.5
t-64.5 -172.5t64.5 -173t168.5 -71z" />
    <glyph glyph-name="omacron" unicode="&#x14d;" horiz-adv-x="552" 
d="M136 565v57h280v-57h-280zM276.5 -13q-70.5 0 -126.5 32t-86.5 86.5t-30.5 121.5q0 102 68.5 170.5t175 68.5t174.5 -68.5t68 -170.5q0 -67 -30.5 -121.5t-86 -86.5t-126 -32zM276 70q62 0 102.5 45t40.5 112q0 44 -18 79.5t-51 56t-74 20.5q-31 0 -57.5 -12t-45 -33
t-29 -49.5t-10.5 -61.5q0 -67 40 -112t102 -45z" />
    <glyph glyph-name="Obreve" unicode="&#x14e;" horiz-adv-x="784" 
d="M392 690q-45 0 -78 15t-50 41.5t-18 60.5h61q4 -25 25 -42.5t60 -17.5t60.5 17.5t24.5 42.5h61q-2 -53 -40 -85t-106 -32zM392.5 -13q-99.5 0 -177.5 45t-120 121t-42 169q0 92 42 168t120 121t177 45q75 0 139 -26.5t107.5 -71t68 -106t24.5 -130.5q0 -93 -41.5 -169
t-119.5 -121t-177.5 -45zM392 78q104 0 168.5 71t64.5 173t-64 172.5t-169 70.5q-69 0 -123 -33.5t-82 -88.5t-28 -121q0 -102 64.5 -173t168.5 -71z" />
    <glyph glyph-name="obreve" unicode="&#x14f;" horiz-adv-x="552" 
d="M276.5 534q-67.5 0 -106 32t-40.5 85h61q4 -25 25 -42.5t60 -17.5t60.5 17.5t24.5 42.5h61q-2 -53 -40 -85t-105.5 -32zM276.5 -13q-70.5 0 -126.5 32t-86.5 86.5t-30.5 121.5q0 102 68.5 170.5t175 68.5t174.5 -68.5t68 -170.5q0 -67 -30.5 -121.5t-86 -86.5t-126 -32z
M276 70q62 0 102.5 45t40.5 112q0 44 -18 79.5t-51 56t-74 20.5q-31 0 -57.5 -12t-45 -33t-29 -49.5t-10.5 -61.5q0 -67 40 -112t102 -45z" />
    <glyph glyph-name="Ohungarumlaut" unicode="&#x150;" horiz-adv-x="784" 
d="M378 746q-34 -36 -55 -46t-46 -10h-37l128 155l90 -15zM531 746q-18 -19 -32.5 -30.5t-26.5 -17t-21 -7t-21 -1.5h-37l128 155l90 -15zM392.5 -13q-99.5 0 -177.5 45t-120 121t-42 169q0 92 42 168t120 121t177 45q75 0 139 -26.5t107.5 -71t68 -106t24.5 -130.5
q0 -93 -41.5 -169t-119.5 -121t-177.5 -45zM392 78q104 0 168.5 71t64.5 173t-64 172.5t-168.5 70.5t-169 -70.5t-64.5 -172.5t64.5 -173t168.5 -71z" />
    <glyph glyph-name="ohungarumlaut" unicode="&#x151;" horiz-adv-x="552" 
d="M262 591q-34 -37 -55 -47t-46 -10h-37l128 156l90 -16zM415 591q-23 -26 -42 -38.5t-30.5 -15.5t-28.5 -3h-36l127 156l90 -16zM276.5 -13q-70.5 0 -126.5 32t-86.5 86.5t-30.5 121.5q0 102 68.5 170.5t175 68.5t174.5 -68.5t68 -170.5q0 -67 -30.5 -121.5t-86 -86.5
t-126 -32zM276 70q62 0 102.5 45t40.5 112q0 44 -18 79.5t-51 56t-74 20.5q-31 0 -57.5 -12t-45 -33t-29 -49.5t-10.5 -61.5q0 -44 18 -80t50.5 -56.5t73.5 -20.5z" />
    <glyph glyph-name="OE" unicode="&#x152;" horiz-adv-x="1074" 
d="M1066 554h-333v-195h283v-78h-283v-195h333v-86h-435v78q-95 -91 -239 -91q-99 0 -177 45t-120 121t-42 169q0 92 42 168t120 121t177 45q144 0 239 -91v75h435v-86zM392 78q104 0 168.5 71t64.5 173t-64 172.5t-169 70.5q-69 0 -123 -33.5t-82 -88.5t-28 -121
q0 -102 64.5 -173t168.5 -71z" />
    <glyph glyph-name="oe" unicode="&#x153;" horiz-adv-x="911" 
d="M878 237v-31h-356q5 -63 43 -102t100 -39q76 0 120 52l67 -55q-66 -75 -186 -75q-127 0 -196 90q-33 -42 -83 -66t-111 -24q-70 0 -126 32t-86.5 86.5t-30.5 121.5q0 102 68.5 170.5t174.5 68.5q61 0 111 -23.5t82 -65.5q32 42 80 65.5t105 23.5q99 0 161.5 -64
t62.5 -165zM654 390q-34 0 -61 -15.5t-44 -43t-24 -62.5h257q-7 56 -40.5 88.5t-87.5 32.5zM276 70q62 0 102.5 45t40.5 112t-40.5 111.5t-102.5 44.5t-102 -44.5t-40 -111.5t40 -112t102 -45z" />
    <glyph glyph-name="Racute" unicode="&#x154;" horiz-adv-x="646" 
d="M379 746q-34 -36 -55 -46t-47 -10h-36l128 155l89 -15zM497 221q16 -27 50.5 -105t65.5 -116h-128q-16 29 -43.5 102.5t-50.5 107.5q-48 68 -173 69q-22 1 -33 1v-280h-102v640h275q90 0 153 -48.5t63 -124.5q0 -72 -46 -116t-124 -59q65 -24 93 -71zM330 559h-145v-206
h161q59 0 90.5 26.5t31.5 74.5q0 50 -36 77.5t-102 27.5z" />
    <glyph glyph-name="racute" unicode="&#x155;" horiz-adv-x="351" 
d="M254 591q-24 -26 -43 -38.5t-30.5 -15.5t-28.5 -3h-36l127 156l90 -16zM280 466q18 0 35 -3.5t25 -7.5l8 -4l-28 -83q-21 9 -45 9q-51 0 -80.5 -40.5t-29.5 -99.5v-237h-97v454h84l13 -64q13 25 28.5 41.5t37 25.5t49.5 9z" />
    <glyph glyph-name="Rcommaaccent" unicode="&#x156;" horiz-adv-x="646" 
d="M497 221q16 -27 50.5 -105t65.5 -116h-128q-16 29 -43.5 102.5t-50.5 107.5q-48 68 -173 69q-22 1 -33 1v-280h-102v640h275q90 0 153 -48.5t63 -124.5q0 -72 -46 -116t-124 -59q65 -24 93 -71zM330 559h-145v-206h161q59 0 90.5 26.5t31.5 74.5q0 50 -36 77.5t-102 27.5
zM322 -60q27 -1 42.5 -22.5t14.5 -50.5q-2 -40 -28 -76t-75 -53l-14 35q59 29 62 75q-21 -6 -39 7t-17 37q1 22 16 35.5t38 12.5z" />
    <glyph glyph-name="rcommaaccent" unicode="&#x157;" horiz-adv-x="351" 
d="M280 466q18 0 35 -3.5t25 -7.5l8 -4l-28 -83q-21 9 -45 9q-51 0 -80.5 -40.5t-29.5 -99.5v-237h-97v454h84l13 -64q20 38 47 57t68 19zM118 -60q26 -1 41.5 -22.5t14.5 -50.5q-2 -40 -27.5 -76t-75.5 -53l-14 35q60 29 62 75q-21 -6 -38.5 7t-16.5 37q0 22 15 35.5
t39 12.5z" />
    <glyph glyph-name="Rcaron" unicode="&#x158;" horiz-adv-x="646" 
d="M363 691h-83l-109 117h58q17 0 27 -5t24 -19l41 -40l41 40q15 14 24.5 19t27.5 5h58zM497 221q16 -27 50.5 -105t65.5 -116h-128q-16 29 -43.5 102.5t-50.5 107.5q-48 68 -173 69q-22 1 -33 1v-280h-102v640h275q90 0 153 -48.5t63 -124.5q0 -72 -46 -116t-124 -59
q65 -24 93 -71zM330 559h-145v-206h161q59 0 90.5 26.5t31.5 74.5q0 50 -36 77.5t-102 27.5z" />
    <glyph glyph-name="rcaron" unicode="&#x159;" horiz-adv-x="351" 
d="M238 535h-84l-109 117h59q17 0 27 -5t24 -19l41 -40l41 40q14 14 24 19t27 5h59zM280 466q18 0 35 -3.5t25 -7.5l8 -4l-28 -83q-21 9 -45 9q-51 0 -80.5 -40.5t-29.5 -99.5v-237h-97v454h84l13 -64q20 38 47 57t68 19z" />
    <glyph glyph-name="Sacute" unicode="&#x15a;" horiz-adv-x="586" 
d="M345 746q-34 -36 -55 -46t-46 -10h-36l127 155l90 -15zM290 -13q-89 0 -150.5 24.5t-106.5 73.5l72 70q36 -43 79 -61.5t104 -18.5q57 0 97 24.5t40 69.5q0 23 -10.5 41t-32 32t-41.5 23t-52 21q-29 10 -45.5 16.5t-42.5 17.5t-41 21t-33 25t-28 30.5t-16.5 37t-6.5 45.5
q0 78 62 127.5t150 49.5q53 0 96.5 -11t72 -26.5t56.5 -39.5l-67 -68q-67 57 -148 57q-33 0 -59.5 -11t-41.5 -30.5t-15 -44.5q0 -37 38 -60.5t132 -57.5q40 -14 69 -29t56 -37t41.5 -53t14.5 -70q0 -49 -20 -86t-55 -59t-77 -32.5t-91 -10.5z" />
    <glyph glyph-name="sacute" unicode="&#x15b;" horiz-adv-x="429" 
d="M282 591q-34 -37 -55 -47t-46 -10h-37l128 156l90 -16zM28 64l64 58q45 -56 116 -56q41 0 63 15t22 41q0 21 -17.5 35t-44 21t-57 18t-57 23.5t-44 40t-17.5 65.5q0 63 47.5 102t127.5 39q32 0 63 -8t54 -21t38 -30l-55 -60q-43 41 -98 41q-19 -1 -33.5 -5t-24 -11.5
t-14.5 -18t-5 -24.5q0 -23 17.5 -39t44.5 -23.5t58 -18t58 -22.5t44.5 -38t17.5 -64q0 -62 -49 -99.5t-132 -37.5q-62 0 -111.5 21t-75.5 56z" />
    <glyph glyph-name="Scircumflex" unicode="&#x15c;" horiz-adv-x="586" 
d="M247 714q-15 -14 -24.5 -19t-27.5 -5h-58l109 118h83l109 -118h-58q-18 0 -27.5 5t-24.5 19l-41 41zM352 364q31 -11 55.5 -22t49 -28t40.5 -36t26 -45.5t10 -57.5q0 -49 -20 -86t-55 -59t-77 -32.5t-91 -10.5q-89 0 -150.5 24.5t-106.5 73.5l72 70q36 -43 79 -61.5
t104 -18.5q57 0 97 24.5t40 69.5q0 16 -5 29t-15 24t-21 19.5t-28.5 17t-31.5 14t-35 13.5q-29 10 -45.5 16.5t-42.5 17.5t-41 21t-33 25t-28 30.5t-16.5 37t-6.5 45.5q0 78 62 127.5t150 49.5q53 0 96.5 -11t72 -26.5t56.5 -39.5l-67 -68q-67 57 -148 57q-50 0 -83 -24.5
t-33 -61.5t38 -60.5t132 -57.5z" />
    <glyph glyph-name="scircumflex" unicode="&#x15d;" horiz-adv-x="429" 
d="M183 558q-10 -9 -16.5 -14t-14.5 -7.5t-20 -2.5h-59l109 118h84l109 -118h-58q-8 0 -13.5 1t-10 2.5t-9.5 4.5t-9 6.5t-10 9.5l-41 41zM156 329q0 -23 17.5 -39t44.5 -23.5t58 -18t58 -22.5t44.5 -38t17.5 -64q0 -30 -12.5 -55.5t-36 -43.5t-57.5 -28t-75 -10
q-62 0 -111.5 21t-75.5 56l64 58q45 -56 116 -56q41 0 63 15t22 41q0 21 -17.5 35t-44 21t-57 18t-57 23.5t-44 40t-17.5 65.5q0 63 47.5 102t127.5 39q48 0 89.5 -16.5t65.5 -42.5l-55 -60q-42 41 -98 41q-38 -1 -57.5 -16.5t-19.5 -42.5z" />
    <glyph glyph-name="Scedilla" unicode="&#x15e;" horiz-adv-x="586" 
d="M533 175q0 -47 -18.5 -83t-50.5 -58t-71.5 -33.5t-85.5 -13.5l-28 -35q2 1 5.5 2.5t16 4t26.5 0.5q29 -4 49 -23t20 -52q-1 -35 -31.5 -57.5t-83.5 -23.5q-29 -1 -54.5 4.5t-36.5 11.5l-11 6l23 45q28 -16 68 -17q28 -1 41 10t12 26q-1 23 -29 28t-52 -8l-29 25l39 54
q-139 9 -219 97l72 70q36 -43 79 -61.5t104 -18.5q57 0 97 24.5t40 69.5q0 23 -10.5 41t-32 32t-41.5 23t-52 21q-29 10 -45.5 16.5t-42.5 17.5t-41 21t-33 25t-28 30.5t-16.5 37t-6.5 45.5q0 78 62 127.5t150 49.5q53 0 96.5 -11t72 -26.5t56.5 -39.5l-67 -68
q-67 57 -148 57q-50 0 -83 -24.5t-33 -61.5t38 -60.5t132 -57.5q40 -14 69 -29t56 -37t41.5 -53t14.5 -70z" />
    <glyph glyph-name="scedilla" unicode="&#x15f;" horiz-adv-x="429" 
d="M396 124q0 -56 -41 -92.5t-112 -43.5l-29 -37q2 1 5.5 3t16 4t27.5 0q28 -3 48 -22t20 -52q0 -35 -31 -58t-84 -24q-29 0 -54.5 5.5t-36.5 11.5l-11 5l23 46q28 -17 68 -18q28 -1 41 10t12 26q-1 23 -29 28t-51 -7l-30 25l40 54q-53 5 -95 25t-65 51l64 58
q45 -56 116 -56q41 0 63 15t22 41q0 21 -17.5 35t-44 21t-57 18t-57 23.5t-44 40t-17.5 65.5q0 63 47.5 102t127.5 39q48 0 89.5 -16.5t65.5 -42.5l-55 -60q-42 41 -98 41q-38 -1 -57.5 -16.5t-19.5 -42.5q0 -23 17.5 -39t44.5 -23.5t58 -18t58 -22.5t44.5 -38t17.5 -64z
" />
    <glyph glyph-name="Scaron" unicode="&#x160;" horiz-adv-x="586" 
d="M330 691h-84l-109 117h58q18 0 28 -5t24 -19l41 -40l41 40q14 14 24 19t27 5h59zM352 364q31 -11 55.5 -22t49 -28t40.5 -36t26 -45.5t10 -57.5q0 -49 -20 -86t-55 -59t-77 -32.5t-91 -10.5q-89 0 -150.5 24.5t-106.5 73.5l72 70q36 -43 79 -61.5t104 -18.5q57 0 97 24.5
t40 69.5q0 23 -10.5 41t-32 32t-41.5 23t-52 21q-29 10 -45.5 16.5t-42.5 17.5t-41 21t-33 25t-28 30.5t-16.5 37t-6.5 45.5q0 78 62 127.5t150 49.5q53 0 96.5 -11t72 -26.5t56.5 -39.5l-67 -68q-67 57 -148 57q-33 0 -59.5 -11t-41.5 -30.5t-15 -44.5q0 -37 38 -60.5
t132 -57.5z" />
    <glyph glyph-name="scaron" unicode="&#x161;" horiz-adv-x="429" 
d="M266 535h-83l-109 117h58q18 0 27.5 -5t24.5 -19l40 -40l41 40q15 14 24.5 19t27.5 5h58zM156 329q0 -23 17.5 -39t44.5 -23.5t58 -18t58 -22.5t44.5 -38t17.5 -64q0 -41 -21.5 -72t-63 -48t-96.5 -17q-62 0 -111.5 21t-75.5 56l64 58q45 -56 116 -56q41 0 63 15t22 41
q0 21 -17.5 35t-44 21t-57 18t-57 23.5t-44 40t-17.5 65.5q0 63 47.5 102t127.5 39q32 0 63 -8t54 -21t38 -30l-55 -60q-43 41 -98 41q-9 -1 -16.5 -1.5t-14 -2.5t-12 -4t-10.5 -5.5t-9 -7t-6.5 -7.5t-4.5 -9t-3 -10.5t-1 -11.5z" />
    <glyph glyph-name="uni0162" unicode="&#x162;" horiz-adv-x="516" 
d="M309 0h-22l-38 -48q2 1 5.5 2.5t16 4t26.5 0.5q29 -4 49 -23t20 -52q0 -35 -31 -57.5t-84 -23.5q-29 -1 -54.5 4.5t-36.5 11.5l-11 6l23 45q28 -16 68 -17q28 -1 41 10t12 26q-1 23 -29 28t-51 -8l-30 25l48 66h-24v553h-194v87h490v-87h-194v-553z" />
    <glyph glyph-name="uni0163" unicode="&#x163;" horiz-adv-x="328" 
d="M231 -43q28 -4 48 -22.5t20 -51.5q0 -35 -31 -58t-84 -24q-28 0 -53.5 5.5t-37.5 11.5l-11 5l23 46q28 -17 69 -18q27 -1 40 10t12 26q-1 23 -29 28t-51 -7l-30 24l52 71q-64 30 -64 122v251h-60v78h60v130h97v-130h96v-78h-96l1 -242q0 -59 50 -59q12 0 22 2t14 4l4 2
l13 -79q-27 -13 -77 -13q-7 0 -13 1l-33 -42q2 1 5.5 3t16 4t27.5 0z" />
    <glyph glyph-name="Tcaron" unicode="&#x164;" horiz-adv-x="516" 
d="M300 691h-84l-109 117h59q17 0 27 -5t24 -19l41 -40l41 40q14 14 24 19t27 5h59zM503 640v-87h-194v-553h-102v553h-194v87h490z" />
    <glyph glyph-name="tcaron" unicode="&#x165;" horiz-adv-x="328" 
d="M303 682q27 -1 42.5 -22.5t14.5 -50.5q-1 -25 -11.5 -49t-34 -46t-57.5 -34l-14 35q59 29 62 75q-21 -6 -39 7t-17 37q1 22 16 35.5t38 12.5zM252 75q12 0 22 2t14 4l4 2l13 -79q-27 -13 -77 -13q-23 0 -43 6t-39 20t-30.5 42t-11.5 66v251h-60v78h60v130h97v-130h96v-78
h-96l1 -242q0 -59 50 -59z" />
    <glyph glyph-name="Tbar" unicode="&#x166;" horiz-adv-x="516" 
d="M503 553h-194v-203h101v-56h-101v-294h-102v294h-101v56h101v203h-194v87h490v-87z" />
    <glyph glyph-name="tbar" unicode="&#x167;" horiz-adv-x="328" 
d="M292 83l13 -79q-27 -13 -77 -13q-23 0 -43 6t-39 20t-30.5 42t-11.5 66v130h-49v56h49v65h-60v78h60v130h97v-130h96v-78h-96v-65h87v-56h-86v-121q0 -59 50 -59q12 0 22 2t14 4z" />
    <glyph glyph-name="Utilde" unicode="&#x168;" horiz-adv-x="686" 
d="M403 692q-29 0 -61 21.5t-50 21.5q-31 0 -53 -38l-50 33q0 1 5 8t7 9.5t7 9.5t8.5 10t9.5 8.5t12 8t13 6t15 4.5t17 1q30 0 63.5 -21.5t52.5 -21.5q28 0 46 39l53 -29q-6 -13 -12 -21.5t-17.5 -21.5t-28.5 -20t-37 -7zM343 -13q-122 0 -193.5 64t-71.5 197v392h102v-380
q0 -48 12 -83.5t34.5 -57t51.5 -31.5t65 -10q75 0 119 44t44 138v380h102v-392q0 -133 -71.5 -197t-193.5 -64z" />
    <glyph glyph-name="utilde" unicode="&#x169;" 
d="M211 579q-31 0 -53 -38l-50 33q1 1 5 7t5.5 8.5t6 8.5t7.5 9l8 8t9.5 8t11 6.5t12.5 5.5t13.5 3t16.5 1q29 0 62.5 -21.5t52.5 -21.5q28 0 46 39l53 -29q-6 -13 -11.5 -21t-17.5 -21.5t-29 -20.5t-37 -7q-28 0 -60 21.5t-51 21.5zM372 454h97v-454h-85l-11 53
q-52 -65 -140 -65q-32 0 -60.5 9.5t-54 30t-40.5 58t-15 87.5v281h97v-259q0 -58 25 -91t75 -33q43 0 75 31.5t37 100.5v251z" />
    <glyph glyph-name="Umacron" unicode="&#x16a;" horiz-adv-x="686" 
d="M203 721v57h280v-57h-280zM343 -13q-122 0 -193.5 64t-71.5 197v392h102v-380q0 -94 44 -138t119 -44t119 44t44 138v380h102v-392q0 -133 -71.5 -197t-193.5 -64z" />
    <glyph glyph-name="umacron" unicode="&#x16b;" 
d="M402 622v-57h-280v57h280zM372 454h97v-454h-85l-11 53q-52 -65 -140 -65q-32 0 -60.5 9.5t-54 30t-40.5 58t-15 87.5v281h97v-259q0 -38 10 -65t33 -43t57 -16q43 0 75 31.5t37 100.5v251z" />
    <glyph glyph-name="Ubreve" unicode="&#x16c;" horiz-adv-x="686" 
d="M343.5 690q-67.5 0 -106 32t-40.5 85h61q4 -25 25 -42.5t60 -17.5t60.5 17.5t24.5 42.5h61q-2 -53 -40 -85t-105.5 -32zM343 -13q-122 0 -193.5 64t-71.5 197v392h102v-380q0 -48 12 -83.5t34.5 -57t51.5 -31.5t65 -10q75 0 119 44t44 138v380h102v-392
q0 -133 -71.5 -197t-193.5 -64z" />
    <glyph glyph-name="ubreve" unicode="&#x16d;" 
d="M262.5 534q-67.5 0 -106 32t-40.5 85h61q4 -25 25 -42.5t60 -17.5t60.5 17.5t24.5 42.5h61q-2 -53 -40 -85t-105.5 -32zM372 454h97v-454h-85l-11 53q-52 -65 -140 -65q-32 0 -60.5 9.5t-54 30t-40.5 58t-15 87.5v281h97v-259q0 -58 25 -91t75 -33q43 0 75 31.5t37 100.5
v251z" />
    <glyph glyph-name="Uring" unicode="&#x16e;" horiz-adv-x="686" 
d="M343.5 889q47.5 0 80.5 -32t33 -78q0 -22 -9 -42t-24 -35t-36 -23.5t-45 -8.5q-47 0 -80 32t-33 77.5t33 77.5t80.5 32zM343.5 726q23.5 0 39.5 15.5t16 37.5t-16 37.5t-39.5 15.5t-39.5 -15.5t-16 -37.5t16 -37.5t39.5 -15.5zM343 -13q-122 0 -193.5 64t-71.5 197v392
h102v-380q0 -48 12 -83.5t34.5 -57t51.5 -31.5t65 -10q75 0 119 44t44 138v380h102v-392q0 -133 -71.5 -197t-193.5 -64z" />
    <glyph glyph-name="uring" unicode="&#x16f;" 
d="M262.5 514q-47.5 0 -80.5 32t-33 77.5t33 77.5t80.5 32t80.5 -32t33 -77.5t-33 -77.5t-80.5 -32zM262 677q-23 0 -39 -15.5t-16 -37.5q0 -15 7 -27t20 -19.5t28 -7.5q24 0 40 15.5t16 38.5q0 14 -7.5 26t-20 19.5t-28.5 7.5zM372 454h97v-454h-85l-11 53
q-52 -65 -140 -65q-32 0 -60.5 9.5t-54 30t-40.5 58t-15 87.5v281h97v-259q0 -58 25 -91t75 -33q43 0 75 31.5t37 100.5v251z" />
    <glyph glyph-name="Uhungarumlaut" unicode="&#x170;" horiz-adv-x="686" 
d="M329 746q-34 -36 -55 -46t-46 -10h-37l128 155l90 -15zM482 746q-23 -25 -42 -37.5t-30.5 -15.5t-28.5 -3h-37l128 155l90 -15zM343 -13q-122 0 -193.5 64t-71.5 197v392h102v-380q0 -94 44 -138t119 -44t119 44t44 138v380h102v-392q0 -133 -71.5 -197t-193.5 -64z" />
    <glyph glyph-name="uhungarumlaut" unicode="&#x171;" 
d="M248 591q-24 -26 -42.5 -38.5t-30 -15.5t-28.5 -3h-37l128 156l90 -16zM300 534h-36l127 156l90 -16l-80 -83q-34 -37 -55 -47t-46 -10zM372 203v251h97v-454h-85l-11 53q-52 -65 -140 -65q-32 0 -60.5 9.5t-54 30t-40.5 58t-15 87.5v281h97v-259q0 -38 10 -65t33 -43
t57 -16q43 0 75 31.5t37 100.5z" />
    <glyph glyph-name="Uogonek" unicode="&#x172;" horiz-adv-x="686" 
d="M506 640h102v-392q0 -109 -49 -171.5t-135 -81.5l-12 -6q-61 -33 -67 -76q-5 -33 27 -41q24 -5 57 9l18 -49q-42 -28 -93 -20.5t-69 46.5q-14 36 -0.5 68.5t49.5 60.5q-118 3 -187 67t-69 194v392h102v-380q0 -48 12 -83.5t34.5 -57t51.5 -31.5t65 -10q75 0 119 44
t44 138v380z" />
    <glyph glyph-name="uogonek" unicode="&#x173;" 
d="M457 -119l18 -49q-42 -28 -93.5 -20.5t-68.5 46.5t3 77t68 67l-11 51q-52 -65 -140 -65q-32 0 -60.5 9.5t-54 30t-40.5 58t-15 87.5v281h97v-259q0 -58 25 -91t75 -33q43 0 75 31.5t37 100.5v251h97v-454h-9l-21 -11q-60 -33 -66 -76q-5 -33 27 -41q24 -5 57 9z" />
    <glyph glyph-name="Wcircumflex" unicode="&#x174;" horiz-adv-x="910" 
d="M414 714q-15 -14 -25 -19t-27 -5h-58l109 118h83l109 -118h-58q-18 0 -27.5 5t-24.5 19l-41 41zM789 640h108l-211 -640h-86l-145 492l-145 -492h-86l-211 640h108l148 -498l143 498h85l144 -498z" />
    <glyph glyph-name="wcircumflex" unicode="&#x175;" horiz-adv-x="748" 
d="M332 558q-10 -9 -16.5 -14t-14.5 -7.5t-20 -2.5h-59l109 118h84l109 -118h-59q-17 0 -27 5t-24 19l-41 41zM626 454h104l-173 -454h-81l-102 341l-103 -341h-81l-172 454h104l111 -329l101 329h80l101 -329z" />
    <glyph glyph-name="Ycircumflex" unicode="&#x176;" horiz-adv-x="542" 
d="M230 714q-10 -9 -16.5 -14t-15 -7.5t-20.5 -2.5h-58l109 118h83l110 -118h-59q-17 0 -27 5t-24 19l-41 41zM549 640l-227 -343v-297h-102v297l-227 343h118l160 -248l161 248h117z" />
    <glyph glyph-name="ycircumflex" unicode="&#x177;" horiz-adv-x="471" 
d="M194 558q-14 -14 -24 -18.5t-27 -4.5h-59l109 117h84l109 -117h-59q-7 0 -12.5 0.5t-10.5 2t-9.5 4.5t-8.5 6.5t-10 9.5l-41 41zM369 454h104l-238 -571q-39 -93 -125 -93q-9 0 -18 1t-15.5 2.5t-11 3l-7.5 2.5l-2 1l17 82q14 -9 33 -9q34 0 52 47l31 78l-191 456h103
l134 -340z" />
    <glyph glyph-name="Ydieresis" unicode="&#x178;" horiz-adv-x="542" 
d="M178 701q-22 0 -37.5 15.5t-15.5 38.5q0 22 15.5 37.5t37.5 15.5t37.5 -15.5t15.5 -37.5t-15.5 -38t-37.5 -16zM364 701q-22 0 -37.5 15.5t-15.5 38.5q0 22 15.5 37.5t37.5 15.5t37.5 -15.5t15.5 -37.5t-15.5 -38t-37.5 -16zM549 640l-227 -343v-297h-102v297l-227 343
h118l160 -248l161 248h117z" />
    <glyph glyph-name="Zacute" unicode="&#x179;" horiz-adv-x="572" 
d="M338 746q-23 -25 -42 -37.5t-30.5 -15.5t-28.5 -3h-36l127 155l90 -15zM180 88h339v-88h-466v76l319 476h-301v88h430v-74z" />
    <glyph glyph-name="zacute" unicode="&#x17a;" horiz-adv-x="473" 
d="M294 591q-24 -26 -42.5 -38.5t-30.5 -15.5t-29 -3h-36l128 156l89 -16zM164 83h271v-83h-397v68l256 303h-241v83h364v-72z" />
    <glyph glyph-name="Zdotaccent" unicode="&#x17b;" horiz-adv-x="572" 
d="M281 701q-16 0 -30 8t-22 21.5t-8 30.5q0 24 17.5 41.5t42.5 17.5t43 -17.5t18 -42t-18 -42t-43 -17.5zM180 88h339v-88h-466v76l319 476h-301v88h430v-74z" />
    <glyph glyph-name="zdotaccent" unicode="&#x17c;" horiz-adv-x="473" 
d="M237 545q-25 0 -43 17.5t-18 42.5t18 42t43 17q16 0 30 -7.5t22.5 -21.5t8.5 -30q0 -25 -18 -42.5t-43 -17.5zM164 83h271v-83h-397v68l256 303h-241v83h364v-72z" />
    <glyph glyph-name="Zcaron" unicode="&#x17d;" horiz-adv-x="572" 
d="M323 691h-84l-109 117h58q18 0 28 -5t24 -19l41 -40l41 40q14 14 24 19t27 5h59zM180 88h339v-88h-466v76l319 476h-301v88h430v-74z" />
    <glyph glyph-name="zcaron" unicode="&#x17e;" horiz-adv-x="473" 
d="M278 535h-83l-109 117h58q17 0 27 -5t25 -19l40 -40l41 40q15 14 24.5 19t27.5 5h58zM164 83h271v-83h-397v68l256 303h-241v83h364v-72z" />
    <glyph glyph-name="uni0189" unicode="&#x189;" horiz-adv-x="671" 
d="M273 640q82 0 148 -24.5t108.5 -68t65.5 -101.5t23 -125.5t-23 -125.5t-65.5 -101.5t-108.5 -68.5t-148 -25h-190v294h-61v56h61v290h190zM257 83q126 0 190.5 63.5t64.5 174.5q0 54 -16 97t-47 74.5t-79.5 48t-112.5 16.5h-72v-207h140v-56h-140v-211h72z" />
    <glyph glyph-name="uni018F" unicode="&#x18f;" horiz-adv-x="731" 
d="M351 655q95 0 170.5 -45t116 -121t40.5 -167q0 -92 -40.5 -168t-114.5 -121t-165 -45q-137 0 -221 89.5t-84 234.5v46h519q-5 44 -22.5 81.5t-45.5 65.5t-67.5 43.5t-85.5 15.5q-108 0 -176 -79l-78 61q17 21 38 38t45.5 30t51.5 22.5t57 14t62 4.5zM358 75
q86 0 143.5 57t69.5 147h-414q6 -94 59.5 -149t141.5 -55z" />
    <glyph glyph-name="florin" unicode="&#x192;" horiz-adv-x="488" 
d="M391 572q-30 0 -46 -24t-26 -72l-15 -78h105v-74h-119l-58 -307q-16 -80 -54 -123.5t-98 -43.5q-62 0 -106 38l47 67q25 -21 53 -21q26 0 42 23t25 73l57 294h-82v74h96l19 94q5 30 15 55.5t24 45.5t31.5 34t39 21.5t46.5 7.5q65 0 121 -45l-49 -67q-32 28 -68 28z" />
    <glyph glyph-name="uni0197" unicode="&#x197;" horiz-adv-x="268" 
d="M286 403v-56h-101v-347h-102v347h-100v56h100v237h102v-237h101z" />
    <glyph glyph-name="uni019D" unicode="&#x19d;" horiz-adv-x="701" 
d="M519 640h99v-640h-95l-341 477v-507q0 -46 -12 -79.5t-31.5 -50.5t-43 -26.5t-46.5 -10.5t-42.5 0.5t-31.5 4.5l-12 3l13 87q2 0 6 -1t15 -3t21.5 -2t23 3.5t21.5 11t15 22t6 34.5v37h-1v640h96l340 -476v476z" />
    <glyph glyph-name="uni01C3" unicode="&#x1c3;" horiz-adv-x="251" 
d="M182 640l-16 -462h-80l-16 462h112zM126 -9q-26 0 -44.5 18t-18.5 44t18.5 44t44.5 18t44 -18t18 -44t-18 -44t-44 -18z" />
    <glyph glyph-name="uni01CD" unicode="&#x1cd;" horiz-adv-x="615" 
d="M349 691h-83l-110 117h59q17 0 27 -5t24 -19l41 -40l41 40q15 14 24.5 19t27.5 5h58zM502 0l-63 170l-264 -1l-62 -169h-110l253 640h103l253 -640h-110zM202 242h211l-106 285z" />
    <glyph glyph-name="uni01CE" unicode="&#x1ce;" horiz-adv-x="494" 
d="M288 535h-83l-109 117h58q18 0 27.5 -5t24.5 -19l41 -40l40 40q15 14 25 19t27 5h58zM239 466q192 0 192 -194v-272h-81l-16 58q-12 -18 -29.5 -32t-37.5 -22t-40.5 -12t-40.5 -4q-66 0 -109.5 35t-43.5 100q0 82 74.5 125.5t214.5 19.5l12 -2v25q0 48 -27 72t-71 25
q-63 0 -114 -41l-41 68q66 51 158 51zM334 188v19l-12 2q-97 15 -142.5 -7.5t-45.5 -72.5q0 -33 22.5 -52t61.5 -19q50 0 83 35t33 95z" />
    <glyph glyph-name="uni01CF" unicode="&#x1cf;" horiz-adv-x="268" 
d="M176 691h-84l-109 117h58q18 0 28 -5t24 -19l41 -40l41 40q14 14 24 19t27 5h59zM83 0v640h102v-640h-102z" />
    <glyph glyph-name="uni01D0" unicode="&#x1d0;" horiz-adv-x="231" 
d="M157 535h-83l-109 117h58q17 0 27 -5t25 -19l40 -40l41 40q15 14 24.5 19t27.5 5h58zM68 0v454h95v-454h-95z" />
    <glyph glyph-name="uni01D1" unicode="&#x1d1;" horiz-adv-x="784" 
d="M434 691h-84l-109 117h59q9 0 15.5 -1t12.5 -4t11 -7.5t12 -11.5l41 -40l41 40q14 14 24 19t27 5h59zM392 656q75 0 139 -26.5t107.5 -71t68 -106t24.5 -130.5q0 -93 -41.5 -169t-119.5 -121t-177.5 -45t-177.5 45t-120 121t-42 169q0 92 42 168t120 121t177 45zM392 78
q104 0 168.5 71t64.5 173t-64 172.5t-169 70.5q-52 0 -96.5 -19.5t-74 -53t-46 -77.5t-16.5 -93q0 -102 64.5 -173t168.5 -71z" />
    <glyph glyph-name="uni01D2" unicode="&#x1d2;" horiz-adv-x="552" 
d="M318 535h-84l-109 117h59q17 0 27 -5t24 -19l41 -40l41 40q14 14 24 19t28 5h58zM276.5 466q106.5 0 174.5 -68.5t68 -170.5q0 -67 -30.5 -121.5t-86 -86.5t-126 -32t-126.5 32t-86.5 86.5t-30.5 121.5q0 102 68.5 170.5t175 68.5zM276 70q62 0 102.5 45t40.5 112
q0 44 -18 79.5t-51 56t-74 20.5q-31 0 -57.5 -12t-45 -33t-29 -49.5t-10.5 -61.5q0 -67 40 -112t102 -45z" />
    <glyph glyph-name="uni01D3" unicode="&#x1d3;" horiz-adv-x="686" 
d="M385 691h-84l-109 117h59q17 0 27 -5t24 -19l41 -40l41 40q14 14 24 19t27 5h59zM506 640h102v-392q0 -133 -71.5 -197t-193.5 -64t-193.5 64t-71.5 197v392h102v-380q0 -48 12 -83.5t34.5 -57t51.5 -31.5t65 -10q75 0 119 44t44 138v380z" />
    <glyph glyph-name="uni01D4" unicode="&#x1d4;" 
d="M304 535h-84l-109 117h59q17 0 27 -5t24 -19l41 -40l41 40q14 14 24 19t28 5h58zM372 454h97v-454h-85l-11 53q-52 -65 -140 -65q-32 0 -60.5 9.5t-54 30t-40.5 58t-15 87.5v281h97v-259q0 -58 25 -91t75 -33q43 0 75 31.5t37 100.5v251z" />
    <glyph glyph-name="uni01D5" unicode="&#x1d5;" horiz-adv-x="686" 
d="M203 846v57h280v-57h-280zM250 798q22 0 37.5 -15.5t15.5 -37.5q0 -23 -15.5 -38.5t-37.5 -15.5t-37.5 15.5t-15.5 38.5q0 22 15.5 37.5t37.5 15.5zM435 798q15 0 27.5 -7t19.5 -19.5t7 -26.5q0 -23 -15.5 -38.5t-38 -15.5t-37.5 15.5t-15 38.5q0 22 15.5 37.5t36.5 15.5
zM343 -13q-122 0 -193.5 64t-71.5 197v392h102v-380q0 -94 44 -138t119 -44t119 44t44 138v380h102v-392q0 -133 -71.5 -197t-193.5 -64z" />
    <glyph glyph-name="uni01D6" unicode="&#x1d6;" 
d="M402 765v-57h-280v57h280zM169 545q-22 0 -37 16t-15 38t15 38t37 16q11 0 21 -4.5t17 -11.5t11 -17t4 -21q0 -22 -15.5 -38t-37.5 -16zM355 653q8 0 16.5 -3t15 -8t11.5 -11.5t7.5 -14.5t2.5 -17q0 -22 -15.5 -38t-37.5 -16t-37.5 16t-15.5 38t15.5 38t37.5 16zM372 454
h97v-454h-85l-11 53q-52 -65 -140 -65q-32 0 -60.5 9.5t-54 30t-40.5 58t-15 87.5v281h97v-259q0 -38 10 -65t33 -43t57 -16q43 0 75 31.5t37 100.5v251z" />
    <glyph glyph-name="uni01D7" unicode="&#x1d7;" horiz-adv-x="686" 
d="M295 815l99 127l85 -17l-86 -87q-22 -23 -57 -23h-41zM250 798q8 0 16.5 -2.5t15 -7.5t11.5 -11.5t7.5 -14.5t2.5 -17q0 -23 -15.5 -38.5t-37.5 -15.5t-37.5 15.5t-15.5 38.5q0 14 7 26.5t19 19.5t27 7zM435 798q15 0 27.5 -7t19.5 -19.5t7 -26.5q0 -23 -15.5 -38.5
t-38 -15.5t-37.5 15.5t-15 38.5q0 22 15.5 37.5t36.5 15.5zM343 -13q-122 0 -193.5 64t-71.5 197v392h102v-380q0 -48 12 -83.5t34.5 -57t51.5 -31.5t65 -10q75 0 119 44t44 138v380h102v-392q0 -133 -71.5 -197t-193.5 -64z" />
    <glyph glyph-name="uni01D8" unicode="&#x1d8;" 
d="M312 699q-22 -22 -57 -22h-41l99 127l85 -17zM169 545q-22 0 -37 16t-15 38q0 15 6.5 27t19 19.5t26.5 7.5q11 0 21 -4.5t17 -11.5t11 -17t4 -21q0 -22 -15.5 -38t-37.5 -16zM355 653q22 0 37.5 -16t15.5 -38t-15.5 -38t-37.5 -16t-37.5 16t-15.5 38t15.5 38t37.5 16z
M372 454h97v-454h-85l-11 53q-52 -65 -140 -65q-32 0 -60.5 9.5t-54 30t-40.5 58t-15 87.5v281h97v-259q0 -38 10 -65t33 -43t57 -16q43 0 75 31.5t37 100.5v251z" />
    <glyph glyph-name="uni01D9" unicode="&#x1d9;" horiz-adv-x="686" 
d="M385 816h-84l-109 117h59q17 0 27 -4.5t24 -19.5l41 -40l41 40q14 14 24 19t27 5h59zM250 798q22 0 37.5 -15.5t15.5 -37.5q0 -23 -15.5 -38.5t-37.5 -15.5t-37.5 15.5t-15.5 38.5q0 22 15.5 37.5t37.5 15.5zM383 745q0 22 15.5 37.5t37 15.5t37.5 -15.5t16 -37.5
q0 -23 -15.5 -38.5t-38 -15.5t-37.5 15.5t-15 38.5zM506 640h102v-392q0 -133 -71.5 -197t-193.5 -64t-193.5 64t-71.5 197v392h102v-380q0 -48 12 -83.5t34.5 -57t51.5 -31.5t65 -10q75 0 119 44t44 138v380z" />
    <glyph glyph-name="uni01DA" unicode="&#x1da;" 
d="M304 678h-84l-109 117h59q17 0 27 -5t24 -19l41 -40l41 40q14 14 24 19t28 5h58zM169 653q22 0 37.5 -16t15.5 -38t-15.5 -38t-37.5 -16t-37 16t-15 38t15 38t37 16zM302 599q0 22 15.5 38t37.5 16q8 0 16.5 -3t15 -8t11.5 -11.5t7.5 -14.5t2.5 -17q0 -22 -15.5 -38
t-37.5 -16t-37.5 16t-15.5 38zM372 454h97v-454h-85l-11 53q-52 -65 -140 -65q-32 0 -60.5 9.5t-54 30t-40.5 58t-15 87.5v281h97v-259q0 -38 10 -65t33 -43t57 -16q43 0 75 31.5t37 100.5v251z" />
    <glyph glyph-name="uni01DB" unicode="&#x1db;" horiz-adv-x="686" 
d="M388 815h-41q-35 0 -57 23l-86 87l85 17zM250 798q8 0 16.5 -2.5t15 -7.5t11.5 -11.5t7.5 -14.5t2.5 -17q0 -23 -15.5 -38.5t-37.5 -15.5t-37.5 15.5t-15.5 38.5q0 22 15.5 37.5t37.5 15.5zM435 798q15 0 27.5 -7t19.5 -19.5t7 -26.5q0 -23 -15.5 -38.5t-38 -15.5
t-37.5 15.5t-15 38.5q0 22 15.5 37.5t36.5 15.5zM343 -13q-122 0 -193.5 64t-71.5 197v392h102v-380q0 -48 12 -83.5t34.5 -57t51.5 -31.5t65 -10q75 0 119 44t44 138v380h102v-392q0 -133 -71.5 -197t-193.5 -64z" />
    <glyph glyph-name="uni01DC" unicode="&#x1dc;" 
d="M266 677q-35 0 -57 22l-86 88l85 17l99 -127h-41zM169 545q-22 0 -37 16t-15 38t15 38t37 16t37.5 -16t15.5 -38t-15.5 -38t-37.5 -16zM355 545q-22 0 -37.5 16t-15.5 38t15.5 38t37.5 16q8 0 16.5 -3t15 -8t11.5 -11.5t7.5 -14.5t2.5 -17q0 -22 -15.5 -38t-37.5 -16z
M372 454h97v-454h-85l-11 53q-52 -65 -140 -65q-32 0 -60.5 9.5t-54 30t-40.5 58t-15 87.5v281h97v-259q0 -38 10 -65t33 -43t57 -16q43 0 75 31.5t37 100.5v251z" />
    <glyph glyph-name="uni01DD" unicode="&#x1dd;" horiz-adv-x="523" 
d="M245 467q110 0 177.5 -68.5t67.5 -171.5q0 -101 -66 -170t-167 -69q-99 0 -161.5 64t-62.5 165v31h356q-6 63 -43.5 102.5t-99.5 39.5q-76 0 -120 -53l-67 55q66 75 186 75zM257 64q50 0 84 33.5t44 88.5h-256q4 -38 20.5 -65t44 -42t63.5 -15z" />
    <glyph glyph-name="uni01DE" unicode="&#x1de;" horiz-adv-x="615" 
d="M447 903v-57h-280v57h280zM214 691q-22 0 -37 15.5t-15 38.5q0 22 15 37.5t37 15.5q14 0 26.5 -7t20 -19.5t7.5 -26.5q0 -23 -16 -38.5t-38 -15.5zM400 798q8 0 16.5 -2.5t15 -7.5t11.5 -11.5t7.5 -14.5t2.5 -17q0 -23 -15.5 -38.5t-37.5 -15.5t-37.5 15.5t-15.5 38.5
q0 22 15.5 37.5t37.5 15.5zM502 0l-63 170l-264 -1l-62 -169h-110l253 640h103l253 -640h-110zM202 242h211l-106 285z" />
    <glyph glyph-name="uni01DF" unicode="&#x1df;" horiz-adv-x="494" 
d="M107 708v57h280v-57h-280zM153.5 653q21.5 0 37.5 -16t16 -38t-15.5 -38t-38 -16t-37.5 16t-15 38t15.5 38t37 16zM339 653q9 0 17 -3t14.5 -8t11.5 -11.5t8 -14.5t3 -17q0 -22 -16 -38t-38 -16t-37 16t-15 38t15 38t37 16zM186 -12q-66 0 -109.5 35t-43.5 100
q0 82 74.5 125.5t214.5 19.5l12 -2v25q0 48 -27 72t-71 25q-63 0 -114 -41l-41 68q66 51 158 51q192 0 192 -194v-272h-81l-16 58q-8 -12 -19 -22.5t-23 -18t-25 -13t-27 -9t-27.5 -5.5t-26.5 -2zM218 58q50 0 83 35t33 95v19l-12 2q-97 15 -142.5 -8t-45.5 -72
q0 -33 22.5 -52t61.5 -19z" />
    <glyph glyph-name="Gcaron" unicode="&#x1e6;" horiz-adv-x="695" 
d="M435 691h-84l-109 117h59q17 0 27 -5t24 -19l41 -40l41 40q14 14 24 19t27 5h59zM379 348h263v-297q-4 -3 -10.5 -7t-29.5 -15t-49.5 -19.5t-69 -15.5t-87.5 -7q-105 0 -184 46t-119 121.5t-40 167.5q0 93 40 168t119.5 120.5t184.5 45.5q119 0 215 -59l-49 -81
q-80 50 -164 49q-73 0 -127.5 -32t-83.5 -87t-29 -124q0 -105 64 -175t174 -71q95 0 145 29v164h-163v79z" />
    <glyph glyph-name="gcaron" unicode="&#x1e7;" horiz-adv-x="527" 
d="M296 536h-83l-109 118h58q18 0 27.5 -5t24.5 -19l41 -41l40 41q15 14 25 19t27 5h58zM269 70q63 0 111.5 -12.5t81 -44.5t32.5 -80q0 -70 -59 -106.5t-165 -36.5q-109 0 -173 30.5t-64 94.5q0 34 19 63t53 45q-44 24 -44 72q0 58 61 90q-57 47 -57 118q0 68 54 115.5
t136 47.5q58 0 103 -24q15 23 40 35t48.5 11.5t45.5 -3.5l-14 -69q-21 6 -40.5 2.5t-29.5 -16.5q37 -43 37 -99q0 -69 -54 -116.5t-136 -47.5q-35 0 -66 10q-21 -6 -34 -17.5t-13 -23.5q0 -23 26 -30.5t101 -7.5zM255 393q-45 0 -71 -25.5t-26 -64.5q0 -26 11.5 -46
t33.5 -32.5t52 -12.5q45 0 71 26t26 65t-26 64.5t-71 25.5zM269 -140q127 0 127 70q0 25 -19 40t-51 20.5t-81 5.5q-28 0 -52 3q-30 -10 -46 -29t-16 -42q0 -68 138 -68z" />
    <glyph glyph-name="uni01EA" unicode="&#x1ea;" horiz-adv-x="784" 
d="M465 -11q-61 -33 -67 -76q-5 -33 27 -41q24 -6 58 8l17 -48q-42 -28 -93 -20.5t-69 46.5q-14 36 -0.5 68.5t49.5 60.5q-74 1 -137 27.5t-105.5 71.5t-67 106t-24.5 130q0 92 42 168t120 121t177 45q75 0 139 -26.5t107.5 -71t68 -106t24.5 -130.5q0 -79 -30.5 -146
t-87.5 -114t-133 -65zM159 322q0 -102 64.5 -173t168.5 -71t168.5 71t64.5 173t-64 172.5t-169 70.5q-69 0 -123 -33.5t-82 -88.5t-28 -121z" />
    <glyph glyph-name="uni01EB" unicode="&#x1eb;" horiz-adv-x="552" 
d="M335 -9q-60 -33 -67 -76q-4 -33 27 -41q24 -5 58 9l17 -49q-41 -28 -92.5 -20.5t-69.5 46.5q-14 36 -1 68t48 60q-98 7 -160 74.5t-62 164.5q0 102 68.5 170.5t175 68.5t174.5 -68.5t68 -170.5q0 -85 -48 -148t-128 -84zM134 227q0 -67 40 -112t102 -45t102.5 45
t40.5 112t-40.5 111.5t-102.5 44.5q-31 0 -57.5 -12t-45 -33t-29 -49.5t-10.5 -61.5z" />
    <glyph glyph-name="Aringacute" unicode="&#x1fa;" horiz-adv-x="615" 
d="M357 837q-22 -22 -57 -22h-41l99 126l85 -17zM307.5 569q-47.5 0 -80.5 32t-33 77.5t33 77.5t80.5 32t80.5 -32t33 -77.5t-33 -77.5t-80.5 -32zM307.5 732q-15.5 0 -28.5 -7.5t-20 -19.5t-7 -27q0 -22 16 -37.5t39.5 -15.5t39.5 15.5t16 37.5q0 15 -7.5 27t-20 19.5
t-28 7.5zM502 0l-63 145h-264l-62 -145h-110l253 546h103l253 -546h-110zM202 206h211l-106 244z" />
    <glyph glyph-name="aringacute" unicode="&#x1fb;" horiz-adv-x="494" 
d="M199 760l99 126l84 -17l-86 -87q-22 -22 -56 -22h-41zM246.5 733q47.5 0 80.5 -32t33 -77.5t-33 -77.5t-80.5 -32t-80.5 32t-33 77.5t33 77.5t80.5 32zM246.5 570q23.5 0 39.5 15.5t16 38.5q0 14 -7 26t-20 19.5t-28.5 7.5t-28 -7.5t-20 -19.5t-7.5 -26q0 -23 16 -38.5
t39.5 -15.5zM186 -12q-66 0 -109.5 35t-43.5 100q0 82 74.5 125.5t214.5 19.5l12 -2v25q0 48 -27 72t-71 25q-63 0 -114 -41l-41 68q66 51 158 51q192 0 192 -194v-272h-81l-16 58q-24 -35 -64.5 -52.5t-83.5 -17.5zM218 58q50 0 83 35t33 95v19l-12 2q-97 15 -142.5 -7.5
t-45.5 -72.5q0 -33 22.5 -52t61.5 -19z" />
    <glyph glyph-name="AEacute" unicode="&#x1fc;" horiz-adv-x="796" 
d="M490 736q-35 -36 -56 -46t-46 -10h-36l127 155l90 -15zM743 556h-363l56 -197h257v-78h-235l55 -195h230v-86h-308l-41 162h-226l-57 -162h-108l253 643h487v-87zM197 243h177l-75 293z" />
    <glyph glyph-name="aeacute" unicode="&#x1fd;" horiz-adv-x="827" 
d="M479 591q-24 -26 -42.5 -38.5t-30 -15.5t-28.5 -3h-37l128 156l90 -16zM799 237v-31h-355q5 -63 42.5 -102t99.5 -39q76 0 120 52l67 -55q-66 -75 -186 -75q-66 0 -118.5 26.5t-84.5 73.5q-35 -50 -77.5 -74.5t-109.5 -24.5q-69 0 -114 35.5t-45 100.5q0 81 68 118.5
t184 33.5l49 -1v18q0 48 -25 71t-81 23q-28 1 -55 -9t-39 -21l-12 -10l-41 68q66 51 158 51q112 0 161 -73q66 73 170 73q99 0 161.5 -64t62.5 -165zM575 390q-50 0 -84 -33.5t-44 -87.5h256q-4 37 -20.5 64t-44 42t-63.5 15zM339 190v28h-56q-84 0 -114 -23.5t-30 -62.5
q0 -34 22.5 -53t61.5 -19q48 0 82 37.5t34 92.5z" />
    <glyph glyph-name="Oslashacute" unicode="&#x1fe;" horiz-adv-x="784" 
d="M446 746q-35 -36 -56 -46t-46 -10h-36l127 155l90 -15zM641 555q90 -94 90 -233q0 -93 -41.5 -169t-119.5 -121t-178 -45q-119 0 -206 64l-74 -82l-43 38l74 81q-90 95 -90 234q0 92 42 168t120 121t177 45q119 0 206 -63l74 82l43 -38zM159 322q0 -92 52 -158l321 356
q-59 45 -140 45q-104 0 -168.5 -70.5t-64.5 -172.5zM392 78q104 0 168.5 71t64.5 173q0 91 -52 158l-322 -356q60 -46 141 -46z" />
    <glyph glyph-name="oslashacute" unicode="&#x1ff;" horiz-adv-x="552" 
d="M334 591q-34 -37 -55 -47t-47 -10h-36l127 156l90 -16zM457 392q62 -67 62 -165q0 -67 -29.5 -121.5t-85.5 -86.5t-128 -32q-83 0 -145 43l-52 -57l-36 31l52 58q-62 66 -62 165q0 102 67.5 170.5t175.5 68.5q83 0 145 -43l52 58l36 -32zM127 227q0 -57 27 -100l211 234
q-38 28 -89 28q-67 0 -108 -46t-41 -116zM276 64q67 0 107.5 46t40.5 117q0 56 -27 98l-210 -233q38 -28 89 -28z" />
    <glyph glyph-name="Scommaaccent" unicode="&#x218;" horiz-adv-x="586" 
d="M290 -13q-89 0 -150.5 24.5t-106.5 73.5l72 70q36 -43 79 -61.5t104 -18.5q57 0 97 24.5t40 69.5q0 23 -10.5 41t-32 32t-41.5 23t-52 21q-29 10 -45.5 16.5t-42.5 17.5t-41 21t-33 25t-28 30.5t-16.5 37t-6.5 45.5q0 78 62 127.5t150 49.5q53 0 96.5 -11t72 -26.5
t56.5 -39.5l-67 -68q-67 57 -148 57q-50 0 -83 -24.5t-33 -61.5t38 -60.5t132 -57.5q40 -14 69 -29t56 -37t41.5 -53t14.5 -70q0 -49 -20 -86t-55 -59t-77 -32.5t-91 -10.5zM242 -262l-14 35q60 29 62 75q-21 -6 -38.5 7t-16.5 37q0 22 15 35.5t39 12.5q26 -1 41.5 -22.5
t14.5 -51.5q-2 -39 -27.5 -75t-75.5 -53z" />
    <glyph glyph-name="scommaaccent" unicode="&#x219;" horiz-adv-x="429" 
d="M28 64l64 58q45 -56 116 -56q41 0 63 15t22 41q0 21 -17.5 35t-44 21t-57 18t-57 23.5t-44 40t-17.5 65.5q0 63 47.5 102t127.5 39q32 0 63 -8t54 -21t38 -30l-55 -60q-43 41 -98 41q-19 -1 -33.5 -5t-24 -11.5t-14.5 -18t-5 -24.5q0 -23 17.5 -39t44.5 -23.5t58 -18
t58 -22.5t44.5 -38t17.5 -64q0 -62 -49 -99.5t-132 -37.5q-62 0 -111.5 21t-75.5 56zM178 -263l-14 35q59 29 61 75q-20 -6 -38 7t-17 37q1 22 15.5 36t38.5 13q27 -1 42 -22.5t14 -51.5q-1 -39 -27 -75t-75 -54z" />
    <glyph glyph-name="uni021A" unicode="&#x21a;" horiz-adv-x="516" 
d="M503 640v-87h-194v-553h-102v553h-194v87h490zM259 -60q27 -1 42 -22.5t14 -50.5q-1 -40 -27 -76t-75 -53l-15 35q60 29 62 75q-20 -6 -38 7t-17 37q1 22 15.5 35.5t38.5 12.5z" />
    <glyph glyph-name="uni021B" unicode="&#x21b;" horiz-adv-x="328" 
d="M228 -9q-23 0 -43 6t-39 20t-30.5 42t-11.5 66v251h-60v78h60v130h97v-130h96v-78h-96l1 -242q0 -59 50 -59q12 0 22 2t14 4l4 2l13 -79q-27 -13 -77 -13zM192 -61q27 -1 42.5 -22.5t13.5 -51.5q-1 -39 -27 -75t-75 -54l-14 35q59 29 62 75q-21 -6 -39 7t-17 37
q1 22 16 36t38 13z" />
    <glyph glyph-name="uni0228" unicode="&#x228;" horiz-adv-x="571" 
d="M518 554h-333v-195h283v-78h-283v-195h333v-86h-186l-38 -48q2 1 5.5 2.5t16 4t26.5 0.5q29 -4 49 -23t20 -52q0 -35 -31 -57.5t-84 -23.5q-29 -1 -54.5 4.5t-36.5 11.5l-11 6l23 45q28 -16 68 -17q28 -1 41 10t12 26q-1 23 -29 28t-51 -8l-30 25l48 66h-193v640h435v-86
z" />
    <glyph glyph-name="uni0229" unicode="&#x229;" horiz-adv-x="523" 
d="M490 237v-31h-355q3 -41 20.5 -73t49 -50t72.5 -18q76 0 120 52l67 -55q-31 -35 -76.5 -54t-101.5 -21l-28 -36q1 1 5 3t16.5 4t26.5 0q29 -3 49 -22t19 -52q0 -35 -31 -58t-84 -24q-28 0 -53.5 5.5t-36.5 11.5l-12 5l23 46q28 -17 69 -18q27 -1 40 10t13 26
q-1 23 -29.5 28t-51.5 -7l-29 25l41 57q-91 14 -145.5 79t-54.5 157q0 101 66 170t167 69q66 0 117 -29t79 -81.5t28 -118.5zM266 390q-50 0 -84 -33.5t-44 -87.5h256q-6 56 -39.5 88.5t-88.5 32.5z" />
    <glyph glyph-name="uni022A" unicode="&#x22a;" horiz-adv-x="784" 
d="M252 846v57h280v-57h-280zM299 798q14 0 26.5 -7t19.5 -19.5t7 -26.5q0 -23 -15.5 -38.5t-37.5 -15.5t-37.5 15.5t-15.5 38.5q0 22 15.5 37.5t37.5 15.5zM484 798q9 0 17 -2.5t15 -7.5t12 -11.5t7.5 -14.5t2.5 -17q0 -23 -15.5 -38.5t-38 -15.5t-37.5 15.5t-15 38.5
q0 22 15.5 37.5t36.5 15.5zM392.5 -13q-99.5 0 -177.5 45t-120 121t-42 169q0 92 42 168t120 121t177 45q75 0 139 -26.5t107.5 -71t68 -106t24.5 -130.5q0 -93 -41.5 -169t-119.5 -121t-177.5 -45zM392 78q104 0 168.5 71t64.5 173t-64 172.5t-168.5 70.5t-169 -70.5
t-64.5 -172.5t64.5 -173t168.5 -71z" />
    <glyph glyph-name="uni022B" unicode="&#x22b;" horiz-adv-x="552" 
d="M136 708v57h280v-57h-280zM183 653q14 0 26.5 -7.5t19.5 -19.5t7 -27q0 -22 -15.5 -38t-37.5 -16t-37 15.5t-15 38.5q0 22 15 38t37 16zM369 653q14 0 26.5 -7.5t19.5 -19.5t7 -27q0 -22 -15.5 -38t-37.5 -16t-37.5 15.5t-15.5 38.5q0 22 15.5 38t37.5 16zM276.5 -13
q-70.5 0 -126.5 32t-86.5 86.5t-30.5 121.5q0 102 68.5 170.5t175 68.5t174.5 -68.5t68 -170.5q0 -67 -30.5 -121.5t-86 -86.5t-126 -32zM276 70q62 0 102.5 45t40.5 112t-40.5 111.5t-102.5 44.5q-31 0 -57.5 -12t-45 -33t-29 -49.5t-10.5 -61.5q0 -67 40 -112t102 -45z
" />
    <glyph glyph-name="uni0232" unicode="&#x232;" horiz-adv-x="542" 
d="M411 778v-57h-280v57h280zM549 640l-227 -343v-297h-102v297l-227 343h118l160 -248l161 248h117z" />
    <glyph glyph-name="uni0233" unicode="&#x233;" horiz-adv-x="471" 
d="M375 622v-57h-280v57h280zM369 454h104l-238 -571q-39 -93 -125 -93q-15 0 -28.5 2.5t-19.5 5.5l-6 2l17 82q14 -9 33 -9q34 0 52 47l31 78l-191 456h103l134 -340z" />
    <glyph glyph-name="uni0237" unicode="&#x237;" horiz-adv-x="222" 
d="M169 454v-496q0 -168 -143 -168l-36 4l7 82q9 -3 22 -3q21 0 37 16t16 60v505h97z" />
    <glyph glyph-name="uni0243" unicode="&#x243;" horiz-adv-x="633" 
d="M413 354q80 -11 123.5 -55.5t43.5 -114.5q0 -85 -62.5 -134.5t-169.5 -49.5h-265v165h-58v56h58v419h236q95 0 149.5 -41t54.5 -112q0 -34 -12.5 -60.5t-37 -45t-60.5 -27.5zM423 479q0 41 -27.5 63t-79.5 22h-131v-176h128q52 0 81 24t29 67zM335 76q65 0 102 31.5
t37 85.5q0 53 -38 83t-104 30h-147v-85h143v-56h-143v-89h150z" />
    <glyph glyph-name="uni0244" unicode="&#x244;" horiz-adv-x="686" 
d="M506 640h102v-392q0 -133 -71.5 -197t-193.5 -64t-193.5 64t-71.5 197v392h102v-117h326v117zM343 78q75 0 119 44t44 138v204h-326v-204q0 -94 44 -138t119 -44z" />
    <glyph glyph-name="uni0245" unicode="&#x245;" horiz-adv-x="615" 
d="M612 0h-112l-193 514l-192 -514h-112l261 640h87z" />
    <glyph glyph-name="uni024C" unicode="&#x24c;" horiz-adv-x="646" 
d="M497 221q18 -30 36.5 -73.5t37.5 -81t42 -66.5h-128q-15 27 -30 68t-30.5 78t-33.5 64q-47 66 -166 69h-40v-279h-102v279h-67v71h67v290h275q90 0 153 -48.5t63 -124.5q0 -72 -46 -116t-124 -59q65 -24 93 -71zM330 559h-145v-206h161q59 0 90.5 26.5t31.5 74.5
q0 50 -36 77.5t-102 27.5z" />
    <glyph glyph-name="uni0250" unicode="&#x250;" horiz-adv-x="494" 
d="M308 -12q-43 0 -83.5 17.5t-64.5 52.5l-15 -58h-82v272q0 194 192 194q92 0 159 -51l-42 -68q-50 41 -114 41q-44 -1 -71 -25t-27 -72v-25l12 2q140 24 214.5 -19.5t74.5 -125.5q0 -44 -21 -75t-55 -45.5t-77 -14.5zM276 58q39 0 61.5 19t22.5 52q0 49 -45 72t-143 8
l-12 -2v-19q0 -40 15.5 -70t42 -45t58.5 -15z" />
    <glyph glyph-name="uni0251" unicode="&#x251;" horiz-adv-x="525" 
d="M378 454h79v-454h-80l-12 62q-51 -75 -141 -75q-82 0 -136.5 65.5t-54.5 174.5t54.5 174t136.5 65q90 0 141 -75zM245 69q56 0 91 45t35 113q0 44 -15.5 80t-44.5 56.5t-66 20.5q-55 0 -89 -44.5t-34 -112.5t34 -113t89 -45z" />
    <glyph glyph-name="uni0252" unicode="&#x252;" horiz-adv-x="525" 
d="M301 466q82 0 136.5 -65t54.5 -174t-54.5 -174.5t-136.5 -65.5q-90 0 -142 75l-12 -62h-79v454h79l12 -63q52 75 142 75zM280 69q55 0 88.5 45t33.5 113t-33.5 112.5t-88.5 44.5q-28 0 -51.5 -12t-40 -33t-25.5 -50t-9 -62q0 -68 35 -113t91 -45z" />
    <glyph glyph-name="uni0258" unicode="&#x258;" horiz-adv-x="523" 
d="M257 466q101 0 167 -69t66 -170q0 -103 -67.5 -171.5t-177.5 -68.5q-120 0 -186 75l67 55q44 -52 120 -52q62 0 99.5 39t43.5 102h-356v31q0 101 62.5 165t161.5 64zM257 390q-54 0 -88 -32.5t-40 -89.5h256q-5 27 -16 49.5t-27 38.5t-38 25t-47 9z" />
    <glyph glyph-name="uni0259" unicode="&#x259;" horiz-adv-x="523" 
d="M245 467q110 0 177.5 -68.5t67.5 -171.5q0 -101 -66 -170t-167 -69q-99 0 -161.5 64t-62.5 165v31h356q-6 63 -43.5 102.5t-99.5 39.5q-76 0 -120 -53l-67 55q66 75 186 75zM257 64q50 0 84 33.5t44 88.5h-256q4 -38 20.5 -65t44 -42t63.5 -15z" />
    <glyph glyph-name="uni0265" unicode="&#x265;" 
d="M372 454h97v-680h-96v280q-52 -66 -141 -66q-32 0 -60.5 9.5t-54 30t-40.5 58t-15 87.5v281h97v-259q0 -58 25 -91t75 -33q48 0 80.5 38t32.5 120v225z" />
    <glyph glyph-name="uni0268" unicode="&#x268;" horiz-adv-x="231" 
d="M116 545q-16 0 -30 8t-22.5 22t-8.5 30q0 25 18 42t43 17t42.5 -17t17.5 -42t-17.5 -42.5t-42.5 -17.5zM267 355v-56h-104v-299h-95v299h-104v56h104v99h95v-99h104z" />
    <glyph glyph-name="uni026F" unicode="&#x26f;" horiz-adv-x="796" 
d="M631 454h97v-454h-85l-11 57q-9 -17 -22.5 -30t-29.5 -21.5t-34.5 -13t-37.5 -4.5q-91 0 -133 72q-24 -35 -58.5 -53.5t-90.5 -18.5q-33 0 -61.5 11t-52 33.5t-36.5 62t-13 93.5v266h97v-259q0 -58 21.5 -91t65.5 -33q48 0 73.5 36t25.5 104v243h97v-259q0 -58 21.5 -91
t66.5 -33t71.5 33.5t28.5 95.5v254z" />
    <glyph glyph-name="uni0272" unicode="&#x272;" 
d="M304 466q32 0 60.5 -9.5t54 -30t40.5 -58t15 -87.5v-281h-97v260q0 57 -24.5 90t-75.5 33q-43 0 -75 -31.5t-37 -100.5v-299q0 -78 -43 -115.5t-115 -24.5v79q61 -8 61 57v506h85l11 -53q52 65 140 65z" />
    <glyph glyph-name="uni0275" unicode="&#x275;" horiz-adv-x="552" 
d="M276 466q108 0 175.5 -68.5t67.5 -170.5q0 -67 -29.5 -121.5t-85.5 -86.5t-127.5 -32t-127.5 32t-86 86.5t-30 121.5q0 102 67.5 170.5t175.5 68.5zM276 389q-59 0 -99 -36.5t-48 -96.5h293q-8 60 -47.5 96.5t-98.5 36.5zM276 64q59 0 98.5 37t47.5 96h-293q8 -59 48 -96
t99 -37z" />
    <glyph glyph-name="uni0279" unicode="&#x279;" horiz-adv-x="391" 
d="M226 454h97v-454h-84l-13 64q-13 -25 -28.5 -41.5t-37 -25.5t-48.5 -9q-19 0 -36 3.5t-25 7.5l-8 4l29 83q20 -9 44 -9q51 0 80.5 40.5t29.5 99.5v237z" />
    <glyph glyph-name="uni0289" unicode="&#x289;" 
d="M372 454h97v-454h-85l-11 53q-52 -65 -140 -65q-32 0 -60.5 9.5t-54 30t-40.5 58t-15 87.5v281h97v-133h212v133zM260 71q43 0 75 31.5t37 100.5v58h-212v-66q0 -38 10 -65t33 -43t57 -16z" />
    <glyph glyph-name="uni028C" unicode="&#x28c;" horiz-adv-x="469" 
d="M470 0h-103l-133 341l-132 -341h-104l196 454h80z" />
    <glyph glyph-name="uni028D" unicode="&#x28d;" horiz-adv-x="748" 
d="M730 0h-104l-111 329l-101 -329h-80l-101 329l-111 -329h-104l172 454h81l103 -341l102 341h82z" />
    <glyph glyph-name="uni028E" unicode="&#x28e;" horiz-adv-x="481" 
d="M478 0h-102l-135 340l-134 -340h-104l238 572q39 93 125 93q15 0 28.5 -3t19.5 -5l7 -3l-18 -81q-14 9 -33 9q-34 0 -52 -48l-31 -77z" />
    <glyph glyph-name="circumflex" unicode="&#x2c6;" horiz-adv-x="390" 
d="M237 635l109 -117h-59q-17 0 -27 4.5t-24 19.5l-41 40l-41 -40q-14 -15 -24 -19.5t-28 -4.5h-58l109 117h84z" />
    <glyph glyph-name="caron" unicode="&#x2c7;" horiz-adv-x="390" 
d="M287 638h59l-109 -117h-84l-109 117h58q18 0 28 -5t24 -19l41 -40l41 40q14 14 24 19t27 5z" />
    <glyph glyph-name="uni02C9" unicode="&#x2c9;" horiz-adv-x="335" 
d="M0 561v54h335v-54h-335z" />
    <glyph glyph-name="breve" unicode="&#x2d8;" horiz-adv-x="380" 
d="M190 511q-68 0 -106 32.5t-40 85.5h61q3 -26 24.5 -43.5t60.5 -17.5t60.5 17.5t24.5 43.5h61q-2 -53 -40 -85.5t-106 -32.5z" />
    <glyph glyph-name="dotaccent" unicode="&#x2d9;" horiz-adv-x="207" 
d="M104 533q-25 0 -42.5 17.5t-17.5 42.5t17.5 42.5t42.5 17.5q16 0 30 -8t22.5 -22t8.5 -30q0 -25 -18 -42.5t-43 -17.5z" />
    <glyph glyph-name="ring" unicode="&#x2da;" horiz-adv-x="315" 
d="M157.5 709q47.5 0 80.5 -32t33 -77.5t-33 -77.5t-80.5 -32t-80.5 32t-33 77.5t33 77.5t80.5 32zM157.5 546q23.5 0 39.5 15.5t16 37.5t-16 37.5t-40 15.5q-11 0 -21.5 -4t-18 -11t-11.5 -17t-4 -21q0 -22 16 -37.5t39.5 -15.5z" />
    <glyph glyph-name="ogonek" unicode="&#x2db;" horiz-adv-x="286" 
d="M223 -168q-42 -29 -93.5 -21t-68.5 47q-20 44 9 87t90 72l48 -17l-21 -12q-60 -32 -66 -75q-5 -33 27 -41q24 -6 57 8z" />
    <glyph glyph-name="tilde" unicode="&#x2dc;" horiz-adv-x="398" 
d="M258 561q-28 0 -60 21t-51 21q-31 0 -53 -37l-50 32q1 1 5.5 8.5t6.5 9.5t7 9t8.5 10t9.5 8.5t12 8.5t13 6t15.5 4.5t17.5 1.5q29 0 63 -21.5t52 -21.5q28 0 46 39l54 -30q-7 -12 -12.5 -20.5t-17.5 -21.5t-29 -20t-37 -7z" />
    <glyph glyph-name="hungarumlaut" unicode="&#x2dd;" horiz-adv-x="459" 
d="M182 566q-34 -36 -55 -46t-47 -10h-36l128 155l89 -15zM335 566q-24 -25 -42.5 -38t-30.5 -15.5t-28 -2.5h-37l128 155l90 -15z" />
    <glyph glyph-name="gravecomb" unicode="&#x300;" horiz-adv-x="0" 
d="M-220 566l-79 84l90 15l127 -155h-36q-26 0 -47 10t-55 46z" />
    <glyph glyph-name="acutecomb" unicode="&#x301;" horiz-adv-x="0" 
d="M-161 566q-35 -36 -56 -46t-46 -10h-36l127 155l90 -15z" />
    <glyph glyph-name="uni0302" unicode="&#x302;" horiz-adv-x="0" 
d="M-191 635l109 -117h-58q-18 0 -27.5 4.5t-24.5 19.5l-41 40l-41 -40q-14 -15 -24 -19.5t-27 -4.5h-59l110 117h83z" />
    <glyph glyph-name="tildecomb" unicode="&#x303;" horiz-adv-x="0" 
d="M-179 527q-28 0 -60 21.5t-51 21.5q-31 0 -52 -38l-51 33q1 1 6 8t6.5 9.5t7 9.5t9 10t9.5 8.5t11.5 8t13 6t15.5 4.5t17 1q29 0 63 -21.5t52 -21.5q28 0 46 39l54 -29q-7 -13 -12.5 -21.5t-17 -21.5t-28.5 -20t-38 -7z" />
    <glyph glyph-name="uni0304" unicode="&#x304;" horiz-adv-x="0" 
d="M-362 522v57h280v-57h-280z" />
    <glyph glyph-name="uni0306" unicode="&#x306;" horiz-adv-x="0" 
d="M-229.5 511q-67.5 0 -105.5 32.5t-40 85.5h61q3 -26 24.5 -43.5t60.5 -17.5t60 17.5t25 43.5h61q-2 -53 -40.5 -85.5t-106 -32.5z" />
    <glyph glyph-name="uni0307" unicode="&#x307;" horiz-adv-x="0" 
d="M-142 533q-25 0 -43 17.5t-18 42.5t18 42.5t43 17.5q12 0 23.5 -5t19.5 -13t12.5 -19t4.5 -23q0 -25 -17.5 -42.5t-42.5 -17.5z" />
    <glyph glyph-name="uni0308" unicode="&#x308;" horiz-adv-x="0" 
d="M-321 629q22 0 37.5 -15.5t15.5 -37.5q0 -23 -15.5 -39t-37.5 -16t-37 16t-15 39q0 22 15 37.5t37 15.5zM-135 629q22 0 37.5 -15.5t15.5 -37.5q0 -23 -15.5 -39t-37.5 -16t-37.5 16t-15.5 39q0 14 7 26.5t19 19.5t27 7z" />
    <glyph glyph-name="uni030A" unicode="&#x30a;" horiz-adv-x="0" 
d="M-97.5 709q47.5 0 80.5 -32t33 -77.5t-33 -77.5t-80.5 -32t-80.5 32t-33 77.5t33 77.5t80.5 32zM-97.5 546q23.5 0 39.5 15.5t16 37.5t-16 37.5t-39.5 15.5t-39.5 -15.5t-16 -37.5t16 -37.5t39.5 -15.5z" />
    <glyph glyph-name="uni030B" unicode="&#x30b;" horiz-adv-x="0" 
d="M-305 566q-34 -36 -55 -46t-46 -10h-36l127 155l90 -15zM-151 566q-35 -36 -56 -46t-46 -10h-36l127 155l90 -15z" />
    <glyph glyph-name="uni030C" unicode="&#x30c;" horiz-adv-x="0" 
d="M-142 638h59l-109 -117h-84l-109 117h59q17 0 27 -5t24 -19l41 -40l41 40q14 14 24 19t27 5z" />
    <glyph glyph-name="uni0312" unicode="&#x312;" horiz-adv-x="0" 
d="M-97 679l14 -35q-59 -29 -62 -75q21 6 39 -7t17 -37q-1 -22 -16 -35.5t-38 -12.5q-27 1 -42.5 22.5t-14.5 51.5q2 39 27.5 75t75.5 53z" />
    <glyph glyph-name="dotbelowcomb" unicode="&#x323;" horiz-adv-x="0" 
d="M-141 -179q-25 0 -42.5 17.5t-17.5 42.5q0 16 8 30t22 22t30 8q25 0 43 -17.5t18 -42.5t-18 -42.5t-43 -17.5z" />
    <glyph glyph-name="uni0326" unicode="&#x326;" horiz-adv-x="0" 
d="M-184 -262l-14 35q59 29 61 75q-20 -6 -38 7t-17 37q1 22 15.5 35.5t38.5 12.5q27 -1 42 -22.5t14 -50.5q-1 -40 -27 -76t-75 -53z" />
    <glyph glyph-name="uni0327" unicode="&#x327;" horiz-adv-x="0" 
d="M-152 -41q29 -4 49 -23t20 -52q0 -35 -31 -57.5t-84 -23.5q-29 -1 -54.5 4.5t-36.5 11.5l-11 6l23 45q28 -16 68 -17q28 -1 41 10t12 26q-1 23 -29 28t-51 -8l-30 25l64 88l44 -3v-13l-42 -54q2 1 5.5 2.5t16 4t26.5 0.5z" />
    <glyph glyph-name="uni0328" unicode="&#x328;" horiz-adv-x="0" 
d="M-83 -168q-42 -29 -93.5 -21t-68.5 47q-20 44 9 87t90 72l48 -17l-21 -12q-60 -32 -66 -75q-5 -33 27 -41q24 -6 57 8z" />
    <glyph glyph-name="uni0331" unicode="&#x331;" horiz-adv-x="0" 
d="M-362 -133v57h280v-57h-280z" />
    <glyph glyph-name="uni0335" unicode="&#x335;" horiz-adv-x="0" 
d="M-386 266v56h303v-56h-303z" />
    <glyph glyph-name="uni0336" unicode="&#x336;" horiz-adv-x="0" 
d="M-518 264v59h419v-59h-419z" />
    <glyph glyph-name="uni0337" unicode="&#x337;" horiz-adv-x="0" 
d="M-314 290l231 179v-81l-231 -178v80z" />
    <glyph glyph-name="uni0338" unicode="&#x338;" horiz-adv-x="0" 
d="M-16 674l42 -38l-603 -668l-42 38z" />
    <glyph glyph-name="uni0394" unicode="&#x394;" horiz-adv-x="595" 
d="M348 640l244 -574v-66h-589v66l244 574h101zM297 537l-185 -459h371z" />
    <glyph glyph-name="uni03A9" unicode="&#x3a9;" horiz-adv-x="805" 
d="M532 111v-33l177 2v-80h-259v154v14q79 8 125 63t46 128q0 58 -26 107t-76.5 78.5t-116.5 29.5q-97 0 -157.5 -62.5t-60.5 -152.5q0 -73 46 -128t124 -63v-14v-154h-258v80l177 -2v33q-87 28 -138.5 98.5t-51.5 159.5q0 123 89 205.5t230.5 82.5t230.5 -82.5t89 -205.5
q0 -89 -51.5 -159.5t-138.5 -98.5z" />
    <glyph glyph-name="uni03BC" unicode="&#x3bc;" horiz-adv-x="542" 
d="M377 454h97v-454h-85l-11 53q-52 -65 -132 -65q-44 0 -87 28l-10 -206h-81v644h97v-259q0 -58 25 -91t75 -33q43 0 75 31.5t37 100.5v251z" />
    <glyph glyph-name="pi" unicode="&#x3c0;" horiz-adv-x="658" 
d="M582 83l13 -79q-28 -13 -77 -13q-23 0 -43 6t-39.5 20t-30.5 42t-11 67v250h-160v-376h-96v376h-70v78h514v-78h-91l1 -242q0 -59 48 -59q13 0 23.5 2t14.5 4z" />
    <glyph glyph-name="uni1E04" unicode="&#x1e04;" horiz-adv-x="633" 
d="M413 354q80 -11 123.5 -55.5t43.5 -114.5q0 -85 -62.5 -134.5t-169.5 -49.5h-265v640h236q95 0 149.5 -41t54.5 -112q0 -34 -12.5 -60.5t-37 -45t-60.5 -27.5zM423 479q0 41 -27.5 63t-79.5 22h-131v-176h128q52 0 81 24t29 67zM335 76q65 0 102 31.5t37 84.5
q0 54 -38 84t-104 30h-147v-230h150zM311 -59q25 0 42.5 -17.5t17.5 -42.5t-17.5 -42.5t-42.5 -17.5t-43 17.5t-18 42.5t18 42.5t43 17.5z" />
    <glyph glyph-name="uni1E05" unicode="&#x1e05;" horiz-adv-x="562" 
d="M317 466q91 0 151.5 -65t60.5 -174t-60.5 -174.5t-151.5 -65.5q-100 0 -158 76l-11 -63h-80v680h97v-283q57 69 152 69zM294 69q61 0 98.5 45t37.5 113t-37.5 112.5t-98.5 44.5q-63 0 -101.5 -44.5t-38.5 -112.5t38.5 -113t101.5 -45zM247 -59q25 0 42.5 -17.5
t17.5 -42.5t-17.5 -42.5t-42.5 -17.5t-43 17.5t-18 42.5q0 16 8 30t22 22t31 8z" />
    <glyph glyph-name="uni1E0C" unicode="&#x1e0c;" horiz-adv-x="671" 
d="M273 640q82 0 148 -24.5t108.5 -68t65.5 -101.5t23 -125.5t-23 -125.5t-65.5 -101.5t-108.5 -68.5t-148 -25h-190v640h190zM257 83q126 0 190.5 63.5t64.5 174.5q0 54 -16 97t-47 74.5t-79.5 48t-112.5 16.5h-72v-474h72zM302.5 -59q25.5 0 43 -17.5t17.5 -42.5
t-17.5 -42.5t-43 -17.5t-43 17.5t-17.5 42.5t17.5 42.5t43 17.5z" />
    <glyph glyph-name="uni1E0D" unicode="&#x1e0d;" horiz-adv-x="562" 
d="M397 680h96v-680h-79l-12 63q-57 -76 -158 -76q-91 0 -151.5 65.5t-60.5 174.5t60.5 174t151.5 65q96 0 153 -69v283zM268 69q31 0 57 12t44 33t28.5 50t10.5 63q0 68 -39 112.5t-101 44.5q-61 0 -99 -44.5t-38 -112.5t38 -113t99 -45zM281.5 -59q16.5 0 30.5 -8t22 -22
t8 -30q0 -25 -17.5 -42.5t-43 -17.5t-43 17.5t-17.5 42.5q0 16 8 30t22 22t30.5 8z" />
    <glyph glyph-name="uni1E0E" unicode="&#x1e0e;" horiz-adv-x="671" 
d="M273 640q82 0 148 -24.5t108.5 -68t65.5 -101.5t23 -125.5t-23 -125.5t-65.5 -101.5t-108.5 -68.5t-148 -25h-190v640h190zM257 83q126 0 190.5 63.5t64.5 174.5q0 54 -16 97t-47 74.5t-79.5 48t-112.5 16.5h-72v-474h72zM162 -133v57h280v-57h-280z" />
    <glyph glyph-name="uni1E0F" unicode="&#x1e0f;" horiz-adv-x="562" 
d="M397 680h96v-680h-79l-12 63q-57 -76 -158 -76q-91 0 -151.5 65.5t-60.5 174.5t60.5 174t151.5 65q96 0 153 -69v283zM268 69q31 0 57 12t44 33t28.5 50t10.5 63q0 68 -39 112.5t-101 44.5q-61 0 -99 -44.5t-38 -112.5t38 -113t99 -45zM141 -133v57h280v-57h-280z" />
    <glyph glyph-name="uni1E12" unicode="&#x1e12;" horiz-adv-x="671" 
d="M273 640q82 0 148 -24.5t108.5 -68t65.5 -101.5t23 -125.5t-23 -125.5t-65.5 -101.5t-108.5 -68.5t-148 -25h-190v640h190zM257 83q126 0 190.5 63.5t64.5 174.5q0 54 -16 97t-47 74.5t-79.5 48t-112.5 16.5h-72v-474h72zM260 -51h84l109 -117h-59q-7 0 -12.5 1t-10 2.5
t-9.5 4.5t-9 6.5t-10 9.5l-41 40l-41 -40q-14 -14 -24 -19t-27 -5h-59z" />
    <glyph glyph-name="uni1E13" unicode="&#x1e13;" horiz-adv-x="562" 
d="M397 680h96v-680h-79l-12 63q-57 -76 -158 -76q-91 0 -151.5 65.5t-60.5 174.5t60.5 174t151.5 65q96 0 153 -69v283zM268 69q31 0 57 12t44 33t28.5 50t10.5 63q0 68 -39 112.5t-101 44.5q-61 0 -99 -44.5t-38 -112.5t38 -113t99 -45zM239 -51h84l109 -117h-59
q-17 0 -27 5t-24 19l-41 40l-41 -40q-10 -10 -16.5 -14.5t-14.5 -7t-20 -2.5h-59z" />
    <glyph glyph-name="uni1E24" unicode="&#x1e24;" horiz-adv-x="697" 
d="M512 640h102v-640h-102v288h-327v-288h-102v640h102v-269h327v269zM349 -59q25 0 42.5 -17.5t17.5 -42.5t-17.5 -42.5t-42.5 -17.5t-43 17.5t-18 42.5q0 16 8.5 30t22 22t30.5 8z" />
    <glyph glyph-name="uni1E25" unicode="&#x1e25;" 
d="M305 466q32 0 60.5 -9.5t54 -30t40.5 -58t15 -87.5v-281h-97v260q0 57 -24.5 90t-75.5 33q-47 0 -80 -37.5t-33 -120.5v-225h-97v680h97v-280q51 66 140 66zM267 -59q16 0 30 -8t22 -22t8 -30q0 -25 -17.5 -42.5t-42.5 -17.5t-43 17.5t-18 42.5t18 42.5t43 17.5z" />
    <glyph glyph-name="uni1E2E" unicode="&#x1e2e;" horiz-adv-x="268" 
d="M191 872q-34 -36 -55 -46.5t-46 -10.5h-36l127 156l90 -16zM41 798q14 0 26.5 -7t19.5 -19.5t7 -26.5q0 -23 -15.5 -38.5t-37.5 -15.5t-37.5 15.5t-15.5 38.5q0 22 15.5 37.5t37.5 15.5zM226 798q15 0 27 -7t19.5 -19.5t7.5 -26.5q0 -23 -16 -38.5t-38 -15.5t-37 15.5
t-15 38.5q0 22 15 37.5t37 15.5zM185 640v-640h-102v640h102z" />
    <glyph glyph-name="uni1E2F" unicode="&#x1e2f;" horiz-adv-x="231" 
d="M173 734q-34 -36 -55 -46.5t-47 -10.5h-36l128 156l89 -16zM22 653q15 0 27 -7.5t19.5 -19.5t7.5 -27q0 -22 -16 -38t-38 -16t-37 16t-15 38t15 38t37 16zM208 653q14 0 26.5 -7.5t19.5 -19.5t7 -27q0 -22 -15.5 -38t-37.5 -16t-37.5 16t-15.5 38t15.5 38t37.5 16zM68 0
v454h95v-454h-95z" />
    <glyph glyph-name="uni1E36" unicode="&#x1e36;" horiz-adv-x="504" 
d="M185 88h295v-88h-397v640h102v-552zM277 -59q16 0 30 -8t22.5 -22t8.5 -30q0 -25 -18 -42.5t-43 -17.5t-42.5 17.5t-17.5 42.5q0 16 8 30t22 22t30 8z" />
    <glyph glyph-name="uni1E37" unicode="&#x1e37;" horiz-adv-x="233" 
d="M68 0v680h97v-680h-97zM117 -179q-25 0 -43 17.5t-18 42.5t18 42.5t43 17.5t42.5 -17.5t17.5 -42.5t-17.5 -42.5t-42.5 -17.5z" />
    <glyph glyph-name="uni1E3C" unicode="&#x1e3c;" horiz-adv-x="504" 
d="M185 88h295v-88h-397v640h102v-552zM235 -51h83l109 -117h-58q-18 0 -27.5 5t-24.5 19l-40 40l-41 -40q-15 -14 -24.5 -19t-27.5 -5h-58z" />
    <glyph glyph-name="uni1E3D" unicode="&#x1e3d;" horiz-adv-x="233" 
d="M165 680v-680h-97v680h97zM158 -51l109 -117h-58q-18 0 -27.5 5t-24.5 19l-41 40l-40 -40q-15 -14 -25 -19t-27 -5h-58l109 117h83z" />
    <glyph glyph-name="uni1E3E" unicode="&#x1e3e;" horiz-adv-x="819" 
d="M466 746q-18 -19 -32 -30.5t-26.5 -17t-21.5 -7t-21 -1.5h-37l128 155l90 -15zM645 640h91v-640h-101v415l-190 -415h-71l-191 415v-415h-100v640h91l235 -523z" />
    <glyph glyph-name="uni1E3F" unicode="&#x1e3f;" horiz-adv-x="796" 
d="M473 581q-34 -37 -55 -47t-46 -10h-37l128 156l90 -16zM569 466q72 0 117.5 -48t45.5 -151v-267h-96v259q0 38 -9 65t-29 43t-50 16q-47 0 -73 -36t-26 -103v-244h-97v259q0 58 -21 91t-66 33q-30 0 -52 -14.5t-34.5 -43.5t-13.5 -71v-254h-97v454h85l10 -57
q19 34 52 51.5t73 17.5q90 0 133 -72q23 35 57.5 53.5t90.5 18.5z" />
    <glyph glyph-name="uni1E44" unicode="&#x1e44;" horiz-adv-x="701" 
d="M351 701q-25 0 -42.5 17.5t-17.5 42t17.5 42t42.5 17.5t43 -17.5t18 -42t-18 -42t-43 -17.5zM519 640h99v-640h-95l-341 477v-477h-99v640h96l340 -476v476z" />
    <glyph glyph-name="uni1E45" unicode="&#x1e45;" 
d="M272 545q-26 0 -43.5 17.5t-17.5 42.5t17.5 42t43 17t43 -17t17.5 -42q0 -16 -8 -30t-22 -22t-30 -8zM304 466q32 0 60.5 -9.5t54 -30t40.5 -58t15 -87.5v-281h-97v260q0 57 -24.5 90t-75.5 33q-43 0 -75 -31.5t-37 -100.5v-251h-97v454h85l11 -53q52 65 140 65z" />
    <glyph glyph-name="uni1E46" unicode="&#x1e46;" horiz-adv-x="701" 
d="M519 640h99v-640h-95l-341 477v-477h-99v640h96l340 -476v476zM351 -59q25 0 43 -17.5t18 -42.5t-18 -42.5t-43 -17.5q-16 0 -30 8t-22 22t-8 30t8 30t22 22t30 8z" />
    <glyph glyph-name="uni1E47" unicode="&#x1e47;" 
d="M304 466q32 0 60.5 -9.5t54 -30t40.5 -58t15 -87.5v-281h-97v260q0 57 -24.5 90t-75.5 33q-43 0 -75 -31.5t-37 -100.5v-251h-97v454h85l11 -53q52 65 140 65zM271.5 -59q25.5 0 43 -17.5t17.5 -42.5q0 -16 -8 -30t-22 -22t-30 -8q-26 0 -43.5 17.5t-17.5 42.5t17.5 42.5
t43 17.5z" />
    <glyph glyph-name="uni1E4A" unicode="&#x1e4a;" horiz-adv-x="701" 
d="M519 640h99v-640h-95l-341 477v-477h-99v640h96l340 -476v476zM309 -51h83l109 -117h-58q-17 0 -27 5t-24 19l-41 40l-41 -40q-15 -14 -24.5 -19t-27.5 -5h-58z" />
    <glyph glyph-name="uni1E4B" unicode="&#x1e4b;" 
d="M304 466q32 0 60.5 -9.5t54 -30t40.5 -58t15 -87.5v-281h-97v260q0 57 -24.5 90t-75.5 33q-43 0 -75 -31.5t-37 -100.5v-251h-97v454h85l11 -53q52 65 140 65zM229 -51h84l109 -117h-59q-17 0 -27 5t-24 19l-41 40l-41 -40q-14 -14 -24 -19t-27 -5h-59z" />
    <glyph glyph-name="uni1E4C" unicode="&#x1e4c;" horiz-adv-x="784" 
d="M344 819l99 127l85 -17l-86 -87q-22 -23 -57 -23h-41zM452 692q-29 0 -61 21.5t-50 21.5q-31 0 -53 -38l-50 33q0 1 5 8t7 9.5t7 9.5t8.5 10t9.5 8.5t12 8t13 6t15 4.5t17 1q30 0 63.5 -21.5t52.5 -21.5q28 0 46 39l53 -29q-6 -13 -12 -21.5t-17.5 -21.5t-28.5 -20
t-37 -7zM392.5 -13q-99.5 0 -177.5 45t-120 121t-42 169q0 92 42 168t120 121t177 45q75 0 139 -26.5t107.5 -71t68 -106t24.5 -130.5q0 -93 -41.5 -169t-119.5 -121t-177.5 -45zM392 78q104 0 168.5 71t64.5 173t-64 172.5t-169 70.5q-52 0 -96.5 -19.5t-74 -53t-46 -77.5
t-16.5 -93q0 -102 64.5 -173t168.5 -71z" />
    <glyph glyph-name="uni1E4D" unicode="&#x1e4d;" horiz-adv-x="552" 
d="M228 663l99 127l85 -17l-86 -87q-22 -23 -57 -23h-41zM336 536q-28 0 -60 21.5t-51 21.5q-31 0 -53 -38l-50 33q0 1 5 8t7 9.5t7 9.5t8.5 10t9.5 8.5t12 8t13 6t15.5 4.5t17.5 1q29 0 62.5 -21.5t52.5 -21.5q28 0 46 39l53 -29q-6 -13 -11.5 -21t-17.5 -21.5t-29 -20.5
t-37 -7zM276 -13q-70 0 -126 32t-86.5 86.5t-30.5 121.5q0 102 68.5 170.5t175 68.5t174.5 -68.5t68 -170.5t-68 -171t-175 -69zM276 70q62 0 102.5 45t40.5 112t-40.5 111.5t-102.5 44.5q-31 0 -57.5 -12t-45 -33t-29 -49.5t-10.5 -61.5q0 -67 40 -112t102 -45z" />
    <glyph glyph-name="uni1E50" unicode="&#x1e50;" horiz-adv-x="784" 
d="M437 792h-42q-34 0 -56 22l-86 87l85 17zM259 691v57h280v-57h-280zM392.5 -13q-99.5 0 -177.5 45t-120 121t-42 169q0 92 42 168t120 121t177 45q75 0 139 -26.5t107.5 -71t68 -106t24.5 -130.5q0 -93 -41.5 -169t-119.5 -121t-177.5 -45zM392 78q104 0 168.5 71
t64.5 173t-64 172t-169 70q-52 0 -96.5 -19t-74 -52.5t-46 -77.5t-16.5 -93q0 -102 64.5 -173t168.5 -71z" />
    <glyph glyph-name="uni1E51" unicode="&#x1e51;" horiz-adv-x="552" 
d="M321 636h-41q-35 0 -57 22l-86 87l85 17zM143 535v57h280v-57h-280zM276.5 -13q-106.5 0 -175 69t-68.5 171t68.5 170.5t175 68.5t174.5 -68.5t68 -170.5t-68 -171t-174.5 -69zM276 70q62 0 102.5 45t40.5 112t-40.5 111.5t-102.5 44.5q-31 0 -57.5 -12t-45 -33
t-29 -49.5t-10.5 -61.5q0 -67 40 -112t102 -45z" />
    <glyph glyph-name="uni1E52" unicode="&#x1e52;" horiz-adv-x="784" 
d="M344 792l99 126l85 -17l-86 -87q-22 -22 -57 -22h-41zM259 691v57h280v-57h-280zM392.5 -13q-99.5 0 -177.5 45t-120 121t-42 169q0 92 42 168t120 121t177 45q75 0 139 -26.5t107.5 -71t68 -106t24.5 -130.5q0 -93 -41.5 -169t-119.5 -121t-177.5 -45zM392 78
q104 0 168.5 71t64.5 173t-64 172.5t-169 70.5q-69 0 -123 -33.5t-82 -88.5t-28 -121q0 -102 64.5 -173t168.5 -71z" />
    <glyph glyph-name="uni1E53" unicode="&#x1e53;" horiz-adv-x="552" 
d="M228 636l99 126l85 -17l-86 -87q-22 -22 -57 -22h-41zM143 535v57h280v-57h-280zM276 -13q-106 0 -174.5 69t-68.5 171t68.5 170.5t175 68.5t174.5 -68.5t68 -170.5q0 -67 -30.5 -121.5t-86 -86.5t-126.5 -32zM276 70q62 0 102.5 45t40.5 112q0 33 -11 61.5t-29.5 49.5
t-45 33t-57.5 12t-57.5 -12t-45 -33t-29 -49.5t-10.5 -61.5q0 -67 40 -112t102 -45z" />
    <glyph glyph-name="uni1E62" unicode="&#x1e62;" horiz-adv-x="586" 
d="M290 -13q-89 0 -150.5 24.5t-106.5 73.5l72 70q36 -43 79 -61.5t104 -18.5q57 0 97 24.5t40 69.5q0 23 -10.5 41t-32 32t-41.5 23t-52 21q-29 10 -45.5 16.5t-42.5 17.5t-41 21t-33 25t-28 30.5t-16.5 37t-6.5 45.5q0 78 62 127.5t150 49.5q53 0 96.5 -11t72 -26.5
t56.5 -39.5l-67 -68q-67 57 -148 57q-50 0 -83 -24.5t-33 -61.5t38 -60.5t132 -57.5q40 -14 69 -29t56 -37t41.5 -53t14.5 -70q0 -49 -20 -86t-55 -59t-77 -32.5t-91 -10.5zM288 -179q-25 0 -42.5 17.5t-17.5 42.5q0 16 8 30t22 22t30.5 8t30.5 -8t22 -22t8 -30
q0 -25 -18 -42.5t-43 -17.5z" />
    <glyph glyph-name="uni1E63" unicode="&#x1e63;" horiz-adv-x="429" 
d="M28 64l64 58q45 -56 116 -56q41 0 63 15t22 41q0 21 -17.5 35t-44 21t-57 18t-57 23.5t-44 40t-17.5 65.5q0 63 47.5 102t127.5 39q32 0 63 -8t54 -21t38 -30l-55 -60q-43 41 -98 41q-19 -1 -33.5 -5t-24 -11.5t-14.5 -18t-5 -24.5q0 -23 17.5 -39t44.5 -23.5t58 -18
t58 -22.5t44.5 -38t17.5 -64q0 -62 -49 -99.5t-132 -37.5q-62 0 -111.5 21t-75.5 56zM224 -179q-25 0 -43 17.5t-18 42t18 42t43 17.5t42.5 -17.5t17.5 -42t-17.5 -42t-42.5 -17.5z" />
    <glyph glyph-name="uni1E6C" unicode="&#x1e6c;" horiz-adv-x="516" 
d="M503 640v-87h-194v-553h-102v553h-194v87h490zM258.5 -59q25.5 0 43 -17.5t17.5 -42.5t-17.5 -42.5t-43 -17.5t-43 17.5t-17.5 42.5t17.5 42.5t43 17.5z" />
    <glyph glyph-name="uni1E6D" unicode="&#x1e6d;" horiz-adv-x="328" 
d="M228 -9q-23 0 -43 6t-39 20t-30.5 42t-11.5 66v251h-60v78h60v130h97v-130h96v-78h-96l1 -242q0 -59 50 -59q12 0 22 2t14 4l4 2l13 -79q-27 -13 -77 -13zM192 -61q25 0 42.5 -17.5t17.5 -42t-17.5 -42t-42.5 -17.5t-43 17.5t-18 42t18 42t43 17.5z" />
    <glyph glyph-name="uni1E6E" unicode="&#x1e6e;" horiz-adv-x="516" 
d="M503 640v-87h-194v-553h-102v553h-194v87h490zM118 -133v57h280v-57h-280z" />
    <glyph glyph-name="uni1E6F" unicode="&#x1e6f;" horiz-adv-x="328" 
d="M104 126v250h-60v78h60v130h97v-130h96v-78h-96l1 -242q0 -59 50 -59q12 0 22 2t14 4l4 2l13 -79q-27 -13 -77 -13q-23 0 -43 6t-39 20t-30.5 42t-11.5 67zM89 -135v57h204v-57h-204z" />
    <glyph glyph-name="uni1E70" unicode="&#x1e70;" horiz-adv-x="516" 
d="M503 640v-87h-194v-553h-102v553h-194v87h490zM216 -51h84l109 -117h-59q-17 0 -27 5t-24 19l-41 40l-41 -40q-14 -14 -24 -19t-27 -5h-59z" />
    <glyph glyph-name="uni1E71" unicode="&#x1e71;" horiz-adv-x="328" 
d="M104 126v250h-60v78h60v130h97v-130h96v-78h-96l1 -242q0 -59 50 -59q12 0 22 2t14 4l4 2l13 -79q-27 -13 -77 -13q-23 0 -43 6t-39 20t-30.5 42t-11.5 67zM233 -52l109 -118h-58q-18 0 -27.5 5t-24.5 19l-41 41l-41 -41q-14 -14 -24 -19t-27 -5h-59l110 118h83z" />
    <glyph glyph-name="Wgrave" unicode="&#x1e80;" horiz-adv-x="910" 
d="M517 690q-26 0 -47 10t-55 46l-79 84l89 15l128 -155h-36zM789 640h108l-211 -640h-86l-145 492l-145 -492h-86l-211 640h108l148 -498l143 498h85l144 -498z" />
    <glyph glyph-name="wgrave" unicode="&#x1e81;" horiz-adv-x="748" 
d="M435 534q-25 0 -46 10t-55 47l-80 83l90 16l128 -156h-37zM626 454h104l-173 -454h-81l-102 341l-103 -341h-81l-172 454h104l111 -329l101 329h80l101 -329z" />
    <glyph glyph-name="Wacute" unicode="&#x1e82;" horiz-adv-x="910" 
d="M512 746q-23 -25 -42 -37.5t-30.5 -15.5t-28.5 -3h-37l128 155l90 -15zM789 640h108l-211 -640h-86l-145 492l-145 -492h-86l-211 640h108l148 -498l143 498h85l144 -498z" />
    <glyph glyph-name="wacute" unicode="&#x1e83;" horiz-adv-x="748" 
d="M431 591q-24 -26 -43 -38.5t-30.5 -15.5t-28.5 -3h-36l128 156l89 -16zM626 454h104l-173 -454h-81l-102 341l-103 -341h-81l-172 454h104l111 -329l101 329h80l101 -329z" />
    <glyph glyph-name="Wdieresis" unicode="&#x1e84;" horiz-adv-x="910" 
d="M362 701q-22 0 -37.5 15.5t-15.5 38.5q0 22 15.5 37.5t37.5 15.5t37.5 -15.5t15.5 -37.5t-15.5 -38t-37.5 -16zM547 701q-22 0 -37 15.5t-15 38.5q0 22 15 37.5t37 15.5t38 -15.5t16 -37.5t-16 -38t-38 -16zM789 640h108l-211 -640h-86l-145 492l-145 -492h-86l-211 640
h108l148 -498l143 498h85l144 -498z" />
    <glyph glyph-name="wdieresis" unicode="&#x1e85;" horiz-adv-x="748" 
d="M280 545q-22 0 -37 16t-15 38t15 38t37 16q15 0 27 -7.5t19.5 -19.5t7.5 -27q0 -22 -16 -38t-38 -16zM466 545q-22 0 -37.5 16t-15.5 38t15.5 38t37.5 16q14 0 26.5 -7.5t19.5 -19.5t7 -27q0 -22 -15.5 -38t-37.5 -16zM626 454h104l-173 -454h-81l-102 341l-103 -341h-81
l-172 454h104l111 -329l101 329h80l101 -329z" />
    <glyph glyph-name="uni1E92" unicode="&#x1e92;" horiz-adv-x="572" 
d="M180 88h339v-88h-466v76l319 476h-301v88h430v-74zM281 -59q25 0 43 -17.5t18 -42.5t-18 -42.5t-43 -17.5t-42.5 17.5t-17.5 42.5t17.5 42.5t42.5 17.5z" />
    <glyph glyph-name="uni1E93" unicode="&#x1e93;" horiz-adv-x="473" 
d="M164 83h271v-83h-397v68l256 303h-241v83h364v-72zM237 -59q16 0 30 -8t22.5 -22t8.5 -30q0 -25 -18 -42.5t-43 -17.5t-43 17.5t-18 42.5t18 42.5t43 17.5z" />
    <glyph glyph-name="uni1E9E" unicode="&#x1e9e;" horiz-adv-x="631" 
d="M286 -4l-15 91q89 -11 144.5 17.5t55.5 91.5q0 57 -47.5 85t-114.5 28h-38v65l142 179h-98q-62 0 -96 -44t-34 -115v-394h-102v396q0 53 13 95.5t35 70t53 45.5t65 25.5t73 7.5h207v-73l-147 -185q196 -30 196 -184q0 -75 -41.5 -125t-106.5 -68.5t-144 -8.5z" />
    <glyph glyph-name="uni1EA0" unicode="&#x1ea0;" horiz-adv-x="615" 
d="M612 0h-110l-63 170l-264 -1l-62 -169h-110l253 640h103zM202 242h211l-106 285zM308 -59q16 0 30 -8t22 -22t8 -30q0 -25 -17.5 -42.5t-42.5 -17.5q-17 0 -31 8t-22 22t-8 30q0 25 18 42.5t43 17.5z" />
    <glyph glyph-name="uni1EA1" unicode="&#x1ea1;" horiz-adv-x="494" 
d="M186 -12q-66 0 -109.5 35t-43.5 100q0 82 74.5 125.5t214.5 19.5l12 -2v25q0 48 -27 72t-71 25q-63 0 -114 -41l-41 68q66 51 158 51q192 0 192 -194v-272h-81l-16 58q-24 -35 -64.5 -52.5t-83.5 -17.5zM218 58q50 0 83 35t33 95v19l-12 2q-97 15 -142.5 -8t-45.5 -72
q0 -33 22.5 -52t61.5 -19zM247 -179q-25 0 -42.5 17.5t-17.5 42.5t17.5 42.5t42.5 17.5t43 -17.5t18 -42.5t-18 -42.5t-43 -17.5z" />
    <glyph glyph-name="uni1EA4" unicode="&#x1ea4;" horiz-adv-x="615" 
d="M517 772q-22 -22 -56 -22h-41l99 127l85 -17zM266 714q-14 -14 -24 -19t-27 -5h-59l109 118h84l109 -118h-59q-17 0 -27 5t-24 19l-41 41zM502 0l-63 170l-264 -1l-62 -169h-110l253 640h103l253 -640h-110zM202 242h211l-106 285z" />
    <glyph glyph-name="uni1EA5" unicode="&#x1ea5;" horiz-adv-x="494" 
d="M458 721l85 -17l-86 -87q-22 -23 -57 -23h-41zM205 558q-14 -14 -24 -18.5t-27 -4.5h-59l110 117h83l109 -117h-58q-18 0 -27.5 4.5t-24.5 18.5l-41 41zM239 466q192 0 192 -194v-272h-81l-16 58q-24 -35 -64.5 -52.5t-83.5 -17.5q-66 0 -109.5 35t-43.5 100
q0 82 74.5 125.5t214.5 19.5l12 -2v25q0 48 -27 72t-71 25q-63 0 -114 -41l-41 68q66 51 158 51zM334 188v19l-12 2q-97 15 -142.5 -7.5t-45.5 -72.5q0 -33 22.5 -52t61.5 -19q50 0 83 35t33 95z" />
    <glyph glyph-name="uni1EA6" unicode="&#x1ea6;" horiz-adv-x="615" 
d="M148 750q-35 0 -57 22l-86 88l85 17l99 -127h-41zM215 690h-59l109 118h84l109 -118h-59q-9 0 -15.5 1.5t-12.5 4.5t-11 7t-12 11l-41 41l-41 -41q-14 -14 -24 -19t-27 -5zM502 0l-63 170l-264 -1l-62 -169h-110l253 640h103l253 -640h-110zM202 242h211l-106 285z" />
    <glyph glyph-name="uni1EA7" unicode="&#x1ea7;" horiz-adv-x="494" 
d="M128 594h-41q-34 0 -56 23l-87 87l85 17zM154 534h-59l110 118h83l109 -118h-58q-18 0 -27.5 5t-24.5 19l-41 41l-41 -41q-14 -14 -24 -19t-27 -5zM239 466q192 0 192 -194v-272h-81l-16 58q-24 -35 -64.5 -52.5t-83.5 -17.5q-66 0 -109.5 35t-43.5 100q0 82 74.5 125.5
t214.5 19.5l12 -2v25q0 48 -27 72t-71 25q-63 0 -114 -41l-41 68q66 51 158 51zM334 188v19l-12 2q-97 15 -142.5 -8t-45.5 -72q0 -33 22.5 -52t61.5 -19q50 0 83 35t33 95z" />
    <glyph glyph-name="uni1EAA" unicode="&#x1eaa;" horiz-adv-x="615" 
d="M257 880q-31 0 -53 -38l-50 33q1 1 4 5q11 18 19.5 27.5t28 21t42.5 11.5q30 0 63.5 -21.5t52.5 -21.5q28 0 46 39l53 -29q-6 -13 -12 -21.5t-17.5 -21.5t-28.5 -20t-37 -7q-29 0 -60.5 21.5t-50.5 21.5zM265 808h84l109 -118h-59q-17 0 -27 5t-24 19l-41 41l-41 -41
q-14 -14 -24 -19t-27 -5h-59zM502 0l-63 170l-264 -1l-62 -169h-110l253 640h103l253 -640h-110zM202 242h211l-106 285z" />
    <glyph glyph-name="uni1EAB" unicode="&#x1eab;" horiz-adv-x="494" 
d="M196 724q-31 0 -53 -38l-50 33q1 1 5.5 8t6.5 9.5t7 9.5t9 10t10 8.5t11.5 8t12.5 6t15.5 4.5t17.5 1q29 0 63 -21.5t52 -21.5q28 0 46 39l54 -29q-7 -13 -12.5 -21.5t-17.5 -21.5t-28.5 -20t-37.5 -7q-28 0 -60 21.5t-51 21.5zM205 652h83l109 -118h-58q-18 0 -27.5 5
t-24.5 19l-41 41l-41 -41q-14 -14 -24 -19t-27 -5h-59zM239 466q192 0 192 -194v-272h-81l-16 58q-12 -18 -29.5 -32t-37.5 -22t-40.5 -12t-40.5 -4q-66 0 -109.5 35t-43.5 100q0 82 74.5 125.5t214.5 19.5l12 -2v25q0 48 -27 72t-71 25q-63 0 -114 -41l-41 68q67 51 158 51
zM334 188v19l-12 2q-97 15 -142.5 -7.5t-45.5 -72.5q0 -33 22.5 -52t61.5 -19q50 0 83 35t33 95z" />
    <glyph glyph-name="uni1EAC" unicode="&#x1eac;" horiz-adv-x="615" 
d="M266 714q-14 -14 -24 -19t-27 -5h-59l109 118h84l109 -118h-59q-17 0 -27 5t-24 19l-41 41zM612 0h-110l-63 170l-264 -1l-62 -169h-110l253 640h103zM202 242h211l-106 285zM308 -59q25 0 42.5 -17.5t17.5 -42.5t-17.5 -42.5t-42.5 -17.5q-17 0 -30.5 8t-22 22t-8.5 30
q0 25 18 42.5t43 17.5z" />
    <glyph glyph-name="uni1EAD" unicode="&#x1ead;" horiz-adv-x="494" 
d="M205 558q-14 -14 -24 -19t-27 -5h-59l110 118h83l109 -118h-58q-18 0 -27.5 5t-24.5 19l-41 41zM239 466q192 0 192 -194v-272h-81l-16 58q-24 -35 -64.5 -52.5t-83.5 -17.5q-66 0 -109.5 35t-43.5 100q0 82 74.5 125.5t214.5 19.5l12 -2v25q0 48 -27 72t-71 25
q-63 0 -114 -41l-41 68q66 51 158 51zM334 188v19l-12 2q-97 15 -142.5 -8t-45.5 -72q0 -33 22.5 -52t61.5 -19q50 0 83 35t33 95zM247 -59q25 0 43 -17.5t18 -42.5t-18 -42.5t-43 -17.5t-42.5 17.5t-17.5 42.5q0 16 8 30t22 22t30 8z" />
    <glyph glyph-name="uni1EAE" unicode="&#x1eae;" horiz-adv-x="615" 
d="M357 827q-22 -22 -57 -22h-41l99 126l85 -16zM307.5 690q-67.5 0 -106 32t-40.5 85h61q4 -25 25 -42.5t60 -17.5t60.5 17.5t24.5 42.5h61q-2 -53 -40 -85t-105.5 -32zM502 0l-63 170l-264 -1l-62 -169h-110l253 640h103l253 -640h-110zM202 242h211l-106 285z" />
    <glyph glyph-name="uni1EAF" unicode="&#x1eaf;" horiz-adv-x="494" 
d="M199 649l99 127l84 -17l-86 -87q-22 -23 -56 -23h-41zM246.5 534q-67.5 0 -105.5 32t-40 85h61q3 -25 24.5 -42.5t60.5 -17.5t60 17.5t25 42.5h61q-2 -53 -40.5 -85t-106 -32zM186 -12q-66 0 -109.5 35t-43.5 100q0 82 74.5 125.5t214.5 19.5l12 -2v25q0 48 -27 72
t-71 25q-63 0 -114 -41l-41 68q66 51 158 51q192 0 192 -194v-272h-81l-16 58q-24 -35 -64.5 -52.5t-83.5 -17.5zM218 58q50 0 83 35t33 95v19l-12 2q-97 15 -142.5 -7.5t-45.5 -72.5q0 -33 22.5 -52t61.5 -19z" />
    <glyph glyph-name="uni1EB0" unicode="&#x1eb0;" horiz-adv-x="615" 
d="M311 805q-35 0 -57 22l-86 88l85 16l99 -126h-41zM307.5 690q-67.5 0 -106 32t-40.5 85h61q4 -25 25 -42.5t60 -17.5t60.5 17.5t24.5 42.5h61q-2 -53 -40 -85t-105.5 -32zM502 0l-63 170l-264 -1l-62 -169h-110l253 640h103l253 -640h-110zM202 242h211l-106 285z" />
    <glyph glyph-name="uni1EB1" unicode="&#x1eb1;" horiz-adv-x="494" 
d="M291 649h-41q-34 0 -56 23l-86 87l84 17zM246.5 534q-67.5 0 -105.5 32t-40 85h61q3 -25 24.5 -42.5t60.5 -17.5t60 17.5t25 42.5h61q-2 -53 -40.5 -85t-106 -32zM186 -12q-66 0 -109.5 35t-43.5 100q0 82 74.5 125.5t214.5 19.5l12 -2v25q0 48 -27 72t-71 25
q-63 0 -114 -41l-41 68q66 51 158 51q192 0 192 -194v-272h-81l-16 58q-24 -35 -64.5 -52.5t-83.5 -17.5zM218 58q50 0 83 35t33 95v19l-12 2q-97 15 -142.5 -8t-45.5 -72q0 -33 22.5 -52t61.5 -19z" />
    <glyph glyph-name="uni1EB4" unicode="&#x1eb4;" horiz-adv-x="615" 
d="M257 886q-31 0 -53 -38l-50 33l5 7.5t7 10t7 9.5t8.5 10t9.5 8.5t12 8t13 5.5t15 4.5t17 1.5q30 0 63.5 -21.5t52.5 -21.5q28 0 46 39l53 -29q-5 -10 -8.5 -16.5t-12.5 -17.5t-18.5 -18t-24.5 -12.5t-31 -5.5q-29 0 -60.5 21.5t-50.5 21.5zM307 747q39 0 60.5 17.5
t24.5 42.5h61q-2 -53 -40 -85t-106 -32q-45 0 -78 15t-49.5 41.5t-18.5 60.5h61q4 -25 25 -42.5t60 -17.5zM502 0l-63 170l-264 -1l-62 -169h-110l253 640h103l253 -640h-110zM202 242h211l-106 285z" />
    <glyph glyph-name="uni1EB5" unicode="&#x1eb5;" horiz-adv-x="494" 
d="M307 687q-28 0 -60 21.5t-51 21.5q-31 0 -53 -38l-50 33q1 1 5.5 8t6.5 9.5t7 9.5t9 10t10 8.5t11.5 8t12.5 6t15.5 4.5t17.5 1q29 0 63 -21.5t52 -21.5q28 0 46 39l54 -29q-7 -13 -12.5 -21.5t-17.5 -21.5t-28.5 -20t-37.5 -7zM246.5 534q-67.5 0 -105.5 32t-40 85h61
q3 -25 24.5 -42.5t60.5 -17.5t60 17.5t25 42.5h61q-2 -53 -40.5 -85t-106 -32zM186 -12q-66 0 -109.5 35t-43.5 100q0 82 74.5 125.5t214.5 19.5l12 -2v25q0 48 -27 72t-71 25q-63 0 -114 -41l-41 68q66 51 158 51q192 0 192 -194v-272h-81l-16 58q-24 -35 -64.5 -52.5
t-83.5 -17.5zM218 58q50 0 83 35t33 95v19l-12 2q-97 15 -142.5 -8t-45.5 -72q0 -33 22.5 -52t61.5 -19z" />
    <glyph glyph-name="uni1EB6" unicode="&#x1eb6;" horiz-adv-x="615" 
d="M307 690q-45 0 -78 15t-49.5 41.5t-18.5 60.5h61q4 -25 25 -42.5t60 -17.5t60.5 17.5t24.5 42.5h61q-2 -53 -40 -85t-106 -32zM612 0h-110l-63 170l-264 -1l-62 -169h-110l253 640h103zM202 242h211l-106 285zM308 -59q16 0 30 -8t22 -22t8 -30q0 -25 -17.5 -42.5
t-42.5 -17.5q-17 0 -31 8t-22 22t-8 30q0 25 18 42.5t43 17.5z" />
    <glyph glyph-name="uni1EB7" unicode="&#x1eb7;" horiz-adv-x="494" 
d="M246.5 534q-67.5 0 -105.5 32t-40 85h61q3 -25 24.5 -42.5t60.5 -17.5t60 17.5t25 42.5h61q-2 -53 -40.5 -85t-106 -32zM186 -12q-66 0 -109.5 35t-43.5 100q0 82 74.5 125.5t214.5 19.5l12 -2v25q0 48 -27 72t-71 25q-63 0 -114 -41l-41 68q66 51 158 51q192 0 192 -194
v-272h-81l-16 58q-24 -35 -64.5 -52.5t-83.5 -17.5zM218 58q50 0 83 35t33 95v19l-12 2q-97 15 -142.5 -8t-45.5 -72q0 -33 22.5 -52t61.5 -19zM247 -179q-25 0 -42.5 17.5t-17.5 42.5t17.5 42.5t42.5 17.5q17 0 30.5 -8t22 -22t8.5 -30q0 -25 -18 -42.5t-43 -17.5z" />
    <glyph glyph-name="uni1EB8" unicode="&#x1eb8;" horiz-adv-x="571" 
d="M518 554h-333v-195h283v-78h-283v-195h333v-86h-435v640h435v-86zM303.5 -59q25.5 0 43 -17.5t17.5 -42.5t-17.5 -42.5t-43 -17.5t-43 17.5t-17.5 42.5t17.5 42.5t43 17.5z" />
    <glyph glyph-name="uni1EB9" unicode="&#x1eb9;" horiz-adv-x="523" 
d="M490 237v-31h-355q5 -63 42.5 -102t99.5 -39q76 0 120 52l67 -55q-66 -75 -186 -75q-110 0 -177.5 68.5t-67.5 171.5q0 101 66 170t167 69q66 0 117 -29t79 -81.5t28 -118.5zM266 390q-50 0 -84 -33.5t-44 -87.5h256q-6 56 -40 88.5t-88 32.5zM267 -60q25 0 43 -17.5
t18 -42t-18 -42t-43 -17.5t-42.5 17.5t-17.5 42t17.5 42t42.5 17.5z" />
    <glyph glyph-name="uni1EBC" unicode="&#x1ebc;" horiz-adv-x="571" 
d="M252 735q-31 0 -53 -38l-50 33q0 1 5 8t6.5 9.5t7 9.5t9 10t9.5 8.5t11.5 8t13 6t15.5 4.5t17 1q29 0 63 -21.5t53 -21.5q28 0 46 39l53 -29q-6 -13 -12 -21.5t-17.5 -21.5t-28.5 -20t-37 -7q-29 0 -61 21.5t-50 21.5zM518 554h-333v-195h283v-78h-283v-195h333v-86h-435
v640h435v-86z" />
    <glyph glyph-name="uni1EBD" unicode="&#x1ebd;" horiz-adv-x="523" 
d="M215 579q-31 0 -53 -38l-50 33q1 1 5.5 8t6.5 9.5t7.5 9.5t9 10t9.5 8.5t11.5 8t12.5 6t15.5 4.5t17.5 1q29 0 63 -21.5t52 -21.5q28 0 46 39l54 -29q-7 -13 -12.5 -21t-17.5 -21.5t-28.5 -20.5t-37.5 -7q-28 0 -60 21.5t-51 21.5zM490 237v-31h-355q5 -63 42.5 -102
t99.5 -39q76 0 120 52l67 -55q-66 -75 -186 -75q-110 0 -177.5 68.5t-67.5 171.5q0 101 66 170t167 69q99 0 161.5 -64t62.5 -165zM266 390q-50 0 -84 -33.5t-44 -87.5h256q-6 56 -40 88.5t-88 32.5z" />
    <glyph glyph-name="uni1EBE" unicode="&#x1ebe;" horiz-adv-x="571" 
d="M523 878l85 -17l-87 -87q-22 -22 -56 -22h-41zM273 712q-14 -14 -24 -19t-27 -5h-59l109 117h84l109 -117h-59q-17 0 -27 5t-24 19l-41 40zM518 640v-86h-333v-195h283v-78h-283v-195h333v-86h-435v640h435z" />
    <glyph glyph-name="uni1EBF" unicode="&#x1ebf;" horiz-adv-x="523" 
d="M477 617q-22 -23 -57 -23h-41l99 127l85 -17zM225 558q-14 -14 -24 -18.5t-27 -4.5h-59l109 117h84l109 -117h-58q-18 0 -28 4.5t-24 18.5l-41 41zM266 466q100 0 162 -64t62 -165v-31h-355q3 -41 20.5 -73t49 -50t72.5 -18q76 0 120 52l67 -55q-66 -75 -186 -75
q-110 0 -177.5 68.5t-67.5 171.5q0 101 66 170t167 69zM266 390q-50 0 -84 -33.5t-44 -87.5h256q-2 22 -9 41t-18.5 33.5t-26 25t-33.5 16t-41 5.5z" />
    <glyph glyph-name="uni1EC0" unicode="&#x1ec0;" horiz-adv-x="571" 
d="M179 752h-41q-35 0 -57 22l-86 87l85 17zM222 688h-59l109 117h84l109 -117h-59q-17 0 -27 5t-24 19l-41 40l-41 -40q-14 -14 -24 -19t-27 -5zM518 554h-333v-195h283v-78h-283v-195h333v-86h-435v640h435v-86z" />
    <glyph glyph-name="uni1EC1" unicode="&#x1ec1;" horiz-adv-x="523" 
d="M107 594q-35 0 -57 23l-86 87l85 17l99 -127h-41zM174 534h-59l109 118h84l109 -118h-58q-18 0 -28 5t-24 19l-41 41l-41 -41q-14 -14 -24 -19t-27 -5zM490 237v-31h-355q3 -41 20.5 -73t49 -50t72.5 -18q76 0 120 52l67 -55q-66 -75 -186 -75q-110 0 -177.5 68.5
t-67.5 171.5q0 101 66 170t167 69q66 0 117 -29t79 -81.5t28 -118.5zM266 390q-50 0 -84 -33.5t-44 -87.5h256q-6 56 -40 88.5t-88 32.5z" />
    <glyph glyph-name="uni1EC4" unicode="&#x1ec4;" horiz-adv-x="571" 
d="M264 877q-31 0 -53 -37l-50 32q0 1 5 8.5t7 9.5t7 9t8.5 10t9.5 8.5t12 8.5t13 6t15.5 4.5t16.5 1.5q30 0 63.5 -21.5t52.5 -21.5q28 0 46 39l53 -30q-6 -12 -11.5 -20.5t-17.5 -21.5t-29 -20.5t-37 -7.5q-29 0 -60.5 21.5t-50.5 21.5zM272 805h84l109 -117h-59
q-17 0 -27 5t-24 19l-41 40l-41 -40q-14 -14 -24 -19t-27 -5h-59zM518 554h-333v-195h283v-78h-283v-195h333v-86h-435v640h435v-86z" />
    <glyph glyph-name="uni1EC5" unicode="&#x1ec5;" horiz-adv-x="523" 
d="M216 724q-31 0 -53 -38l-50 33q1 1 5 7t5.5 8.5t6 8.5t7.5 9t8.5 8t9.5 8t10.5 6.5t12.5 5.5t14 3t16 1q29 0 63 -21.5t52 -21.5q28 0 46 39l54 -29q-7 -13 -12.5 -21.5t-17.5 -21.5t-29 -20t-37 -7q-28 0 -60 21.5t-51 21.5zM224 652h84l109 -117h-58q-18 0 -28 4.5
t-24 18.5l-41 41l-41 -41q-14 -14 -24 -19t-27 -5h-59zM490 237v-31h-355q5 -63 42.5 -102t99.5 -39q76 0 120 52l67 -55q-66 -75 -186 -75q-73 0 -129 32t-86 86.5t-30 121.5q0 101 66 170t167 69q100 0 162 -64t62 -165zM266 390q-50 0 -84 -33.5t-44 -87.5h256
q-4 37 -20.5 64t-44 42t-63.5 15z" />
    <glyph glyph-name="uni1EC6" unicode="&#x1ec6;" horiz-adv-x="571" 
d="M262 714q-15 -14 -24.5 -19t-27.5 -5h-58l109 118h83l109 -118h-58q-17 0 -27 5t-24 19l-41 41zM518 554h-333v-195h283v-78h-283v-195h333v-86h-435v640h435v-86zM303.5 -59q25.5 0 43 -17.5t17.5 -42.5t-17.5 -42.5t-43 -17.5t-43 17.5t-17.5 42.5t17.5 42.5t43 17.5z
" />
    <glyph glyph-name="uni1EC7" unicode="&#x1ec7;" horiz-adv-x="523" 
d="M225 558q-14 -14 -24 -18.5t-27 -4.5h-59l109 117h84l109 -117h-58q-18 0 -28 4.5t-24 18.5l-41 41zM490 237v-31h-355q3 -41 20.5 -73t49 -50t72.5 -18q76 0 120 52l67 -55q-66 -75 -186 -75q-110 0 -177.5 68.5t-67.5 171.5q0 101 66 170t167 69q66 0 117 -29t79 -81.5
t28 -118.5zM266 390q-50 0 -84 -33.5t-44 -87.5h256q-2 22 -9 41t-18.5 33.5t-26 25t-33.5 16t-41 5.5zM267 -60q25 0 43 -17.5t18 -42t-18 -42t-43 -17.5t-42.5 17.5t-17.5 42t17.5 42t42.5 17.5z" />
    <glyph glyph-name="uni1ECA" unicode="&#x1eca;" horiz-adv-x="268" 
d="M185 640v-640h-102v640h102zM135 -179q-25 0 -43 17.5t-18 42.5t18 42.5t43 17.5q16 0 30 -8t22 -22t8 -30q0 -25 -17.5 -42.5t-42.5 -17.5z" />
    <glyph glyph-name="uni1ECB" unicode="&#x1ecb;" horiz-adv-x="231" 
d="M115 543q-26 0 -44 18t-18 43q0 13 5 24.5t13 19.5t20 13t24 5q26 0 44.5 -18t18.5 -43.5t-18.5 -43.5t-44.5 -18zM68 0v454h95v-454h-95zM112 -179q-25 0 -43 17.5t-18 42.5t18 42.5t43 17.5t42.5 -17.5t17.5 -42.5t-17.5 -42.5t-42.5 -17.5z" />
    <glyph glyph-name="uni1ECC" unicode="&#x1ecc;" horiz-adv-x="784" 
d="M392.5 -13q-99.5 0 -177.5 45t-120 121t-42 169q0 92 42 168t120 121t177 45q75 0 139 -26.5t107.5 -71t68 -106t24.5 -130.5q0 -93 -41.5 -169t-119.5 -121t-177.5 -45zM392 78q104 0 168.5 71t64.5 173t-64 172.5t-168.5 70.5t-169 -70.5t-64.5 -172.5t64.5 -173
t168.5 -71zM393 -179q-25 0 -43 17.5t-18 42.5t18 42.5t43 17.5t42.5 -17.5t17.5 -42.5t-17.5 -42.5t-42.5 -17.5z" />
    <glyph glyph-name="uni1ECD" unicode="&#x1ecd;" horiz-adv-x="552" 
d="M276.5 -13q-70.5 0 -126.5 32t-86.5 86.5t-30.5 121.5q0 102 68.5 170.5t175 68.5t174.5 -68.5t68 -170.5q0 -67 -30.5 -121.5t-86 -86.5t-126 -32zM276 70q62 0 102.5 45t40.5 112q0 44 -18 79.5t-51 56t-74 20.5q-31 0 -57.5 -12t-45 -33t-29 -49.5t-10.5 -61.5
q0 -67 40 -112t102 -45zM277 -179q-25 0 -43 17.5t-18 42.5t18 42.5t43 17.5t42.5 -17.5t17.5 -42.5t-17.5 -42.5t-42.5 -17.5z" />
    <glyph glyph-name="uni1ED0" unicode="&#x1ed0;" horiz-adv-x="784" 
d="M602 772q-22 -22 -56 -22h-41l99 127l84 -17zM351 714q-15 -14 -24.5 -19t-27.5 -5h-58l109 118h83l110 -118h-59q-17 0 -27 5t-24 19l-41 41zM392 656q75 0 139 -26.5t107.5 -71t68 -106t24.5 -130.5q0 -93 -41.5 -169t-119.5 -121t-177.5 -45t-177.5 45t-120 121
t-42 169q0 92 42 168t120 121t177 45zM392 78q104 0 168.5 71t64.5 173t-64 172.5t-168.5 70.5t-169 -70.5t-64.5 -172.5t64.5 -173t168.5 -71z" />
    <glyph glyph-name="uni1ED1" unicode="&#x1ed1;" horiz-adv-x="552" 
d="M486 617q-22 -23 -56 -23h-41l99 127l84 -17zM235 558q-14 -14 -24 -19t-28 -5h-58l109 118h84l109 -118h-59q-17 0 -27 5t-24 19l-41 41zM276.5 466q106.5 0 174.5 -68.5t68 -170.5q0 -67 -30.5 -121.5t-86 -86.5t-126 -32t-126.5 32t-86.5 86.5t-30.5 121.5
q0 102 68.5 170.5t175 68.5zM276 70q62 0 102.5 45t40.5 112t-40.5 111.5t-102.5 44.5q-31 0 -57.5 -12t-45 -33t-29 -49.5t-10.5 -61.5q0 -67 40 -112t102 -45z" />
    <glyph glyph-name="uni1ED2" unicode="&#x1ed2;" horiz-adv-x="784" 
d="M232 750q-34 0 -56 22l-86 88l85 17l99 -127h-42zM299 690h-58l109 118h83l110 -118h-59q-17 0 -27 5t-24 19l-41 41l-41 -41q-15 -14 -24.5 -19t-27.5 -5zM392 656q75 0 139 -26.5t107.5 -71t68 -106t24.5 -130.5q0 -93 -41.5 -169t-119.5 -121t-177.5 -45t-177.5 45
t-120 121t-42 169q0 92 42 168t120 121t177 45zM392 78q104 0 168.5 71t64.5 173t-64 172.5t-168.5 70.5t-169 -70.5t-64.5 -172.5t64.5 -173t168.5 -71z" />
    <glyph glyph-name="uni1ED3" unicode="&#x1ed3;" horiz-adv-x="552" 
d="M117 594q-35 0 -57 22l-86 88l85 17l99 -127h-41zM183 534h-58l109 118h84l109 -118h-59q-17 0 -27 5t-24 19l-41 41l-41 -41q-10 -9 -16.5 -14t-14.5 -7.5t-21 -2.5zM276.5 466q106.5 0 174.5 -68.5t68 -170.5q0 -67 -30.5 -121.5t-86 -86.5t-126.5 -32
q-106 0 -174.5 69t-68.5 171t68.5 170.5t175 68.5zM276 70q62 0 102.5 45t40.5 112t-40.5 111.5t-102.5 44.5q-31 0 -57.5 -12t-45 -33t-29 -49.5t-10.5 -61.5q0 -67 40 -112t102 -45z" />
    <glyph glyph-name="uni1ED6" unicode="&#x1ed6;" horiz-adv-x="784" 
d="M342 880q-31 0 -53 -38l-50 33q1 1 3 5q12 18 20 27.5t28 21t43 11.5q29 0 63 -21.5t52 -21.5q28 0 47 39l53 -29q-7 -13 -12.5 -21.5t-17 -21.5t-28.5 -20t-37 -7q-29 0 -61 21.5t-50 21.5zM350 808h83l110 -118h-59q-17 0 -27 5t-24 19l-41 41l-41 -41
q-15 -14 -24.5 -19t-27.5 -5h-58zM392 656q75 0 139 -26.5t107.5 -71t68 -106t24.5 -130.5q0 -93 -41.5 -169t-119.5 -121t-177.5 -45t-177.5 45t-120 121t-42 169q0 92 42 168t120 121t177 45zM392 78q104 0 168.5 71t64.5 173t-64 172.5t-169 70.5q-69 0 -123 -33.5
t-82 -88.5t-28 -121q0 -102 64.5 -173t168.5 -71z" />
    <glyph glyph-name="uni1ED7" unicode="&#x1ed7;" horiz-adv-x="552" 
d="M226 724q-31 0 -53 -38l-50 33q0 1 5 8t7 9.5t7 9.5t8.5 10t9.5 8.5t11.5 8t13 5.5t15.5 4.5t17 1.5q30 0 63.5 -21.5t52.5 -21.5q28 0 46 39l53 -29q-6 -13 -12 -21.5t-17.5 -21.5t-28.5 -20t-37 -7q-29 0 -61 21.5t-50 21.5zM234 652h84l109 -118h-59q-17 0 -27 5
t-24 19l-41 41l-41 -41q-10 -9 -16.5 -14t-15 -7.5t-20.5 -2.5h-58zM276.5 466q106.5 0 174.5 -68.5t68 -170.5q0 -67 -30.5 -121.5t-86 -86.5t-126.5 -32q-106 0 -174.5 69t-68.5 171t68.5 170.5t175 68.5zM276 70q62 0 102.5 45t40.5 112q0 44 -18 79.5t-51 56t-74 20.5
q-31 0 -57.5 -12t-45 -33t-29 -49.5t-10.5 -61.5q0 -67 40 -112t102 -45z" />
    <glyph glyph-name="uni1ED8" unicode="&#x1ed8;" horiz-adv-x="784" 
d="M351 714q-15 -14 -24.5 -19t-27.5 -5h-58l109 118h83l110 -118h-59q-17 0 -27 5t-24 19l-41 41zM392 656q75 0 139 -26.5t107.5 -71t68 -106t24.5 -130.5q0 -93 -41.5 -169t-119.5 -121t-177.5 -45t-177.5 45t-120 121t-42 169q0 92 42 168t120 121t177 45zM392 78
q104 0 168.5 71t64.5 173t-64 172.5t-169 70.5q-69 0 -123 -33.5t-82 -88.5t-28 -121q0 -102 64.5 -173t168.5 -71zM393 -59q25 0 42.5 -17.5t17.5 -42.5t-17.5 -42.5t-42.5 -17.5t-43 17.5t-18 42.5t18 42.5t43 17.5z" />
    <glyph glyph-name="uni1ED9" unicode="&#x1ed9;" horiz-adv-x="552" 
d="M235 558q-14 -14 -24 -19t-28 -5h-58l109 118h84l109 -118h-59q-12 0 -20 2.5t-14.5 7.5t-16.5 14l-41 41zM276.5 466q106.5 0 174.5 -68.5t68 -170.5q0 -67 -30.5 -121.5t-86 -86.5t-126 -32t-126.5 32t-86.5 86.5t-30.5 121.5q0 102 68.5 170.5t175 68.5zM276 70
q62 0 102.5 45t40.5 112q0 44 -18 79.5t-51 56t-74 20.5q-31 0 -57.5 -12t-45 -33t-29 -49.5t-10.5 -61.5q0 -67 40 -112t102 -45zM277 -59q25 0 42.5 -17.5t17.5 -42.5t-17.5 -42.5t-42.5 -17.5t-43 17.5t-18 42.5q0 16 8 30t22 22t31 8z" />
    <glyph glyph-name="uni1EE4" unicode="&#x1ee4;" horiz-adv-x="686" 
d="M343 -13q-122 0 -193.5 64t-71.5 197v392h102v-380q0 -48 12 -83.5t34.5 -57t51.5 -31.5t65 -10q75 0 119 44t44 138v380h102v-392q0 -133 -71.5 -197t-193.5 -64zM344 -179q-25 0 -43 17.5t-18 42.5t18 42.5t43 17.5t42.5 -17.5t17.5 -42.5q0 -16 -8 -30t-22 -22t-30 -8
z" />
    <glyph glyph-name="uni1EE5" unicode="&#x1ee5;" 
d="M372 454h97v-454h-85l-11 53q-52 -65 -140 -65q-32 0 -60.5 9.5t-54 30t-40.5 58t-15 87.5v281h97v-259q0 -58 25 -91t75 -33q43 0 75 31.5t37 100.5v251zM263 -59q16 0 30 -8t22 -22t8 -30q0 -25 -17.5 -42.5t-42.5 -17.5t-43 17.5t-18 42.5t18 42.5t43 17.5z" />
    <glyph glyph-name="Ygrave" unicode="&#x1ef2;" horiz-adv-x="542" 
d="M333 690q-25 0 -46 10t-55 46l-80 84l90 15l127 -155h-36zM549 640l-227 -343v-297h-102v297l-227 343h118l160 -248l161 248h117z" />
    <glyph glyph-name="ygrave" unicode="&#x1ef3;" horiz-adv-x="471" 
d="M297 534q-25 0 -46 10t-55 47l-80 83l90 16l128 -156h-37zM369 454h104l-238 -571q-39 -93 -125 -93q-15 0 -28.5 2.5t-19.5 5.5l-6 2l17 82q14 -9 33 -9q34 0 52 47l31 78l-191 456h103l134 -340z" />
    <glyph glyph-name="uni1EF4" unicode="&#x1ef4;" horiz-adv-x="542" 
d="M220 0v297l-227 343h118l160 -248l161 248h117l-227 -343v-297h-102zM271.5 -59q16.5 0 30.5 -8t22 -22t8 -30q0 -25 -17.5 -42.5t-42.5 -17.5t-43 17.5t-18 42.5q0 16 8 30t22 22t30.5 8z" />
    <glyph glyph-name="uni1EF5" unicode="&#x1ef5;" horiz-adv-x="471" 
d="M369 454h104l-238 -571q-39 -93 -125 -93q-15 0 -28.5 2.5t-19.5 5.5l-6 2l17 82q14 -9 33 -9q34 0 52 47l31 78l-191 456h103l134 -340zM353 -59q16 0 30 -8t22 -22t8 -30q0 -25 -17.5 -42.5t-42.5 -17.5t-43 17.5t-18 42.5t18 42.5t43 17.5z" />
    <glyph glyph-name="uni1EF8" unicode="&#x1ef8;" horiz-adv-x="542" 
d="M220 735q-31 0 -53 -38l-50 33q1 1 5 7t5.5 8.5t6 8.5t7.5 9l8 8t9.5 8t11 6.5t12.5 5t13.5 3t15.5 1.5q30 0 63.5 -21.5t52.5 -21.5q28 0 46 39l53 -29q-6 -13 -12 -21.5t-17.5 -21.5t-28.5 -20t-37 -7q-29 0 -61 21.5t-50 21.5zM549 640l-227 -343v-297h-102v297
l-227 343h118l160 -248l161 248h117z" />
    <glyph glyph-name="uni1EF9" unicode="&#x1ef9;" horiz-adv-x="471" 
d="M184 579q-31 0 -53 -38l-50 33q1 1 5 7t5.5 8.5t6 8.5t7.5 9t8.5 8t9.5 8t10.5 6.5t12.5 5.5t14 3t16 1q29 0 63 -21.5t52 -21.5q28 0 46 39l53 -29q-6 -13 -11.5 -21t-17.5 -21.5t-29 -20.5t-37 -7q-28 0 -60 21.5t-51 21.5zM369 454h104l-238 -571q-39 -93 -125 -93
q-15 0 -28.5 2.5t-19.5 5.5l-6 2l17 82q14 -9 33 -9q34 0 52 47l31 78l-191 456h103l134 -340z" />
    <glyph glyph-name="uni2009" unicode="&#x2009;" horiz-adv-x="10" 
 />
    <glyph glyph-name="endash" unicode="&#x2013;" horiz-adv-x="520" 
d="M49 247v80h422v-80h-422z" />
    <glyph glyph-name="emdash" unicode="&#x2014;" horiz-adv-x="773" 
d="M49 247v80h674v-80h-674z" />
    <glyph glyph-name="quoteleft" unicode="&#x2018;" horiz-adv-x="238" 
d="M175 659l17 -45q-75 -36 -78 -94q17 4 33.5 -1.5t27 -20.5t10.5 -35q-2 -27 -20.5 -44.5t-48.5 -16.5q-34 1 -53.5 28.5t-18.5 65.5q2 31 15 61.5t43 58.5t73 43z" />
    <glyph glyph-name="quoteright" unicode="&#x2019;" horiz-adv-x="238" 
d="M64 399l-18 45q75 36 78 95q-26 -7 -48.5 9.5t-21.5 46.5q1 28 19.5 45t48.5 16q34 -1 53.5 -28t18.5 -65q-1 -32 -14.5 -62.5t-43.5 -58.5t-72 -43z" />
    <glyph glyph-name="quotesinglbase" unicode="&#x201a;" horiz-adv-x="276" 
d="M83 -145l-18 45q75 36 78 94q-26 -6 -48.5 10.5t-21.5 46.5q1 28 20 45t48 16q34 -1 53.5 -28t18.5 -65q-2 -50 -34.5 -96t-95.5 -68z" />
    <glyph glyph-name="quotedblleft" unicode="&#x201c;" horiz-adv-x="415" 
d="M175 659l17 -45q-75 -36 -78 -95q17 5 33.5 -0.5t27 -20.5t10.5 -35q-2 -28 -20.5 -45t-48.5 -16q-34 1 -53.5 28t-18.5 65q2 50 35 95.5t96 68.5zM351 659l18 -45q-75 -36 -78 -95q17 5 33.5 -0.5t27 -20.5t9.5 -35q-1 -28 -19.5 -45t-48.5 -16q-34 1 -53.5 28t-18.5 65
q1 32 14.5 62.5t43.5 58.5t72 43z" />
    <glyph glyph-name="quotedblright" unicode="&#x201d;" horiz-adv-x="415" 
d="M64 399l-18 45q75 37 78 95q-26 -7 -48.5 9.5t-21.5 46.5q1 28 19.5 45.5t48.5 16.5q34 -2 53.5 -29t18.5 -65q-2 -50 -35 -95.5t-95 -68.5zM241 399l-18 45q75 37 78 95q-26 -7 -49 9.5t-21 46.5q1 28 19.5 45.5t48.5 16.5q34 -2 53.5 -29t18.5 -65q-2 -32 -15 -62
t-43 -58.5t-72 -43.5z" />
    <glyph glyph-name="quotedblbase" unicode="&#x201e;" horiz-adv-x="453" 
d="M83 -148l-18 45q75 37 78 95q-26 -7 -48.5 9.5t-21.5 47.5q1 27 20 44.5t48 16.5q34 -2 53.5 -29t18.5 -65q-2 -50 -34.5 -95.5t-95.5 -68.5zM260 -148l-18 45q75 37 78 95q-26 -7 -48.5 9.5t-21.5 47.5q1 27 19.5 44.5t48.5 16.5q34 -2 53.5 -29t18.5 -65
q-2 -50 -35 -95.5t-95 -68.5z" />
    <glyph glyph-name="dagger" unicode="&#x2020;" horiz-adv-x="425" 
d="M389 508v-76h-132v-538h-88v538h-133v76h133v172h88v-172h132z" />
    <glyph glyph-name="daggerdbl" unicode="&#x2021;" horiz-adv-x="425" 
d="M398 142v-76h-141v-172h-88v172h-123v76h123v290h-133v76h133v172h88v-172h132v-76h-132v-290h141z" />
    <glyph glyph-name="bullet" unicode="&#x2022;" horiz-adv-x="328" 
d="M165 223q-17 0 -32.5 5.5t-28 14.5t-22 21.5t-15 28t-5.5 32.5q0 42 30 71.5t73 29.5q16 0 32 -5t28.5 -14.5t22 -22t14.5 -28t5 -31.5q0 -42 -30 -72t-72 -30z" />
    <glyph glyph-name="ellipsis" unicode="&#x2026;" horiz-adv-x="686" 
d="M126 -9q-26 0 -44.5 18t-18.5 44t18.5 44t44.5 18t44 -18t18 -44t-18 -44t-44 -18zM343 -9q-26 0 -44.5 18t-18.5 44q0 17 8.5 31t23 22.5t31.5 8.5q13 0 24.5 -5t20 -13.5t13.5 -19.5t5 -24q0 -26 -18.5 -44t-44.5 -18zM560 -9q-26 0 -44 18t-18 44t18 44t44 18
t44.5 -18t18.5 -44q0 -17 -8.5 -31t-23 -22.5t-31.5 -8.5z" />
    <glyph glyph-name="perthousand" unicode="&#x2030;" horiz-adv-x="1220" 
d="M210.5 250q-71.5 0 -114.5 55t-43 145q0 60 19.5 105.5t55.5 70t83 24.5t82.5 -24.5t55 -70t19.5 -105.5q0 -90 -43 -145t-114.5 -55zM186 0l409 640h76l-409 -640h-76zM210.5 317q37.5 0 56.5 37t19 96t-19 96t-56.5 37t-56.5 -37t-19 -96t19 -96t56.5 -37zM658 -10
q-71 0 -114.5 55t-43.5 145t43.5 145t114.5 55t114 -55t43 -145t-43 -145t-114 -55zM1009 -10q-71 0 -114 55t-43 145t43 145t114 55t114.5 -55t43.5 -145t-43.5 -145t-114.5 -55zM658 57q25 0 42.5 18.5t25 47.5t7.5 67q0 59 -19 96t-56 37t-56 -37t-19 -96t19 -96t56 -37z
M1009 57q37 0 56 37t19 96t-19 96t-56 37t-56 -37t-19 -96t19 -96t56 -37z" />
    <glyph glyph-name="second" unicode="&#x2033;" horiz-adv-x="600" 
 />
    <glyph glyph-name="guilsinglleft" unicode="&#x2039;" horiz-adv-x="307" 
d="M274 420l-150 -178l150 -178h-94l-147 178l147 178h94z" />
    <glyph glyph-name="guilsinglright" unicode="&#x203a;" horiz-adv-x="307" 
d="M126 420l148 -178l-148 -178h-93l149 178l-149 178h93z" />
    <glyph glyph-name="fraction" unicode="&#x2044;" horiz-adv-x="143" 
d="M-162 0l409 640h76l-409 -640h-76z" />
    <glyph glyph-name="uni2070" unicode="&#x2070;" horiz-adv-x="401" 
d="M201 350q-47 0 -83 24.5t-55.5 70t-19.5 105.5q0 90 43 145t115 55q47 0 82.5 -24.5t55 -70t19.5 -105.5q0 -90 -43 -145t-114 -55zM200.5 417q37.5 0 56.5 37t19 96t-19 96t-56.5 37t-56.5 -37t-19 -96t19 -96t56.5 -37z" />
    <glyph glyph-name="uni2074" unicode="&#x2074;" horiz-adv-x="356" 
d="M343 500v-66h-45v-74h-78v74h-176l-21 55l147 251h87l-145 -240h109l1 91h76v-91h45z" />
    <glyph glyph-name="uni2075" unicode="&#x2075;" horiz-adv-x="375" 
d="M203 600v-1q59 0 94 -33t35 -88q0 -33 -17 -62t-51.5 -47.5t-78.5 -18.5q-87 0 -152 56l40 60l6.5 -6t7.5 -7t7.5 -6.5t9 -7t9 -5.5t11 -6t11.5 -5t13 -4t14 -2t16 -1q34 0 52.5 19t18.5 44q0 13 -4.5 23.5t-12 18t-18.5 12t-23 4.5q-13 0 -23.5 -2.5t-17 -5.5
t-11.5 -6.5t-7 -5.5l-1 -2l-70 30l36 195h210v-66h-150l-18 -93q27 19 64 19z" />
    <glyph glyph-name="uni2076" unicode="&#x2076;" horiz-adv-x="392" 
d="M209 350q-90 0 -134 74q-32 50 -32 120q0 91 52.5 148.5t130.5 57.5q18 0 34.5 -2.5t27.5 -6.5t19.5 -7.5t12.5 -6.5l4 -3l-35 -58q-26 19 -61 19q-48 0 -77.5 -42t-26.5 -99q32 58 94 58q65 0 98 -35t33 -87q0 -53 -38 -91.5t-102 -38.5zM203 415q18 0 33 8t23.5 22.5
t8.5 31.5q0 25 -19 43t-46 18q-18 0 -33 -8t-24 -22.5t-9 -30.5q0 -26 19 -44t47 -18z" />
    <glyph glyph-name="uni2077" unicode="&#x2077;" horiz-adv-x="341" 
d="M33 740h275v-45q-75 -88 -106 -166.5t-31 -168.5h-85q0 78 29.5 153.5t92.5 159.5h-175v67z" />
    <glyph glyph-name="uni2078" unicode="&#x2078;" horiz-adv-x="379" 
d="M262 565q35 -12 54.5 -38.5t19.5 -60.5q0 -47 -37 -81.5t-109 -34.5t-109.5 34.5t-37.5 81.5q0 34 20 60.5t55 38.5q-60 25 -60 84q0 43 36.5 72t95.5 29q39 0 69.5 -14t46 -36.5t15.5 -50.5q0 -59 -59 -84zM190 687q-14 0 -26 -5.5t-19 -16t-7 -24.5q0 -20 15 -33
t37 -13t37 13t15 33.5t-15 33t-37 12.5zM190 413q27 0 45.5 16.5t18.5 41.5t-19 41t-45 16q-27 0 -46 -16t-19 -41q0 -12 5 -23t14 -18.5t21 -12t25 -4.5z" />
    <glyph glyph-name="uni2079" unicode="&#x2079;" horiz-adv-x="392" 
d="M184 750q89 0 133 -74q32 -50 32 -120q0 -91 -52.5 -148.5t-129.5 -57.5q-29 0 -53.5 6.5t-34.5 12.5l-11 7l36 58q25 -19 60 -19q49 0 78.5 42t26.5 99q-33 -58 -95 -58q-65 0 -98 35t-33 87q0 53 38 91.5t103 38.5zM190 685q-18 0 -33.5 -8t-24 -22.5t-8.5 -30.5
q0 -26 19 -44t47 -18q13 0 25 5t21 13t14 19.5t5 24.5q0 16 -8.5 30.5t-23.5 22.5t-33 8z" />
    <glyph glyph-name="uni2080" unicode="&#x2080;" horiz-adv-x="401" 
d="M201 -110q-36 0 -65 14.5t-49.5 40.5t-32 63t-11.5 82q0 90 43 145t115 55q47 0 82.5 -24.5t55 -70t19.5 -105.5q0 -90 -43 -145t-114 -55zM200.5 -43q37.5 0 56.5 37t19 96t-19 96t-56.5 37t-56.5 -37t-19 -96t19 -96t56.5 -37z" />
    <glyph glyph-name="uni2081" unicode="&#x2081;" horiz-adv-x="252" 
d="M136 280h72v-380h-80v294l-82 -50l-33 60z" />
    <glyph glyph-name="uni2082" unicode="&#x2082;" horiz-adv-x="378" 
d="M139 -35h195v-65h-291v21q0 33 15 61t37 45.5t48 35t48 31t37 31.5t15 38q0 16 -6 28.5t-19 20.5t-31 8q-15 0 -27.5 -5t-24 -16.5t-16 -16.5t-16.5 -20l-56 46q23 32 60 57t86 25q59 0 97.5 -33t38.5 -87q0 -31 -16.5 -57t-42 -44.5t-51.5 -34t-49 -33.5t-31 -36z" />
    <glyph glyph-name="uni2083" unicode="&#x2083;" horiz-adv-x="375" 
d="M199 122q55 1 94 -29t38 -83q0 -54 -41 -86.5t-112 -33.5q-79 0 -145 54l41 57q46 -44 98 -44q33 0 52.5 14.5t21.5 37.5q3 39 -34 56q-34 16 -87 -3l-26 46l104 106h-146v66h259v-37z" />
    <glyph glyph-name="uni2084" unicode="&#x2084;" horiz-adv-x="356" 
d="M343 40v-66h-45v-74h-78v74h-176l-21 55l147 251h87l-145 -240h109l1 91h76v-91h45z" />
    <glyph glyph-name="uni2085" unicode="&#x2085;" horiz-adv-x="375" 
d="M203 140v-1q59 0 94 -33t35 -88q0 -52 -40.5 -90t-106.5 -38q-87 0 -152 56l40 60l6.5 -6t7.5 -7t7.5 -6.5t9 -7t9 -5.5t11 -6t11.5 -5t13 -4t14 -2t16 -1q34 0 52.5 19t18.5 44q0 26 -16.5 41.5t-41.5 16.5q-20 0 -35 -5.5t-20 -11.5l-5 -5l-70 30l36 195h210v-66h-150
l-18 -93q27 19 64 19z" />
    <glyph glyph-name="uni2086" unicode="&#x2086;" horiz-adv-x="392" 
d="M209 -110q-90 0 -134 74q-32 50 -32 120q0 91 52.5 148.5t130.5 57.5q13 0 25.5 -1.5t22 -3.5t18 -5t14 -5.5t10 -5t6.5 -3.5l2 -2l-35 -58q-26 19 -61 19q-48 0 -77.5 -42t-26.5 -99q32 58 94 58q65 0 98 -35t33 -87q0 -34 -16 -63.5t-48.5 -48t-75.5 -18.5zM202.5 -45
q27.5 0 46.5 18t19 43.5t-19 43.5t-46 18q-18 0 -33 -8t-24 -22.5t-9 -30.5q0 -26 19 -44t46.5 -18z" />
    <glyph glyph-name="uni2087" unicode="&#x2087;" horiz-adv-x="341" 
d="M33 280h275v-45q-75 -88 -106 -166.5t-31 -168.5h-85q0 78 29.5 153.5t92.5 159.5h-175v67z" />
    <glyph glyph-name="uni2088" unicode="&#x2088;" horiz-adv-x="379" 
d="M262 105q35 -12 54.5 -38.5t19.5 -60.5q0 -47 -37 -81.5t-109 -34.5t-109.5 34.5t-37.5 81.5q0 34 20 60.5t55 38.5q-60 25 -60 84q0 43 36.5 72t95.5 29t95 -29t36 -72q0 -59 -59 -84zM190 227q-22 0 -37 -12.5t-15 -33t15 -33.5t37 -13t37 13t15 33.5t-15 33t-37 12.5z
M190 -47q27 0 45.5 16.5t18.5 41.5t-19 41t-45 16q-27 0 -46 -16t-19 -41q0 -16 9 -29.5t23.5 -21t32.5 -7.5z" />
    <glyph glyph-name="uni2089" unicode="&#x2089;" horiz-adv-x="392" 
d="M184 290q89 0 133 -74q32 -50 32 -120q0 -91 -52.5 -148.5t-129.5 -57.5q-29 0 -53.5 6.5t-34.5 12.5l-11 7l36 58q25 -19 60 -19q49 0 78.5 42t26.5 99q-33 -58 -95 -58q-65 0 -98 35t-33 87q0 53 38 91.5t103 38.5zM189.5 225q-27.5 0 -46.5 -18t-19 -43.5t19 -43.5
t47 -18q13 0 25 5t21 13t14 19.5t5 24.5q0 25 -19 43t-46.5 18z" />
    <glyph glyph-name="Euro" unicode="&#x20ac;" horiz-adv-x="520" 
d="M372 68q47 0 80 16l34 -78q-46 -19 -113 -19q-118 0 -200.5 67.5t-109.5 176.5h-61v60h52q-1 15 -1 31q0 15 1 31h-52v59h61q27 109 109.5 176.5t200.5 67.5q64 0 114 -18l-35 -78q-33 15 -80 15q-76 0 -130.5 -44.5t-76.5 -118.5h222l-24 -59h-210q-1 -15 -1 -31t1 -31
h186l-24 -60h-150q22 -73 76.5 -118t130.5 -45z" />
    <glyph glyph-name="uni2113" unicode="&#x2113;" horiz-adv-x="501" 
d="M373 123l45 -56q-2 -3 -6.5 -8.5t-19 -19t-31 -24t-42 -19t-52.5 -8.5q-68 0 -101.5 41t-33.5 113v46q-12 -7 -25 -15l-24 56q27 15 49 29v224q0 42 10 75t29 54.5t45 33t58 11.5q56 0 87.5 -36t32.5 -93q3 -96 -77 -188q-41 -48 -90 -87v-103q0 -29 5.5 -46.5t16.5 -25
t29 -7.5q17 0 32.5 5.5t26.5 13.5t19.5 16t12.5 13zM227 479v-147q25 24 45 53q43 64 43 122q0 17 -5 30t-14.5 20.5t-21.5 7.5q-47 0 -47 -86z" />
    <glyph glyph-name="uni2116" unicode="&#x2116;" horiz-adv-x="1098" 
d="M856.5 313q-78.5 0 -128.5 49.5t-50 122.5q0 71 50.5 121t128.5 50t128 -50t50 -121q0 -73 -50 -122.5t-128.5 -49.5zM519 164v476h99v-640h-95l-341 477v-477h-99v640h96zM857 584q-41 0 -66.5 -28.5t-25.5 -70.5t25.5 -71t66.5 -29q27 0 48 13.5t32.5 36.5t11.5 50
q0 42 -25.5 70.5t-66.5 28.5zM688 198v64h338v-64h-338z" />
    <glyph glyph-name="trademark" unicode="&#x2122;" horiz-adv-x="631" 
d="M249 640v-52h-74v-228h-58v228h-73v52h205zM532 640h55v-280h-55v189l-90 -126l-90 127v-190h-55v280h55l90 -136z" />
    <glyph glyph-name="uni2126" unicode="&#x2126;" horiz-adv-x="805" 
d="M532 111v-33l177 2v-80h-259v154v14q79 8 125 63t46 128q0 58 -26 107t-76.5 78.5t-116.5 29.5q-97 0 -157.5 -62.5t-60.5 -152.5q0 -73 46 -128t124 -63v-14v-154h-258v80l177 -2v33q-87 28 -138.5 98.5t-51.5 159.5q0 123 89 205.5t230.5 82.5t230.5 -82.5t89 -205.5
q0 -89 -51.5 -159.5t-138.5 -98.5z" />
    <glyph glyph-name="estimated" unicode="&#x212e;" horiz-adv-x="796" 
d="M398 -12q-154 0 -249.5 91.5t-95.5 241.5q0 99 44.5 175.5t122.5 117.5t178 41q155 0 246 -89.5t99 -253.5h-541q-5 0 -7.5 -1t-4.5 -5t-2 -11v-163q0 -11 9.5 -25.5t28.5 -31t43.5 -30t58.5 -22.5t70 -9q64 0 123 29.5t98 76.5h68q-65 -75 -129 -103.5t-160 -28.5z
M203 332h388q10 0 13 3.5t3 12.5v170q0 19 -19.5 39.5t-49.5 36.5t-68.5 26t-72.5 10q-29 0 -57 -5.5t-50.5 -15t-42 -21t-32 -23.5t-20 -22.5t-7.5 -17.5v-184q0 -9 15 -9z" />
    <glyph glyph-name="partialdiff" unicode="&#x2202;" horiz-adv-x="554" 
d="M268 -13q-101 0 -158 61t-57 148q0 83 52 143.5t141 60.5q60 0 104.5 -27.5t64.5 -59.5q0 57 -13 106t-38.5 87t-60.5 67t-80 48l37 70q112 -50 176.5 -149.5t64.5 -239.5q0 -141 -64 -228t-169 -87zM265 64q59 0 95 41t45 108q-5 22 -25.5 47.5t-54 44.5t-67.5 19
q-33 0 -57 -12.5t-36.5 -33.5t-18.5 -43t-6 -45q0 -51 34 -88.5t91 -37.5z" />
    <glyph glyph-name="emptyset" unicode="&#x2205;" horiz-adv-x="631" 
d="M513 433q65 -74 65 -177q0 -111 -74.5 -188t-187.5 -77q-89 0 -157 50l-45 -51l-42 37l46 51q-65 74 -65 178q0 110 74.5 186.5t188.5 76.5q89 0 156 -49l46 50l41 -37zM115 256q0 -75 45 -132l271 301q-51 36 -115 36q-86 0 -143.5 -60t-57.5 -145zM316 49
q86 0 143 60.5t57 146.5q0 74 -44 131l-272 -301q51 -37 116 -37z" />
    <glyph glyph-name="uni2206" unicode="&#x2206;" horiz-adv-x="595" 
d="M348 640l244 -574v-66h-589v66l244 574h101zM297 537l-185 -459h371z" />
    <glyph glyph-name="product" unicode="&#x220f;" horiz-adv-x="734" 
d="M651 640v-74h-87v-666h-85v666h-223v-666h-86v666h-87v74h568z" />
    <glyph glyph-name="summation" unicode="&#x2211;" horiz-adv-x="647" 
d="M564 690v-74h-381l216 -346l-216 -346h381v-74h-481v62l222 358l-222 358v62h481z" />
    <glyph glyph-name="minus" unicode="&#x2212;" horiz-adv-x="520" 
d="M49 247v80h422v-80h-422z" />
    <glyph glyph-name="uni2215" unicode="&#x2215;" horiz-adv-x="143" 
d="M-162 0l409 640h76l-409 -640h-76z" />
    <glyph glyph-name="uni2219" unicode="&#x2219;" horiz-adv-x="231" 
d="M116 214q-26 0 -44.5 18t-18.5 43.5t18.5 43.5t44.5 18q17 0 31.5 -8t22.5 -22.5t8 -31.5q0 -25 -18 -43t-44 -18z" />
    <glyph glyph-name="radical" unicode="&#x221a;" horiz-adv-x="481" 
d="M398 690h80l-190 -840h-68l-149 293l-42 -20l-31 62l112 55l130 -268z" />
    <glyph glyph-name="infinity" unicode="&#x221e;" horiz-adv-x="697" 
d="M516 433q39 0 69 -14t46.5 -36t24.5 -46.5t8 -49t-8 -49t-24.5 -46.5t-46.5 -36t-69 -14q-43 0 -82.5 25.5t-85.5 70.5q-45 -45 -84.5 -70.5t-82.5 -25.5q-39 0 -69 14t-46.5 36t-24.5 46.5t-8 49t8 49t24.5 46.5t46.5 36t69 14q43 0 82.5 -25.5t84.5 -71.5
q46 46 85.5 71.5t82.5 25.5zM110 287.5q0 -37.5 21 -55.5t52 -18q26 0 53.5 19t63.5 54q-36 36 -63.5 55t-53.5 19q-31 0 -52 -18t-21 -55.5zM514 214q31 0 52 17.5t21 55.5t-21 56t-52 18q-26 0 -53.5 -19t-63.5 -55q36 -35 63.5 -54t53.5 -19z" />
    <glyph glyph-name="integral" unicode="&#x222b;" horiz-adv-x="280" 
d="M80 -150q-33 0 -55 15t-22 38q0 19 10 31.5t28 12.5q16 0 30 -16.5t22 -16.5q16 0 16 50v580q0 63 30.5 104.5t83.5 41.5q33 0 55 -15t22 -38q-1 -19 -11 -31.5t-28 -12.5q-12 0 -20 8.5t-14 16.5t-13 8q-20 0 -20 -66v-564q0 -63 -30.5 -104.5t-83.5 -41.5z" />
    <glyph glyph-name="approxequal" unicode="&#x2248;" horiz-adv-x="529" 
d="M355 298q-37 0 -87.5 28.5t-82.5 27.5q-20 0 -41 -14t-32 -27l-11 -14l-52 49q60 83 129 83q36 0 88 -28t81 -28q22 0 42.5 13.5t29.5 27.5l9 14l50 -53q-54 -79 -123 -79zM357 148q-37 0 -87.5 28.5t-82.5 28.5q-20 -1 -41 -14.5t-32 -27.5l-11 -14l-52 49q60 83 129 83
q36 0 88 -28t80 -28q23 0 43 14t30 27l9 14l50 -52q-54 -80 -123 -80z" />
    <glyph glyph-name="notequal" unicode="&#x2260;" horiz-adv-x="520" 
d="M471 328h-149l-53 -80h202v-79h-255l-40 -61h-70l41 61h-98v79h150l52 80h-202v79h254l40 59h71l-40 -59h97v-79z" />
    <glyph glyph-name="lessequal" unicode="&#x2264;" horiz-adv-x="525" 
d="M476 515v-90l-329 -115l329 -116v-91l-426 168v77zM53 0v79h421v-79h-421z" />
    <glyph glyph-name="greaterequal" unicode="&#x2265;" horiz-adv-x="525" 
d="M49 515l426 -167v-77l-426 -168v91l329 116l-329 115v90zM51 0v79h421v-79h-421z" />
    <glyph glyph-name="lozenge" unicode="&#x25ca;" horiz-adv-x="550" 
d="M245 -37l-192 357l192 357h60l192 -357l-192 -357h-60zM275 49l138 271l-138 271l-138 -271z" />
    <glyph glyph-name="uniE132" unicode="&#xe132;" horiz-adv-x="453" 
d="M173 591q-24 -26 -42.5 -38.5t-30.5 -15.5t-29 -3h-36l128 156l89 -16zM409 581q-34 -37 -55 -47t-46 -10h-37l128 156l90 -16zM68 0v454h95v-454h-95zM400 454v-496q0 -168 -143 -168l-36 4l7 82q9 -3 22 -3q21 0 37 16t16 60v505h97z" />
    <glyph glyph-name="uniF8FF" unicode="&#xf8ff;" horiz-adv-x="806" 
d="M83 0v640h640v-640h-640zM165 250h168v-168h140v168h168v140h-168v168h-140v-168h-168v-140z" />
    <glyph glyph-name="Jacute" horiz-adv-x="280" 
d="M203 736q-34 -36 -55 -46t-46 -10h-37l128 155l90 -15zM47 -208q-29 0 -67 10l18 88q29 -7 45 -7q52 0 52 85v672h102v-665q0 -101 -40.5 -142t-109.5 -41z" />
    <glyph glyph-name="i.loclTRK" horiz-adv-x="231" 
d="M116 545q-16 0 -30 8t-22.5 22t-8.5 30q0 25 18 42t43 17t42.5 -17t17.5 -42t-17.5 -42.5t-42.5 -17.5zM68 0v454h95v-454h-95z" />
    <glyph glyph-name="jacute" horiz-adv-x="222" 
d="M178 581q-34 -37 -55 -47t-46 -10h-37l128 156l90 -16zM169 454v-496q0 -168 -143 -168l-36 4l7 82q9 -3 22 -3q9 0 17 3t17 10.5t14 23.5t5 39v505h97z" />
    <glyph glyph-name="i.TRK" horiz-adv-x="231" 
d="M116 545q-16 0 -30 8t-22.5 22t-8.5 30q0 25 18 42t43 17t42.5 -17t17.5 -42t-17.5 -42.5t-42.5 -17.5zM68 0v454h95v-454h-95z" />
    <glyph glyph-name="f_f_ij" horiz-adv-x="1060" 
d="M537 614q-52 0 -52 -75v-85h95v-78h-95v-376h-97v376h-197v-376h-96v376h-59v78h59v78q0 80 37.5 122.5t101.5 42.5q51 0 96 -28l-42 -71q-21 16 -45 16q-52 0 -52 -75v-85h197v78q0 80 38 122.5t101 42.5q44 0 80 -20l-33 -73q-17 10 -37 10zM958 543q-26 0 -44 18
t-18 43.5t18 43.5t44 18t44.5 -18t18.5 -44q0 -12 -5 -23.5t-13.5 -20t-20 -13t-24.5 -4.5zM721 665q26 0 44.5 -18t18.5 -43.5t-18.5 -43.5t-44.5 -18t-44 18t-18 43q0 13 5 24.5t13 19.5t20 13t24 5zM670 0v454h95v-454h-95zM910 -51v505h97v-496q0 -168 -143 -168l-36 4
l6 82q10 -3 23 -3q21 0 37 16t16 60z" />
    <glyph glyph-name="f_i" horiz-adv-x="542" 
d="M242 614q-52 0 -52 -75v-85h94v-78h-94v-376h-97v376h-57v78h57v78q0 80 38 122.5t101 42.5q44 0 80 -20l-33 -73q-18 10 -37 10zM426 666q26 0 44.5 -18t18.5 -44q0 -12 -5 -23.5t-13.5 -20t-20 -13t-24.5 -4.5q-26 0 -44 18t-18 43q0 13 4.5 24.5t13 19.5t20 13t24.5 5
zM375 0v454h95v-454h-95z" />
    <glyph glyph-name="f_ij" horiz-adv-x="756" 
d="M242 614q-52 0 -52 -75v-85h94v-78h-94v-376h-97v376h-57v78h57v78q0 80 38 122.5t101 42.5q44 0 80 -20l-33 -73q-18 10 -37 10zM426 666q26 0 44.5 -18t18.5 -44q0 -12 -5 -23.5t-13.5 -20t-20 -13t-24.5 -4.5q-26 0 -44 18t-18 43q0 13 4.5 24.5t13 19.5t20 13t24.5 5
zM655 543q-26 0 -44.5 18t-18.5 43.5t18.5 43.5t44.5 18t44 -18t18 -44q0 -12 -4.5 -23.5t-13 -20t-20 -13t-24.5 -4.5zM375 0v454h95v-454h-95zM607 -51v505h96v-496q0 -168 -143 -168l-36 4l7 82q10 -3 23 -3q20 0 36.5 16t16.5 60z" />
    <glyph glyph-name="f_l" horiz-adv-x="563" 
d="M245 614q-52 0 -52 -75v-85h95v-78h-95v-376h-97v376h-60v78h60v78q0 80 38 122.5t101 42.5q44 0 80 -20l-28 -77q-19 14 -42 14zM398 680h97v-680h-97v680z" />
    <glyph glyph-name="zero.lf" horiz-adv-x="602" 
d="M301 -13q-112 0 -180 91.5t-68 243t68 243t180 91.5t180 -91.5t68 -243t-68 -243t-180 -91.5zM301 70q73 0 110.5 70t37.5 182t-37.5 181.5t-110.5 69.5q-49 0 -83 -34t-49.5 -89.5t-15.5 -127.5q0 -112 37.5 -182t110.5 -70z" />
    <glyph glyph-name="one.lf" horiz-adv-x="406" 
d="M249 640h84v-640h-97v530l-153 -95l-40 77l206 128v0z" />
    <glyph glyph-name="two.lf" horiz-adv-x="549" 
d="M195 83h301v-83h-443v68l259 263q33 33 51 64t18 69q0 45 -31.5 77t-80.5 32q-78 0 -132 -84l-72 49q12 21 29 39.5t41.5 37.5t59.5 30t75 11q97 -1 154.5 -54t57.5 -134q0 -58 -24.5 -102.5t-72.5 -92.5z" />
    <glyph glyph-name="three.lf" horiz-adv-x="561" 
d="M297 376q87 2 149.5 -49t61.5 -142q-1 -58 -29.5 -102.5t-83 -69.5t-126.5 -25q-132 -1 -226 81l54 77q35 -35 72.5 -55t93.5 -20q65 0 104 33t40 83q0 24 -8 45t-24 37t-38 26q-31 13 -65 14t-72 -6l-28 50l188 204h-280v83h401v-65z" />
    <glyph glyph-name="four.lf" horiz-adv-x="576" 
d="M543 217v-83h-66v-134h-97v134h-313l-24 70l254 436h105l-248 -423h226v172h97v-172h66z" />
    <glyph glyph-name="five.lf" horiz-adv-x="549" 
d="M286 396q92 1 151 -54t59 -144q0 -87 -62 -149t-173 -62q-125 0 -218 81l51 78q72 -76 162 -76q65 0 101 38t36 88q0 54 -35 86.5t-92 32.5q-32 1 -57 -9t-34 -20l-9 -11l-77 38l54 327h317v-83h-236l-31 -182q39 21 93 21z" />
    <glyph glyph-name="six.lf" horiz-adv-x="570" 
d="M288 -13q-72 0 -126 29t-81.5 77t-27.5 107q0 29 3 51.5t15 53.5t24 54t43.5 72.5t58 88.5t83.5 120h106l-177 -257q36 30 104 30q56 -1 102 -26.5t74 -74.5t28 -111q0 -91 -64.5 -152.5t-164.5 -61.5zM285 68q55 0 93.5 38.5t38.5 94.5t-38.5 94.5t-93.5 38.5
q-54 0 -93 -38.5t-39 -94.5q0 -37 17.5 -67.5t48 -48t66.5 -17.5z" />
    <glyph glyph-name="seven.lf" horiz-adv-x="529" 
d="M43 640h443v-66l-269 -574h-105l270 557h-339v83z" />
    <glyph glyph-name="eight.lf" horiz-adv-x="574" 
d="M399 347q57 -21 89.5 -65t32.5 -102q0 -36 -13.5 -69.5t-41 -61.5t-74 -45t-105.5 -17t-105.5 17t-73.5 45t-41 61.5t-14 69.5q0 58 33 102t89 65q-95 41 -95 141q0 70 57 119t150.5 49t150 -49t56.5 -119q0 -100 -95 -141zM287.5 576q-47.5 0 -80 -26.5t-32.5 -68.5
q0 -44 32.5 -71.5t80 -27.5t80 27.5t32.5 71.5q0 42 -32.5 68.5t-80 26.5zM287 67q37 0 67.5 15t49 42t18.5 60q0 51 -40 84t-95 33t-94.5 -33t-39.5 -84t39 -84t95 -33z" />
    <glyph glyph-name="nine.lf" horiz-adv-x="570" 
d="M282 653q107 0 170.5 -61.5t64.5 -151.5q0 -25 -3.5 -46.5t-8 -41t-19.5 -48.5t-27 -51.5t-42.5 -67.5t-54 -80t-72.5 -105h-106l176 257q-35 -30 -103 -30q-86 2 -145 60t-59 152q0 91 64.5 152.5t164.5 61.5zM285 572q-55 0 -93.5 -38.5t-38.5 -94.5t38.5 -94.5
t93.5 -38.5q54 0 93 38.5t39 94.5q0 37 -17.5 67.5t-48 48t-66.5 17.5z" />
    <glyph glyph-name="zero.osf" horiz-adv-x="644" 
d="M323 -12q-115 0 -192.5 75t-77.5 193q0 117 77.5 191.5t192.5 74.5q55 0 104.5 -19.5t85.5 -54t57 -84.5t21 -108q0 -118 -77.5 -193t-190.5 -75zM323 72q76 0 121.5 53t45.5 131q0 77 -45.5 129.5t-121.5 52.5q-39 0 -71 -14.5t-53 -39.5t-33 -58t-12 -70q0 -78 46 -131
t123 -53z" />
    <glyph glyph-name="one.osf" horiz-adv-x="406" 
d="M249 506h84v-506h-97v399l-153 -94l-40 73l206 128v0z" />
    <glyph glyph-name="two.osf" horiz-adv-x="549" 
d="M212 80h284v-80h-443v70l163 107q5 3 14 9q30 19 45 29t38 28t34.5 31.5t20.5 32.5t9 38q0 45 -30.5 69.5t-78.5 24.5q-78 0 -130 -83l-74 49q13 21 29 39.5t41 37t60 29.5t76 11q63 -1 110 -22t72.5 -59t25.5 -90q0 -39 -16 -72.5t-46.5 -62t-59 -48t-70.5 -43.5z" />
    <glyph glyph-name="three.osf" horiz-adv-x="571" 
d="M307 242q87 2 149.5 -49t61.5 -142q-1 -88 -65.5 -142t-173.5 -55q-132 -1 -226 81l54 77q35 -35 72.5 -55t93.5 -20q43 0 76 15.5t50 42t18 58.5q0 14 -3 27.5t-8.5 25.5t-14 22.5t-20 18.5t-24.5 14q-31 13 -65 14t-72 -5l-28 49l188 204h-280v83h401v-64z" />
    <glyph glyph-name="four.osf" horiz-adv-x="606" 
d="M553 83v-83h-66v-134h-97v134h-313l-24 70l254 436h105l-248 -423h226v172h97v-172h66z" />
    <glyph glyph-name="five.osf" horiz-adv-x="559" 
d="M296 262q92 1 151 -54t59 -145q0 -86 -62 -148t-173 -62q-125 0 -218 80l51 78q32 -34 72.5 -54.5t89.5 -20.5q65 0 101 38t36 88q0 54 -35 86.5t-92 32.5q-32 1 -57 -9t-34 -21l-9 -10l-77 38l54 327h317v-83h-236l-31 -182q39 20 93 21z" />
    <glyph glyph-name="six.osf" horiz-adv-x="588" 
d="M307 -13q-68 0 -121 31.5t-86 88.5q-47 84 -47 204q0 101 38 180.5t102 122t141 42.5q88 0 156 -38l-46 -73q-50 28 -105 28q-60 0 -106.5 -41t-67.5 -102t-18 -126q28 48 73.5 76t102.5 28q53 0 95 -18.5t66.5 -48.5t37.5 -65t13 -72q0 -89 -62 -153t-166 -64zM306.5 67
q53.5 0 91 38.5t37.5 92.5q0 36 -17 66t-46.5 47.5t-65.5 17.5q-52 0 -90 -38.5t-38 -92.5t37.5 -92.5t91 -38.5z" />
    <glyph glyph-name="seven.osf" horiz-adv-x="549" 
d="M53 506h443v-66q-244 -304 -244 -574h-102q0 125 65.5 278t167.5 279h-330v83z" />
    <glyph glyph-name="eight.osf" horiz-adv-x="574" 
d="M399 347q57 -21 89.5 -65t32.5 -102q0 -36 -13.5 -69.5t-41 -61.5t-74 -45t-105.5 -17t-105.5 17t-73.5 45t-41 61.5t-14 69.5q0 58 33 102t89 65q-95 41 -95 141q0 70 57 119t150.5 49t150 -49t56.5 -119q0 -100 -95 -141zM287.5 576q-47.5 0 -80 -26.5t-32.5 -68.5
q0 -44 32.5 -71.5t80 -27.5t80 27.5t32.5 71.5q0 42 -32.5 68.5t-80 26.5zM287 67q37 0 67.5 15t49 42t18.5 60q0 51 -40 84t-95 33t-94.5 -33t-39.5 -84t39 -84t95 -33z" />
    <glyph glyph-name="nine.osf" horiz-adv-x="588" 
d="M280 523q69 0 122 -31.5t86 -89.5q47 -83 47 -203q0 -101 -38 -180.5t-102 -122t-141 -42.5q-89 0 -156 37l45 74q50 -29 105 -29q61 0 107 41.5t67.5 102.5t18.5 125q-28 -47 -73.5 -75t-103.5 -28q-52 0 -94 18.5t-66.5 48.5t-37.5 65t-13 71q0 90 62 154t165 64z
M281.5 443q-53.5 0 -91 -38.5t-37.5 -93t37.5 -92.5t90.5 -38t91 38.5t38 92.5t-37.5 92.5t-91 38.5z" />
    <glyph glyph-name="zero.tf" horiz-adv-x="548" 
d="M274.5 -13q-112.5 0 -180.5 91.5t-68 243t68 243t180.5 91.5t180 -91.5t67.5 -243t-67.5 -243t-180 -91.5zM274.5 70q73.5 0 110.5 70t37 182t-37 181.5t-110.5 69.5t-111 -69.5t-37.5 -181.5t37.5 -182t111 -70z" />
    <glyph glyph-name="one.tf" horiz-adv-x="548" 
d="M270 640h84v-640h-97v530l-153 -95l-40 77l206 128v0z" />
    <glyph glyph-name="two.tf" horiz-adv-x="548" 
d="M152 83h329v-83h-445v34q0 41 18.5 78.5t47.5 67.5t64 58t70.5 54.5t64.5 52.5t47 57t19 64q0 45 -32 76t-80 31q-78 -1 -131 -84l-74 49q12 21 29 39.5t42 37.5t60 30t75 11q97 -1 154 -53.5t57 -133.5q0 -45 -21.5 -86.5t-53.5 -72t-71 -61.5t-73.5 -56t-61.5 -54
t-34 -56z" />
    <glyph glyph-name="three.tf" horiz-adv-x="548" 
d="M283 376q87 2 149.5 -49t61.5 -142q-1 -58 -29.5 -102.5t-83 -69.5t-126.5 -25q-132 -1 -226 81l54 77q35 -35 72.5 -55t93.5 -20q65 0 104 33t40 83q1 36 -17.5 64.5t-52.5 43.5q-31 13 -65 14t-72 -6l-28 50l188 204h-280v83h401v-65z" />
    <glyph glyph-name="four.tf" horiz-adv-x="548" 
d="M516 217v-83h-66v-134h-97v134h-313l-24 70l255 436h104l-248 -423h226v172h97v-172h66z" />
    <glyph glyph-name="five.tf" horiz-adv-x="548" 
d="M283 396q92 1 150.5 -54t58.5 -144q0 -87 -61.5 -149t-172.5 -62q-125 0 -218 81l51 78q72 -76 162 -76q64 0 100 38t36 88q0 54 -35 86.5t-91 32.5q-20 1 -37.5 -3.5t-28.5 -10t-19 -11.5t-12 -10l-3 -5l-77 38l54 327h317v-83h-236l-32 -182q40 21 94 21z" />
    <glyph glyph-name="six.tf" horiz-adv-x="548" 
d="M296 -13q-68 0 -121 31.5t-86 88.5q-47 84 -47 204q0 101 38 180.5t102 122t141 42.5q88 0 156 -38l-46 -73q-50 28 -105 28q-60 0 -106.5 -41t-67.5 -102t-18 -126q28 48 73 76t103 28q53 0 95 -18.5t66.5 -48.5t37.5 -65t13 -72q0 -89 -62 -153t-166 -64zM295.5 67
q53.5 0 91 38.5t37.5 92.5q0 36 -17 66t-46.5 47.5t-65.5 17.5q-34 0 -63.5 -17.5t-47 -47.5t-17.5 -66q0 -54 37.5 -92.5t91 -38.5z" />
    <glyph glyph-name="seven.tf" horiz-adv-x="548" 
d="M52 640h443v-66q-244 -304 -244 -574h-102q0 126 65.5 278.5t168.5 278.5h-331v83z" />
    <glyph glyph-name="eight.tf" horiz-adv-x="548" 
d="M386 347q57 -21 89.5 -65t32.5 -102q0 -36 -13.5 -69.5t-41 -61.5t-74 -45t-105.5 -17q-47 0 -87 11t-66.5 30t-45 44t-27 52t-8.5 56q0 58 33 102t89 65q-95 41 -95 141q0 70 57 119t150.5 49t150 -49t56.5 -119q0 -100 -95 -141zM274.5 576q-47.5 0 -80 -26.5
t-32.5 -68.5q0 -44 32.5 -71.5t80 -27.5t80 27.5t32.5 71.5q0 42 -32.5 68.5t-80 26.5zM274 67q37 0 67.5 15t48.5 42t18 60q0 25 -10.5 47.5t-29 37.5t-43 23.5t-51.5 8.5q-55 0 -94.5 -33t-39.5 -84t39 -84t95 -33z" />
    <glyph glyph-name="nine.tf" horiz-adv-x="548" 
d="M252 655q68 0 121 -31t87 -89q46 -83 46 -203q0 -152 -81 -248.5t-200 -96.5q-88 0 -156 37l46 73q50 -28 105 -28q60 0 106.5 41.5t67.5 102t18 125.5q-27 -48 -72.5 -75.5t-103.5 -27.5q-53 0 -95 18.5t-66.5 48.5t-37 65t-12.5 71q0 90 62 153.5t165 63.5zM253 575
q-54 0 -91 -38t-37 -92.5t37 -92.5t91 -38q53 0 90.5 38t37.5 92q0 55 -37 93t-91 38z" />
    <glyph glyph-name="zero.tosf" horiz-adv-x="548" 
d="M274 -12q-114 0 -191.5 75t-77.5 193q0 117 77.5 191.5t191.5 74.5t191.5 -74.5t77.5 -191.5q0 -118 -77.5 -193t-191.5 -75zM274 72q76 0 122 53t46 131q0 77 -46 129.5t-122 52.5q-38 0 -70 -14.5t-53.5 -39.5t-33 -58t-11.5 -70q0 -78 46 -131t122 -53z" />
    <glyph glyph-name="one.tosf" horiz-adv-x="548" 
d="M277 506h84v-506h-97v399l-153 -94l-40 73l206 128v0z" />
    <glyph glyph-name="two.tosf" horiz-adv-x="548" 
d="M212 80h284v-80h-443v70l163 107q4 3 14 9q29 19 44 29t38.5 28t34.5 31.5t20 32.5t9 38q0 45 -30 69.5t-78 24.5q-79 0 -131 -83l-73 49q12 21 28.5 39.5t41.5 37t60 29.5t76 11q95 -1 151 -47t56 -124q0 -39 -15.5 -72.5t-46 -62t-59.5 -48t-70 -43.5z" />
    <glyph glyph-name="three.tosf" horiz-adv-x="548" 
d="M296 242q87 2 149.5 -49t61.5 -142q-2 -88 -66 -142t-173 -55q-132 -1 -226 81l54 77q35 -35 72.5 -55t93.5 -20q64 0 103.5 33t40.5 83q1 36 -18 64.5t-52 43.5q-31 13 -65 14t-72 -5l-28 49l187 204h-280v83h402v-64z" />
    <glyph glyph-name="four.tosf" horiz-adv-x="559" 
d="M530 83v-83h-66v-134h-97v134h-313l-24 70l254 436h105l-248 -423h226v172h97v-172h66z" />
    <glyph glyph-name="five.tosf" horiz-adv-x="548" 
d="M290 262q46 0 84.5 -14t66.5 -39.5t43.5 -63t15.5 -82.5q0 -86 -61.5 -148t-172.5 -62q-125 0 -218 80l50 78q33 -34 73 -54.5t89 -20.5q65 0 101 38t36 88q0 54 -35 86.5t-91 32.5q-32 1 -57 -9t-34 -21l-9 -10l-77 38l54 327h316v-83h-235l-32 -182q40 20 93 21z" />
    <glyph glyph-name="six.tosf" horiz-adv-x="548" 
d="M279 -13q-107 0 -171 61.5t-64 151.5q0 29 3 51.5t15 53.5t24 54t43.5 72.5t58 88.5t83.5 120h106l-176 -257q35 30 103 30q56 -1 102 -26.5t74 -74.5t28 -111q0 -91 -64.5 -152.5t-164.5 -61.5zM276 68q55 0 93.5 38.5t38.5 94.5t-38.5 94.5t-93.5 38.5q-36 0 -66 -17.5
t-48 -48t-18 -67.5t17.5 -67.5t48 -48t66.5 -17.5z" />
    <glyph glyph-name="seven.tosf" horiz-adv-x="548" 
d="M53 505h442v-66q-243 -304 -243 -574h-102q0 126 65.5 278.5t167.5 278.5h-330v83z" />
    <glyph glyph-name="eight.tosf" horiz-adv-x="548" 
d="M386 347q57 -21 89.5 -65t32.5 -102q0 -36 -13.5 -69.5t-41 -61.5t-74 -45t-105.5 -17q-47 0 -87 11t-66.5 30t-45 44t-27 52t-8.5 56q0 58 33 102t89 65q-95 41 -95 141q0 70 57 119t150.5 49t150 -49t56.5 -119q0 -100 -95 -141zM274.5 576q-47.5 0 -80 -26.5
t-32.5 -68.5q0 -44 32.5 -71.5t80 -27.5t80 27.5t32.5 71.5q0 42 -32.5 68.5t-80 26.5zM274 67q37 0 67.5 15t48.5 42t18 60q0 25 -10.5 47.5t-29 37.5t-43 23.5t-51.5 8.5q-55 0 -94.5 -33t-39.5 -84t39 -84t95 -33z" />
    <glyph glyph-name="nine.tosf" horiz-adv-x="548" 
d="M269 523q68 0 121.5 -31.5t86.5 -89.5q47 -83 47 -203q0 -101 -38 -180.5t-102 -122t-142 -42.5q-88 0 -155 37l45 74q50 -29 105 -29q61 0 107 41.5t67.5 102.5t18.5 125q-28 -47 -73.5 -75t-103.5 -28q-53 0 -94.5 18.5t-66.5 48.5t-37.5 65t-12.5 71q0 90 62 154
t165 64zM270 443q-35 0 -64.5 -18t-46.5 -48t-17 -65q0 -55 37.5 -93t90.5 -38t91 38.5t38 92.5t-37.5 92.5t-91.5 38.5z" />
    <glyph glyph-name="zero.dnom" horiz-adv-x="401" 
d="M201 -10q-36 0 -65 14.5t-49.5 40.5t-32 63t-11.5 82q0 90 43 145t115 55q47 0 82.5 -24.5t55 -70t19.5 -105.5q0 -90 -43 -145t-114 -55zM200.5 57q37.5 0 56.5 37t19 96t-19 96t-56.5 37t-56.5 -37t-19 -96t19 -96t56.5 -37z" />
    <glyph glyph-name="one.dnom" horiz-adv-x="252" 
d="M136 380h72v-380h-80v294l-82 -50l-33 60z" />
    <glyph glyph-name="two.dnom" horiz-adv-x="378" 
d="M139 65h195v-65h-291v21q0 33 15 61t37 45.5t48 35t48 31t37 31.5t15 38q0 12 -3.5 22t-10 18t-17.5 12.5t-25 4.5q-15 0 -27.5 -5t-24 -16.5t-16 -16.5t-16.5 -20l-56 46q23 32 60 57t86 25q59 0 97.5 -33t38.5 -87q0 -31 -16.5 -57t-42 -44.5t-51.5 -34t-49 -33.5
t-31 -36z" />
    <glyph glyph-name="three.dnom" horiz-adv-x="375" 
d="M199 222q35 1 64.5 -11t49 -38.5t18.5 -62.5q0 -35 -18.5 -62t-53 -42t-81.5 -16q-79 0 -145 54l41 57q46 -44 98 -44q33 0 52.5 14.5t21.5 37.5q3 39 -34 56q-34 16 -87 -3l-26 46l104 106h-146v66h259v-37z" />
    </font>
</defs>
</svg>
