<?xml version="1.0" standalone="no"?>
<!DOCTYPE svg PUBLIC "-//W3C//DTD SVG 1.1//EN" "http://www.w3.org/Graphics/SVG/1.1/DTD/svg11.dtd" >
<svg xmlns="http://www.w3.org/2000/svg" xmlns:xlink="http://www.w3.org/1999/xlink" version="1.1">
<metadata>
Created by FontForge 20170731 at Sun Jul  2 22:27:11 2017
 By Aleksey,,,
Copyright (c) 2017 by The Refinery LLC. All rights reserved.
</metadata>
<defs>
<font id="ClarikaGrotesque-Black" horiz-adv-x="588" >
  <font-face 
    font-family="Clarika Grotesque"
    font-weight="900"
    font-stretch="normal"
    units-per-em="1000"
    panose-1="0 0 10 0 0 0 0 0 0 0"
    ascent="800"
    descent="-200"
    x-height="474"
    cap-height="640"
    bbox="-655 -301 1350 1026"
    underline-thickness="50"
    underline-position="-200"
    unicode-range="U+000D-FB02"
  />
<missing-glyph horiz-adv-x="232" 
d="M115.5 85q19.5 0 33.5 -14.5t14 -35.5q0 -20 -14 -35t-33.5 -15t-33 15t-13.5 35q0 21 13.5 35.5t33 14.5z" />
    <glyph glyph-name="onequarter" unicode="&#x31;&#x2f;&#x34;" horiz-adv-x="871" 
d="M290 260h-138v236l-65 -37l-48 106l133 75h118v-380zM569 640h114l-409 -640h-114zM832 163v-108h-46v-55h-131l3 55h-184l-29 78l139 247h153l-141 -217h68l3 55h119v-55h46z" />
    <glyph glyph-name="onehalf" unicode="&#x31;&#x2f;&#x32;" horiz-adv-x="905" 
d="M290 260h-138v236l-65 -37l-48 106l133 75h118v-380zM569 640h114l-409 -640h-114zM714 100h151v-100h-356v27q0 31 13.5 57t34 42t44.5 31t44 25.5t34 24t14 27.5q0 25 -26 25q-14 0 -27 -10t-33 -33l-92 84q39 42 81 66t106.5 24t108 -33.5t43.5 -91.5q0 -25 -9.5 -47
t-27 -39.5t-33.5 -30t-38.5 -27t-31.5 -21.5z" />
    <glyph glyph-name="threequarters" unicode="&#x33;&#x2f;&#x34;" horiz-adv-x="927" 
d="M386 374q0 -27 -12 -49.5t-34.5 -37.5t-54 -24t-70.5 -10q-105 -4 -176 45l50 102q52 -41 93 -40q19 0 30.5 8t11.5 19q1 20 -23 26q-23 6 -61 -3l-24 63l73 62h-124v105h304v-70l-92 -87q45 -3 76.5 -30.5t32.5 -78.5zM625 640h113l-409 -640h-113zM888 163v-108h-46
v-55h-131l3 55h-185l-28 78l139 247h153l-141 -217h68l3 55h119v-55h46z" />
    <glyph glyph-name="uni2153" unicode="&#x31;&#x2f;&#x33;" horiz-adv-x="910" 
d="M290 260h-138v236l-65 -37l-48 106l133 75h118v-380zM569 640h114l-409 -640h-114zM762 223q45 -3 77 -30.5t32 -78.5q0 -36 -21 -63t-59.5 -42t-90.5 -16q-105 -4 -176 45l50 102q52 -41 93 -40q19 0 30.5 8t12.5 19q0 20 -24 26q-23 6 -61 -3l-24 63l74 62h-125v105
h304v-70z" />
    <glyph glyph-name="uni2154" unicode="&#x32;&#x2f;&#x33;" horiz-adv-x="997" 
d="M396 360v-100h-357v27q0 31 13.5 57t34 42t44.5 31t44.5 25.5t34 24t13.5 27.5q0 25 -26 25q-10 0 -20.5 -6.5t-18 -14t-21.5 -22.5l-92 84q39 42 81.5 66t107 24t108 -33.5t43.5 -91.5q0 -25 -10 -47t-27.5 -39.5t-33.5 -30t-38.5 -27t-31.5 -21.5h152zM656 640h114
l-409 -640h-114zM849 223q45 -3 77 -30.5t32 -78.5q0 -55 -46 -87t-125 -34q-105 -4 -175 45l49 102q52 -41 93 -40q19 0 31 8t12 19q0 20 -24 26q-23 6 -60 -3l-25 63l74 62h-125v105h304v-70z" />
    <glyph glyph-name="oneeighth" unicode="&#x31;&#x2f;&#x38;" horiz-adv-x="906" 
d="M290 260h-138v236l-65 -37l-48 106l133 75h118v-380zM569 640h114l-409 -640h-114zM807 207q23 -9 41.5 -34.5t18.5 -60.5q0 -51 -42.5 -86.5t-136 -35.5t-135.5 35.5t-42 86.5q0 35 18 60t40 35q-8 6 -17 15t-16.5 26t-7.5 36q0 48 41 77t120 29q77 0 117.5 -29
t40.5 -77q0 -19 -7.5 -35.5t-15.5 -26t-17 -15.5zM689 303q-9 0 -16 -3.5t-11 -10.5t-4 -15q0 -13 9 -21.5t22 -8.5q11 0 19 8.5t8 21.5t-8 21t-19 8zM688.5 79q15.5 0 26.5 10t11 25.5t-10.5 25.5t-26.5 10t-27 -10t-11 -25.5t11 -25.5t26.5 -10z" />
    <glyph glyph-name="threeeighths" unicode="&#x33;&#x2f;&#x38;" horiz-adv-x="964" 
d="M386 374q0 -27 -12 -49.5t-34.5 -37.5t-54 -24t-70.5 -10q-105 -4 -176 45l50 102q52 -41 93 -40q19 0 30.5 8t11.5 19q1 20 -23 26q-23 6 -61 -3l-24 63l73 62h-124v105h304v-70l-92 -87q45 -3 76.5 -30.5t32.5 -78.5zM628 640h113l-409 -640h-113zM866 207
q22 -9 40.5 -34.5t18.5 -60.5q0 -23 -9 -43.5t-28.5 -39t-55.5 -29t-85 -10.5q-94 0 -136 35.5t-42 86.5q0 35 18.5 60t40.5 35q-9 6 -17.5 15t-16.5 26t-8 36q0 48 41 77t120 29q77 0 117.5 -29t40.5 -77q0 -27 -12.5 -47t-26.5 -30zM747 303q-8 0 -15 -3.5t-11 -10.5
t-4 -15q0 -13 8.5 -21.5t21.5 -8.5q12 0 20 8.5t8 21.5t-8 21t-20 8zM747 79q10 0 19 4.5t14 12.5t5 18q0 16 -11 26t-27 10t-27 -10t-11 -26q0 -10 5 -18t14 -12.5t19 -4.5z" />
    <glyph glyph-name="fiveeighths" unicode="&#x35;&#x2f;&#x38;" horiz-adv-x="958" 
d="M188 356v-1q25 0 39 9t14 24q0 31 -43 31q-11 0 -21.5 -4.5t-16.5 -8.5l-6 -4l-88 46l31 192h261v-105h-156l-6 -37q18 6 44 6q45 -1 78.5 -16.5t51 -42t17.5 -60.5q0 -55 -45.5 -95t-121.5 -40q-103 0 -181 45l49 101q50 -40 100 -40zM621 640h114l-409 -640h-114z
M860 207q22 -9 40.5 -34.5t18.5 -60.5q0 -51 -42.5 -86.5t-136 -35.5t-135.5 35.5t-42 86.5q0 35 18 60t40 35q-8 6 -17 15t-16.5 26t-7.5 36q0 47 41 76.5t120 29.5q77 0 117.5 -29.5t40.5 -76.5q0 -27 -12.5 -47t-26.5 -30zM741 303q-9 0 -15.5 -3.5t-11 -10.5t-4.5 -15
q0 -13 9 -21.5t22 -8.5q7 0 13.5 4t10 10.5t3.5 15.5q0 12 -8 20.5t-19 8.5zM741 79q16 0 27 10t11 25t-11 25.5t-27 10.5t-27 -10.5t-11 -25.5q0 -10 5 -18t13.5 -12.5t19.5 -4.5z" />
    <glyph glyph-name="seveneighths" unicode="&#x37;&#x2f;&#x38;" horiz-adv-x="854" 
d="M231 260h-145q0 76 25 140t79 131h-151v109h324v-80q-75 -80 -103.5 -145.5t-28.5 -154.5zM518 640h113l-409 -640h-113zM756 207q22 -9 40.5 -34.5t18.5 -60.5q0 -51 -42.5 -86.5t-135.5 -35.5q-49 0 -85 10.5t-55.5 29t-28.5 39t-9 43.5q0 35 18.5 60t40.5 35
q-9 6 -17.5 15t-16.5 26t-8 36q0 48 41 77t120 29q77 0 117.5 -29t40.5 -77q0 -19 -7.5 -35.5t-15.5 -26t-16 -15.5zM637 303q-8 0 -15 -3.5t-11 -10.5t-4 -15q0 -13 8.5 -21.5t21.5 -8.5q12 0 20 8.5t8 21.5t-8 21t-20 8zM637 79q10 0 19 4.5t14 12.5t5 18q0 16 -11 26
t-27 10t-27 -10t-11 -26q0 -10 5 -18t14 -12.5t19 -4.5z" />
    <glyph glyph-name="arrowleft" unicode="&#x3c;&#x2d;&#x2d;" horiz-adv-x="712" 
d="M658 361v-150h-366l142 -142l-99 -99l-316 316v0l316 316l99 -99l-142 -142h366z" />
    <glyph glyph-name="arrowup" unicode="&#x3c;__" horiz-adv-x="712" 
d="M672 289l-99 -99l-141 142v-366h-151v366l-141 -142l-99 99l315 316v0z" />
    <glyph glyph-name="arrowright" unicode="&#x2d;&#x2d;&#x3e;" horiz-adv-x="712" 
d="M692 286v0l-316 -316l-99 99l142 142h-366v150h366l-142 142l99 99z" />
    <glyph glyph-name="arrowdown" unicode="__&#x3e;" horiz-adv-x="712" 
d="M672 281l-316 -316v0l-316 316l100 99l141 -142v366h151v-366l141 142z" />
    <glyph glyph-name="arrowboth" unicode="&#x3c;&#x2d;&#x2d;&#x3e;" horiz-adv-x="1026" 
d="M986 286l-315 -316l-99 99l141 142h-400l142 -142l-99 -99l-316 316v0l316 316l99 -99l-142 -142h400l-141 142l99 99z" />
    <glyph glyph-name="arrowupdn" unicode="&#x3c;__&#x3e;" horiz-adv-x="712" 
d="M432 102l141 141l99 -99l-316 -316v0l-315 316l99 99l141 -141v399l-141 -141l-99 99l315 316v0l316 -316l-99 -99l-141 141v-399z" />
    <glyph glyph-name="uni2196" unicode="&#x3c;&#x2d;_" horiz-adv-x="712" 
d="M664 89l-111 -112l-331 331v-194h-140v447v0h447v-140h-197z" />
    <glyph glyph-name="uni2197" unicode="_&#x2d;&#x3e;" horiz-adv-x="712" 
d="M630 559v-447h-140v197l-332 -332l-111 111l331 331h-194v140h446z" />
    <glyph glyph-name="uni2198" unicode="&#x2d;_&#x3e;" horiz-adv-x="712" 
d="M631 437v-446v0h-447v140h196l-332 332l112 111l331 -331v194h140z" />
    <glyph glyph-name="uni2199" unicode="&#x3c;_&#x2d;" horiz-adv-x="712" 
d="M667 462l-331 -331h194v-140h-446v0v447h140v-197l332 332z" />
    <glyph glyph-name="fi" unicode="fi" horiz-adv-x="698" 
d="M547 524q-41 0 -70 28t-29 67t29 66.5t70 27.5q27 0 49.5 -12.5t36 -34.5t13.5 -47q0 -39 -29 -67t-70 -28zM317 546q-19 0 -32.5 -14t-13.5 -39v-19h88v-139h-88v-335h-192v335h-56v139h57q3 110 60.5 171t143.5 61q64 0 115 -27l-44 -141q-14 8 -38 8zM447 0v474h191
v-474h-191z" />
    <glyph glyph-name="fl" unicode="fl" horiz-adv-x="710" 
d="M320 546q-19 0 -32.5 -14t-13.5 -39v-19h88v-139h-88v-335h-192v335h-59v139h60q3 110 60.5 171t143.5 61q64 0 115 -27l-45 -140q-14 7 -37 7zM464 680h192v-680h-192v680z" />
    <glyph glyph-name="f_f" unicode="ff" horiz-adv-x="780" 
d="M681 546q-18 0 -31.5 -14t-13.5 -39v-19h88v-138h-88v-336h-192v336h-169v-336h-191v336h-61v138h61q3 110 61 171t143 61q84 0 151 -39l-74 -138q-20 17 -44 17q-19 0 -32.5 -14t-13.5 -39v-19h169q4 110 61.5 171t143.5 61q84 0 151 -39l-75 -138q-19 17 -44 17z" />
    <glyph glyph-name="f_f_i" unicode="ffi" horiz-adv-x="1065" 
d="M914 525q-41 0 -70 27.5t-29 66.5t29 66.5t70 27.5t70 -27.5t29 -66.5t-29 -66.5t-70 -27.5zM681 546q-19 0 -32.5 -14t-13.5 -39v-19h87v-138h-87v-336h-191v336h-169v-336h-191v336h-61v138h61q3 110 61 171t143 61q84 0 151 -39l-74 -138q-20 17 -44 17
q-19 0 -32.5 -14t-13.5 -39v-19h169q3 110 61 171t143 61q65 0 115 -27l-44 -141q-14 8 -38 8zM814 0v474h192v-474h-192z" />
    <glyph glyph-name="f_f_l" unicode="ffl" horiz-adv-x="1063" 
d="M682 548q-19 0 -32.5 -14t-13.5 -39v-21h88v-138h-88v-336h-191v336h-170v-336h-191v336h-61v138h61q3 111 60.5 172.5t143.5 61.5q84 0 151 -39l-74 -138q-20 17 -44 17q-19 0 -32.5 -14t-13.5 -39v-21h170q1 56 18 101.5t45 74t64 43.5t77 15q65 0 115 -27l-44 -141
q-14 8 -38 8zM818 680h191v-680h-191v680z" />
    <glyph glyph-name="f_t" unicode="ft" horiz-adv-x="742" 
d="M706 151l17 -149q-57 -15 -113 -15q-28 0 -53.5 5t-52 19t-45.5 36t-31 59.5t-12 86.5v143h-140v-336h-191v336h-62v138h62q3 110 61 171t143 61q65 0 115 -27l-44 -141q-14 8 -38 8q-19 0 -32.5 -14t-13.5 -39v-19h140v19l191 121v-140h96v-139h-96v-105q0 -84 65 -84
q5 0 10.5 0.5t9.5 1t7 1.5t5 2h2z" />
    <glyph glyph-name="t_t" unicode="tt" horiz-adv-x="761" 
d="M735 151l16 -150q-57 -14 -112 -14q-24 0 -45 3.5t-44 12t-41 24t-33 37.5t-23.5 55t-8.5 74v142h-161v-105q0 -84 64 -84q8 0 16.5 1t13.5 3l4 1l17 -149q-57 -15 -113 -15q-28 0 -53.5 5t-52 19t-45.5 36t-31 59.5t-12 86.5v142h-61v139h61v140h192v-140h162v140h191
v-140h96v-139h-96v-105q0 -84 65 -84q5 0 10.5 0.5t9.5 1t7 1.5t5 2h2z" />
    <glyph glyph-name=".notdef" horiz-adv-x="232" 
d="M115.5 85q19.5 0 33.5 -14.5t14 -35.5q0 -20 -14 -35t-33.5 -15t-33 15t-13.5 35q0 21 13.5 35.5t33 14.5z" />
    <glyph glyph-name=".null" horiz-adv-x="600" 
 />
    <glyph glyph-name="nonmarkingreturn" horiz-adv-x="333" 
 />
    <glyph glyph-name="CR" unicode="&#xd;" horiz-adv-x="600" 
 />
    <glyph glyph-name="space" unicode=" " horiz-adv-x="236" 
 />
    <glyph glyph-name="exclam" unicode="!" horiz-adv-x="297" 
d="M261 640l-33 -429h-155l-34 429h222zM148 -13q-41 0 -70 27.5t-29 66.5t29 67t70 28t70.5 -28t29.5 -67t-29.5 -66.5t-70.5 -27.5z" />
    <glyph glyph-name="quotedbl" unicode="&#x22;" horiz-adv-x="473" 
d="M94 346q-6 48 -28 119.5t-22 98.5q0 42 24 69t59 27t59 -27t24 -69q0 -27 -21.5 -98.5t-28.5 -119.5h-66zM313 346q-4 32 -13 66.5t-17 58.5t-14 49.5t-6 43.5q0 28 11 50t30 34t42 12q35 0 59 -27t24 -69q0 -27 -21.5 -98.5t-28.5 -119.5h-66z" />
    <glyph glyph-name="numbersign" unicode="#" horiz-adv-x="556" 
d="M567 358h-117l-19 -73h86v-117h-117l-46 -168h-134l46 168h-69l-45 -168h-133l45 168h-75v117h106l20 73h-76v116h107l45 169h134l-45 -169h68l45 169h134l-45 -169h85v-116zM297 285l20 73h-69l-19 -73h68z" />
    <glyph glyph-name="dollar" unicode="$" horiz-adv-x="591" 
d="M366 395q37 -10 68.5 -26t59 -40t43 -59t15.5 -79q0 -84 -58 -137.5t-144 -66.5v-89h-108v88q-126 11 -223 88l117 142q65 -66 140 -66q11 0 21 2t18.5 6.5t14 13t5.5 19.5q0 13 -4.5 21t-25 19t-59.5 21q-51 13 -86 33t-54.5 46.5t-27.5 55t-8 64.5q0 74 49 127.5
t123 73.5v89h108v-81q108 -8 203 -75l-113 -136q-32 26 -57 37.5t-53 11.5q-13 0 -24 -4.5t-18.5 -14.5t-7.5 -23q0 -15 7.5 -24.5t26 -18t52.5 -18.5z" />
    <glyph glyph-name="percent" unicode="%" horiz-adv-x="866" 
d="M211 335q-78 0 -125 48.5t-47 118.5q0 69 48.5 118t123.5 49q52 0 91.5 -23.5t59.5 -61t20 -82.5t-21.5 -83t-61 -61t-88.5 -23zM166 0l409 640h113l-409 -640h-113zM211 448q23 0 37 15.5t14 38.5t-14 38.5t-37.5 15.5t-37.5 -15.5t-14 -38.5t14.5 -38.5t37.5 -15.5z
M655 -12q-77 0 -124 48.5t-47 117.5t48.5 118t122.5 49q78 0 125 -48.5t47 -118.5q0 -68 -49 -117t-123 -49zM655 100q23 0 37 15.5t14 39t-14 39t-37 15.5t-37 -15.5t-14 -39.5q0 -23 14.5 -38.5t36.5 -15.5z" />
    <glyph glyph-name="ampersand" unicode="&#x26;" horiz-adv-x="704" 
d="M664 77l-114 -106l-77 76q-78 -64 -195 -64q-107 0 -173 58t-66 136q0 55 28 104.5t90 85.5q-42 59 -38 126q4 68 58.5 116.5t150.5 49.5q128 1 189 -108l-127 -85q-16 26 -30.5 36.5t-32.5 8.5q-17 -1 -26.5 -13.5t-7.5 -29.5q2 -16 16.5 -35t51.5 -56l104 -103
q20 37 42 88l147 -65q-48 -84 -79 -131zM350 145q8 4 15 9l-105 104q-34 -34 -30 -73q3 -35 44 -46.5t76 6.5z" />
    <glyph glyph-name="quotesingle" unicode="'" horiz-adv-x="254" 
d="M94 346q-6 48 -28 119.5t-22 98.5q0 42 24 69t59 27t59 -27t24 -69q0 -27 -21.5 -98.5t-28.5 -119.5h-66z" />
    <glyph glyph-name="parenleft" unicode="(" horiz-adv-x="392" 
d="M282 -210q-3 2 -8.5 6.5t-22 19.5t-32.5 32t-38 45t-41 57t-38 69t-32.5 81.5t-22 93t-8.5 104.5q0 67 13.5 131.5t35 113.5t47.5 93t51.5 74t47 52t35.5 33l13 10l96 -127q-6 -5 -16.5 -15.5t-37.5 -47t-47.5 -77.5t-37.5 -106t-17 -134q0 -51 8.5 -99t22.5 -85
t30.5 -69.5t33 -55.5t30.5 -39.5t22 -24.5l9 -8z" />
    <glyph glyph-name="parenright" unicode=")" horiz-adv-x="392" 
d="M110 -210l-96 127q6 5 16.5 15.5t37.5 47t47.5 77.5t37.5 106.5t17 134.5t-16 133.5t-39 107.5t-46 76t-39 48l-16 15l96 127q5 -3 14 -10.5t34 -32t48 -53t51 -73.5t48 -93t34 -113t14 -132q0 -53 -8.5 -104.5t-22.5 -93.5t-32 -81t-38.5 -69.5t-40.5 -56.5t-38 -45
t-32 -32t-23 -20z" />
    <glyph glyph-name="asterisk" unicode="*" horiz-adv-x="484" 
d="M440 524l-96 -27l63 -80l-110 -80l-57 86l-56 -86l-111 80l64 81l-93 26l42 130l91 -34l-4 92h137l-4 -93l92 35z" />
    <glyph glyph-name="plus" unicode="+" horiz-adv-x="560" 
d="M513 358v-143h-161v-161h-143v161h-161v143h161v161h143v-161h161z" />
    <glyph glyph-name="comma" unicode="," horiz-adv-x="292" 
d="M76 -156l-27 71q25 10 44 28.5t26 40.5q-41 1 -64.5 31.5t-16.5 71.5q6 41 38.5 64t75.5 16q50 -8 73.5 -46t15.5 -90q-10 -64 -57 -115t-108 -72z" />
    <glyph glyph-name="hyphen" unicode="-" horiz-adv-x="374" 
d="M48 215v143h279v-143h-279z" />
    <glyph glyph-name="period" unicode="." horiz-adv-x="297" 
d="M148 -13q-41 0 -70 27.5t-29 66.5t29 67t70 28t70.5 -28t29.5 -67t-29.5 -66.5t-70.5 -27.5z" />
    <glyph glyph-name="slash" unicode="/" horiz-adv-x="501" 
d="M-11 -120l359 817h163l-358 -817h-164z" />
    <glyph glyph-name="zero" unicode="0" horiz-adv-x="649" 
d="M324.5 -17q-126.5 0 -206 90.5t-79.5 247.5q0 159 79.5 249t206.5 90q83 0 147 -39t101 -116.5t37 -183.5q0 -157 -79.5 -247.5t-206 -90.5zM324.5 143q48.5 0 71.5 48t23 131q0 178 -94.5 178t-94.5 -178q0 -83 23 -131t71.5 -48z" />
    <glyph glyph-name="one" unicode="1" horiz-adv-x="474" 
d="M257 640h158v-640h-191v437l-132 -72l-63 146l227 129h1z" />
    <glyph glyph-name="two" unicode="2" horiz-adv-x="603" 
d="M303 160h261v-160h-525v37q0 47 17.5 89.5t45 73.5t60.5 58.5t66.5 50t61 43.5t45 43t17.5 44q0 32 -21.5 47t-50.5 14q-51 -3 -91 -71l-142 86q81 144 243 145q115 0 186 -54t71 -157q0 -43 -18.5 -81.5t-49.5 -67.5t-62.5 -52.5t-65 -47t-48.5 -40.5z" />
    <glyph glyph-name="three" unicode="3" horiz-adv-x="591" 
d="M552 192q0 -92 -68.5 -146t-186.5 -59q-159 -6 -268 79l87 148q73 -68 154 -67q39 1 62 17t24 41q2 45 -57 60q-36 8 -100 4l-41 91l133 120h-218v160h451v-122l-156 -142q36 -3 67.5 -15t58.5 -33.5t42.5 -56.5t15.5 -79z" />
    <glyph glyph-name="four" unicode="4" horiz-adv-x="639" 
d="M619 256v-160h-71v-96h-192v96h-276l-51 137l208 407h203l-201 -384h117v110h192v-110h71z" />
    <glyph glyph-name="five" unicode="5" horiz-adv-x="596" 
d="M353 408q63 -1 110 -27.5t70.5 -71t23.5 -99.5q0 -30 -7 -57.5t-21.5 -53t-38 -46.5t-54 -37t-71.5 -24.5t-89 -8.5q-140 0 -247 75l85 150q43 -32 76.5 -48t73.5 -17q39 0 61.5 17t22.5 43.5t-18 41.5t-47 15q-21 0 -39.5 -7t-25.5 -14l-8 -6l-136 80l53 327h380v-160
h-220l-13 -84q34 12 79 12z" />
    <glyph glyph-name="six" unicode="6" horiz-adv-x="625" 
d="M327 -17q-130 0 -211 89q-77 87 -77 235q0 79 24.5 146t66.5 112t99 70t120 25q106 0 183 -48l-89 -132q-40 24 -83 24q-29 0 -53 -11.5t-40.5 -32t-25.5 -48.5t-9 -60q45 64 139 64q101 0 158 -60t57 -147q0 -96 -69.5 -161t-189.5 -65zM318 127q32 0 54.5 22.5t22.5 54
t-22.5 54t-54.5 22.5t-55 -22.5t-23 -54t23 -54t55 -22.5z" />
    <glyph glyph-name="seven" unicode="7" horiz-adv-x="561" 
d="M29 640h503v-125q-53 -65 -89.5 -118t-69 -117.5t-49 -134t-16.5 -145.5h-190q0 111 56.5 244.5t140.5 235.5h-286v160z" />
    <glyph glyph-name="eight" unicode="8" horiz-adv-x="618" 
d="M470 350q41 -16 75 -58.5t34 -102.5q0 -39 -13.5 -73.5t-43 -65.5t-84.5 -49t-129 -18q-60 0 -107 12t-77 32t-50 47.5t-28 55.5t-8 59q0 60 34 102.5t76 58.5q-17 10 -33 26t-30 45.5t-14 60.5q0 39 14.5 71.5t43.5 56t74.5 37t104.5 13.5q116 0 177 -49t61 -129
q0 -45 -25 -80.5t-52 -51.5zM309.5 519q-26.5 0 -45 -16t-18.5 -41q0 -24 18.5 -40t44.5 -16t44.5 16t18.5 40q0 25 -18 41t-44.5 16zM309 124q33 0 56 20.5t23 50.5t-22.5 50t-56.5 20q-22 0 -40 -9t-28.5 -25t-10.5 -36q0 -30 23 -50.5t56 -20.5z" />
    <glyph glyph-name="nine" unicode="9" horiz-adv-x="625" 
d="M298 659q131 0 211 -89q77 -86 77 -234q0 -79 -24.5 -146t-66.5 -112t-98.5 -70t-120.5 -25q-105 0 -183 48l89 132q40 -24 84 -24q38 0 67 20t44.5 54t16.5 78q-45 -64 -140 -64q-41 0 -76 11t-60.5 30t-43 45t-26.5 56.5t-9 63.5q0 96 69.5 161t189.5 65zM307 516
q-32 0 -54.5 -22.5t-22.5 -54.5q0 -21 10.5 -38.5t28 -28t38.5 -10.5q33 0 55.5 22.5t22.5 54.5t-23 54.5t-55 22.5z" />
    <glyph glyph-name="colon" unicode=":" horiz-adv-x="297" 
d="M150 297q-41 0 -70 27.5t-29 66.5t29 67t70 28t70 -28t29 -67q0 -25 -13 -47t-36 -34.5t-50 -12.5zM148 -13q-41 0 -70 27.5t-29 66.5t29 67t70 28t70.5 -28t29.5 -67t-29.5 -66.5t-70.5 -27.5z" />
    <glyph glyph-name="semicolon" unicode=";" horiz-adv-x="338" 
d="M154 298q-27 0 -50 12.5t-36 34t-13 47.5q0 39 29 66.5t70 27.5t70 -27.5t29 -66.5t-29 -66.5t-70 -27.5zM104 -149l-27 71q12 5 23.5 12.5t20.5 16.5t15.5 19t10.5 21q-41 1 -64.5 31.5t-16.5 71.5q6 42 38.5 64.5t75.5 15.5q50 -8 73.5 -46t15.5 -90
q-10 -63 -57 -114.5t-108 -72.5z" />
    <glyph glyph-name="less" unicode="&#x3c;" horiz-adv-x="559" 
d="M512 523v-166l-288 -70l288 -71v-165l-464 163v145z" />
    <glyph glyph-name="equal" unicode="=" horiz-adv-x="560" 
d="M48 320v133h465v-133h-465zM48 125v132h465v-132h-465z" />
    <glyph glyph-name="greater" unicode="&#x3e;" horiz-adv-x="559" 
d="M48 523l464 -164v-145l-464 -163v165l287 71l-287 70v166z" />
    <glyph glyph-name="question" unicode="?" horiz-adv-x="489" 
d="M128 216v142q148 -10 146 77q-1 17 -8.5 31.5t-24 24t-38.5 9.5q-28 0 -52 -17.5t-37 -42.5l-125 103q34 49 98 83t132 34q115 0 182 -54t68 -143q2 -72 -40 -120t-108 -68v-59h-193zM223 -13q-41 0 -70.5 27.5t-29.5 66.5t29.5 67t70.5 28t70 -28t29 -67t-29 -66.5
t-70 -27.5z" />
    <glyph glyph-name="at" unicode="@" horiz-adv-x="800" 
d="M436 635q81 0 144.5 -24.5t102 -66.5t58.5 -93.5t20 -109.5q0 -118 -58 -189.5t-148 -71.5q-73 0 -120 60q-56 -60 -135 -60t-121 59t-25 148q15 84 75 139.5t135 55.5q59 0 95 -32l5 24h159l-49 -234q-4 -18 -2.5 -32t7 -23t14.5 -13t21 -4q27 0 52.5 45.5t25.5 127.5
q0 49 -15 90t-45.5 74.5t-81.5 52.5t-118 19q-92 0 -167 -47t-116 -123t-41 -162q0 -103 62 -167.5t175 -64.5q90 0 168 41l23 -51q-93 -47 -189 -47q-142 0 -225 81t-83 206q0 106 52.5 196t144 143t200.5 53zM320 281q-5 -32 9 -52t40 -20q27 0 47.5 18.5t25.5 49.5
q6 36 -9 57t-42 21q-25 0 -45.5 -20t-25.5 -54z" />
    <glyph glyph-name="A" unicode="A" horiz-adv-x="697" 
d="M484 0l-27 88h-217l-27 -88h-224l252 640h215l252 -640h-224zM284 230h129l-65 208z" />
    <glyph glyph-name="B" unicode="B" horiz-adv-x="723" 
d="M532 346q71 -11 111.5 -54.5t40.5 -108.5q0 -83 -64 -133t-170 -50h-381v640h349q62 0 107.5 -19t69.5 -55t24 -84q0 -31 -10 -57.5t-29.5 -46.5t-47.5 -32zM435 448.5q0 55.5 -72 55.5h-86v-111h83q75 0 75 55.5zM391 136q38 0 59.5 19t21.5 52t-23 51.5t-61 18.5h-111
v-141h114z" />
    <glyph glyph-name="C" unicode="C" horiz-adv-x="628" 
d="M393 -17q-79 0 -146 27t-112 72.5t-70.5 107.5t-25.5 131.5t25.5 131t70.5 107t112 72.5t146 27q125 0 216 -66l-109 -161q-40 44 -103 44q-33 0 -61 -13t-46.5 -35t-28.5 -50t-10 -58q0 -61 40 -107.5t106 -46.5q62 0 103 44l109 -160q-92 -67 -216 -67z" />
    <glyph glyph-name="D" unicode="D" horiz-adv-x="725" 
d="M340 640q154 0 249.5 -89t95.5 -231t-95.5 -231t-249.5 -89h-271v640h271zM326 175q60 0 103.5 36t43.5 109t-43.5 109t-103.5 36h-49v-290h49z" />
    <glyph glyph-name="E" unicode="E" horiz-adv-x="607" 
d="M568 475h-291v-88h241v-134h-241v-88h291v-165h-499v640h499v-165z" />
    <glyph glyph-name="F" unicode="F" horiz-adv-x="557" 
d="M568 475h-291v-90h241v-134h-241v-251h-208v640h182h317v-165z" />
    <glyph glyph-name="G" unicode="G" horiz-adv-x="724" 
d="M376 377h309v-323q-4 -3 -12 -8t-35.5 -17t-58.5 -21.5t-81 -17t-102 -7.5q-71 0 -130 19t-100.5 51t-70.5 75t-42.5 91t-13.5 99q0 67 23 127.5t67 108.5t114.5 76.5t158.5 28.5q51 0 92.5 -7.5t75.5 -20.5t69 -35l-91 -158q-63 43 -136 42q-28 0 -54.5 -8.5
t-51.5 -26.5t-40 -51t-15 -76q0 -50 19.5 -86.5t53.5 -55.5t79 -20q46 -2 90 13v75h-117v133z" />
    <glyph glyph-name="H" unicode="H" horiz-adv-x="758" 
d="M481 640h208v-640h-208v239h-204v-239h-208v640h208v-235h204v235z" />
    <glyph glyph-name="I" unicode="I" horiz-adv-x="346" 
d="M277 640v-640h-208v640h208z" />
    <glyph glyph-name="J" unicode="J" horiz-adv-x="376" 
d="M68 -210q-53 0 -88 7l24 180q20 -4 33 -4q29 0 45.5 19t16.5 55v593h208v-569q0 -139 -65 -210t-174 -71z" />
    <glyph glyph-name="K" unicode="K" horiz-adv-x="723" 
d="M465 0l-131 211l-57 -66v-145h-208v640h208v-213l156 213h267l-233 -273l262 -367h-264z" />
    <glyph glyph-name="L" unicode="L" horiz-adv-x="550" 
d="M277 173h263v-173h-471v640h208v-467z" />
    <glyph glyph-name="M" unicode="M" horiz-adv-x="879" 
d="M628 640h182v-640h-198v244l-119 -244h-107l-119 244v-244h-198v640h182l189 -382z" />
    <glyph glyph-name="N" unicode="N" horiz-adv-x="755" 
d="M487 640h199v-640h-190l-228 324v-324h-199v640h190l228 -329v329z" />
    <glyph glyph-name="O" unicode="O" horiz-adv-x="805" 
d="M403 -17q-81 0 -150 27t-115.5 72.5t-72.5 107.5t-26 132q0 69 26 130.5t72.5 107.5t115.5 72.5t150 26.5t149.5 -26.5t115 -72t72.5 -107.5t26 -131q0 -70 -26 -132t-72.5 -107.5t-115 -72.5t-149.5 -27zM403 166q67 0 109 47t42 109t-41.5 108t-109.5 46
q-28 0 -52.5 -8.5t-42.5 -23.5t-31 -34.5t-19.5 -42t-6.5 -45.5q0 -40 17.5 -75t53 -58t81.5 -23z" />
    <glyph glyph-name="P" unicode="P" horiz-adv-x="671" 
d="M395 640q105 0 171 -64t66 -158q0 -93 -66 -157t-171 -63h-148v-198h-208v640h356zM344 349q36 0 56 18.5t20 50.5q0 34 -20 52.5t-56 18.5h-97v-141z" />
    <glyph glyph-name="Q" unicode="Q" horiz-adv-x="809" 
d="M696 12l78 -129q-66 -47 -145.5 -54t-149.5 33t-101 122q-152 8 -245.5 104t-93.5 234q0 69 26 130.5t72.5 107.5t115.5 72.5t150 26.5t149.5 -26.5t115 -72t72.5 -107.5t26 -131q0 -105 -56 -188.5t-154 -122.5q11 -24 39 -28.5t56 5t45 24.5zM251 322q0 -62 42 -109
t110 -47q67 0 109 47t42 109t-41.5 108t-109.5 46q-35 0 -64 -13t-48 -34.5t-29.5 -49.5t-10.5 -57z" />
    <glyph glyph-name="R" unicode="R" horiz-adv-x="732" 
d="M612 197q11 -18 42 -90t59 -107h-242q-6 12 -28.5 79t-37.5 92q-18 30 -46 45.5t-82 18.5v-235h-208v640h348q33 0 65 -5t65.5 -18.5t58.5 -34.5t40.5 -55.5t15.5 -78.5q0 -66 -43.5 -109t-114.5 -66q77 -25 108 -76zM370 489h-93v-131h89q41 0 62.5 18t21.5 49
q0 19 -8.5 33.5t-26.5 22.5t-45 8z" />
    <glyph glyph-name="S" unicode="S" horiz-adv-x="671" 
d="M336 -17q-186 0 -317 91l115 141q90 -69 198 -69q36 0 56 12.5t20 34.5t-37.5 36.5t-119.5 34.5q-90 20 -138 66t-48 112q0 69 39.5 120t100.5 74.5t135 23.5q158 0 278 -79l-111 -135q-74 49 -148 49q-32 0 -52 -11t-20 -30q0 -18 28.5 -29.5t110.5 -34.5q12 -4 19 -5
q187 -52 187 -187q0 -103 -80.5 -159t-215.5 -56z" />
    <glyph glyph-name="T" unicode="T" horiz-adv-x="540" 
d="M541 640v-170h-167v-470h-208v470h-167v170h542z" />
    <glyph glyph-name="U" unicode="U" horiz-adv-x="747" 
d="M373 -17q-142 0 -225.5 69t-83.5 202v386h208v-363q0 -54 27 -82.5t74.5 -28.5t74.5 28.5t27 82.5v363h208v-386q0 -89 -39.5 -151t-108.5 -91t-162 -29z" />
    <glyph glyph-name="V" unicode="V" horiz-adv-x="697" 
d="M481 640h227l-270 -640h-180l-269 640h227l132 -386z" />
    <glyph glyph-name="W" unicode="W" horiz-adv-x="980" 
d="M760 640h221l-208 -640h-194l-89 297l-89 -297h-194l-208 640h221l95 -357l91 357h168l91 -357z" />
    <glyph glyph-name="X" unicode="X" horiz-adv-x="741" 
d="M732 0h-258l-103 178l-104 -178h-258l228 331l-206 309h244l95 -160l96 160h244l-206 -309z" />
    <glyph glyph-name="Y" unicode="Y" horiz-adv-x="629" 
d="M650 640l-232 -359v-281h-208v285l-231 355h233l102 -172l105 172h231z" />
    <glyph glyph-name="Z" unicode="Z" horiz-adv-x="586" 
d="M306 176h241v-176h-508v153l237 311h-219v176h481v-144z" />
    <glyph glyph-name="bracketleft" unicode="[" horiz-adv-x="382" 
d="M347 784v-96h-105v-788h105v-96h-278v980h278z" />
    <glyph glyph-name="backslash" unicode="\" horiz-adv-x="501" 
d="M511 -120h-163l-359 817h164z" />
    <glyph glyph-name="bracketright" unicode="]" horiz-adv-x="382" 
d="M35 784h277v-980h-277v96h105v788h-105v96z" />
    <glyph glyph-name="asciicircum" unicode="^" horiz-adv-x="558" 
d="M519 326h-168l-72 176l-72 -176h-168l158 317h164z" />
    <glyph glyph-name="underscore" unicode="_" horiz-adv-x="520" 
d="M0 -131v78h520v-78h-520z" />
    <glyph glyph-name="grave" unicode="`" horiz-adv-x="367" 
d="M151 556l-107 109l137 21l142 -176h-47q-43 0 -69.5 8t-55.5 38z" />
    <glyph glyph-name="a" unicode="a" horiz-adv-x="570" 
d="M271 486q55 0 98.5 -11.5t78.5 -37t54 -71t19 -107.5v-259h-171l-21 53q-50 -65 -149 -65q-70 0 -115.5 38.5t-45.5 103.5q0 86 80 127.5t210 9.5l21 -5v14q0 36 -25 56t-63 20q-51 0 -98 -34l-72 111q84 57 199 57zM329 172v13l-3 1q-50 13 -80 -1.5t-30 -42.5
q0 -20 13.5 -30.5t35.5 -10.5q29 0 46.5 19t17.5 52z" />
    <glyph glyph-name="b" unicode="b" horiz-adv-x="602" 
d="M371 486q95 0 156 -67.5t61 -184t-61 -184t-156 -67.5q-87 0 -143 57l-15 -40h-159v680h192v-235q52 41 125 41zM312 143q22 0 40 11t29 32t11 49q0 41 -23 66t-57 25q-17 0 -31.5 -6.5t-25.5 -18t-17.5 -29t-6.5 -37.5q0 -42 23.5 -67t57.5 -25z" />
    <glyph glyph-name="c" unicode="c" horiz-adv-x="468" 
d="M285 -17q-114 0 -190 70.5t-76 181.5t76 181t190 70q57 0 99 -12.5t83 -38.5l-104 -146q-26 32 -66 32q-37 0 -59.5 -23t-22.5 -63.5t22.5 -63.5t59.5 -23q40 0 66 32l103 -146q-41 -26 -82.5 -38.5t-98.5 -12.5z" />
    <glyph glyph-name="d" unicode="d" horiz-adv-x="602" 
d="M357 680h191v-680h-158l-15 40q-57 -57 -143 -57q-95 0 -156.5 67.5t-61.5 184t61.5 184t156.5 67.5q73 0 125 -41v235zM291 143q34 0 57.5 25t23.5 66.5t-23.5 66.5t-57.5 25q-22 0 -40 -10.5t-29.5 -32t-11.5 -48.5q0 -42 23.5 -67t57.5 -25z" />
    <glyph glyph-name="e" unicode="e" horiz-adv-x="572" 
d="M553 221v-38h-332q18 -67 87 -67q43 0 81 31l124 -102q-78 -62 -199 -62q-136 0 -215.5 69t-79.5 183q0 112 76 181.5t195 69.5q116 0 189.5 -69.5t73.5 -195.5zM290 355q-60 0 -72 -75h146q-3 34 -21.5 54.5t-52.5 20.5z" />
    <glyph glyph-name="f" unicode="f" horiz-adv-x="418" 
d="M320 546q-19 0 -32.5 -14t-13.5 -39v-19h88v-138h-88v-336h-192v336h-59v138h60q3 110 60.5 171t143.5 61q84 0 151 -39l-74 -138q-20 17 -44 17z" />
    <glyph glyph-name="g" unicode="g" horiz-adv-x="569" 
d="M296 87q254 0 254 -139q0 -77 -66 -117.5t-185 -40.5q-280 0 -280 131q0 67 64 105q-44 37 -44 82q0 62 60 94q-43 47 -43 107q0 74 62 125.5t157 51.5q48 0 90 -14q32 41 85.5 52.5t99.5 1.5l-25 -112q-16 7 -35 5t-30 -13q34 -44 34 -97q0 -75 -62 -126.5t-157 -51.5
q-38 0 -72 10q-17 -7 -17 -19q0 -21 20.5 -28t89.5 -7zM275 361q-25 0 -40 -15t-15 -37t15.5 -37.5t39.5 -15.5t40 15.5t16 37.5q0 14 -7 26t-20 19t-29 7zM292 -104q66 0 66 36q0 15 -12 23t-33 10.5t-58 2.5q-12 0 -25 1q-19 -18 -19 -36q0 -37 81 -37z" />
    <glyph glyph-name="h" unicode="h" horiz-adv-x="602" 
d="M390 486q30 0 58 -9.5t53.5 -29.5t41 -57t15.5 -87v-303h-192v241q0 30 -6 49t-18.5 27.5t-33.5 8.5q-27 0 -44.5 -24.5t-17.5 -74.5v-227h-192v680h192v-253q59 59 144 59z" />
    <glyph glyph-name="i" unicode="i" horiz-adv-x="299" 
d="M149 524q-41 0 -70.5 28t-29.5 67t29.5 66.5t70.5 27.5q27 0 49.5 -12.5t36 -34.5t13.5 -47q0 -39 -29 -67t-70 -28zM54 0v474h191v-474h-191z" />
    <glyph glyph-name="j" unicode="j" horiz-adv-x="305" 
d="M157 524q-41 0 -70 28t-29 67t29 66.5t70 27.5q27 0 49.5 -12.5t36 -34.5t13.5 -47q0 -39 -29 -67t-70 -28zM254 474v-437q0 -61 -16 -107.5t-39 -72.5t-55 -41.5t-58 -20t-54 -4.5q-13 0 -26.5 1t-19.5 2l-6 1l11 157q6 -2 14 -2q22 0 39.5 14.5t17.5 52.5v457h192z" />
    <glyph glyph-name="k" unicode="k" horiz-adv-x="595" 
d="M376 0l-88 153l-42 -45v-108h-192v680h192v-331l110 125h235l-177 -187l197 -287h-235z" />
    <glyph glyph-name="l" unicode="l" horiz-adv-x="300" 
d="M54 0v680h192v-680h-192z" />
    <glyph glyph-name="m" unicode="m" horiz-adv-x="868" 
d="M643 486q51 0 86.5 -15t54.5 -44t27 -64t8 -81v-282h-191v255q0 71 -45 71q-29 0 -39.5 -23t-10.5 -69v-234h-192v256q0 70 -45 70q-23 0 -35 -16.5t-15 -50.5v-259h-192v474h170l19 -54q41 66 124 66q86 0 128 -56q14 11 25 19t30 17.5t42.5 14.5t50.5 5z" />
    <glyph glyph-name="n" unicode="n" horiz-adv-x="606" 
d="M389 486q30 0 58 -9.5t53.5 -29.5t41 -57t15.5 -87v-303h-192v241q0 30 -6 49t-18.5 27.5t-33.5 8.5q-24 0 -40.5 -19t-20.5 -58v-249h-192v474h170l20 -48q60 60 145 60z" />
    <glyph glyph-name="o" unicode="o" 
d="M294 -17q-122 0 -198.5 69.5t-76.5 182t76.5 182t198.5 69.5q80 0 142.5 -31t97.5 -88.5t35 -131.5q0 -113 -76.5 -182.5t-198.5 -69.5zM294 143q34 0 57 25t23 67q0 17 -4 31.5t-11.5 25.5t-17 18.5t-22 11.5t-25.5 4q-35 0 -57 -24.5t-22 -66.5t22 -67t57 -25z" />
    <glyph glyph-name="p" unicode="p" horiz-adv-x="607" 
d="M371 486q62 0 110.5 -29t77.5 -86.5t29 -135.5q0 -117 -61 -184.5t-156 -67.5q-73 0 -125 41v-234h-192v684h170l11 -38q55 50 136 50zM312 143q22 0 40 11t29 32t11 49q0 41 -23 66t-57 25q-17 0 -31.5 -6.5t-25.5 -18t-17.5 -29t-6.5 -37.5q0 -42 23.5 -67t57.5 -25z
" />
    <glyph glyph-name="q" unicode="q" horiz-adv-x="607" 
d="M384 474h169v-684h-192v234q-51 -41 -125 -41q-95 0 -156 67.5t-61 184t61.5 184t155.5 67.5q82 0 136 -50zM296 143q33 0 56.5 25t23.5 66.5t-23.5 66.5t-56.5 25q-34 0 -57.5 -25t-23.5 -66.5t23.5 -66.5t57.5 -25z" />
    <glyph glyph-name="r" unicode="r" horiz-adv-x="439" 
d="M365 486q22 0 43.5 -5t31.5 -10l10 -4l-51 -149q-20 11 -48 11q-49 0 -77 -37t-28 -96v-196h-192v474h170l22 -59q16 20 28 32.5t37 25.5t54 13z" />
    <glyph glyph-name="s" unicode="s" horiz-adv-x="498" 
d="M14 47l91 117q59 -47 119 -47q14 0 24.5 3.5t15.5 10.5t5 16q0 13 -16.5 21.5t-40.5 13t-53 13.5t-53.5 21.5t-40.5 39t-16 64.5q0 74 60 120t168 46q62 0 115.5 -16t81.5 -38l-93 -116q-46 35 -90 36q-42 0 -42 -29q0 -15 17 -25.5t42.5 -15.5t55.5 -15t55.5 -22.5
t42.5 -39t17 -63.5q0 -69 -56.5 -114t-163.5 -45q-155 0 -245 64z" />
    <glyph glyph-name="t" unicode="t" horiz-adv-x="407" 
d="M381 151l17 -149q-57 -15 -113 -15q-28 0 -53.5 5t-52 19t-45 36t-31 59.5t-12.5 86.5v142h-61v139h61v140h192v-140h98v-139h-98v-105q0 -84 64 -84q8 0 17 1t13 3z" />
    <glyph glyph-name="u" unicode="u" horiz-adv-x="606" 
d="M360 474h192v-474h-170l-20 48q-60 -60 -145 -60q-30 0 -58.5 9.5t-53.5 29.5t-40.5 57.5t-15.5 86.5v303h192v-241q0 -45 13.5 -65t44.5 -20q23 0 40 19t21 58v249z" />
    <glyph glyph-name="v" unicode="v" horiz-adv-x="547" 
d="M360 474h203l-211 -474h-158l-210 474h203l86 -250z" />
    <glyph glyph-name="w" unicode="w" horiz-adv-x="817" 
d="M606 474h207l-172 -474h-163l-69 250l-70 -250h-163l-172 474h208l57 -229l65 229h150l65 -229z" />
    <glyph glyph-name="x" unicode="x" horiz-adv-x="549" 
d="M565 0h-211l-79 127l-80 -127h-211l181 248l-157 226h206l61 -104l60 104h206l-156 -226z" />
    <glyph glyph-name="y" unicode="y" horiz-adv-x="563" 
d="M376 474h202l-233 -543q-35 -80 -81.5 -110.5t-108.5 -30.5q-21 0 -42.5 3.5t-32.5 6.5l-11 4l27 160q25 -14 47 -14q36 0 50 38l3 6l-212 480h203l96 -247z" />
    <glyph glyph-name="z" unicode="z" horiz-adv-x="496" 
d="M276 155h196v-155h-448v125l174 194h-157v155h416v-121z" />
    <glyph glyph-name="braceleft" unicode="{" horiz-adv-x="400" 
d="M291 423q0 -22 -6.5 -41.5t-16.5 -32.5t-22.5 -23t-25 -16t-23 -9.5t-17.5 -5.5l-6 -1q5 -1 13 -3t28 -11t35.5 -22t28 -37.5t12.5 -55.5v-211q0 -34 11 -44t35 -10h49v-96h-124q-67 0 -105 46.5t-38 116.5v189q0 21 -8.5 38t-20 25t-23.5 13.5t-20 6.5l-8 1v108
q3 0 8.5 1t19 6.5t24 13.5t19.5 25t9 38v189q0 70 38 116.5t105 46.5h124v-96h-49q-12 0 -19 -1.5t-14 -6.5t-10 -16.5t-3 -29.5v-211z" />
    <glyph glyph-name="bar" unicode="|" horiz-adv-x="277" 
d="M69 710h139v-870h-139v870z" />
    <glyph glyph-name="braceright" unicode="}" horiz-adv-x="400" 
d="M282 432q0 -22 8 -38.5t19.5 -24.5t23.5 -13.5t20 -6.5l8 -1v-108q-3 0 -8.5 -1t-19 -6.5t-24 -13.5t-19 -25t-8.5 -38v-189q0 -46 -16.5 -82.5t-49.5 -58.5t-77 -22h-125v96h49q12 0 19 1.5t14 6.5t10 16.5t3 29.5v211q0 31 12 55.5t29.5 37.5t34.5 22t29 11l12 3
q-2 0 -6.5 1t-16.5 5t-23 9.5t-24.5 16t-23.5 23.5t-16.5 32.5t-6.5 41.5v211q0 34 -11 44t-35 10h-49v96h125q66 0 104.5 -46.5t38.5 -116.5v-189z" />
    <glyph glyph-name="asciitilde" unicode="~" horiz-adv-x="625" 
d="M411 198q-33 0 -67 16.5t-64.5 33.5t-55.5 17q-22 0 -40 -11t-26.5 -21.5t-17.5 -26.5l-96 63q16 23 27.5 36.5t33 33.5t47.5 29.5t57 9.5q36 0 71 -17t65 -34t53 -17q49 0 84 64l95 -63q-14 -26 -27 -43.5t-32.5 -35t-46 -26t-60.5 -8.5z" />
    <glyph glyph-name="uni00A0" unicode="&#xa0;" horiz-adv-x="236" 
 />
    <glyph glyph-name="exclamdown" unicode="&#xa1;" horiz-adv-x="297" 
d="M148 487q41 0 70.5 -28t29.5 -67t-29.5 -66.5t-70.5 -27.5t-70 27.5t-29 66.5t29 67t70 28zM35 -166l33 429h156l34 -429h-223z" />
    <glyph glyph-name="cent" unicode="&#xa2;" horiz-adv-x="468" 
d="M363 264l103 -146q-40 -25 -81 -37.5t-97 -13.5l-14 -67h-116l19 87q-47 18 -82.5 51t-55.5 79.5t-20 101.5q0 108 72.5 177.5t181.5 73.5l15 70h115l-17 -83q40 -11 81 -38l-104 -146q-26 32 -66 32q-37 0 -59.5 -22.5t-22.5 -63.5t22.5 -64t59.5 -23q40 0 66 32z" />
    <glyph glyph-name="sterling" unicode="&#xa3;" horiz-adv-x="622" 
d="M318 241v-82h241v-159h-520v110l87 28v103h-87v129h87v17q0 70 20 123.5t55 85.5t80 48t99 16q61 0 108.5 -19t94.5 -61l-99 -135q-36 39 -82 39q-84 0 -84 -108v-6h180v-129h-180z" />
    <glyph glyph-name="currency" unicode="&#xa4;" horiz-adv-x="583" 
d="M544 157l-85 -83l-70 70q-44 -19 -98 -19q-53 0 -97 19l-71 -71l-84 85l67 66q-24 45 -24 101t24 101l-67 67l84 84l71 -71q44 20 97 20q54 0 98 -20l71 71l84 -84l-67 -67q25 -44 25 -101q0 -56 -25 -100zM229 325q0 -32 17 -50.5t45 -18.5q11 0 21 3t17.5 9t13.5 14
t9 19t3 24q0 32 -18 50.5t-46 18.5q-14 0 -25.5 -4.5t-19.5 -13.5t-12.5 -22t-4.5 -29z" />
    <glyph glyph-name="yen" unicode="&#xa5;" horiz-adv-x="656" 
d="M649 640l-188 -305h102v-101h-139v-39h139v-101h-139v-94h-192v94h-139v101h139v39h-139v101h104l-190 305h206l115 -200l117 200h204z" />
    <glyph glyph-name="brokenbar" unicode="&#xa6;" horiz-adv-x="277" 
d="M69 625h139v-285h-139v285zM69 210h139v-285h-139v285z" />
    <glyph glyph-name="section" unicode="&#xa7;" horiz-adv-x="554" 
d="M515 225q-3 -65 -65 -107q41 -45 39 -113q-3 -77 -64.5 -119.5t-153.5 -46.5q-46 -2 -88.5 6t-71 20.5t-50.5 25t-32 21.5l-10 9l105 121q34 -35 84 -45q33 -7 58.5 1t26.5 29q1 20 -18 34t-63 31q-80 31 -117.5 70.5t-39.5 90.5q-4 87 75 133q-35 39 -37 90
q-1 29 7.5 58t28.5 57.5t59.5 47t92.5 21.5q25 1 51 -2t47 -9t40.5 -13t34 -15t25.5 -14.5t17 -10.5l6 -4l-94 -118q-22 26 -64 36q-30 8 -49 -0.5t-19 -29.5q0 -18 19 -33t74 -38q77 -33 112.5 -75.5t33.5 -108.5zM249 310q-36 -12 -36 -39q1 -14 10.5 -25.5t32 -24
t63.5 -28.5q34 10 36 35q1 14 -11.5 27.5t-33.5 24.5t-61 30z" />
    <glyph glyph-name="dieresis" unicode="&#xa8;" horiz-adv-x="466" 
d="M116.5 661q30.5 0 52 -21.5t21.5 -51.5q0 -31 -21.5 -53t-52 -22t-51.5 21.5t-21 53.5q0 30 21 51.5t51.5 21.5zM349 661q19 0 36.5 -9.5t27 -26.5t9.5 -37q0 -31 -21.5 -53t-52 -22t-51.5 21.5t-21 53.5q0 30 21 51.5t52 21.5z" />
    <glyph glyph-name="copyright" unicode="&#xa9;" horiz-adv-x="759" 
d="M379 -12q-143 0 -241.5 95t-98.5 233q0 96 45 176t123 125.5t172 45.5q95 0 173.5 -45.5t123 -125.5t44.5 -176q0 -138 -98.5 -233t-242.5 -95zM379 41q121 0 201 79.5t80 195.5q0 124 -79.5 208.5t-201.5 84.5q-80 0 -144 -39t-100 -106t-36 -148q0 -116 79.5 -195.5
t200.5 -79.5zM387 121q-93 0 -150.5 58t-57.5 143q0 84 57.5 141.5t150.5 57.5q70 0 122 -36l-63 -96q-25 21 -61 21t-58.5 -26.5t-22.5 -62.5q0 -35 22.5 -61.5t58.5 -26.5t61 22l63 -97q-53 -37 -122 -37z" />
    <glyph glyph-name="ordfeminine" unicode="&#xaa;" horiz-adv-x="389" 
d="M196 655q174 0 174 -160v-180h-119l-15 32q-38 -41 -105 -41q-31 0 -56.5 11.5t-40.5 32.5t-15 49q0 117 208 117h10v8q0 36 -53 37q-21 0 -40.5 -5.5t-27.5 -11.5l-9 -6l-50 77q59 40 139 40zM236 436v12h-19q-38 0 -50.5 -9t-12.5 -25q0 -14 10 -21t27 -7q20 0 32.5 14
t12.5 36zM31 157v106h338v-106h-338z" />
    <glyph glyph-name="guillemotleft" unicode="&#xab;" horiz-adv-x="593" 
d="M333 420l-138 -178l138 -178h-175l-139 178l139 178h175zM574 420l-138 -178l138 -178h-175l-139 178l139 178h175z" />
    <glyph glyph-name="logicalnot" unicode="&#xac;" horiz-adv-x="528" 
d="M48 271v139h432v-266h-139v127h-293z" />
    <glyph glyph-name="uni00AD" unicode="&#xad;" horiz-adv-x="374" 
d="M48 215v143h279v-143h-279z" />
    <glyph glyph-name="registered" unicode="&#xae;" horiz-adv-x="533" 
d="M268 663q97 0 159 -64t62 -158q0 -93 -62 -157t-159 -64q-98 0 -161 64t-63 157.5t63 157.5t161 64zM268 258q79 0 128 53t49 130q0 78 -48.5 131t-128.5 53q-81 0 -130.5 -53t-49.5 -130.5t49.5 -130.5t130.5 -53zM370 478q0 -53 -50 -70l68 -76h-90l-55 68v-68h-73v222
h73h43q34 0 59 -22.5t25 -53.5zM268 495h-25v-42h25q26 0 26 21t-26 21z" />
    <glyph glyph-name="macron" unicode="&#xaf;" horiz-adv-x="435" 
d="M44 698v66h347v-66h-347z" />
    <glyph glyph-name="degree" unicode="&#xb0;" horiz-adv-x="429" 
d="M214.5 663q70.5 0 120.5 -48.5t50 -117t-50 -117t-120.5 -48.5t-120.5 48.5t-50 117t50 117t120.5 48.5zM214 432q19 0 35 8.5t25 24t9 32.5q0 28 -20 47t-48.5 19t-48.5 -19t-20 -46.5t20 -46.5t48 -19z" />
    <glyph glyph-name="plusminus" unicode="&#xb1;" horiz-adv-x="565" 
d="M209 183v161h-161v144h161v160h143v-160h161v-144h-161v-161h-143zM52 139h465v-133h-465v133z" />
    <glyph glyph-name="uni00B2" unicode="&#xb2;" horiz-adv-x="415" 
d="M234 460h152v-100h-357v27q0 31 13.5 57t34 42t44.5 31t44.5 25.5t34 24t13.5 27.5q0 25 -26 25q-10 0 -20.5 -6.5t-18 -14t-21.5 -22.5l-92 84q39 42 81.5 66t107 24t108 -33.5t43.5 -91.5q0 -25 -10 -47t-27.5 -39.5t-33.5 -30t-38.5 -27t-31.5 -21.5z" />
    <glyph glyph-name="uni00B3" unicode="&#xb3;" horiz-adv-x="395" 
d="M257 583q29 -2 52.5 -13.5t40 -36.5t16.5 -59q0 -55 -46 -87t-125 -34q-105 -4 -176 45l50 102q52 -41 93 -40q12 0 22 3.5t15 9.5t5 14q1 20 -23 26q-23 6 -61 -3l-24 63l73 62h-124v105h304v-70z" />
    <glyph glyph-name="acute" unicode="&#xb4;" horiz-adv-x="367" 
d="M216 556q-30 -30 -56 -38t-69 -8h-47l142 176l137 -21z" />
    <glyph glyph-name="uni00B5" unicode="&#xb5;" horiz-adv-x="611" 
d="M365 474h192v-474h-170l-20 48q-60 -60 -147 -60h-1l-15 -178h-150v664h192v-241q0 -45 13.5 -65t44.5 -20q15 0 27.5 7.5t21.5 25.5t12 44v249z" />
    <glyph glyph-name="paragraph" unicode="&#xb6;" horiz-adv-x="530" 
d="M460 640v-790h-84v708h-71v-708h-84v406h-7q-80 0 -132.5 54t-52.5 136q0 84 52.5 139t132.5 55h246z" />
    <glyph glyph-name="periodcentered" unicode="&#xb7;" horiz-adv-x="277" 
d="M138 183q-41 0 -70 27.5t-29 66.5t29 67t70 28t70.5 -28t29.5 -67t-29.5 -66.5t-70.5 -27.5z" />
    <glyph glyph-name="cedilla" unicode="&#xb8;" horiz-adv-x="339" 
d="M219 -35q26 -5 49.5 -25.5t21.5 -55.5q-1 -25 -16 -44t-38 -29t-52 -13q-38 -3 -74.5 2.5t-53.5 11.5l-17 7l31 62q5 -3 13.5 -6t30 -8t37.5 -4q32 2 32 27q-1 16 -26.5 20t-43.5 -7l-43 34l67 85l76 -14v-7l-39 -36q2 0 5 1t14.5 2t25.5 -3z" />
    <glyph glyph-name="uni00B9" unicode="&#xb9;" horiz-adv-x="279" 
d="M250 360h-138v236l-65 -37l-48 106l133 75h118v-380z" />
    <glyph glyph-name="ordmasculine" unicode="&#xba;" horiz-adv-x="423" 
d="M211.5 307q-84.5 0 -138.5 49.5t-54 126t54 124.5t138.5 48t138.5 -48t54 -124.5t-54 -126t-138.5 -49.5zM212 429q21 0 34 14t13 39t-13 38.5t-34.5 13.5t-34.5 -13.5t-13 -38.5q0 -16 6.5 -28.5t17 -18.5t24.5 -6zM24 157v106h376v-106h-376z" />
    <glyph glyph-name="guillemotright" unicode="&#xbb;" horiz-adv-x="593" 
d="M194 420l139 -178l-139 -178h-175l139 178l-139 178h175zM435 420l139 -178l-139 -178h-175l139 178l-139 178h175z" />
    <glyph glyph-name="questiondown" unicode="&#xbf;" horiz-adv-x="550" 
d="M286 488q41 0 70 -28t29 -67t-29 -66.5t-70 -27.5t-70 27.5t-29 66.5t29 67t70 28zM380 259v-143q-147 10 -145 -76q1 -27 19.5 -46t51.5 -19q27 0 51 17.5t38 41.5l125 -102q-34 -49 -98 -83t-133 -34q-114 0 -181 54t-69 143q-1 71 41 119t108 69v59h192z" />
    <glyph glyph-name="Agrave" unicode="&#xc0;" horiz-adv-x="697" 
d="M421 690q-43 0 -69.5 8t-55.5 39l-107 108l137 21l142 -176h-47zM484 0l-27 88h-217l-27 -88h-224l252 640h215l252 -640h-224zM284 230h129l-65 208z" />
    <glyph glyph-name="Aacute" unicode="&#xc1;" horiz-adv-x="697" 
d="M415 737q-21 -21 -42 -31.5t-37.5 -13t-45.5 -2.5h-47l142 176l137 -21zM484 0l-27 88h-217l-27 -88h-224l252 640h215l252 -640h-224zM284 230h129l-65 208z" />
    <glyph glyph-name="Acircumflex" unicode="&#xc2;" horiz-adv-x="697" 
d="M319 729q-20 -19 -27 -25t-18.5 -10t-28.5 -4h-86l116 123h141l116 -123h-86q-24 0 -35.5 6.5t-37.5 31.5l-27 26zM484 0l-27 88h-217l-27 -88h-224l252 640h215l252 -640h-224zM284 230h129l-65 208z" />
    <glyph glyph-name="Atilde" unicode="&#xc3;" horiz-adv-x="697" 
d="M288 738q-35 0 -58 -40l-67 43q11 16 19 25.5t23 23t33 20.5t40 7q31 0 72 -23.5t59 -23.5q34 0 58 44l66 -44q-21 -38 -46 -58t-69 -20q-29 0 -69.5 23t-60.5 23zM484 0l-27 88h-217l-27 -88h-224l252 640h215l252 -640h-224zM284 230h129l-65 208z" />
    <glyph glyph-name="Adieresis" unicode="&#xc4;" horiz-adv-x="697" 
d="M231.5 694q-30.5 0 -51.5 21.5t-21 53.5q0 15 6 28.5t15.5 23.5t23 15.5t28.5 5.5q20 0 37 -10t26.5 -27t9.5 -36q0 -32 -21.5 -53.5t-52 -21.5zM464 694q-30 0 -51 21.5t-21 53.5q0 15 5.5 28.5t15 23.5t23 15.5t28.5 5.5q20 0 37 -10t27 -27t10 -36q0 -32 -22 -53.5
t-52 -21.5zM484 0l-27 88h-217l-27 -88h-224l252 640h215l252 -640h-224zM284 230h129l-65 208z" />
    <glyph glyph-name="Aring" unicode="&#xc5;" horiz-adv-x="697" 
d="M348 665q-62 0 -100 37.5t-38 93t38 93.5t100 38t101 -38t39 -93.5t-39 -93t-101 -37.5zM348.5 851q-25.5 0 -40.5 -16t-15 -39.5t15 -39.5t40.5 -16t40.5 16t15 39.5t-15 39.5t-40.5 16zM484 0l-27 88h-217l-27 -88h-224l252 640h215l252 -640h-224zM284 230h129
l-65 208z" />
    <glyph glyph-name="AE" unicode="&#xc6;" horiz-adv-x="840" 
d="M801 477h-307l25 -90h232v-134h-196l24 -88h222v-165h-357l-21 82h-194l-24 -82h-216l254 643h558v-166zM269 222h119l-55 221z" />
    <glyph glyph-name="Ccedilla" unicode="&#xc7;" horiz-adv-x="628" 
d="M609 50q-79 -57 -183 -66l-30 -28q2 1 5 1.5t14.5 1.5t25.5 -2q26 -6 49 -26.5t22 -55.5q-1 -36 -31.5 -58.5t-74.5 -26.5q-39 -3 -75 2t-53 12l-17 7l31 61q5 -2 13.5 -5t30 -8t37.5 -4q32 2 31 27q0 16 -25.5 20t-43.5 -7l-44 33l47 59q-90 11 -158.5 59t-104.5 119.5
t-36 155.5q0 70 25.5 131.5t70.5 107t112 72.5t146 27q125 0 216 -66l-109 -161q-40 44 -103 44q-66 0 -106 -46.5t-40 -109.5q0 -61 40 -107.5t106 -46.5q62 0 103 44z" />
    <glyph glyph-name="Egrave" unicode="&#xc8;" horiz-adv-x="607" 
d="M399 690q-42 0 -68.5 8t-56.5 39l-106 108l137 21l142 -176h-48zM568 475h-291v-88h241v-134h-241v-88h291v-165h-499v640h499v-165z" />
    <glyph glyph-name="Eacute" unicode="&#xc9;" horiz-adv-x="607" 
d="M394 737q-30 -31 -56 -39t-69 -8h-47l142 176l137 -21zM568 475h-291v-88h241v-134h-241v-88h291v-165h-499v640h499v-165z" />
    <glyph glyph-name="Ecircumflex" unicode="&#xca;" horiz-adv-x="607" 
d="M298 729q-16 -15 -21 -19.5t-14.5 -11t-17.5 -7.5t-21 -1h-86l116 123h141l116 -123h-86q-24 0 -35.5 6.5t-37.5 31.5l-28 26zM568 475h-291v-88h241v-134h-241v-88h291v-165h-499v640h499v-165z" />
    <glyph glyph-name="Edieresis" unicode="&#xcb;" horiz-adv-x="607" 
d="M210.5 694q-30.5 0 -51.5 21.5t-21 53.5q0 15 6 28.5t15.5 23.5t23 15.5t28.5 5.5q19 0 36 -10t27 -27t10 -36q0 -32 -21.5 -53.5t-52 -21.5zM443 694q-30 0 -51 21.5t-21 53.5q0 15 5.5 28.5t15 23.5t23 15.5t28.5 5.5q30 0 52 -21.5t22 -51.5q0 -32 -22 -53.5
t-52 -21.5zM568 475h-291v-88h241v-134h-241v-88h291v-165h-499v640h499v-165z" />
    <glyph glyph-name="Igrave" unicode="&#xcc;" horiz-adv-x="346" 
d="M120 737l-107 108l137 21l142 -176h-47q-29 0 -45.5 2.5t-38 13t-41.5 31.5zM277 640v-640h-208v640h208z" />
    <glyph glyph-name="Iacute" unicode="&#xcd;" horiz-adv-x="346" 
d="M239 737q-29 -31 -55.5 -39t-69.5 -8h-47l142 176l137 -21zM277 640v-640h-208v640h208z" />
    <glyph glyph-name="Icircumflex" unicode="&#xce;" horiz-adv-x="346" 
d="M143 729q-20 -19 -27 -25t-18.5 -10t-28.5 -4h-86l116 123h141l117 -123h-87q-24 0 -35.5 6.5t-37.5 31.5l-27 26zM69 0v640h208v-640h-208z" />
    <glyph glyph-name="Idieresis" unicode="&#xcf;" horiz-adv-x="346" 
d="M56 842q30 0 52 -21.5t22 -51.5q0 -21 -10 -38t-27 -27t-37 -10q-31 0 -52 21.5t-21 53.5q0 15 6 28.5t15.5 23.5t23 15.5t28.5 5.5zM288 842q20 0 37 -10t27 -27t10 -36q0 -32 -21.5 -53.5t-52 -21.5t-51.5 21.5t-21 53.5q0 20 9.5 36.5t26 26.5t36.5 10zM277 640v-640
h-208v640h208z" />
    <glyph glyph-name="Eth" unicode="&#xd0;" horiz-adv-x="725" 
d="M340 640q154 0 249.5 -89t95.5 -231t-95.5 -231t-249.5 -89h-271v289h-38v66h38v285h271zM326 175q60 0 103.5 36t43.5 109t-43.5 109t-103.5 36h-49v-110h101v-66h-101v-114h49z" />
    <glyph glyph-name="Ntilde" unicode="&#xd1;" horiz-adv-x="755" 
d="M318 739q-35 0 -59 -41l-66 43q11 16 19 26t22.5 23.5t33 20t39.5 6.5q31 0 72.5 -23.5t58.5 -23.5q34 0 58 45l66 -44q-20 -38 -45 -58.5t-70 -20.5q-28 0 -69 23.5t-60 23.5zM487 640h199v-640h-190l-228 324v-324h-199v640h190l228 -329v329z" />
    <glyph glyph-name="Ograve" unicode="&#xd2;" horiz-adv-x="805" 
d="M350 737l-106 108l136 21l143 -176h-48q-28 0 -45 2.5t-38 13t-42 31.5zM403 -17q-81 0 -150 27t-115.5 72.5t-72.5 107.5t-26 132q0 69 26 130.5t72.5 107.5t115.5 72.5t150 26.5t149.5 -26.5t115 -72.5t72.5 -107.5t26 -130.5q0 -70 -26 -132t-72.5 -107.5t-115 -72.5
t-149.5 -27zM403 166q67 0 109 47t42 109t-41.5 108t-109.5 46q-28 0 -52.5 -8.5t-42.5 -23.5t-31 -34.5t-19.5 -42t-6.5 -45.5q0 -62 42 -109t110 -47z" />
    <glyph glyph-name="Oacute" unicode="&#xd3;" horiz-adv-x="805" 
d="M470 737q-21 -21 -42 -31.5t-37.5 -13t-45.5 -2.5h-47l142 176l137 -21zM403 -17q-81 0 -150 27t-115.5 72.5t-72.5 107.5t-26 132q0 69 26 130.5t72.5 107.5t115.5 72.5t150 26.5t149.5 -26.5t115 -72t72.5 -107.5t26 -131q0 -70 -26 -132t-72.5 -107.5t-115 -72.5
t-149.5 -27zM403 166q67 0 109 47t42 109t-41.5 108t-109.5 46q-28 0 -52.5 -8.5t-42.5 -23.5t-31 -34.5t-19.5 -42t-6.5 -45.5q0 -40 17.5 -75t53 -58t81.5 -23z" />
    <glyph glyph-name="Ocircumflex" unicode="&#xd4;" horiz-adv-x="805" 
d="M373 729q-15 -15 -20 -19.5t-14.5 -11t-17.5 -7.5t-21 -1h-86l116 123h141l116 -123h-86q-24 0 -35.5 6.5t-37.5 31.5l-28 26zM403 659q81 0 149.5 -26.5t115 -72t72.5 -107.5t26 -131q0 -70 -26 -132t-72.5 -107.5t-115 -72.5t-149.5 -27t-150 27t-115.5 72.5
t-72.5 107.5t-26 132q0 69 26 130.5t72.5 107.5t115.5 72.5t150 26.5zM403 166q67 0 109 47t42 109t-41.5 108t-109.5 46q-35 0 -64 -13t-48 -34.5t-29.5 -49.5t-10.5 -57q0 -40 17.5 -75t53 -58t81.5 -23z" />
    <glyph glyph-name="Otilde" unicode="&#xd5;" horiz-adv-x="805" 
d="M473 692q-29 0 -70 23t-60 23q-35 0 -59 -40l-66 43q11 16 19 25.5t22.5 23t33 20.5t39.5 7q32 0 73 -23.5t58 -23.5q34 0 58 44l66 -44q-20 -38 -45 -58t-69 -20zM403 -17q-81 0 -150 27t-115.5 72.5t-72.5 107.5t-26 132q0 69 26 130.5t72.5 107.5t115.5 72.5t150 26.5
t149.5 -26.5t115 -72t72.5 -107.5t26 -131q0 -70 -26 -132t-72.5 -107.5t-115 -72.5t-149.5 -27zM403 166q67 0 109 47t42 109t-41.5 108t-109.5 46q-35 0 -64 -13t-48 -34.5t-29.5 -49.5t-10.5 -57q0 -40 17.5 -75t53 -58t81.5 -23z" />
    <glyph glyph-name="Odieresis" unicode="&#xd6;" horiz-adv-x="805" 
d="M286 842q31 0 52.5 -21.5t21.5 -51.5q0 -32 -21.5 -53.5t-52 -21.5t-51.5 21.5t-21 53.5q0 20 9.5 36.5t26 26.5t36.5 10zM519 842q30 0 51.5 -21.5t21.5 -51.5q0 -32 -21.5 -53.5t-52 -21.5t-51.5 21.5t-21 53.5q0 15 6 28.5t15.5 23.5t23 15.5t28.5 5.5zM403 -17
q-81 0 -150 27t-115.5 72.5t-72.5 107.5t-26 132q0 69 26 130.5t72.5 107.5t115.5 72.5t150 26.5t149.5 -26.5t115 -72t72.5 -107.5t26 -131q0 -70 -26 -132t-72.5 -107.5t-115 -72.5t-149.5 -27zM403 166q67 0 109 47t42 109t-41.5 108t-109.5 46q-28 0 -52.5 -8.5
t-42.5 -23.5t-31 -34.5t-19.5 -42t-6.5 -45.5q0 -40 17.5 -75t53 -58t81.5 -23z" />
    <glyph glyph-name="multiply" unicode="&#xd7;" horiz-adv-x="525" 
d="M478 401l-114 -113l114 -114l-101 -101l-114 113l-114 -113l-101 101l114 114l-114 113l101 102l114 -114l114 114z" />
    <glyph glyph-name="Oslash" unicode="&#xd8;" horiz-adv-x="805" 
d="M669 558q97 -95 97 -236q0 -70 -26 -132t-72.5 -107.5t-115 -72.5t-149.5 -27q-116 0 -205 53l-82 -91l-60 53l79 87q-96 95 -96 237q0 69 26 130.5t72.5 107.5t115.5 72.5t150 26.5q115 0 203 -53l84 93l59 -53zM251 322q0 -45 23 -83l199 220q-32 17 -70 17
q-28 0 -52.5 -8.5t-42.5 -23.5t-31 -34.5t-19.5 -42t-6.5 -45.5zM403 166q45 0 80.5 23t53 58t17.5 75q0 45 -23 83l-200 -222q32 -17 72 -17z" />
    <glyph glyph-name="Ugrave" unicode="&#xd9;" horiz-adv-x="747" 
d="M321 737l-107 108l137 21l142 -176h-47q-29 0 -45.5 2.5t-37.5 13t-42 31.5zM373 -17q-142 0 -225.5 69t-83.5 202v386h208v-363q0 -54 27 -82.5t74.5 -28.5t74.5 28.5t27 82.5v363h208v-386q0 -89 -39.5 -151t-108.5 -91t-162 -29z" />
    <glyph glyph-name="Uacute" unicode="&#xda;" horiz-adv-x="747" 
d="M441 737q-21 -21 -42 -31.5t-38 -13t-45 -2.5h-48l142 176l137 -21zM373 -17q-142 0 -225.5 69t-83.5 202v386h208v-363q0 -54 27 -82.5t74.5 -28.5t74.5 28.5t27 82.5v363h208v-386q0 -89 -39.5 -151t-108.5 -91t-162 -29z" />
    <glyph glyph-name="Ucircumflex" unicode="&#xdb;" horiz-adv-x="747" 
d="M344 729q-19 -19 -26.5 -25t-18.5 -10t-28 -4h-87l116 123h142l116 -123h-87q-24 0 -35.5 6.5t-37.5 31.5l-27 26zM475 640h208v-386q0 -133 -84 -202t-225.5 -69t-225.5 69t-84 202v386h208v-363q0 -54 27 -82.5t74.5 -28.5t74.5 28.5t27 82.5v363z" />
    <glyph glyph-name="Udieresis" unicode="&#xdc;" horiz-adv-x="747" 
d="M257 842q20 0 37 -10t27 -27t10 -36q0 -32 -22 -53.5t-52 -21.5t-51 21.5t-21 53.5q0 20 9.5 36.5t26 26.5t36.5 10zM489 842q31 0 52.5 -21.5t21.5 -51.5q0 -32 -21.5 -53.5t-52 -21.5t-51.5 21.5t-21 53.5q0 12 3.5 23t10 20t15.5 16t20 10.5t23 3.5zM373 -17
q-141 0 -225 69t-84 202v386h208v-363q0 -54 27 -82.5t74.5 -28.5t74.5 28.5t27 82.5v363h208v-386q0 -89 -39.5 -151t-108.5 -91t-162 -29z" />
    <glyph glyph-name="Yacute" unicode="&#xdd;" horiz-adv-x="629" 
d="M382 737q-21 -21 -42 -31.5t-37.5 -13t-45.5 -2.5h-48l143 176l136 -21zM650 640l-232 -359v-281h-208v285l-231 355h233l102 -172l105 172h231z" />
    <glyph glyph-name="Thorn" unicode="&#xde;" horiz-adv-x="677" 
d="M410 554q106 0 172 -64t66 -158q0 -93 -66.5 -157t-171.5 -64l-140 1v-112h-201v640h201v-86h140zM367 262q36 1 56 19.5t20 50.5q0 34 -20 52.5t-56 18.5h-97v-141h97z" />
    <glyph glyph-name="germandbls" unicode="&#xdf;" horiz-adv-x="632" 
d="M330 -4l-26 168q37 -5 64 9t27 50q0 9 -2.5 17t-7 14.5t-11 11.5t-14.5 8t-17 5t-19 2h-20v150h5q16 0 29.5 11.5t13.5 32.5q0 16 -12 28.5t-34 12.5q-23 0 -34.5 -18.5t-11.5 -47.5v-450h-191v458q0 55 15 97t38.5 67t57 41t65 21.5t67.5 5.5q105 0 168.5 -55t63.5 -132
q0 -34 -12 -62.5t-23 -41t-28 -27.5q47 -14 79.5 -61t32.5 -114q0 -74 -37.5 -123t-96 -67.5t-129.5 -10.5z" />
    <glyph glyph-name="agrave" unicode="&#xe0;" horiz-adv-x="570" 
d="M356 554q-42 0 -68.5 8.5t-56.5 38.5l-106 108l136 22l143 -177h-48zM271 486q55 0 98.5 -11.5t78.5 -37t54 -71t19 -107.5v-259h-171l-21 53q-50 -65 -149 -65q-70 0 -115.5 38.5t-45.5 103.5q0 86 80 127.5t210 9.5l21 -5v14q0 36 -25 56t-63 20q-51 0 -98 -34l-72 111
q84 57 199 57zM329 172v13l-3 1q-50 13 -80 -1.5t-30 -42.5q0 -20 13.5 -30.5t35.5 -10.5q29 0 46.5 19t17.5 52z" />
    <glyph glyph-name="aacute" unicode="&#xe1;" horiz-adv-x="570" 
d="M351 601q-21 -21 -42 -31.5t-37.5 -13t-45.5 -2.5h-47l142 177l137 -22zM271 486q55 0 98.5 -11.5t78.5 -37t54 -71t19 -107.5v-259h-171l-21 53q-50 -65 -149 -65q-70 0 -115.5 38.5t-45.5 103.5q0 86 80 127.5t210 9.5l21 -5v14q0 36 -25 56t-63 20q-51 0 -98 -34
l-72 111q84 57 199 57zM329 172v13l-3 1q-50 13 -80 -1.5t-30 -42.5q0 -20 13.5 -30.5t35.5 -10.5q29 0 46.5 19t17.5 52z" />
    <glyph glyph-name="acircumflex" unicode="&#xe2;" horiz-adv-x="570" 
d="M254 593q-15 -15 -20 -19.5t-14.5 -11t-17.5 -7.5t-21 -1h-86l116 123h141l116 -123h-86q-24 0 -35.5 6.5t-37.5 31.5l-28 26zM271 486q55 0 98.5 -11.5t78.5 -37t54 -71t19 -107.5v-259h-171l-21 53q-50 -65 -149 -65q-70 0 -115.5 38.5t-45.5 103.5q0 86 80 127.5
t210 9.5l21 -5v14q0 36 -25 56t-63 20q-51 0 -98 -34l-72 111q84 57 199 57zM329 172v13l-3 1q-50 13 -80 -1.5t-30 -42.5q0 -20 13.5 -30.5t35.5 -10.5q29 0 46.5 19t17.5 52z" />
    <glyph glyph-name="atilde" unicode="&#xe3;" horiz-adv-x="570" 
d="M224 602q-35 0 -59 -40l-66 43q11 16 19 25.5t22.5 23.5t33 20.5t39.5 6.5q32 0 73 -23.5t58 -23.5q35 0 58 44l66 -44q-20 -37 -45 -57.5t-69 -20.5q-29 0 -70 23t-60 23zM271 486q55 0 98.5 -11.5t78.5 -37t54 -71t19 -107.5v-259h-171l-21 53q-50 -65 -149 -65
q-70 0 -115.5 38.5t-45.5 103.5q0 86 80 127.5t210 9.5l21 -5v14q0 36 -25 56t-63 20q-51 0 -98 -34l-72 111q84 57 199 57zM329 172v13l-3 1q-50 13 -80 -1.5t-30 -42.5q0 -20 13.5 -30.5t35.5 -10.5q29 0 46.5 19t17.5 52z" />
    <glyph glyph-name="adieresis" unicode="&#xe4;" horiz-adv-x="570" 
d="M167.5 558q-30.5 0 -51.5 21.5t-21 53.5q0 30 21 51.5t51.5 21.5t52 -21.5t21.5 -51.5q0 -31 -21.5 -53t-52 -22zM399.5 558q-30.5 0 -51.5 21.5t-21 53.5q0 30 21 51.5t52 21.5q20 0 37 -9.5t26.5 -26.5t9.5 -37q0 -31 -21.5 -53t-52 -22zM271 486q55 0 98.5 -11.5
t78.5 -37t54 -71t19 -107.5v-259h-171l-21 53q-50 -65 -149 -65q-70 0 -115.5 38.5t-45.5 103.5q0 86 80 127.5t210 9.5l21 -5v14q0 36 -25 56t-63 20q-51 0 -98 -34l-72 111q84 57 199 57zM329 172v13l-3 1q-50 13 -80 -1.5t-30 -42.5q0 -20 13.5 -30.5t35.5 -10.5
q29 0 46.5 19t17.5 52z" />
    <glyph glyph-name="aring" unicode="&#xe5;" horiz-adv-x="570" 
d="M284 529q-62 0 -100.5 37.5t-38.5 93t38.5 93.5t100.5 38t100.5 -38t38.5 -93.5t-38.5 -93t-100.5 -37.5zM284 715q-17 0 -30 -7.5t-19 -20t-6 -27.5q0 -24 14.5 -40t40.5 -16q17 0 30 7.5t19.5 20t6.5 28.5q0 23 -15.5 39t-40.5 16zM271 486q55 0 98.5 -11.5t78.5 -37
t54 -71t19 -107.5v-259h-171l-21 53q-50 -65 -149 -65q-70 0 -115.5 38.5t-45.5 103.5q0 86 80 127.5t210 9.5l21 -5v14q0 36 -25 56t-63 20q-51 0 -98 -34l-72 111q84 57 199 57zM329 172v13l-3 1q-50 13 -80 -1.5t-30 -42.5q0 -20 13.5 -30.5t35.5 -10.5q29 0 46.5 19
t17.5 52z" />
    <glyph glyph-name="ae" unicode="&#xe6;" horiz-adv-x="881" 
d="M867 221v-38h-332q18 -67 88 -67q42 0 80 31l125 -102q-78 -62 -199 -62q-144 0 -225 77q-73 -72 -183 -72q-86 0 -141.5 38t-55.5 103q0 47 21.5 80.5t55 50t75.5 23.5t81.5 4.5t73.5 -11.5l4 -3v12q0 29 -19.5 47t-63.5 18q-18 1 -35.5 -2.5t-29 -8t-20.5 -9.5t-13 -8
l-5 -3l-72 111q84 56 199 56q85 0 157 -51q71 51 171 51q117 0 190 -69.5t73 -195.5zM604 355q-60 0 -72 -75h147q-4 34 -22 54.5t-53 20.5zM334 186v15h-25q-51 0 -70 -13.5t-19 -37.5q0 -20 13.5 -30t33.5 -10q29 0 48 21.5t19 54.5z" />
    <glyph glyph-name="ccedilla" unicode="&#xe7;" horiz-adv-x="468" 
d="M466 34q-73 -46 -158 -50l-22 -21q2 1 5 2t14.5 2t25.5 -3q26 -5 49.5 -25.5t21.5 -56.5q-1 -36 -31 -58.5t-75 -26.5q-38 -3 -74.5 2t-53.5 12l-17 7l31 61q5 -2 13.5 -5t30 -8t37.5 -4q32 2 32 27q-1 16 -26.5 20t-43.5 -7l-43 34l42 53q-91 18 -148 84.5t-57 161.5
q0 111 76 181t190 70q57 0 99 -12.5t83 -38.5l-104 -146q-26 32 -66 32q-37 0 -59.5 -23t-22.5 -63.5t22.5 -63.5t59.5 -23q40 0 66 32z" />
    <glyph glyph-name="egrave" unicode="&#xe8;" horiz-adv-x="572" 
d="M363 554q-42 0 -68.5 8.5t-56.5 38.5l-106 108l136 22l143 -177h-48zM553 221v-38h-332q18 -67 87 -67q43 0 81 31l124 -102q-78 -62 -199 -62q-136 0 -215.5 69t-79.5 183q0 112 76 181.5t195 69.5q116 0 189.5 -69.5t73.5 -195.5zM290 355q-60 0 -72 -75h146
q-3 34 -21.5 54.5t-52.5 20.5z" />
    <glyph glyph-name="eacute" unicode="&#xe9;" horiz-adv-x="572" 
d="M358 601q-30 -30 -56 -38.5t-69 -8.5h-47l142 177l137 -22zM553 221v-38h-332q18 -67 87 -67q43 0 81 31l124 -101q-78 -63 -199 -63q-136 0 -215.5 69t-79.5 183q0 112 76 181.5t195 69.5q116 0 189.5 -69.5t73.5 -195.5zM290 355q-60 0 -72 -74h146q-3 33 -21.5 53.5
t-52.5 20.5z" />
    <glyph glyph-name="ecircumflex" unicode="&#xea;" horiz-adv-x="572" 
d="M262 593q-20 -19 -27 -25t-18.5 -10t-28.5 -4h-86l116 123h141l116 -123h-86q-24 0 -35.5 6.5t-37.5 31.5l-28 26zM553 221v-38h-332q18 -67 87 -67q43 0 81 31l124 -102q-78 -62 -199 -62q-136 0 -215.5 69t-79.5 183q0 112 76 181.5t195 69.5q116 0 189.5 -69.5
t73.5 -195.5zM290 355q-60 0 -72 -75h146q-3 34 -21.5 54.5t-52.5 20.5z" />
    <glyph glyph-name="edieresis" unicode="&#xeb;" horiz-adv-x="572" 
d="M174.5 558q-30.5 0 -51.5 21.5t-21 53.5q0 30 21 51.5t51.5 21.5t52 -21.5t21.5 -51.5q0 -31 -21.5 -53t-52 -22zM406.5 558q-30.5 0 -51.5 21.5t-21 53.5q0 30 21 51.5t51.5 21.5t52 -21.5t21.5 -51.5q0 -31 -21.5 -53t-52 -22zM553 221v-38h-332q18 -67 87 -67
q43 0 81 31l124 -102q-78 -62 -199 -62q-136 0 -215.5 69t-79.5 183q0 112 76 181.5t195 69.5q116 0 189.5 -69.5t73.5 -195.5zM290 355q-60 0 -72 -75h146q-3 34 -21.5 54.5t-52.5 20.5z" />
    <glyph glyph-name="igrave" unicode="&#xec;" horiz-adv-x="299" 
d="M97 601l-106 108l136 22l143 -177h-48q-28 0 -45 2.5t-38 13t-42 31.5zM54 0v474h191v-474h-191z" />
    <glyph glyph-name="iacute" unicode="&#xed;" horiz-adv-x="299" 
d="M217 601q-30 -30 -56 -38.5t-69 -8.5h-47l142 177l137 -22zM54 0v474h191v-474h-191z" />
    <glyph glyph-name="icircumflex" unicode="&#xee;" horiz-adv-x="299" 
d="M218 677l116 -123h-86q-24 0 -35.5 6.5t-37.5 31.5l-28 26l-27 -25q-15 -15 -20 -19.5t-14.5 -11t-17.5 -7.5t-21 -1h-86l116 123h141zM54 0v474h191v-474h-191z" />
    <glyph glyph-name="idieresis" unicode="&#xef;" horiz-adv-x="299" 
d="M33.5 706q30.5 0 52 -21.5t21.5 -51.5q0 -31 -21.5 -53t-52 -22t-51.5 21.5t-21 53.5q0 30 21 51.5t51.5 21.5zM266 706q19 0 36 -9.5t27 -26.5t10 -37q0 -31 -21.5 -53t-52 -22t-51.5 21.5t-21 53.5q0 30 21 51.5t52 21.5zM54 0v474h191v-474h-191z" />
    <glyph glyph-name="eth" unicode="&#xf0;" horiz-adv-x="562" 
d="M365 588q104 -114 141 -190t37 -168q-1 -108 -74.5 -175t-188 -67t-188 67t-73.5 175q0 93 50.5 158t138.5 78q23 3 41 3q-3 2 -9.5 8.5l-17.5 17.5t-22 21l-96 -43l-81 83l93 39q-27 25 -54 49l164 89q35 -35 63 -64l91 38l87 -73zM281 148q32 0 52.5 22t20.5 60
t-20.5 60t-52.5 22q-21 0 -37.5 -9.5t-26 -28.5t-9.5 -44q0 -38 20.5 -60t52.5 -22z" />
    <glyph glyph-name="ntilde" unicode="&#xf1;" horiz-adv-x="606" 
d="M240 602q-34 0 -58 -40l-67 43q12 16 19.5 25.5t22.5 23.5t33 20.5t40 6.5q31 0 72.5 -23.5t58.5 -23.5q34 0 58 44l66 -44q-21 -37 -46 -57.5t-69 -20.5q-29 0 -69.5 23t-60.5 23zM389 486q30 0 58 -9.5t53.5 -29.5t41 -57t15.5 -87v-303h-192v241q0 30 -6 49
t-18.5 27.5t-33.5 8.5q-15 0 -27.5 -7.5t-22 -25.5t-11.5 -44v-249h-192v474h170l20 -48q60 60 145 60z" />
    <glyph glyph-name="ograve" unicode="&#xf2;" 
d="M242 600l-107 109l137 21l142 -176h-47q-29 0 -45.5 2t-38 12.5t-41.5 31.5zM294 -17q-122 0 -198.5 69.5t-76.5 182t76.5 182t198.5 69.5q80 0 142.5 -31t97.5 -88.5t35 -131.5q0 -113 -76.5 -182.5t-198.5 -69.5zM294 143q34 0 57 25t23 67t-23 66.5t-57 24.5
q-35 0 -57 -24.5t-22 -66.5t22 -67t57 -25z" />
    <glyph glyph-name="oacute" unicode="&#xf3;" 
d="M361 600q-29 -30 -55.5 -38t-69.5 -8h-47l142 176l137 -21zM294 -17q-122 0 -198.5 69.5t-76.5 182t76.5 182t198.5 69.5q80 0 142.5 -31t97.5 -88.5t35 -131.5q0 -113 -76.5 -182.5t-198.5 -69.5zM294 143q34 0 57 25t23 67t-23 66.5t-57 24.5q-35 0 -57 -24.5
t-22 -66.5t22 -67t57 -25z" />
    <glyph glyph-name="ocircumflex" unicode="&#xf4;" 
d="M265 592q-16 -14 -21 -19t-14.5 -11t-17.5 -7t-21 -1h-86l116 123h141l117 -123h-87q-24 0 -35.5 6.5t-37.5 31.5l-27 26zM294 486q80 0 142.5 -31t97.5 -88.5t35 -131.5q0 -113 -76.5 -182.5t-198.5 -69.5t-198.5 69.5t-76.5 182t76.5 182t198.5 69.5zM294 143
q34 0 57 25t23 67t-23 66.5t-57 24.5q-35 0 -57 -24.5t-22 -66.5q0 -28 10.5 -49t28 -32t40.5 -11z" />
    <glyph glyph-name="otilde" unicode="&#xf5;" 
d="M364 556q-29 0 -69.5 23t-60.5 23q-34 0 -58 -41l-67 44q12 16 19.5 25.5t22.5 23t33 20.5t40 7q31 0 72.5 -24t58.5 -24q34 0 58 45l66 -44q-21 -38 -46 -58t-69 -20zM294 -17q-122 0 -198.5 69.5t-76.5 182t76.5 182t198.5 69.5q80 0 142.5 -31t97.5 -88.5t35 -131.5
t-35 -131.5t-97.5 -89t-142.5 -31.5zM294 143q34 0 57 25t23 67t-23 66.5t-57 24.5q-35 0 -57 -24.5t-22 -66.5t22 -67t57 -25z" />
    <glyph glyph-name="odieresis" unicode="&#xf6;" 
d="M178 706q30 0 52 -21.5t22 -52.5t-22 -53t-52.5 -22t-51.5 22t-21 53q0 15 6 28.5t15.5 23.5t23 16t28.5 6zM410 706q20 0 37 -10t27 -27t10 -37q0 -31 -21.5 -53t-52 -22t-51.5 22t-21 53q0 15 5.5 28.5t15 23.5t23 16t28.5 6zM294 -17q-122 0 -198.5 69.5t-76.5 182
t76.5 182t198.5 69.5q80 0 142.5 -31t97.5 -88.5t35 -131.5q0 -113 -76.5 -182.5t-198.5 -69.5zM294 143q34 0 57 25t23 67t-23 66.5t-57 24.5q-35 0 -57 -24.5t-22 -66.5t22 -67t57 -25z" />
    <glyph glyph-name="divide" unicode="&#xf7;" horiz-adv-x="560" 
d="M280 400q-35 0 -59.5 23.5t-24.5 56.5t24.5 56.5t59.5 23.5q17 0 32.5 -6.5t27 -17t18 -25.5t6.5 -31q0 -33 -24.5 -56.5t-59.5 -23.5zM48 215v143h465v-143h-465zM280 13q-35 0 -59.5 23.5t-24.5 56.5t24.5 56.5t59.5 23.5q17 0 32.5 -6.5t27 -17t18 -25.5t6.5 -31
q0 -33 -24.5 -56.5t-59.5 -23.5z" />
    <glyph glyph-name="oslash" unicode="&#xf8;" 
d="M502 407q67 -68 67 -172q0 -113 -77 -182.5t-198 -69.5q-81 0 -145 33l-57 -63l-57 52l51 57q-67 69 -67 173q0 112 76.5 181.5t198.5 69.5q81 0 145 -33l57 63l58 -52zM182 235q0 -31 10 -56l154 171q-24 13 -53 13q-48 0 -79.5 -35t-31.5 -93zM293 106q32 0 57.5 15.5
t41 45t15.5 68.5q0 30 -10 56l-155 -172q23 -13 51 -13z" />
    <glyph glyph-name="ugrave" unicode="&#xf9;" horiz-adv-x="606" 
d="M365 554q-43 0 -69 8.5t-56 38.5l-107 108l137 22l142 -177h-47zM360 474h192v-474h-170l-20 48q-60 -60 -145 -60q-30 0 -58.5 9.5t-53.5 29.5t-40.5 57.5t-15.5 86.5v303h192v-241q0 -45 13.5 -65t44.5 -20q23 0 40 19t21 58v249z" />
    <glyph glyph-name="uacute" unicode="&#xfa;" horiz-adv-x="606" 
d="M360 601q-30 -30 -56.5 -38.5t-68.5 -8.5h-48l143 177l136 -22zM360 474h192v-474h-170l-20 48q-60 -60 -145 -60q-30 0 -58.5 9.5t-53.5 29.5t-40.5 57.5t-15.5 86.5v303h192v-241q0 -45 13.5 -65t44.5 -20q23 0 40 19t21 58v249z" />
    <glyph glyph-name="ucircumflex" unicode="&#xfb;" horiz-adv-x="606" 
d="M263 593q-19 -19 -26.5 -25t-18.5 -10t-28 -4h-87l116 123h142l116 -123h-87q-23 0 -34.5 6.5t-37.5 31.5l-28 26zM360 474h192v-474h-170l-20 48q-60 -60 -145 -60q-30 0 -58.5 9.5t-53.5 29.5t-40.5 57.5t-15.5 86.5v303h192v-241q0 -45 13.5 -65t44.5 -20q23 0 40 19
t21 58v249z" />
    <glyph glyph-name="udieresis" unicode="&#xfc;" horiz-adv-x="606" 
d="M176.5 558q-30.5 0 -51.5 21.5t-21 53.5q0 30 21 51.5t51 21.5t52 -21.5t22 -51.5q0 -31 -21.5 -53t-52 -22zM408.5 558q-30.5 0 -51.5 21.5t-21 53.5q0 30 21 51.5t51 21.5q20 0 37 -9.5t27 -26.5t10 -37q0 -31 -21.5 -53t-52 -22zM360 474h192v-474h-170l-20 48
q-60 -60 -145 -60q-30 0 -58.5 9.5t-53.5 29.5t-40.5 57.5t-15.5 86.5v303h192v-241q0 -45 13.5 -65t44.5 -20q23 0 40 19t21 58v249z" />
    <glyph glyph-name="yacute" unicode="&#xfd;" horiz-adv-x="563" 
d="M348 601q-21 -21 -42 -31.5t-38 -13t-45 -2.5h-48l142 177l137 -22zM376 474h202l-233 -543q-35 -80 -81.5 -110.5t-108.5 -30.5q-21 0 -42.5 3.5t-32.5 6.5l-11 4l27 160q25 -14 47 -14q36 0 50 38l3 6l-212 480h203l96 -247z" />
    <glyph glyph-name="thorn" unicode="&#xfe;" horiz-adv-x="616" 
d="M371 486q95 0 156 -67.5t61 -184t-61 -184t-156 -67.5q-73 0 -125 41v-214h-192v830h192v-195q52 41 125 41zM312 143q22 0 40 11t29 32t11 49q0 41 -23 66t-57 25q-17 0 -31.5 -6.5t-25.5 -18t-17.5 -29t-6.5 -37.5q0 -42 23.5 -67t57.5 -25z" />
    <glyph glyph-name="ydieresis" unicode="&#xff;" horiz-adv-x="563" 
d="M164 558q-30 0 -51 21.5t-21 53.5q0 30 21 51.5t51 21.5t52 -21.5t22 -51.5q0 -31 -22 -53t-52 -22zM396.5 558q-30.5 0 -51.5 21.5t-21 53.5q0 30 21 51.5t51.5 21.5t52 -21.5t21.5 -51.5q0 -31 -21.5 -53t-52 -22zM376 474h202l-233 -543q-35 -80 -81.5 -110.5
t-108.5 -30.5q-21 0 -42.5 3.5t-32.5 6.5l-11 4l27 160q25 -14 47 -14q36 0 50 38l3 6l-212 480h203l96 -247z" />
    <glyph glyph-name="Amacron" unicode="&#x100;" horiz-adv-x="697" 
d="M521 800v-81h-346v81h346zM484 0l-27 88h-217l-27 -88h-224l252 640h215l252 -640h-224zM284 230h129l-65 208z" />
    <glyph glyph-name="amacron" unicode="&#x101;" horiz-adv-x="570" 
d="M457 665v-81h-346v81h346zM271 486q55 0 98.5 -11.5t78.5 -37t54 -71t19 -107.5v-259h-171l-21 53q-50 -65 -149 -65q-70 0 -115.5 38.5t-45.5 103.5q0 86 80 127.5t210 9.5l21 -5v14q0 36 -25 56t-63 20q-51 0 -98 -34l-72 111q84 57 199 57zM329 172v13l-3 1
q-50 13 -80 -1.5t-30 -42.5q0 -20 13.5 -30.5t35.5 -10.5q29 0 46.5 19t17.5 52z" />
    <glyph glyph-name="Abreve" unicode="&#x102;" horiz-adv-x="697" 
d="M348.5 690q-82.5 0 -126.5 32.5t-45 90.5h85q7 -47 86 -47t86 47h85q-1 -58 -44.5 -90.5t-126 -32.5zM484 0l-27 88h-217l-27 -88h-224l252 640h215l252 -640h-224zM284 230h129l-65 208z" />
    <glyph glyph-name="abreve" unicode="&#x103;" horiz-adv-x="570" 
d="M283.5 554q-82.5 0 -126 32.5t-44.5 90.5h85q6 -47 85.5 -47t86.5 47h85q-1 -58 -45 -90.5t-126.5 -32.5zM271 486q55 0 98.5 -11.5t78.5 -37t54 -71t19 -107.5v-259h-171l-21 53q-50 -65 -149 -65q-70 0 -115.5 38.5t-45.5 103.5q0 86 80 127.5t210 9.5l21 -5v14
q0 36 -25 56t-63 20q-51 0 -98 -34l-72 111q84 57 199 57zM329 172v13l-3 1q-50 13 -80 -1.5t-30 -42.5q0 -20 13.5 -30.5t35.5 -10.5q29 0 46.5 19t17.5 52z" />
    <glyph glyph-name="Aogonek" unicode="&#x104;" horiz-adv-x="697" 
d="M590 -7q-69 -33 -84 -76q-11 -33 19 -43q23 -7 61 8l30 -72q-70 -33 -129.5 -21t-77.5 60q-31 85 75 152l-27 87h-217l-27 -88h-224l252 640h215l252 -640h-103zM284 230h129l-65 208z" />
    <glyph glyph-name="aogonek" unicode="&#x105;" horiz-adv-x="570" 
d="M456 -7q-69 -33 -84 -76q-11 -34 19 -43q23 -7 61 8l30 -72q-70 -33 -129.5 -21t-77.5 60q-31 85 75 152l-21 52q-50 -65 -149 -65q-70 0 -115.5 38.5t-45.5 103.5q0 86 80.5 127.5t209.5 9.5l21 -5v14q0 36 -25 56t-63 20q-51 0 -98 -34l-72 111q84 57 199 57
q55 0 98.5 -11.5t78.5 -37t54 -71t19 -107.5v-259h-50zM329 172v13l-3 1q-50 13 -80 -1.5t-30 -42.5q0 -20 13.5 -30.5t35.5 -10.5q29 0 46.5 19t17.5 52z" />
    <glyph glyph-name="Cacute" unicode="&#x106;" horiz-adv-x="628" 
d="M456 737q-21 -21 -42 -31.5t-37.5 -13t-45.5 -2.5h-47l142 176l136 -21zM393 -17q-79 0 -146 27t-112 72.5t-70.5 107.5t-25.5 131.5t25.5 131t70.5 107t112 72.5t146 27q125 0 216 -66l-109 -161q-40 44 -103 44q-27 0 -50.5 -8.5t-40.5 -23.5t-29.5 -34.5t-19 -42.5
t-6.5 -47q0 -61 40 -107.5t106 -46.5q62 0 103 44l109 -160q-92 -67 -216 -67z" />
    <glyph glyph-name="cacute" unicode="&#x107;" horiz-adv-x="468" 
d="M348 601q-30 -30 -56.5 -38.5t-68.5 -8.5h-48l142 177l137 -22zM285 -17q-114 0 -190 70.5t-76 181.5t76 181t190 70q57 0 99 -12.5t83 -38.5l-104 -146q-26 32 -66 32q-37 0 -59.5 -23t-22.5 -63.5t22.5 -63.5t59.5 -23q40 0 66 32l103 -146q-41 -26 -82.5 -38.5
t-98.5 -12.5z" />
    <glyph glyph-name="Ccircumflex" unicode="&#x108;" horiz-adv-x="628" 
d="M359 729q-19 -19 -26 -25t-18.5 -10t-28.5 -4h-86l116 123h141l116 -123h-86q-24 0 -35.5 6.5t-37.5 31.5l-28 26zM397 166q62 0 103 44l109 -160q-92 -67 -216 -67q-79 0 -146 27t-112 72.5t-70.5 107.5t-25.5 131.5t25.5 131t70.5 107t112 72.5t146 27q125 0 216 -66
l-109 -161q-40 44 -103 44q-66 0 -106 -46.5t-40 -109.5q0 -61 40 -107.5t106 -46.5z" />
    <glyph glyph-name="ccircumflex" unicode="&#x109;" horiz-adv-x="468" 
d="M251 593q-19 -19 -26.5 -25t-18.5 -10t-28 -4h-87l116 123h141l117 -123h-87q-24 0 -35.5 6.5t-37.5 31.5l-27 26zM297 148q40 0 66 32l103 -146q-27 -17 -52.5 -27.5t-57.5 -17t-71 -6.5q-114 0 -190 70.5t-76 181.5t76 181t190 70q57 0 99 -12.5t83 -38.5l-104 -146
q-26 32 -66 32q-37 0 -59.5 -23t-22.5 -63.5t22.5 -63.5t59.5 -23z" />
    <glyph glyph-name="Cdotaccent" unicode="&#x10a;" horiz-adv-x="628" 
d="M388 688q-16 0 -31 6t-25.5 16t-17 24t-6.5 30q0 31 23.5 53.5t56.5 22.5q22 0 40.5 -10.5t29 -28t10.5 -37.5q0 -32 -23.5 -54t-56.5 -22zM393 -17q-79 0 -146 27t-112 72.5t-70.5 107.5t-25.5 131.5t25.5 131t70.5 107t112 72.5t146 27q125 0 216 -66l-109 -161
q-40 44 -103 44q-66 0 -106 -46.5t-40 -109.5q0 -61 40 -107.5t106 -46.5q62 0 103 44l109 -160q-92 -67 -216 -67z" />
    <glyph glyph-name="cdotaccent" unicode="&#x10b;" horiz-adv-x="468" 
d="M279.5 552q-33.5 0 -56.5 22t-23 53.5t23 54t57 22.5q21 0 39.5 -10t29.5 -28t11 -38q0 -32 -23.5 -54t-57 -22zM285 -17q-114 0 -190 70.5t-76 181.5t76 181t190 70q57 0 99 -12.5t83 -38.5l-104 -146q-26 32 -66 32q-37 0 -59.5 -23t-22.5 -63.5t22.5 -63.5t59.5 -23
q40 0 66 32l103 -146q-41 -26 -82.5 -38.5t-98.5 -12.5z" />
    <glyph glyph-name="Ccaron" unicode="&#x10c;" horiz-adv-x="628" 
d="M459 690h-141l-116 123h86q24 0 35.5 -6.5t37.5 -31.5l28 -26l27 25q19 19 26 25t18.5 10t28.5 4h86zM397 166q62 0 103 44l109 -161q-92 -66 -216 -66q-79 0 -146 27t-112 72.5t-70.5 107.5t-25.5 131.5t25.5 131t70.5 107t112 72.5t146 27q125 0 216 -66l-109 -161
q-40 44 -103 44q-27 0 -50.5 -8.5t-40.5 -23.5t-29.5 -34.5t-19 -42.5t-6.5 -47q0 -61 40 -107.5t106 -46.5z" />
    <glyph glyph-name="ccaron" unicode="&#x10d;" horiz-adv-x="468" 
d="M351 554h-141l-116 123h86q24 0 35.5 -6.5t37.5 -31.5l27 -26l27 25q16 15 21 20t14.5 11t17.5 7t21 1h86zM297 148q40 0 66 32l103 -146q-41 -26 -82.5 -38.5t-98.5 -12.5q-114 0 -190 70.5t-76 181.5t76 181t190 70q57 0 99 -12.5t83 -38.5l-104 -146q-26 32 -66 32
q-37 0 -59.5 -23t-22.5 -63.5t22.5 -63.5t59.5 -23z" />
    <glyph glyph-name="Dcaron" unicode="&#x10e;" horiz-adv-x="725" 
d="M404 690h-141l-116 123h86q24 0 35.5 -6.5t37.5 -31.5l27 -26l27 25q20 19 27 25t18.5 10t28.5 4h86zM340 640q154 0 249.5 -89t95.5 -231t-95.5 -231t-249.5 -89h-271v640h271zM326 175q60 0 103.5 36t43.5 109t-43.5 109t-103.5 36h-49v-290h49z" />
    <glyph glyph-name="dcaron" unicode="&#x10f;" horiz-adv-x="687" 
d="M688 725q37 -6 54 -33.5t11 -65.5q-7 -47 -41 -84t-79 -53l-19 52q40 17 50 51q-29 0 -46 22t-13 52q4 20 15.5 34.5t29.5 21t38 3.5zM361 445v235h192v-680h-158l-16 40q-56 -57 -143 -57q-95 0 -156 67.5t-61 184.5t61.5 184t155.5 67q74 0 125 -41zM296 143
q33 0 56.5 25t23.5 67q0 27 -11 48.5t-29.5 32t-39.5 10.5q-34 0 -57.5 -25t-23.5 -66.5t23.5 -66.5t57.5 -25z" />
    <glyph glyph-name="Dcroat" unicode="&#x110;" horiz-adv-x="725" 
d="M340 640q154 0 249.5 -89t95.5 -231t-95.5 -231t-249.5 -89h-271v289h-38v66h38v285h271zM326 175q60 0 103.5 36t43.5 109t-43.5 109t-103.5 36h-49v-110h101v-66h-101v-114h49z" />
    <glyph glyph-name="dcroat" unicode="&#x111;" horiz-adv-x="602" 
d="M625 595v-66h-77v-529h-158l-15 40q-57 -57 -143 -57q-95 0 -156.5 67.5t-61.5 184t61.5 184t156.5 67.5q73 0 125 -41v84h-79v66h79v85h191v-85h77zM291 143q34 0 57.5 25t23.5 66.5t-23.5 66.5t-57.5 25q-17 0 -31.5 -6.5t-25.5 -18t-17.5 -28.5t-6.5 -38
q0 -42 23.5 -67t57.5 -25z" />
    <glyph glyph-name="Emacron" unicode="&#x112;" horiz-adv-x="607" 
d="M500 800v-81h-346v81h346zM568 475h-291v-88h241v-134h-241v-88h291v-165h-499v640h499v-165z" />
    <glyph glyph-name="emacron" unicode="&#x113;" horiz-adv-x="572" 
d="M464 665v-81h-346v81h346zM553 221v-38h-332q18 -67 87 -67q43 0 81 31l124 -102q-78 -62 -199 -62q-136 0 -215.5 69t-79.5 183q0 112 76 181.5t195 69.5q116 0 189.5 -69.5t73.5 -195.5zM290 355q-60 0 -72 -75h146q-3 34 -21.5 54.5t-52.5 20.5z" />
    <glyph glyph-name="Ebreve" unicode="&#x114;" horiz-adv-x="607" 
d="M326.5 690q-82.5 0 -126 32.5t-44.5 90.5h85q7 -47 86 -47t86 47h85q-1 -58 -45 -90.5t-126.5 -32.5zM568 475h-291v-88h241v-134h-241v-88h291v-165h-499v640h499v-165z" />
    <glyph glyph-name="ebreve" unicode="&#x115;" horiz-adv-x="572" 
d="M290.5 554q-82.5 0 -126 32.5t-44.5 90.5h85q6 -47 85.5 -47t86.5 47h85q-1 -58 -45 -90.5t-126.5 -32.5zM553 221v-38h-332q18 -67 87 -67q43 0 81 31l124 -102q-78 -62 -199 -62q-136 0 -215.5 69t-79.5 183q0 112 76 181.5t195 69.5q116 0 189.5 -69.5t73.5 -195.5z
M290 355q-60 0 -72 -75h146q-3 34 -21.5 54.5t-52.5 20.5z" />
    <glyph glyph-name="Edotaccent" unicode="&#x116;" horiz-adv-x="607" 
d="M326 688q-33 0 -56.5 22t-23.5 54q0 20 11 37.5t29 28t40 10.5t40.5 -10.5t29 -28t10.5 -37.5q0 -32 -23.5 -54t-56.5 -22zM568 475h-291v-88h241v-134h-241v-88h291v-165h-499v640h499v-165z" />
    <glyph glyph-name="edotaccent" unicode="&#x117;" horiz-adv-x="572" 
d="M290 552q-16 0 -31 6t-25.5 16t-17 24t-6.5 30q0 31 23.5 53.5t56.5 22.5q22 0 40.5 -10t29 -28t10.5 -38q0 -32 -23.5 -54t-56.5 -22zM553 221v-38h-332q18 -67 87 -67q43 0 81 31l124 -102q-78 -62 -199 -62q-136 0 -215.5 69t-79.5 183q0 112 76 181.5t195 69.5
q116 0 189.5 -69.5t73.5 -195.5zM290 355q-60 0 -72 -75h146q-3 34 -21.5 54.5t-52.5 20.5z" />
    <glyph glyph-name="Eogonek" unicode="&#x118;" horiz-adv-x="607" 
d="M548 -118l29 -72q-69 -33 -128.5 -21t-77.5 60q-31 84 74 151h-376v640h499v-165h-291v-88h241v-134h-241v-88h291v-165h-1l-15 -7q-70 -33 -84 -76q-11 -34 19 -43q23 -7 61 8z" />
    <glyph glyph-name="eogonek" unicode="&#x119;" horiz-adv-x="572" 
d="M553 221v-38h-332q18 -67 87 -67q43 0 81 31l124 -101q-58 -47 -133 -58q-65 -34 -75 -76q-8 -32 24 -39q24 -4 57 9l30 -72q-70 -33 -129 -21t-77 60q-28 75 53 137q-114 13 -179 79.5t-65 169.5q0 112 76 181.5t195 69.5q116 0 189.5 -69.5t73.5 -195.5zM290 355
q-60 0 -72 -74h146q-3 33 -21.5 53.5t-52.5 20.5z" />
    <glyph glyph-name="Ecaron" unicode="&#x11a;" horiz-adv-x="607" 
d="M398 690h-142l-116 123h87q17 0 28 -4t18.5 -10t25.5 -24l28 -26l27 25q19 19 26.5 25t18.5 10t28 4h87zM568 475h-291v-88h241v-134h-241v-88h291v-165h-499v640h499v-165z" />
    <glyph glyph-name="ecaron" unicode="&#x11b;" horiz-adv-x="572" 
d="M362 554h-142l-116 123h87q24 0 35.5 -6.5t36.5 -31.5l28 -26l27 25q15 15 20.5 20t14.5 11t17 7t21 1h87zM553 221v-38h-332q18 -67 87 -67q43 0 81 31l124 -102q-78 -62 -199 -62q-136 0 -215.5 69t-79.5 183q0 112 76 181.5t195 69.5q116 0 189.5 -69.5t73.5 -195.5z
M290 355q-60 0 -72 -75h146q-3 34 -21.5 54.5t-52.5 20.5z" />
    <glyph glyph-name="Gcircumflex" unicode="&#x11c;" horiz-adv-x="724" 
d="M366 729q-19 -19 -26.5 -25t-18.5 -10t-28 -4h-87l116 123h142l116 -123h-87q-24 0 -35.5 6.5t-36.5 31.5l-28 26zM376 377h309v-323q-4 -3 -12 -8t-35.5 -17t-58.5 -21.5t-81 -17t-102 -7.5q-71 0 -130 19t-100.5 51t-70.5 75t-42.5 91t-13.5 99q0 67 23 127.5t67 108.5
t114.5 76.5t158.5 28.5q75 0 129.5 -15t107.5 -48l-91 -158q-63 43 -136 42q-28 0 -54.5 -8.5t-51.5 -26.5t-40 -51t-15 -76q0 -75 42 -117.5t110 -44.5q46 -2 90 13v75h-117v133z" />
    <glyph glyph-name="gcircumflex" unicode="&#x11d;" horiz-adv-x="569" 
d="M247 595q-20 -19 -27 -25t-18.5 -10t-28.5 -4h-86l116 123h141l116 -123h-86q-24 0 -35.5 6.5t-37.5 31.5l-27 26zM296 87q254 0 254 -139q0 -77 -66 -117.5t-185 -40.5q-280 0 -280 131q0 67 64 105q-44 37 -44 82q0 62 60 94q-42 47 -42 107q0 74 62 125.5t156 51.5
q48 0 90 -14q32 41 85.5 52.5t99.5 1.5l-25 -112q-16 7 -35 5t-30 -13q34 -44 34 -97q0 -75 -62 -126.5t-157 -51.5q-38 0 -72 10q-17 -7 -17 -19q0 -21 20.5 -28t89.5 -7zM275 361q-25 0 -40 -15t-15 -37t15.5 -37.5t39.5 -15.5t40 15.5t16 37.5q0 14 -7 26t-20 19t-29 7z
M292 -104q66 0 66 36q0 22 -24 29t-79 7q-12 0 -25 1q-19 -18 -19 -36q0 -37 81 -37z" />
    <glyph glyph-name="Gbreve" unicode="&#x11e;" horiz-adv-x="724" 
d="M395.5 690q-82.5 0 -126 32.5t-45.5 90.5h85q7 -47 86.5 -47t86.5 47h85q-2 -58 -45.5 -90.5t-126 -32.5zM376 377h309v-323q-4 -3 -12 -8t-35.5 -17t-58.5 -21.5t-81 -17t-102 -7.5q-71 0 -130 19t-100.5 51t-70.5 75t-42.5 91t-13.5 99q0 53 14.5 102.5t44 93t71.5 76
t102 51t131 18.5q51 0 92.5 -7.5t75.5 -20.5t69 -35l-91 -158q-63 43 -136 42q-28 0 -54.5 -8.5t-51.5 -26.5t-40 -51t-15 -76q0 -50 19.5 -86.5t53.5 -55.5t79 -20q46 -2 90 13v75h-117v133z" />
    <glyph glyph-name="gbreve" unicode="&#x11f;" horiz-adv-x="569" 
d="M276.5 556q-82.5 0 -126.5 32.5t-45 90.5h85q7 -47 86 -47t86 47h85q-1 -58 -44.5 -90.5t-126 -32.5zM296 87q254 0 254 -139q0 -77 -66 -117.5t-185 -40.5q-280 0 -280 131q0 67 64 105q-44 37 -44 82q0 62 60 94q-43 47 -43 107q0 74 62 125.5t157 51.5q48 0 90 -14
q32 41 85.5 52.5t99.5 1.5l-25 -112q-16 7 -35 5t-30 -13q34 -44 34 -97q0 -75 -62 -126.5t-157 -51.5q-38 0 -72 10q-17 -7 -17 -19q0 -21 20.5 -28t89.5 -7zM275 361q-25 0 -40 -15t-15 -37t15.5 -37.5t39.5 -15.5t40 15.5t16 37.5q0 14 -7 26t-20 19t-29 7zM292 -104
q66 0 66 36q0 15 -12 23t-33 10.5t-58 2.5q-12 0 -25 1q-19 -18 -19 -36q0 -37 81 -37z" />
    <glyph glyph-name="Gdotaccent" unicode="&#x120;" horiz-adv-x="724" 
d="M395 688q-33 0 -56.5 22t-23.5 54q0 20 10.5 37.5t29 28t40 10.5t40 -10.5t29.5 -28t11 -37.5q0 -32 -23.5 -54t-56.5 -22zM376 377h309v-323q-4 -3 -12 -8t-35.5 -17t-58.5 -21.5t-81 -17t-102 -7.5q-71 0 -130 19t-100.5 51t-70.5 75t-42.5 91t-13.5 99q0 67 23 127.5
t67 108.5t114.5 76.5t158.5 28.5q51 0 92.5 -7.5t75.5 -20.5t69 -35l-91 -158q-63 43 -136 42q-28 0 -54.5 -8.5t-51.5 -26.5t-40 -51t-15 -76q0 -50 19.5 -86.5t53.5 -55.5t79 -20q46 -2 90 13v75h-117v133z" />
    <glyph glyph-name="gdotaccent" unicode="&#x121;" horiz-adv-x="569" 
d="M275 554q-16 0 -31 6t-25.5 16t-17 24t-6.5 30q0 31 23.5 53.5t56.5 22.5t56.5 -22.5t23.5 -53.5q0 -21 -10.5 -38.5t-29 -27.5t-40.5 -10zM296 87q254 0 254 -139q0 -77 -66 -117.5t-185 -40.5q-280 0 -280 131q0 67 64 105q-44 37 -44 82q0 62 60 94q-43 47 -43 107
q0 74 62 125.5t157 51.5q48 0 90 -14q32 41 85.5 52.5t99.5 1.5l-25 -112q-16 7 -35 5t-30 -13q34 -44 34 -97q0 -75 -62 -126.5t-157 -51.5q-38 0 -72 10q-17 -7 -17 -19q0 -21 20.5 -28t89.5 -7zM275 361q-25 0 -40 -15t-15 -37t15.5 -37.5t39.5 -15.5t40 15.5t16 37.5
q0 14 -7 26t-20 19t-29 7zM292 -104q66 0 66 36q0 15 -12 23t-33 10.5t-58 2.5q-12 0 -25 1q-19 -18 -19 -36q0 -37 81 -37z" />
    <glyph glyph-name="Gcommaaccent" unicode="&#x122;" horiz-adv-x="724" 
d="M376 377h309v-323q-4 -3 -12 -8t-35.5 -17t-58.5 -21.5t-81 -17t-102 -7.5q-71 0 -130 19t-100.5 51t-70.5 75t-42.5 91t-13.5 99q0 67 23 127.5t67 108.5t114.5 76.5t158.5 28.5q51 0 92.5 -7.5t75.5 -20.5t69 -35l-91 -158q-63 43 -136 42q-28 0 -54.5 -8.5
t-51.5 -26.5t-40 -51t-15 -76q0 -50 19.5 -86.5t53.5 -55.5t79 -20q46 -2 90 13v75h-117v133zM394 -56q37 -6 54 -33.5t11 -65.5q-5 -31 -23 -59t-43 -48t-54 -30l-19 52q39 17 50 51q-29 0 -46.5 22t-12.5 52q2 10 6 19t9.5 16t13 12.5t16 8.5t18.5 4t20 -1z" />
    <glyph glyph-name="gcommaaccent" unicode="&#x123;" horiz-adv-x="569" 
d="M278 567q-37 6 -54 33.5t-11 65.5q7 47 41.5 84t78.5 53l20 -52q-40 -17 -51 -51q29 0 46.5 -22t12.5 -52q-5 -31 -28.5 -47.5t-54.5 -11.5zM296 87q254 0 254 -139q0 -77 -66 -117.5t-185 -40.5q-280 0 -280 131q0 67 64 105q-44 37 -44 82q0 62 60 94q-43 47 -43 107
q0 74 62.5 125.5t156.5 51.5q48 0 90 -14q32 41 85.5 52.5t99.5 1.5l-25 -112q-16 7 -35 5t-30 -13q34 -44 34 -97q0 -75 -62 -126.5t-157 -51.5q-38 0 -72 10q-17 -7 -17 -19q0 -21 20.5 -28t89.5 -7zM275 361q-25 0 -40 -15t-15 -37t15.5 -37.5t39.5 -15.5t40 15.5
t16 37.5q0 14 -7 26t-20 19t-29 7zM292 -104q66 0 66 36q0 15 -12 23t-33 10.5t-58 2.5q-12 0 -25 1q-19 -18 -19 -36q0 -37 81 -37z" />
    <glyph glyph-name="Hcircumflex" unicode="&#x124;" horiz-adv-x="758" 
d="M350 729q-19 -19 -26.5 -25t-18.5 -10t-28 -4h-87l116 123h142l116 -123h-87q-24 0 -35.5 6.5t-37.5 31.5l-27 26zM481 640h208v-640h-208v239h-204v-239h-208v640h208v-235h204v235z" />
    <glyph glyph-name="hcircumflex" unicode="&#x125;" horiz-adv-x="602" 
d="M149 774l-26 -25q-20 -19 -27 -25t-18.5 -10t-28.5 -4h-86l116 123h141l116 -123h-86q-24 0 -35.5 6.5t-37.5 31.5zM390 486q30 0 58 -9.5t53.5 -29.5t41 -57t15.5 -87v-303h-192v241q0 30 -6 49t-18.5 27.5t-33.5 8.5q-27 0 -44.5 -24.5t-17.5 -74.5v-227h-192v680h192
v-253q59 59 144 59z" />
    <glyph glyph-name="Hbar" unicode="&#x126;" horiz-adv-x="728" 
d="M481 640h208v-640h-208v239h-204v-239h-208v640h208v-84h204v84zM277 405h204v56h-204v-56z" />
    <glyph glyph-name="hbar" unicode="&#x127;" horiz-adv-x="602" 
d="M390 486q30 0 58 -9.5t53.5 -29.5t41 -57t15.5 -87v-303h-192v241q0 30 -6 49t-18.5 27.5t-33.5 8.5q-27 0 -44.5 -24.5t-17.5 -74.5v-227h-192v529h-74v66h74v85h192v-85h81v-66h-81v-102q59 59 144 59z" />
    <glyph glyph-name="Itilde" unicode="&#x128;" horiz-adv-x="346" 
d="M242 692q-29 0 -69.5 23t-60.5 23q-34 0 -58 -40l-67 43q12 16 19.5 25.5t22.5 23t33 20.5t40 7q31 0 72.5 -23.5t58.5 -23.5q34 0 58 44l66 -44q-21 -38 -46 -58t-69 -20zM277 640v-640h-208v640h208z" />
    <glyph glyph-name="itilde" unicode="&#x129;" horiz-adv-x="299" 
d="M219 556q-28 0 -69 23t-60 23q-35 0 -59 -40l-66 43q11 16 19 25.5t22.5 23.5t33 20.5t39.5 6.5q31 0 72.5 -23.5t58.5 -23.5q34 0 58 44l66 -44q-20 -37 -45 -57.5t-70 -20.5zM54 0v474h191v-474h-191z" />
    <glyph glyph-name="Imacron" unicode="&#x12a;" horiz-adv-x="346" 
d="M-1 719v81h346v-81h-346zM277 640v-640h-208v640h208z" />
    <glyph glyph-name="imacron" unicode="&#x12b;" horiz-adv-x="299" 
d="M-23 584v81h346v-81h-346zM54 0v474h191v-474h-191z" />
    <glyph glyph-name="Ibreve" unicode="&#x12c;" horiz-adv-x="346" 
d="M172 690q-55 0 -93.5 15t-57.5 42.5t-20 65.5h85q7 -47 86.5 -47t85.5 47h85q-1 -58 -44.5 -90.5t-126.5 -32.5zM277 640v-640h-208v640h208z" />
    <glyph glyph-name="ibreve" unicode="&#x12d;" horiz-adv-x="299" 
d="M150 554q-55 0 -93.5 15t-58 42.5t-20.5 65.5h85q7 -47 86.5 -47t86.5 47h85q-1 -58 -45 -90.5t-126 -32.5zM54 0v474h191v-474h-191z" />
    <glyph glyph-name="Iogonek" unicode="&#x12e;" horiz-adv-x="346" 
d="M264 -118l29 -72q-69 -33 -128.5 -21t-77.5 60q-31 84 73 151h-91v640h208v-639l6 -1l-16 -7q-69 -33 -83 -76q-11 -34 19 -43q23 -7 61 8z" />
    <glyph glyph-name="iogonek" unicode="&#x12f;" horiz-adv-x="299" 
d="M149 552q-33 0 -56.5 22t-23.5 53.5t23.5 54t56.5 22.5q22 0 40.5 -10t29 -28t10.5 -38q0 -32 -23.5 -54t-56.5 -22zM215 -7q-70 -33 -84 -76q-11 -34 19 -43q23 -7 61 8l29 -72q-69 -33 -128.5 -21t-77.5 60q-31 84 74 151h-54v474h191v-474h-15z" />
    <glyph glyph-name="Idotaccent" unicode="&#x130;" horiz-adv-x="346" 
d="M171.5 688q-21.5 0 -40 10t-29.5 27.5t-11 38.5q0 31 23.5 53.5t56.5 22.5q22 0 40.5 -10.5t29.5 -28t11 -38t-11 -38t-29.5 -27.5t-40 -10zM277 640v-640h-208v640h208z" />
    <glyph glyph-name="dotlessi" unicode="&#x131;" horiz-adv-x="299" 
d="M54 0v474h191v-474h-191z" />
    <glyph glyph-name="ij" unicode="&#x133;" horiz-adv-x="605" 
d="M149 524q-41 0 -70.5 28t-29.5 67t29.5 66.5t70.5 27.5q27 0 49.5 -12.5t36 -34.5t13.5 -47q0 -39 -29 -67t-70 -28zM456 524q-41 0 -70 28t-29 67t29 66.5t70 27.5q27 0 50 -12.5t36 -34.5t13 -47q0 -39 -29 -67t-70 -28zM54 0v474h191v-474h-191zM553 474v-437
q0 -61 -15.5 -107.5t-39 -72.5t-55 -41.5t-57.5 -20t-54 -4.5q-14 0 -27 1t-19 2l-7 1l11 157q6 -1 14 -1q23 0 40 14t17 52v457h192z" />
    <glyph glyph-name="Jcircumflex" unicode="&#x134;" horiz-adv-x="376" 
d="M170 719q-20 -19 -27 -25t-18.5 -10t-28.5 -4h-86l116 123h141l116 -123h-86q-24 0 -35.5 6.5t-37.5 31.5l-28 26zM99 47v593h208v-569q0 -139 -65 -210t-174 -71q-53 0 -88 7l24 180q20 -4 33 -4q29 0 45.5 19t16.5 55z" />
    <glyph glyph-name="jcircumflex" unicode="&#x135;" horiz-adv-x="315" 
d="M236 667l116 -123h-86q-24 0 -35.5 6.5t-37.5 31.5l-28 26l-26 -25q-16 -15 -21 -19.5t-14.5 -11t-17.5 -7.5t-21 -1h-86l116 123h141zM72 17v457h192v-437q0 -52 -10.5 -93t-29.5 -67t-41 -44t-48.5 -26.5t-48 -12t-44.5 -3.5q-13 0 -26.5 1t-19.5 2l-6 1l11 157
q6 -2 14 -2q22 0 39.5 14.5t17.5 52.5z" />
    <glyph glyph-name="Kcommaaccent" unicode="&#x136;" horiz-adv-x="723" 
d="M467 367l262 -367h-264l-131 211l-57 -66v-145h-208v640h208v-213l156 213h267zM385 -56q37 -6 54 -33.5t11 -65.5q-7 -47 -41.5 -84t-78.5 -53l-20 52q40 17 51 51q-29 0 -46.5 22t-12.5 52q2 10 5.5 19t9.5 16t13.5 12.5t16 8.5t18.5 4t20 -1z" />
    <glyph glyph-name="kcommaaccent" unicode="&#x137;" horiz-adv-x="595" 
d="M246 108v-108h-192v680h192v-331l110 125h235l-177 -187l197 -287h-235l-88 153zM312 -56q36 -6 53.5 -33.5t11.5 -65.5q-5 -31 -23 -59.5t-43.5 -48t-54.5 -29.5l-19 52q40 17 51 51q-30 0 -47 22t-12 52q1 10 5 19t9.5 16t13 12.5t16.5 8.5t18.5 4t20.5 -1z" />
    <glyph glyph-name="kgreenlandic" unicode="&#x138;" horiz-adv-x="607" 
d="M388 0l-98 152l-44 -45v-107h-192v474h192v-129l122 129h235l-185 -191l205 -283h-235z" />
    <glyph glyph-name="Lacute" unicode="&#x139;" horiz-adv-x="550" 
d="M242 737q-30 -31 -56 -39t-69 -8h-47l142 176l137 -21zM277 173h263v-173h-471v640h208v-467z" />
    <glyph glyph-name="lacute" unicode="&#x13a;" horiz-adv-x="300" 
d="M217 778q-30 -31 -56 -39t-69 -8h-47l142 176l137 -21zM54 0v680h192v-680h-192z" />
    <glyph glyph-name="Lcommaaccent" unicode="&#x13b;" horiz-adv-x="550" 
d="M277 173h263v-173h-471v640h208v-467zM296 -56q37 -6 54 -33.5t11 -65.5q-7 -47 -41.5 -84t-78.5 -53l-20 52q40 17 51 51q-29 0 -46.5 22t-12.5 52q2 10 5.5 19t9.5 16t13.5 12.5t16 8.5t18.5 4t20 -1z" />
    <glyph glyph-name="lcommaaccent" unicode="&#x13c;" horiz-adv-x="300" 
d="M54 0v680h192v-680h-192zM94 -292l-20 52q40 17 51 51q-30 0 -47 22t-12 52q4 31 27.5 47.5t55.5 11.5q36 -6 53.5 -33.5t11.5 -65.5q-8 -47 -42 -84t-78 -53z" />
    <glyph glyph-name="Lcaron" unicode="&#x13d;" horiz-adv-x="550" 
d="M392 559q-29 0 -46.5 22t-12.5 52t28.5 47t54.5 12q37 -6 54 -33.5t11 -65.5q-5 -31 -23 -59.5t-43 -48t-54 -29.5l-19 52q39 17 50 51zM277 173h263v-173h-471v640h208v-467z" />
    <glyph glyph-name="lcaron" unicode="&#x13e;" horiz-adv-x="300" 
d="M328 496l-19 52q40 17 50 50q-29 1 -46 23t-13 52q5 30 28.5 46.5t54.5 11.5q37 -5 54 -33t11 -65q-7 -47 -41 -84.5t-79 -52.5zM54 0v680h192v-680h-192z" />
    <glyph glyph-name="Ldot" unicode="&#x13f;" horiz-adv-x="511" 
d="M277 173h263v-173h-471v640h208v-467zM400 308q-34 0 -57 22.5t-23 54t23 54t56.5 22.5t57 -22.5t23.5 -53.5q0 -21 -11 -38.5t-29.5 -28t-39.5 -10.5z" />
    <glyph glyph-name="ldot" unicode="&#x140;" horiz-adv-x="473" 
d="M54 0v680h192v-680h-192zM369.5 278q-33.5 0 -57 22.5t-23.5 54t23.5 54t57 22.5t57 -22.5t23.5 -54t-23.5 -54t-57 -22.5z" />
    <glyph glyph-name="Lslash" unicode="&#x141;" horiz-adv-x="550" 
d="M277 173h263v-173h-471v172l-58 -45v134l58 45v334h208v-173l65 50v-134l-65 -50v-160z" />
    <glyph glyph-name="lslash" unicode="&#x142;" horiz-adv-x="300" 
d="M316 531v-134l-70 -54v-343h-192v195l-70 -54v134l70 54v351h192v-203z" />
    <glyph glyph-name="Nacute" unicode="&#x143;" horiz-adv-x="755" 
d="M445 737q-21 -21 -42 -31.5t-37.5 -13t-45.5 -2.5h-47l142 177l136 -21zM487 640h199v-640h-190l-228 324v-324h-199v640h190l228 -329v329z" />
    <glyph glyph-name="nacute" unicode="&#x144;" horiz-adv-x="606" 
d="M367 601q-29 -30 -55.5 -38.5t-69.5 -8.5h-47l142 177l137 -22zM389 486q30 0 58 -9.5t53.5 -29.5t41 -57t15.5 -87v-303h-192v241q0 30 -6 49t-18.5 27.5t-33.5 8.5q-15 0 -27.5 -7.5t-22 -25.5t-11.5 -44v-249h-192v474h170l20 -48q60 60 145 60z" />
    <glyph glyph-name="Ncommaaccent" unicode="&#x145;" horiz-adv-x="755" 
d="M487 640h199v-640h-190l-228 324v-324h-199v640h190l228 -329v329zM376 -56q37 -6 54 -33.5t11 -65.5q-7 -47 -41 -84t-79 -53l-19 52q40 17 50 51q-29 0 -46 22t-13 52q5 31 28.5 47.5t54.5 11.5z" />
    <glyph glyph-name="ncommaaccent" unicode="&#x146;" horiz-adv-x="606" 
d="M389 486q30 0 58 -9.5t53.5 -29.5t41 -57t15.5 -87v-303h-192v241q0 30 -6 49t-18.5 27.5t-33.5 8.5q-24 0 -40.5 -19t-20.5 -58v-249h-192v474h170l20 -48q60 60 145 60zM299 -56q37 -6 54 -33.5t11 -65.5q-5 -31 -23 -59t-43 -48t-54 -30l-20 52q40 17 51 51
q-30 0 -47 22t-12 52q5 31 28.5 47.5t54.5 11.5z" />
    <glyph glyph-name="Ncaron" unicode="&#x147;" horiz-adv-x="755" 
d="M448 690h-141l-116 123h86q24 0 35.5 -6.5t37.5 -31.5l28 -26l27 26q15 15 20 19.5t14.5 10.5t17.5 7t21 1h86zM487 640h199v-640h-190l-228 324v-324h-199v640h190l228 -329v329z" />
    <glyph glyph-name="ncaron" unicode="&#x148;" horiz-adv-x="606" 
d="M371 554h-141l-116 123h86q24 0 35.5 -6.5t37.5 -31.5l27 -26l27 25q16 15 21 20t14.5 11t17.5 7t21 1h86zM389 486q30 0 58 -9.5t53.5 -29.5t41 -57t15.5 -87v-303h-192v241q0 30 -6 49t-18.5 27.5t-33.5 8.5q-15 0 -27.5 -7.5t-22 -25.5t-11.5 -44v-249h-192v474h170
l20 -48q60 60 145 60z" />
    <glyph glyph-name="napostrophe" unicode="&#x149;" horiz-adv-x="788" 
d="M112 660q50 -8 73.5 -46t15.5 -90q-10 -64 -57 -115t-108 -72l-27 71q25 11 44 29t26 40q-41 1 -64.5 31.5t-16.5 71.5q6 42 38.5 64.5t75.5 15.5zM571 486q30 0 58 -9.5t53.5 -29.5t41 -57t15.5 -87v-303h-192v241q0 30 -6 49t-19 27.5t-33 8.5q-15 0 -27.5 -7.5
t-22 -25.5t-11.5 -44v-249h-192v474h170l20 -48q60 60 145 60z" />
    <glyph glyph-name="Eng" unicode="&#x14a;" horiz-adv-x="755" 
d="M487 640h199v-640h-7v-7q0 -56 -16.5 -97.5t-42.5 -63.5t-57.5 -35.5t-63.5 -15.5t-58 -2t-43 4l-16 3l16 166l10 -2.5t21.5 -2.5t27 2t21.5 14.5t9 30.5v6l-103 160l-116 164v-324h-199v640h190l228 -329v329z" />
    <glyph glyph-name="eng" unicode="&#x14b;" horiz-adv-x="606" 
d="M389 486q30 0 58 -9.5t53.5 -29.5t41 -57t15.5 -87v-340q0 -80 -35.5 -132t-91 -71t-124.5 -9v163q59 -10 59 59v268q0 30 -6 49t-18.5 27.5t-33.5 8.5q-24 0 -40.5 -19t-20.5 -58v-249h-192v474h170l20 -48q60 60 145 60z" />
    <glyph glyph-name="Omacron" unicode="&#x14c;" horiz-adv-x="805" 
d="M230 719v81h346v-81h-346zM403 -17q-81 0 -150 27t-115.5 72.5t-72.5 107.5t-26 132q0 69 26 130.5t72.5 107.5t115.5 72.5t150 26.5t149.5 -26.5t115 -72t72.5 -107.5t26 -131q0 -70 -26 -132t-72.5 -107.5t-115 -72.5t-149.5 -27zM403 166q67 0 109 47t42 109
t-41.5 108t-109.5 46q-28 0 -52.5 -8.5t-42.5 -23.5t-31 -34.5t-19.5 -42t-6.5 -45.5q0 -40 17.5 -75t53 -58t81.5 -23z" />
    <glyph glyph-name="omacron" unicode="&#x14d;" 
d="M121 583v81h346v-81h-346zM294 -17q-122 0 -198.5 69.5t-76.5 182t76.5 182t198.5 69.5q80 0 142.5 -31t97.5 -88.5t35 -132t-35 -131.5t-97.5 -88.5t-142.5 -31.5zM294 143q34 0 57 25t23 67t-23 66.5t-57 24.5q-35 0 -57 -24.5t-22 -66.5t22 -67t57 -25z" />
    <glyph glyph-name="Obreve" unicode="&#x14e;" horiz-adv-x="805" 
d="M402.5 690q-82.5 0 -126 32.5t-44.5 90.5h84q7 -47 86.5 -47t86.5 47h85q-1 -58 -45 -90.5t-126.5 -32.5zM403 -17q-81 0 -150 27t-115.5 72.5t-72.5 107.5t-26 132q0 69 26 130.5t72.5 107.5t115.5 72.5t150 26.5t149.5 -26.5t115 -72.5t72.5 -107.5t26 -130.5
q0 -70 -26 -132t-72.5 -107.5t-115 -72.5t-149.5 -27zM403 166q67 0 109 47t42 109t-41.5 108t-109.5 46q-28 0 -52.5 -8.5t-42.5 -23.5t-31 -34.5t-19.5 -42t-6.5 -45.5q0 -62 41.5 -109t110.5 -47z" />
    <glyph glyph-name="obreve" unicode="&#x14f;" 
d="M294.5 554q-82.5 0 -126.5 32.5t-45 90.5h85q7 -48 86.5 -48t85.5 48h85q-1 -58 -44.5 -90.5t-126 -32.5zM294 -17q-122 0 -198.5 69.5t-76.5 182t76.5 182t198.5 69.5q80 0 142.5 -31t97.5 -88.5t35 -131.5q0 -113 -76.5 -182.5t-198.5 -69.5zM294 143q34 0 57 25t23 67
t-23 66.5t-57 24.5q-35 0 -57 -24.5t-22 -66.5t22 -67t57 -25z" />
    <glyph glyph-name="Ohungarumlaut" unicode="&#x150;" horiz-adv-x="805" 
d="M374 737q-21 -21 -42 -31.5t-38 -13t-45 -2.5h-48l143 176l136 -21zM580 737q-20 -21 -41.5 -31.5t-38 -13t-45.5 -2.5h-47l142 176l137 -21zM403 -17q-81 0 -150 27t-115.5 72.5t-72.5 107.5t-26 132q0 69 26 131t72.5 107.5t115.5 72t150 26.5t149.5 -26.5t115 -72
t72.5 -107.5t26 -131q0 -70 -26 -132t-72.5 -107.5t-115 -72.5t-149.5 -27zM403 166q67 0 109 47t42 109t-41.5 108t-109.5 46q-28 0 -52.5 -8.5t-42.5 -23.5t-31 -34.5t-19.5 -42t-6.5 -45.5q0 -40 17.5 -75t53 -58t81.5 -23z" />
    <glyph glyph-name="ohungarumlaut" unicode="&#x151;" 
d="M265 600q-30 -30 -56 -38t-69 -8h-47l142 176l137 -21zM472 600q-30 -30 -56 -38t-69 -8h-47l142 176l136 -21zM294 -17q-122 0 -198.5 69.5t-76.5 182t76.5 182t198.5 69.5q80 0 142.5 -31t97.5 -88.5t35 -131.5t-35 -131.5t-97.5 -89t-142.5 -31.5zM294 143q34 0 57 25
t23 67t-23 66.5t-57 24.5q-35 0 -57 -24.5t-22 -66.5t22 -67t57 -25z" />
    <glyph glyph-name="OE" unicode="&#x152;" horiz-adv-x="1063" 
d="M758 475v-78l2 -10h240v-134h-240q-1 -3 -2 -7v-81h292v-165h-500v9q-68 -26 -147 -26q-81 0 -150 27t-115.5 72.5t-72.5 107.5t-26 132q0 69 26 130.5t72.5 107.5t115.5 72.5t150 26.5q79 0 147 -26v7h500v-165h-292zM403 166q38 0 69.5 17t51 43.5t26.5 59.5v72
q-7 33 -26 59t-50.5 42.5t-70.5 16.5q-28 0 -52.5 -8.5t-42.5 -23.5t-31 -34.5t-19.5 -42t-6.5 -45.5q0 -40 17.5 -75t53 -58t81.5 -23z" />
    <glyph glyph-name="oe" unicode="&#x153;" horiz-adv-x="929" 
d="M910 221v-38h-332q18 -67 88 -67q42 0 80 31l125 -102q-79 -62 -199 -62t-198 55q-73 -55 -180 -55q-122 0 -198.5 70t-76.5 182t76.5 181.5t198.5 69.5q105 0 179 -53q72 53 174 53q117 0 190 -69.5t73 -195.5zM647 355q-60 0 -72 -75h147q-4 34 -22.5 54.5t-52.5 20.5z
M294 143q34 0 57 25t23 67t-23 66.5t-57 24.5q-35 0 -57 -24.5t-22 -66.5t22 -67t57 -25z" />
    <glyph glyph-name="Racute" unicode="&#x154;" horiz-adv-x="732" 
d="M430 737q-30 -31 -56.5 -39t-68.5 -8h-48l143 176l136 -21zM612 197q11 -18 42 -90t59 -107h-242q-6 12 -28.5 79t-37.5 92q-18 30 -46 45.5t-82 18.5v-235h-208v640h348q33 0 65 -5t65.5 -18.5t58.5 -34.5t40.5 -55.5t15.5 -78.5q0 -66 -43.5 -109t-114.5 -66
q77 -25 108 -76zM370 489h-93v-131h89q41 0 62.5 18t21.5 49q0 19 -8.5 33.5t-26.5 22.5t-45 8z" />
    <glyph glyph-name="racute" unicode="&#x155;" horiz-adv-x="439" 
d="M307 601q-30 -30 -56 -38.5t-69 -8.5h-47l142 177l137 -22zM365 486q22 0 43.5 -5t31.5 -9l10 -5l-51 -149q-20 11 -48 11q-49 0 -77 -37t-28 -96v-196h-192v474h170l22 -59q11 15 20 24t24 21.5t34 19t41 6.5z" />
    <glyph glyph-name="Rcommaaccent" unicode="&#x156;" horiz-adv-x="732" 
d="M612 197q11 -18 42 -90t59 -107h-242q-6 12 -28.5 79t-37.5 92q-18 30 -46 45.5t-82 18.5v-235h-208v640h348q33 0 65 -5t65.5 -18.5t58.5 -34.5t40.5 -55.5t15.5 -78.5q0 -66 -43.5 -109t-114.5 -66q77 -25 108 -76zM370 489h-93v-131h89q41 0 62.5 18t21.5 49
q0 19 -8.5 33.5t-26.5 22.5t-45 8zM361 -56q37 -6 54 -33.5t11 -65.5q-7 -47 -41.5 -84t-78.5 -53l-19 52q39 17 50 51q-29 0 -46.5 22t-12.5 52q2 10 6 19t9.5 16t13 12.5t16 8.5t18.5 4t20 -1z" />
    <glyph glyph-name="rcommaaccent" unicode="&#x157;" horiz-adv-x="439" 
d="M365 486q22 0 43.5 -5t31.5 -10l10 -4l-51 -149q-20 11 -48 11q-49 0 -77 -37t-28 -96v-196h-192v474h170l22 -59q16 20 28 32.5t37 25.5t54 13zM149 -56q36 -6 53.5 -33.5t11.5 -65.5q-8 -47 -42 -84t-78 -53l-20 52q40 17 51 51q-30 0 -47 22t-12 52q4 31 27.5 47.5
t55.5 11.5z" />
    <glyph glyph-name="Rcaron" unicode="&#x158;" horiz-adv-x="732" 
d="M433 690h-141l-116 123h86q24 0 35.5 -6.5t37.5 -31.5l28 -26l26 25q20 19 27 25t18.5 10t28.5 4h86zM612 197q12 -20 28 -58t34 -75t39 -64h-242q-6 12 -28.5 79t-37.5 92q-18 30 -46 45.5t-82 18.5v-235h-208v640h348q33 0 65 -5t65.5 -18.5t58.5 -34.5t40.5 -55.5
t15.5 -78.5q0 -66 -43.5 -109t-114.5 -66q77 -25 108 -76zM370 489h-93v-131h89q41 0 62.5 18t21.5 49q0 19 -8.5 33.5t-26.5 22.5t-45 8z" />
    <glyph glyph-name="rcaron" unicode="&#x159;" horiz-adv-x="439" 
d="M311 554h-141l-117 123h87q24 0 35.5 -6.5t37.5 -31.5l27 -26l27 25q16 15 21 20t14.5 11t17.5 7t20 1h87zM365 486q22 0 43.5 -5t31.5 -10l10 -4l-51 -149q-20 11 -48 11q-49 0 -77 -37t-28 -96v-196h-192v474h170l22 -59q11 15 20 24t24 21.5t34 19t41 6.5z" />
    <glyph glyph-name="Sacute" unicode="&#x15a;" horiz-adv-x="671" 
d="M404 737q-21 -21 -42 -31.5t-37.5 -13t-45.5 -2.5h-47l142 176l136 -21zM336 -17q-186 0 -317 91l115 141q90 -69 198 -69q36 0 56 12.5t20 34.5t-37.5 37t-119.5 34q-90 20 -138 66t-48 112q0 69 39.5 120t100.5 74.5t135 23.5q158 0 278 -79l-111 -135q-74 49 -148 49
q-32 0 -52 -11t-20 -30q0 -18 28.5 -29.5t110.5 -34.5q12 -4 19 -5q187 -52 187 -187q0 -103 -80.5 -159t-215.5 -56z" />
    <glyph glyph-name="sacute" unicode="&#x15b;" horiz-adv-x="498" 
d="M337 601q-29 -30 -55.5 -38.5t-69.5 -8.5h-47l142 177l137 -22zM14 47l91 117q59 -47 119 -47q14 0 24.5 3.5t15.5 10.5t5 16q0 13 -16.5 21.5t-40.5 13t-53 13.5t-53.5 21.5t-40.5 39t-16 64.5q0 74 60 120t168 46q62 0 115.5 -16t81.5 -38l-93 -116q-46 35 -90 36
q-42 0 -42 -29q0 -15 17 -25.5t42.5 -15.5t55.5 -15t55.5 -22.5t42.5 -39t17 -63.5q0 -69 -56.5 -114t-163.5 -45q-155 0 -245 64z" />
    <glyph glyph-name="Scircumflex" unicode="&#x15c;" horiz-adv-x="671" 
d="M307 729q-19 -19 -26 -25t-18.5 -10t-28.5 -4h-86l116 123h141l116 -123h-86q-24 0 -35.5 6.5t-37.5 31.5l-28 26zM445 385q187 -52 187 -187q0 -103 -80.5 -159t-215.5 -56q-186 0 -317 91l115 141q90 -69 198 -69q36 0 56 12.5t20 34.5q0 12 -10.5 21.5t-35.5 18.5
t-47 15t-64 16q-90 20 -138 66t-48 112q0 69 39.5 120t100.5 74.5t135 23.5q158 0 278 -79l-111 -135q-74 49 -148 49q-32 0 -52 -11t-20 -30q0 -18 28.5 -29.5t110.5 -34.5q12 -4 19 -5z" />
    <glyph glyph-name="scircumflex" unicode="&#x15d;" horiz-adv-x="498" 
d="M241 593q-20 -19 -27 -25t-18.5 -10t-27.5 -4h-87l116 123h141l117 -123h-87q-24 0 -35.5 6.5t-37.5 31.5l-27 26zM249 323q0 -15 17 -25.5t42.5 -15.5t55.5 -15t55.5 -22.5t42.5 -39t17 -63.5q0 -69 -56.5 -114t-163.5 -45q-155 0 -245 64l91 117q59 -47 119 -47
q14 0 24.5 3.5t15.5 10.5t5 16q0 13 -16 21.5t-40.5 13t-53.5 13.5t-53.5 21.5t-40.5 39t-16 64.5q0 74 60 120t168 46q62 0 115.5 -16t81.5 -38l-93 -116q-46 35 -90 36q-42 0 -42 -29z" />
    <glyph glyph-name="Scedilla" unicode="&#x15e;" horiz-adv-x="671" 
d="M632 198q0 -97 -72.5 -152.5t-196.5 -61.5l-20 -19q1 0 4.5 1t15 2t25.5 -3q25 -5 48.5 -25.5t22.5 -55.5q-2 -37 -32 -59t-75 -27q-38 -3 -74 2.5t-53 11.5l-18 7l32 62q5 -3 13 -6t29.5 -8t38.5 -4q32 2 31 27q-1 16 -26.5 20t-43.5 -7l-43 34l38 48q-145 12 -257 89
l115 141q90 -69 198 -69q36 0 56 12.5t20 34.5t-37.5 36.5t-119.5 34.5q-90 20 -138 66t-48 112q0 69 39.5 120t100.5 74.5t135 23.5q158 0 278 -79l-111 -135q-74 49 -148 49q-32 0 -52 -11t-20 -30q0 -18 28.5 -29.5t110.5 -34.5q12 -4 19 -5q187 -52 187 -187z" />
    <glyph glyph-name="scedilla" unicode="&#x15f;" horiz-adv-x="498" 
d="M479 142q0 -63 -47.5 -106.5t-138.5 -50.5l-25 -24q1 1 4.5 1.5t15 1.5t25.5 -2q26 -6 49 -26.5t22 -55.5q-1 -25 -16 -43.5t-38.5 -29t-52.5 -12.5q-38 -3 -74 2t-53 12l-17 6l31 62q5 -2 13.5 -5.5t29.5 -8t38 -4.5q32 2 31 28q-1 16 -26.5 20t-43.5 -7l-43 33l41 52
q-117 10 -190 62l91 117q59 -47 119 -47q14 0 24.5 3.5t15.5 10.5t5 16q0 13 -16.5 21.5t-40.5 13t-53 13.5t-53.5 21.5t-40.5 39t-16 64.5q0 74 60 120t168 46q62 0 115.5 -16t81.5 -38l-93 -116q-46 35 -90 36q-42 0 -42 -29q0 -15 17 -25.5t42.5 -15.5t55.5 -15
t55.5 -22.5t42.5 -39t17 -63.5z" />
    <glyph glyph-name="Scaron" unicode="&#x160;" horiz-adv-x="671" 
d="M407 690h-141l-116 123h86q24 0 35.5 -6.5t37.5 -31.5l28 -26l27 25q19 19 26 25t18.5 10t28.5 4h86zM445 385q187 -52 187 -187q0 -103 -80.5 -159t-215.5 -56q-186 0 -317 91l115 141q90 -69 198 -69q36 0 56 12.5t20 34.5t-37.5 36.5t-119.5 34.5q-90 20 -138 66
t-48 112q0 69 39.5 120t100.5 74.5t135 23.5q158 0 278 -79l-111 -135q-74 49 -148 49q-32 0 -52 -11t-20 -30q0 -18 28.5 -29.5t110.5 -34.5q12 -4 19 -5z" />
    <glyph glyph-name="scaron" unicode="&#x161;" horiz-adv-x="498" 
d="M341 554h-141l-116 123h86q24 0 35.5 -6.5t37.5 -31.5l27 -26l27 25q16 15 21 20t14.5 11t17.5 7t21 1h86zM249 323q0 -15 17 -25.5t42.5 -15.5t55.5 -15t55.5 -22.5t42.5 -39t17 -63.5q0 -70 -56.5 -114.5t-163.5 -44.5q-155 0 -245 64l91 117q59 -47 120 -47
q13 0 23.5 3.5t15.5 10.5t5 16q0 13 -16 21.5t-40.5 13t-53.5 13.5t-53.5 21.5t-40.5 39t-16 64.5q0 74 60 120t168 46q16 0 32.5 -1t31 -3.5t29 -5.5t27 -7t24 -8.5t21 -9t17.5 -9.5t15 -10l-93 -116q-46 35 -90 36q-42 0 -42 -29z" />
    <glyph glyph-name="uni0162" unicode="&#x162;" horiz-adv-x="540" 
d="M374 0h-60l-38 -35q2 0 5 1t14.5 2t25.5 -3q26 -5 49 -25.5t22 -55.5q-1 -25 -16 -44t-38.5 -29t-52.5 -13q-38 -3 -74 2.5t-53 11.5l-17 7l31 62q5 -3 13.5 -6t30 -8t37.5 -4q32 2 31 27q0 16 -26 20t-43 -7l-44 34l50 63h-55v470h-167v170h542v-170h-167v-470z" />
    <glyph glyph-name="uni0163" unicode="&#x163;" horiz-adv-x="407" 
d="M277 -44q26 -6 49 -26.5t22 -55.5q-1 -25 -16 -43.5t-38 -29t-52 -12.5q-39 -3 -75 2t-53 12l-17 6l31 62q5 -2 13.5 -5.5t30 -8t37.5 -4.5q32 2 31 28q0 16 -25.5 20t-43.5 -7l-44 33l63 79q-99 45 -99 187v142h-61v139h61v140h192v-140h98v-139h-98v-105q0 -84 64 -84
q8 0 17 1t13 3l4 1l17 -149q-57 -15 -112 -15q-10 0 -19 1l-35 -33q2 1 5 1.5t14.5 1.5t25.5 -2z" />
    <glyph glyph-name="Tcaron" unicode="&#x164;" horiz-adv-x="540" 
d="M341 690h-142l-116 123h87q24 0 35.5 -6.5t37.5 -31.5l27 -26l27 25q19 19 26.5 25t18.5 10t28 4h87zM541 640v-170h-167v-470h-208v470h-167v170h542z" />
    <glyph glyph-name="tcaron" unicode="&#x165;" horiz-adv-x="407" 
d="M397 744q36 -6 53.5 -33.5t11.5 -65.5q-8 -46 -42 -83.5t-78 -52.5l-20 51q40 17 51 51q-30 0 -47 22.5t-12 51.5q3 20 15 35t29.5 21t38.5 3zM347 146q8 0 16.5 1t13.5 3l4 1l17 -149q-57 -15 -113 -15q-28 0 -53.5 5t-52 19t-45.5 36t-31 59.5t-12 86.5v143h-61v138h61
v140h192v-140h98v-138h-98v-106q0 -84 64 -84z" />
    <glyph glyph-name="Tbar" unicode="&#x166;" horiz-adv-x="540" 
d="M541 470h-167v-115h70v-66h-70v-289h-208v289h-70v66h70v115h-167v170h542v-170z" />
    <glyph glyph-name="tbar" unicode="&#x167;" horiz-adv-x="407" 
d="M381 151l17 -149q-57 -15 -112 -15q-29 0 -54.5 5t-52 19t-45 36t-31 59.5t-12.5 86.5v36h-43v66h43v40h-61v139h61v140h192v-140h98v-139h-98v-40h76v-66h-76q1 -83 64 -83q8 0 17 1t13 3z" />
    <glyph glyph-name="Utilde" unicode="&#x168;" horiz-adv-x="747" 
d="M443 692q-29 0 -69.5 23t-60.5 23q-34 0 -58 -40l-66 43q11 16 19 25.5t22.5 23t32.5 20.5t40 7q31 0 72.5 -23.5t58.5 -23.5q34 0 58 44l66 -44q-21 -38 -46 -58t-69 -20zM373 -17q-142 0 -225.5 69t-83.5 202v386h208v-363q0 -54 27 -82.5t74.5 -28.5t74.5 28.5
t27 82.5v363h208v-386q0 -133 -84 -202t-226 -69z" />
    <glyph glyph-name="utilde" unicode="&#x169;" horiz-adv-x="606" 
d="M233 602q-35 0 -59 -40l-66 43q11 16 19 25.5t22.5 23.5t33 20.5t39.5 6.5q31 0 72.5 -23.5t58.5 -23.5q34 0 58 44l66 -44q-20 -37 -45.5 -57.5t-69.5 -20.5q-29 0 -69.5 23t-59.5 23zM360 474h192v-474h-170l-20 48q-60 -60 -145 -60q-30 0 -58.5 9.5t-53.5 29.5
t-40.5 57.5t-15.5 86.5v303h192v-241q0 -45 13.5 -65t44.5 -20q23 0 40 19t21 58v249z" />
    <glyph glyph-name="Umacron" unicode="&#x16a;" horiz-adv-x="747" 
d="M201 719v81h345v-81h-345zM373 -17q-142 0 -225.5 69t-83.5 202v386h208v-363q0 -54 27 -82.5t74.5 -28.5t74.5 28.5t27 82.5v363h208v-386q0 -89 -39.5 -151t-108.5 -91t-162 -29z" />
    <glyph glyph-name="umacron" unicode="&#x16b;" horiz-adv-x="606" 
d="M465 665v-81h-345v81h345zM360 474h192v-474h-170l-20 48q-60 -60 -145 -60q-30 0 -58.5 9.5t-53.5 29.5t-40.5 57.5t-15.5 86.5v303h192v-241q0 -45 13.5 -65t44.5 -20q23 0 40 19t21 58v249z" />
    <glyph glyph-name="Ubreve" unicode="&#x16c;" horiz-adv-x="747" 
d="M373.5 690q-82.5 0 -126.5 32.5t-45 90.5h85q7 -47 86.5 -47t86.5 47h85q-2 -58 -45.5 -90.5t-126 -32.5zM373 -17q-142 0 -225.5 69t-83.5 202v386h208v-363q0 -54 27 -82.5t74.5 -28.5t74.5 28.5t27 82.5v363h208v-386q0 -89 -40 -151t-108.5 -91t-161.5 -29z" />
    <glyph glyph-name="ubreve" unicode="&#x16d;" horiz-adv-x="606" 
d="M292.5 554q-82.5 0 -126 32.5t-45.5 90.5h85q7 -47 86.5 -47t86.5 47h85q-1 -58 -45 -90.5t-126.5 -32.5zM360 474h192v-474h-170l-20 48q-60 -60 -145 -60q-30 0 -58.5 9.5t-53.5 29.5t-40.5 57.5t-15.5 86.5v303h192v-241q0 -45 13.5 -65t44.5 -20q23 0 40 19t21 58
v249z" />
    <glyph glyph-name="Uring" unicode="&#x16e;" horiz-adv-x="747" 
d="M373.5 927q61.5 0 100.5 -38t39 -93.5t-39 -93t-100.5 -37.5t-100 37.5t-38.5 93t38.5 93.5t100 38zM373.5 740q25.5 0 41 16t15.5 39.5t-15.5 39.5t-41 16t-40.5 -16t-15 -39.5t15 -39.5t40.5 -16zM373 -17q-141 0 -225 69t-84 202v386h208v-363q0 -54 27 -82.5
t74.5 -28.5t74.5 28.5t27 82.5v363h208v-386q0 -89 -39.5 -151t-108.5 -91t-162 -29z" />
    <glyph glyph-name="uring" unicode="&#x16f;" horiz-adv-x="606" 
d="M292.5 529q-61.5 0 -100 37.5t-38.5 93t38.5 93.5t100 38t100.5 -38t39 -93.5t-39 -93t-100.5 -37.5zM293 715q-17 0 -30 -7.5t-19.5 -20t-6.5 -27.5q0 -24 15 -40t41 -16q17 0 30 7.5t19.5 20t6.5 28.5q0 23 -15.5 39t-40.5 16zM360 474h192v-474h-170l-20 48
q-60 -60 -145 -60q-30 0 -58.5 9.5t-53.5 29.5t-40.5 57.5t-15.5 86.5v303h192v-241q0 -45 13.5 -65t44.5 -20q23 0 40 19t21 58v249z" />
    <glyph glyph-name="Uhungarumlaut" unicode="&#x170;" horiz-adv-x="747" 
d="M344 737q-20 -21 -41.5 -31.5t-38 -13t-45.5 -2.5h-47l142 176l137 -21zM551 737q-30 -31 -56 -39t-69 -8h-47l142 176l137 -21zM373 -17q-142 0 -225.5 69t-83.5 202v386h208v-363q0 -54 27 -82.5t74.5 -28.5t74.5 28.5t27 82.5v363h208v-386q0 -89 -39.5 -151
t-108.5 -91t-162 -29z" />
    <glyph glyph-name="uhungarumlaut" unicode="&#x171;" horiz-adv-x="606" 
d="M264 601q-30 -30 -56.5 -38.5t-68.5 -8.5h-48l142 177l137 -22zM345 554h-47l142 177l137 -22l-107 -108q-30 -30 -56 -38.5t-69 -8.5zM360 225v249h192v-474h-170l-20 48q-60 -60 -145 -60q-30 0 -58.5 9.5t-53.5 29.5t-40.5 57.5t-15.5 86.5v303h192v-241
q0 -45 13.5 -65t44.5 -20q23 0 40 19t21 58z" />
    <glyph glyph-name="Uogonek" unicode="&#x172;" horiz-adv-x="747" 
d="M475 640h208v-386q0 -74 -28 -129.5t-77 -88.5t-117 -45q-67 -33 -80 -75q-10 -33 20 -42q23 -7 60 8l30 -72q-70 -33 -129 -21t-77 60q-28 74 51 135q-126 9 -199 77.5t-73 192.5v386h208v-363q0 -54 27 -82.5t74.5 -28.5t74.5 28.5t27 82.5v363z" />
    <glyph glyph-name="uogonek" unicode="&#x173;" horiz-adv-x="606" 
d="M488 -7q-69 -33 -84 -76q-10 -34 20 -43q23 -7 61 8l29 -72q-69 -33 -128.5 -21t-77.5 60q-32 84 74 151l-20 48q-60 -60 -145 -60q-30 0 -58.5 9.5t-53.5 29.5t-40.5 57.5t-15.5 86.5v303h192v-241q0 -45 13.5 -65t44.5 -20q23 0 40 19t21 58v249h192v-474h-49z" />
    <glyph glyph-name="Wcircumflex" unicode="&#x174;" horiz-adv-x="980" 
d="M461 729q-20 -19 -27 -25t-18.5 -10t-28.5 -4h-86l116 123h141l116 -123h-86q-24 0 -35.5 6.5t-37.5 31.5l-28 26zM760 640h221l-209 -640h-193l-89 297l-89 -297h-194l-208 640h221l95 -357l91 357h168l91 -357z" />
    <glyph glyph-name="wcircumflex" unicode="&#x175;" horiz-adv-x="817" 
d="M376 593q-16 -15 -21 -19.5t-14.5 -11t-17.5 -7.5t-21 -1h-86l116 123h141l116 -123h-86q-24 0 -35.5 6.5t-37.5 31.5l-27 26zM606 474h207l-172 -474h-164l-68 250l-70 -250h-163l-172 474h208l57 -229l65 229h150l65 -229z" />
    <glyph glyph-name="Ycircumflex" unicode="&#x176;" horiz-adv-x="629" 
d="M285 729q-19 -19 -26.5 -25t-18.5 -10t-28 -4h-87l117 123h141l116 -123h-86q-24 0 -35.5 6.5t-37.5 31.5l-28 26zM650 640l-232 -359v-281h-208v285l-231 355h233l102 -172l105 172h231z" />
    <glyph glyph-name="ycircumflex" unicode="&#x177;" horiz-adv-x="563" 
d="M251 593q-19 -19 -26.5 -25t-18.5 -10t-28 -4h-87l116 123h142l116 -123h-87q-24 0 -35.5 6.5t-37.5 31.5l-27 26zM376 474h202l-233 -543q-35 -80 -81.5 -110.5t-108.5 -30.5q-21 0 -42.5 3.5t-32.5 6.5l-11 4l27 160q25 -14 47 -14q36 0 50 38l3 6l-212 480h203
l96 -247z" />
    <glyph glyph-name="Ydieresis" unicode="&#x178;" horiz-adv-x="629" 
d="M198.5 694q-30.5 0 -51.5 21.5t-21 53.5q0 15 5.5 28.5t15 23.5t23 15.5t28.5 5.5q20 0 37 -10t27 -27t10 -36q0 -32 -21.5 -53.5t-52 -21.5zM430.5 694q-30.5 0 -51.5 21.5t-21 53.5q0 12 3.5 23t10.5 20t15.5 16t20 10.5t22.5 3.5q20 0 37 -10t27 -27t10 -36
q0 -32 -21.5 -53.5t-52 -21.5zM650 640l-232 -359v-281h-208v285l-231 355h233l102 -172l105 172h231z" />
    <glyph glyph-name="Zacute" unicode="&#x179;" horiz-adv-x="586" 
d="M365 737q-20 -21 -41.5 -31.5t-38 -13t-45.5 -2.5h-47l142 176l137 -21zM306 176h241v-176h-508v153l237 311h-219v176h481v-144z" />
    <glyph glyph-name="zacute" unicode="&#x17a;" horiz-adv-x="496" 
d="M316 601q-30 -30 -56.5 -38.5t-68.5 -8.5h-48l143 177l136 -22zM276 155h196v-155h-448v125l174 194h-157v155h416v-121z" />
    <glyph glyph-name="Zdotaccent" unicode="&#x17b;" horiz-adv-x="586" 
d="M298 688q-22 0 -40.5 10t-29.5 27.5t-11 38.5q0 31 23.5 53.5t57 22.5t57 -22.5t23.5 -54t-23.5 -53.5t-56.5 -22zM306 176h241v-176h-508v153l237 311h-219v176h481v-144z" />
    <glyph glyph-name="zdotaccent" unicode="&#x17c;" horiz-adv-x="496" 
d="M248 552q-33 0 -56.5 22t-23.5 53.5t23.5 54t56.5 22.5t56.5 -22.5t23.5 -53.5q0 -21 -11 -38.5t-29.5 -27.5t-39.5 -10zM276 155h196v-155h-448v125l174 194h-157v155h416v-121z" />
    <glyph glyph-name="Zcaron" unicode="&#x17d;" horiz-adv-x="586" 
d="M369 690h-141l-116 123h86q24 0 35.5 -6.5t37.5 -31.5l27 -26l27 25q20 19 27 25t18.5 10t28.5 4h86zM306 176h241v-176h-508v153l237 311h-219v176h481v-144z" />
    <glyph glyph-name="zcaron" unicode="&#x17e;" horiz-adv-x="496" 
d="M319 554h-141l-116 123h86q24 0 35.5 -6.5t37.5 -31.5l28 -26l26 25q16 15 21 20t14.5 11t17.5 7t21 1h86zM276 155h196v-155h-448v125l174 194h-157v155h416v-121z" />
    <glyph glyph-name="uni0189" unicode="&#x189;" horiz-adv-x="725" 
d="M340 640q154 0 249.5 -89t95.5 -231t-95.5 -231t-249.5 -89h-271v289h-38v66h38v285h271zM326 175q60 0 103.5 36t43.5 109t-43.5 109t-103.5 36h-49v-110h101v-66h-101v-114h49z" />
    <glyph glyph-name="uni018F" unicode="&#x18f;" horiz-adv-x="743" 
d="M357 655q76 0 141 -26.5t110 -71.5t70.5 -106t25.5 -129q0 -92 -43.5 -168t-121.5 -121t-175 -45q-146 0 -235.5 89.5t-89.5 234.5v76h452q-11 27 -30 47t-46 32t-58 12q-67 0 -107 -43l-147 110q22 26 49 46t59 34t69 21.5t77 7.5zM364 152q50 0 85.5 29t49.5 77h-260
q11 -48 44 -77t81 -29z" />
    <glyph glyph-name="florin" unicode="&#x192;" horiz-adv-x="582" 
d="M476 499q-33 0 -46.5 -21t-22.5 -68h107v-130h-135l-50 -240q-39 -190 -200 -190q-70 0 -135 44l75 136q20 -18 43 -18q11 0 20 4.5t14 10.5t9.5 19t6.5 22t6 28q1 2 1 3.5t0.5 3.5t1.5 4l36 173h-87v130h114l15 74q18 86 71.5 131.5t137.5 45.5q77 0 144 -42l-76 -136
q-23 16 -50 16z" />
    <glyph glyph-name="uni0197" unicode="&#x197;" horiz-adv-x="346" 
d="M346 408v-66h-69v-342h-208v342h-70v66h70v232h208v-232h69z" />
    <glyph glyph-name="uni019D" unicode="&#x19d;" horiz-adv-x="755" 
d="M487 640h199v-640h-190l-228 324v-331q0 -56 -16.5 -97.5t-42.5 -63.5t-58 -35.5t-63.5 -15.5t-58 -2t-42.5 4l-17 3l23 166q4 -1 9.5 -2.5t20 -2.5t25.5 2t19.5 14.5t8.5 30.5v6h-7v640h190l228 -329v329z" />
    <glyph glyph-name="uni01C3" unicode="&#x1c3;" horiz-adv-x="297" 
d="M261 640l-33 -429h-155l-34 429h222zM148 -13q-41 0 -70 27.5t-29 66.5t29 67t70 28t70.5 -28t29.5 -67t-29.5 -66.5t-70.5 -27.5z" />
    <glyph glyph-name="uni01CD" unicode="&#x1cd;" horiz-adv-x="697" 
d="M419 690h-142l-116 123h87q24 0 35.5 -6.5t37.5 -31.5l27 -26l27 25q19 19 26.5 25t18.5 10t28 4h87zM484 0l-27 88h-217l-27 -88h-224l252 640h215l252 -640h-224zM284 230h129l-65 208z" />
    <glyph glyph-name="uni01CE" unicode="&#x1ce;" horiz-adv-x="570" 
d="M354 554h-141l-116 123h86q24 0 35.5 -6.5t37.5 -31.5l28 -26l27 25l20 20t14.5 11t17.5 7t21 1h87zM271 486q55 0 98.5 -11.5t78.5 -37t54 -71t19 -107.5v-259h-171l-21 53q-50 -65 -149 -65q-70 0 -115.5 38.5t-45.5 103.5q0 86 80.5 127.5t209.5 9.5l21 -5v14
q0 36 -25 56t-63 20q-51 0 -98 -34l-72 111q84 57 199 57zM329 172v13l-3 1q-50 13 -80 -1.5t-30 -42.5q0 -20 13.5 -30.5t35.5 -10.5q29 0 46.5 19t17.5 52z" />
    <glyph glyph-name="uni01CF" unicode="&#x1cf;" horiz-adv-x="346" 
d="M243 690h-141l-117 123h87q24 0 35.5 -6.5t37.5 -31.5l27 -26l27 25q16 15 21 19.5t14.5 11t17.5 7.5t21 1h86zM69 0v640h208v-640h-208z" />
    <glyph glyph-name="uni01D0" unicode="&#x1d0;" horiz-adv-x="299" 
d="M220 554h-141l-116 123h86q24 0 35.5 -6.5t37.5 -31.5l28 -26l27 25l20 20t14.5 11t17.5 7t21 1h86zM54 0v474h191v-474h-191z" />
    <glyph glyph-name="uni01D1" unicode="&#x1d1;" horiz-adv-x="805" 
d="M473 690h-141l-116 123h86q17 0 28.5 -4t18.5 -10t26 -24l28 -26l27 25q19 19 26.5 25t18.5 10t28 4h87zM403 659q81 0 149.5 -26.5t115 -72.5t72.5 -107.5t26 -130.5q0 -70 -26 -132t-72.5 -107.5t-115 -72.5t-149.5 -27t-150 27t-115.5 72.5t-72.5 107.5t-26 132
q0 69 26 130.5t72.5 107.5t115.5 72.5t150 26.5zM403 166q67 0 109 47t42 109t-41.5 108t-109.5 46q-28 0 -52.5 -8.5t-42.5 -23.5t-31 -34.5t-19.5 -42t-6.5 -45.5q0 -40 17.5 -75t53 -58t81.5 -23z" />
    <glyph glyph-name="uni01D2" unicode="&#x1d2;" 
d="M365 554h-141l-117 123h87q24 0 35.5 -6.5t37.5 -31.5l27 -27l27 26q20 19 27 24.5t18.5 10t28.5 4.5h86zM294 486q80 0 142.5 -31t97.5 -88.5t35 -131.5q0 -113 -76.5 -182.5t-198.5 -69.5t-198.5 69.5t-76.5 182t76.5 182t198.5 69.5zM294 143q34 0 57 25t23 67
t-23 66.5t-57 24.5q-35 0 -57 -24.5t-22 -66.5q0 -28 10.5 -49t28 -32t40.5 -11z" />
    <glyph glyph-name="uni01D3" unicode="&#x1d3;" horiz-adv-x="747" 
d="M444 690h-141l-116 123h86q24 0 35.5 -6.5t37.5 -31.5l27 -26l27 25q20 19 27 25t18.5 10t28.5 4h86zM475 640h208v-386q0 -89 -39.5 -151t-108.5 -91t-162 -29q-141 0 -225 69t-84 202v386h208v-363q0 -54 27 -82.5t74.5 -28.5t74.5 28.5t27 82.5v363z" />
    <glyph glyph-name="uni01D4" unicode="&#x1d4;" horiz-adv-x="606" 
d="M363 554h-141l-116 123h86q24 0 35.5 -6.5t37.5 -31.5l28 -26l27 25l20 20t14.5 11t17.5 7t21 1h86zM360 474h192v-474h-170l-20 48q-60 -60 -145 -60q-30 0 -58.5 9.5t-53.5 29.5t-40.5 57.5t-15.5 86.5v303h192v-241q0 -45 13.5 -65t44.5 -20q23 0 40 19t21 58v249z
" />
    <glyph glyph-name="uni01D5" unicode="&#x1d5;" horiz-adv-x="747" 
d="M201 879v81h345v-81h-345zM256.5 832q19.5 0 36.5 -9.5t27 -26.5t10 -37q0 -31 -21.5 -53t-52 -22t-51.5 21.5t-21 53.5q0 20 9.5 36.5t26.5 26.5t36.5 10zM489 832q30 0 52 -21.5t22 -51.5q0 -31 -22 -53t-52 -22t-51 21.5t-21 53.5q0 15 5.5 28.5t15 23.5t23 15.5
t28.5 5.5zM373 -17q-142 0 -225.5 69t-83.5 202v386h208v-363q0 -54 27 -82.5t74.5 -28.5t74.5 28.5t27 82.5v363h208v-386q0 -133 -84 -202t-226 -69z" />
    <glyph glyph-name="uni01D6" unicode="&#x1d6;" horiz-adv-x="606" 
d="M465 851v-81h-345v81h345zM176.5 558q-30.5 0 -51.5 21.5t-21 53.5q0 30 21 51.5t51 21.5t52 -21.5t22 -51.5q0 -31 -21.5 -53t-52 -22zM408 706q20 0 37 -9.5t27 -26.5t10 -37q0 -31 -21.5 -53t-52 -22t-51.5 21.5t-21 53.5q0 30 21 51.5t51 21.5zM360 474h192v-474
h-170l-20 48q-60 -60 -145 -60q-30 0 -58.5 9.5t-53.5 29.5t-40.5 57.5t-15.5 86.5v303h192v-241q0 -45 13.5 -65t44.5 -20q23 0 40 19t21 58v249z" />
    <glyph glyph-name="uni01D7" unicode="&#x1d7;" horiz-adv-x="747" 
d="M315 849l103 144l117 -21l-96 -101q-12 -12 -32 -17t-58 -5h-34zM257 832q19 0 36 -9.5t27 -26.5t10 -37q0 -31 -21.5 -53t-52 -22t-51.5 21.5t-21 53.5q0 30 21 51.5t52 21.5zM489 832q30 0 52 -21.5t22 -51.5q0 -31 -22 -53t-52 -22t-51 21.5t-21 53.5q0 30 21 51.5
t51 21.5zM373 -17q-142 0 -225.5 69t-83.5 202v386h208v-363q0 -54 27 -82.5t74.5 -28.5t74.5 28.5t27 82.5v363h208v-386q0 -133 -84 -202t-226 -69z" />
    <glyph glyph-name="uni01D8" unicode="&#x1d8;" horiz-adv-x="606" 
d="M359 762q-12 -13 -32.5 -17.5t-57.5 -4.5h-34l103 144l116 -21zM176.5 558q-30.5 0 -51.5 21.5t-21 53.5q0 30 21 51.5t51 21.5t52 -21.5t22 -51.5q0 -31 -21.5 -53t-52 -22zM336 633q0 30 21 51.5t51 21.5q20 0 37 -9.5t27 -26.5t10 -37q0 -31 -21.5 -53t-52 -22
t-51.5 21.5t-21 53.5zM360 474h192v-474h-170l-20 48q-60 -60 -145 -60q-30 0 -58.5 9.5t-53.5 29.5t-40.5 57.5t-15.5 86.5v303h192v-241q0 -45 13.5 -65t44.5 -20q23 0 40 19t21 58v249z" />
    <glyph glyph-name="uni01D9" unicode="&#x1d9;" horiz-adv-x="747" 
d="M444 849h-141l-116 124h86q24 0 35.5 -7t37.5 -32l27 -26l27 26q20 18 27 24t18.5 10.5t28.5 4.5h86zM256.5 684q-30.5 0 -51.5 21.5t-21 53.5q0 20 9.5 36.5t26.5 26.5t36.5 10t36.5 -10t27 -26.5t10 -36.5q0 -32 -21.5 -53.5t-52 -21.5zM489 832q30 0 52 -21.5
t22 -51.5q0 -32 -22 -53.5t-52 -21.5t-51 21.5t-21 53.5q0 15 5.5 28.5t15 23.5t23 15.5t28.5 5.5zM475 640h208v-386q0 -89 -39.5 -151t-108.5 -91t-162 -29q-141 0 -225 69t-84 202v386h208v-363q0 -54 27 -82.5t74.5 -28.5t74.5 28.5t27 82.5v363z" />
    <glyph glyph-name="uni01DA" unicode="&#x1da;" horiz-adv-x="606" 
d="M363 740h-141l-116 123h86q24 0 35.5 -6.5t37.5 -31.5l28 -26l27 26q15 14 20 19t14.5 11t17.5 7t21 1h86zM176.5 558q-30.5 0 -51.5 21.5t-21 53.5q0 30 21 51.5t51 21.5t52 -21.5t22 -51.5q0 -31 -21.5 -53t-52 -22zM408 706q20 0 37 -9.5t27 -26.5t10 -37
q0 -31 -21.5 -53t-52 -22t-51.5 21.5t-21 53.5q0 30 21 51.5t51 21.5zM360 474h192v-474h-170l-20 48q-60 -60 -145 -60q-30 0 -58.5 9.5t-53.5 29.5t-40.5 57.5t-15.5 86.5v303h192v-241q0 -45 13.5 -65t44.5 -20q23 0 40 19t21 58v249z" />
    <glyph glyph-name="uni01DB" unicode="&#x1db;" horiz-adv-x="747" 
d="M430 849h-34q-19 0 -32 1t-24.5 3.5t-19.5 7t-14 10.5l-96 101l117 21zM257 832q19 0 36 -10t27 -26.5t10 -36.5q0 -32 -21.5 -53.5t-52 -21.5t-51.5 21.5t-21 53.5q0 30 21 51.5t52 21.5zM489 832q30 0 52 -21.5t22 -51.5q0 -32 -22 -53.5t-52 -21.5t-51 21.5t-21 53.5
q0 30 21 51.5t51 21.5zM373 -17q-142 0 -225.5 69t-83.5 202v386h208v-363q0 -54 27 -82.5t74.5 -28.5t74.5 28.5t27 82.5v363h208v-386q0 -89 -39.5 -151t-108.5 -91t-162 -29z" />
    <glyph glyph-name="uni01DC" unicode="&#x1dc;" horiz-adv-x="606" 
d="M315 740q-38 0 -58 4.5t-32 17.5l-96 101l117 21l103 -144h-34zM176.5 558q-30.5 0 -51.5 21.5t-21 53.5q0 30 21 51.5t51 21.5t52 -21.5t22 -51.5q0 -31 -21.5 -53t-52 -22zM408.5 558q-30.5 0 -51.5 21.5t-21 53.5q0 30 21 51.5t51 21.5q20 0 37 -9.5t27 -26.5t10 -37
q0 -31 -21.5 -53t-52 -22zM360 474h192v-474h-170l-20 48q-60 -60 -145 -60q-30 0 -58.5 9.5t-53.5 29.5t-40.5 57.5t-15.5 86.5v303h192v-241q0 -45 13.5 -65t44.5 -20q23 0 40 19t21 58v249z" />
    <glyph glyph-name="uni01DD" unicode="&#x1dd;" horiz-adv-x="572" 
d="M257 491q137 0 216.5 -69t79.5 -183q0 -74 -35 -131t-96.5 -88.5t-139.5 -31.5q-117 0 -190 70t-73 195v38h332q-18 68 -88 68q-42 0 -80 -32l-125 102q78 62 199 62zM282 119q60 0 72 75h-147q4 -34 22 -54.5t53 -20.5z" />
    <glyph glyph-name="uni01DE" unicode="&#x1de;" horiz-adv-x="697" 
d="M521 960v-81h-346v81h346zM231.5 684q-30.5 0 -51.5 21.5t-21 53.5q0 30 21 51.5t51 21.5q20 0 37 -9.5t27 -26.5t10 -37q0 -31 -21.5 -53t-52 -22zM463.5 832q30.5 0 52 -21.5t21.5 -51.5q0 -31 -21.5 -53t-52 -22t-51.5 21.5t-21 53.5q0 30 21 51.5t51.5 21.5zM484 0
l-27 88h-217l-27 -88h-224l252 640h215l252 -640h-224zM284 230h129l-65 208z" />
    <glyph glyph-name="uni01DF" unicode="&#x1df;" horiz-adv-x="570" 
d="M457 851v-81h-346v81h346zM167.5 558q-30.5 0 -51.5 21.5t-21 53.5q0 30 21 51.5t51.5 21.5t52 -21.5t21.5 -51.5q0 -31 -21.5 -53t-52 -22zM400 706q20 0 37 -9.5t26.5 -26.5t9.5 -37q0 -31 -21.5 -53t-52 -22t-51.5 21.5t-21 53.5q0 30 21 51.5t52 21.5zM271 486
q55 0 98.5 -11.5t78.5 -37t54 -71t19 -107.5v-259h-171l-21 53q-50 -65 -149 -65q-70 0 -115.5 38.5t-45.5 103.5q0 86 80 127.5t210 9.5l21 -5v14q0 36 -25 56t-63 20q-51 0 -98 -34l-72 111q84 57 199 57zM329 172v13l-3 1q-50 13 -80 -1.5t-30 -42.5q0 -20 13.5 -30.5
t35.5 -10.5q29 0 46.5 19t17.5 52z" />
    <glyph glyph-name="Gcaron" unicode="&#x1e6;" horiz-adv-x="724" 
d="M466 690h-141l-116 123h86q24 0 35.5 -6.5t37.5 -31.5l28 -26l26 25q20 19 27 25t18.5 10t28.5 4h86zM376 377h309v-323q-4 -3 -12 -8t-35.5 -17t-58.5 -21.5t-81 -17t-102 -7.5q-71 0 -130 19t-100.5 51t-70.5 75t-42.5 91t-13.5 99q0 67 23 127.5t67 108.5t114.5 76.5
t158.5 28.5q51 0 92.5 -7.5t75.5 -20.5t69 -35l-91 -158q-63 43 -136 42q-28 0 -54.5 -8.5t-51.5 -26.5t-40 -51t-15 -76q0 -50 19.5 -86.5t53.5 -55.5t79 -20q46 -2 90 13v75h-117v133z" />
    <glyph glyph-name="gcaron" unicode="&#x1e7;" horiz-adv-x="569" 
d="M347 556h-142l-116 123h87q24 0 35.5 -6.5t37.5 -31.5l27 -26l27 25q19 19 26.5 25t18.5 10t28 4h87zM296 87q254 0 254 -139q0 -77 -66 -117.5t-185 -40.5q-280 0 -280 131q0 67 64 105q-44 37 -44 82q0 62 60 94q-43 47 -43 107q0 74 62 125.5t157 51.5q48 0 90 -14
q32 41 85.5 52.5t99.5 1.5l-25 -112q-16 7 -35 5t-30 -13q34 -44 34 -97q0 -75 -62 -126.5t-157 -51.5q-38 0 -72 10q-17 -7 -17 -19q0 -21 20.5 -28t89.5 -7zM275 361q-25 0 -40 -15t-15 -37t15.5 -37.5t39.5 -15.5t40 15.5t16 37.5q0 14 -7 26t-20 19t-29 7zM292 -104
q66 0 66 36q0 15 -12 23t-33 10.5t-58 2.5q-12 0 -25 1q-19 -18 -19 -36q0 -37 81 -37z" />
    <glyph glyph-name="uni01EA" unicode="&#x1ea;" horiz-adv-x="805" 
d="M495 -7q-69 -33 -83 -76q-11 -33 19 -43q23 -7 61 8l29 -72q-69 -33 -128.5 -21t-77.5 60q-27 74 52 136q-148 11 -238 106.5t-90 230.5q0 69 26 130.5t72.5 107.5t115.5 72.5t150 26.5t149.5 -26.5t115 -72t72.5 -107.5t26 -131q0 -121 -73 -211.5t-198 -117.5zM251 322
q0 -40 17.5 -75t53 -58t81.5 -23q67 0 109 47t42 109t-41.5 108t-109.5 46q-35 0 -64 -13t-48 -34.5t-29.5 -49.5t-10.5 -57z" />
    <glyph glyph-name="uni01EB" unicode="&#x1eb;" 
d="M361 -11q-57 -36 -58 -73q-1 -27 30 -31q22 -3 53 9l29 -72q-69 -33 -128.5 -21t-77.5 60q-25 68 39 125q-104 13 -166.5 80.5t-62.5 168.5q0 112 76.5 181.5t198.5 69.5q80 0 142.5 -31t97.5 -88.5t35 -131.5q0 -96 -56.5 -161.5t-151.5 -84.5zM215 235q0 -28 10.5 -49
t28 -32t40.5 -11q34 0 57 25t23 67q0 17 -4 31.5t-11.5 25.5t-17.5 18.5t-22 11.5t-25 4q-35 0 -57 -24.5t-22 -66.5z" />
    <glyph glyph-name="Aringacute" unicode="&#x1fa;" horiz-adv-x="697" 
d="M414 852q-12 -13 -32 -17.5t-58 -4.5h-34l103 144l117 -21zM348 543q-62 0 -100 37.5t-38 93t38 93.5t100 38t101 -38t39 -93t-39 -93t-101 -38zM348.5 730q-25.5 0 -40.5 -16t-15 -40t15 -40t40 -16q17 0 30 7.5t19.5 20t6.5 28.5q0 24 -15 40t-40.5 16zM484 0l-27 73
h-217l-27 -73h-224l252 527h215l252 -527h-224zM284 189h129l-65 172z" />
    <glyph glyph-name="aringacute" unicode="&#x1fb;" horiz-adv-x="570" 
d="M350 838q-12 -13 -32.5 -17.5t-57.5 -4.5h-34l103 144l116 -21zM284 529q-62 0 -100.5 37.5t-38.5 93t38.5 93.5t100.5 38t100.5 -38t38.5 -93.5t-38.5 -93t-100.5 -37.5zM284 715q-17 0 -30 -7.5t-19 -20t-6 -27.5q0 -24 14.5 -40t40.5 -16q17 0 30 7.5t19.5 20
t6.5 28.5q0 23 -15.5 39t-40.5 16zM271 486q55 0 98.5 -11.5t78.5 -37t54 -71t19 -107.5v-259h-171l-21 53q-50 -65 -149 -65q-70 0 -115.5 38.5t-45.5 103.5q0 86 80 127.5t210 9.5l21 -5v14q0 36 -25 56t-63 20q-51 0 -98 -34l-72 111q84 57 199 57zM329 172v13l-3 1
q-50 13 -80 -1.5t-30 -42.5q0 -20 13.5 -30.5t35.5 -10.5q29 0 46.5 19t17.5 52z" />
    <glyph glyph-name="AEacute" unicode="&#x1fc;" horiz-adv-x="840" 
d="M519 727q-20 -21 -41.5 -31.5t-38 -13t-45.5 -2.5h-47l142 176l137 -21zM801 477h-307l25 -90h232v-134h-196l24 -88h222v-165h-357l-21 82h-194l-24 -82h-216l254 643h558v-166zM269 222h119l-55 221z" />
    <glyph glyph-name="aeacute" unicode="&#x1fd;" horiz-adv-x="881" 
d="M521 601q-30 -30 -56 -38.5t-69 -8.5h-47l142 177l137 -22zM867 221v-38h-332q18 -67 88 -67q42 0 80 31l125 -101q-78 -63 -199 -63q-144 0 -225 77q-73 -72 -183 -72q-86 0 -141.5 38t-55.5 104q0 46 21.5 79.5t55 50t75.5 23.5t81.5 4.5t73.5 -11.5l4 -3v12
q0 19 -7.5 32.5t-26.5 23t-49 9.5q-18 1 -35.5 -2.5t-29 -8t-20.5 -9.5t-13 -8l-5 -3l-72 111q84 56 199 56q85 0 157 -51q71 51 171 51q117 0 190 -69.5t73 -195.5zM604 355q-60 0 -72 -74h147q-4 33 -22 53.5t-53 20.5zM334 186v15h-25q-51 0 -70 -13.5t-19 -37.5
q0 -20 13.5 -30t33.5 -10q29 0 48 21.5t19 54.5z" />
    <glyph glyph-name="Oslashacute" unicode="&#x1fe;" horiz-adv-x="805" 
d="M466 737q-21 -21 -42 -31.5t-37.5 -13t-45.5 -2.5h-47l142 176l137 -21zM669 558q97 -95 97 -236q0 -70 -26 -132t-72.5 -107.5t-115 -72.5t-149.5 -27q-116 0 -205 53l-82 -91l-60 53l79 87q-96 95 -96 237q0 69 26 130.5t72.5 107.5t115.5 72.5t150 26.5q115 0 203 -52
l84 92l59 -53zM251 322q0 -45 23 -83l199 220q-32 17 -70 17q-28 0 -52.5 -8.5t-42.5 -23.5t-31 -34.5t-19.5 -42t-6.5 -45.5zM403 166q45 0 80.5 23t53 58t17.5 75q0 45 -23 83l-200 -222q32 -17 72 -17z" />
    <glyph glyph-name="oslashacute" unicode="&#x1ff;" 
d="M361 600q-29 -30 -55.5 -38t-69.5 -8h-47l142 176l137 -21zM502 407q67 -68 67 -172q0 -113 -77 -182.5t-198 -69.5q-81 0 -145 33l-57 -63l-57 52l51 57q-67 69 -67 173q0 112 76.5 181.5t198.5 69.5q81 0 145 -33l57 63l58 -52zM182 235q0 -31 10 -56l154 171
q-24 13 -53 13q-48 0 -79.5 -35t-31.5 -93zM293 106q32 0 57.5 15.5t41 45t15.5 68.5q0 30 -10 56l-155 -172q23 -13 51 -13z" />
    <glyph glyph-name="Scommaaccent" unicode="&#x218;" horiz-adv-x="671" 
d="M336 -17q-186 0 -317 91l115 141q90 -69 198 -69q36 0 56 12.5t20 34.5t-37.5 36.5t-119.5 34.5q-90 20 -138 66t-48 112q0 69 39.5 120t100.5 74.5t135 23.5q158 0 278 -79l-111 -135q-74 49 -148 49q-32 0 -52 -11t-20 -30q0 -18 28.5 -29.5t110.5 -34.5q12 -4 19 -5
q187 -52 187 -187q0 -103 -80.5 -159t-215.5 -56zM280 -292l-19 52q40 17 50 51q-29 0 -46 22t-13 52q5 31 28.5 47.5t54.5 11.5q37 -6 54 -33.5t11 -65.5q-7 -47 -41 -84t-79 -53z" />
    <glyph glyph-name="scommaaccent" unicode="&#x219;" horiz-adv-x="498" 
d="M14 47l91 117q59 -47 119 -47q14 0 24.5 3.5t15.5 10.5t5 16q0 13 -16.5 21.5t-40.5 13t-53 13.5t-53.5 21.5t-40.5 39t-16 64.5q0 74 60 120t168 46q62 0 115.5 -16t81.5 -38l-93 -116q-46 35 -90 36q-42 0 -42 -29q0 -15 17 -25.5t42.5 -15.5t55.5 -15t55.5 -22.5
t42.5 -39t17 -63.5q0 -69 -56.5 -114t-163.5 -45q-155 0 -245 64zM205 -295l-19 52q40 16 51 50q-30 1 -47 23t-13 52q5 30 28.5 46.5t54.5 11.5q37 -6 54.5 -33.5t10.5 -65.5q-4 -31 -22 -59t-43.5 -47.5t-54.5 -29.5z" />
    <glyph glyph-name="uni021A" unicode="&#x21a;" horiz-adv-x="540" 
d="M541 640v-170h-167v-470h-208v470h-167v170h542zM269 -56q36 -6 53.5 -33.5t11.5 -65.5q-8 -47 -42 -84t-78 -53l-20 52q40 17 51 51q-30 0 -47 22t-12 52q5 31 28.5 47.5t54.5 11.5z" />
    <glyph glyph-name="uni021B" unicode="&#x21b;" horiz-adv-x="407" 
d="M286 -13h-1q-28 0 -53.5 5t-52 19t-45 36t-31 59.5t-12.5 86.5v142h-61v139h61v140h192v-140h98v-139h-98v-105q0 -84 64 -84q8 0 17 1t13 3l4 1l17 -149q-57 -15 -112 -15zM225 -66q36 -6 53.5 -33.5t11.5 -65.5q-5 -31 -23 -59t-43.5 -47.5t-53.5 -29.5l-20 51
q40 17 51 51q-30 0 -47 22.5t-12 51.5q5 31 28.5 47.5t54.5 11.5z" />
    <glyph glyph-name="uni0228" unicode="&#x228;" horiz-adv-x="607" 
d="M568 475h-291v-88h241v-134h-241v-88h291v-165h-197l-38 -35q1 0 4.5 1t15 2t25.5 -3q26 -5 49 -25.5t22 -55.5q-1 -25 -16 -44t-38.5 -29t-52.5 -13q-25 -1 -47.5 0t-40 4.5t-30.5 7t-19 6.5l-7 3l31 62q5 -3 13.5 -6t30 -8t37.5 -4q32 2 31 27q0 16 -26 20t-43 -7
l-44 34l50 63h-209v640h499v-165z" />
    <glyph glyph-name="uni0229" unicode="&#x229;" horiz-adv-x="572" 
d="M553 221v-38h-332q18 -67 87 -67q43 0 81 31l124 -102q-38 -30 -83.5 -45.5t-108.5 -16.5l-24 -22q1 1 4.5 1.5t15 1.5t25.5 -2q26 -6 49 -26.5t22 -55.5q-1 -25 -16 -43.5t-38.5 -29t-52.5 -12.5q-38 -3 -74 2t-53 12l-17 6l31 62q5 -2 13.5 -5.5t29.5 -8t38 -4.5
q32 2 31 28q0 16 -26 20t-43 -7l-44 33l45 57q-102 18 -160 83.5t-58 161.5q0 112 76 181.5t195 69.5q116 0 189.5 -69.5t73.5 -195.5zM290 355q-60 0 -72 -75h146q-3 34 -21.5 54.5t-52.5 20.5z" />
    <glyph glyph-name="uni022A" unicode="&#x22a;" horiz-adv-x="805" 
d="M230 879v81h346v-81h-346zM286 832q20 0 37 -9.5t27 -26.5t10 -37q0 -31 -22 -53t-52 -22t-51 21.5t-21 53.5q0 20 9.5 36.5t26 26.5t36.5 10zM518 832q31 0 52.5 -21.5t21.5 -51.5q0 -31 -21.5 -53t-52 -22t-51.5 21.5t-21 53.5q0 15 5.5 28.5t15 23.5t23 15.5t28.5 5.5
zM403 -17q-81 0 -150 27t-115.5 72.5t-72.5 107.5t-26 132q0 69 26 130.5t72.5 107.5t115.5 72.5t150 26.5t149.5 -26.5t115 -72t72.5 -107.5t26 -131q0 -70 -26 -132t-72.5 -107.5t-115 -72.5t-149.5 -27zM403 166q67 0 109 47t42 109t-41.5 108t-109.5 46
q-28 0 -52.5 -8.5t-42.5 -23.5t-31 -34.5t-19.5 -42t-6.5 -45.5q0 -40 17.5 -75t53 -58t81.5 -23z" />
    <glyph glyph-name="uni022B" unicode="&#x22b;" 
d="M121 769v81h346v-81h-346zM178 706q30 0 52 -21.5t22 -52.5t-22 -53t-52.5 -22t-51.5 22t-21 53t21.5 52.5t51.5 21.5zM410 706q30 0 52 -21.5t22 -52.5t-21.5 -53t-52 -22t-51.5 22t-21 53t21 52.5t51 21.5zM294 -17q-122 0 -198.5 69.5t-76.5 182t76.5 182t198.5 69.5
q80 0 142.5 -31t97.5 -88.5t35 -132t-35 -131.5t-97.5 -88.5t-142.5 -31.5zM294 143q34 0 57 25t23 67t-23 66.5t-57 24.5q-35 0 -57 -24.5t-22 -66.5t22 -67t57 -25z" />
    <glyph glyph-name="uni0232" unicode="&#x232;" horiz-adv-x="629" 
d="M487 800v-81h-345v81h345zM650 640l-232 -359v-281h-208v285l-231 355h233l102 -172l105 172h231z" />
    <glyph glyph-name="uni0233" unicode="&#x233;" horiz-adv-x="563" 
d="M453 665v-81h-346v81h346zM376 474h202l-233 -543q-35 -80 -81.5 -110.5t-108.5 -30.5q-21 0 -42.5 3.5t-32.5 6.5l-11 4l27 160q25 -14 47 -14q36 0 50 38l3 6l-212 480h203l96 -247z" />
    <glyph glyph-name="uni0237" unicode="&#x237;" horiz-adv-x="315" 
d="M264 474v-437q0 -52 -10.5 -93t-29.5 -67t-41 -44t-48.5 -26.5t-48 -12t-44.5 -3.5q-13 0 -26.5 1t-19.5 2l-6 1l11 157q6 -1 14 -1q22 0 39.5 14t17.5 52v457h192z" />
    <glyph glyph-name="uni0243" unicode="&#x243;" horiz-adv-x="723" 
d="M532 346q71 -11 111.5 -54.5t40.5 -108.5q0 -83 -64 -133t-170 -50h-381v173h-15v66h15v401h349q62 0 107.5 -19t69.5 -55t24 -84q0 -31 -10 -57.5t-29.5 -46.5t-47.5 -32zM435 448.5q0 55.5 -72 55.5h-86v-111h83q75 0 75 55.5zM391 136q38 0 59.5 19t21.5 52t-23 51.5
t-61 18.5h-111v-38h124v-66h-124v-37h114z" />
    <glyph glyph-name="uni0244" unicode="&#x244;" horiz-adv-x="747" 
d="M475 640h208v-386q0 -133 -84 -202t-225.5 -69t-225.5 69t-84 202v386h208v-84h203v84zM373.5 166q47.5 0 74.5 28.5t27 82.5v184h-203v-184q0 -54 27 -82.5t74.5 -28.5z" />
    <glyph glyph-name="uni0245" unicode="&#x245;" horiz-adv-x="697" 
d="M708 0h-227l-132 386l-133 -386h-227l269 640h180z" />
    <glyph glyph-name="uni024C" unicode="&#x24c;" horiz-adv-x="732" 
d="M612 197q11 -18 42 -90t59 -107h-242q-6 12 -28.5 79t-37.5 92q-18 30 -46 45.5t-82 18.5v-235h-208v250h-55v90h55v300h348q33 0 65 -5t65.5 -18.5t58.5 -34.5t40.5 -55.5t15.5 -78.5q0 -66 -43.5 -109t-114.5 -66q77 -25 108 -76zM370 489h-93v-131h89q41 0 62.5 18
t21.5 49q0 19 -8.5 33.5t-26.5 22.5t-45 8z" />
    <glyph glyph-name="uni0250" unicode="&#x250;" horiz-adv-x="570" 
d="M261 267q130 32 210 -9.5t80 -127.5q0 -43 -21.5 -75.5t-57.5 -49.5t-82 -17q-99 0 -149 65l-21 -53h-171v259q0 62 19 107.5t54 71t78.5 37t98.5 11.5q115 0 199 -57l-72 -111q-47 34 -98 34q-25 0 -44.5 -8.5t-31.5 -26t-12 -41.5v-14zM305 102q22 0 35.5 10t13.5 30
q0 28 -30 42.5t-80 1.5h-3v-14q0 -22 8 -38t22.5 -24t33.5 -8z" />
    <glyph glyph-name="uni0251" unicode="&#x251;" horiz-adv-x="572" 
d="M360 474h157v-474h-158l-15 40q-51 -57 -129 -57q-86 0 -141 67.5t-55 184t55 184t141 67.5q77 0 128 -56zM268 143q30 0 51.5 25t21.5 66.5t-21.5 66.5t-51.5 25q-31 0 -51.5 -25t-20.5 -66q0 -28 10 -49t26 -32t36 -11z" />
    <glyph glyph-name="uni0252" unicode="&#x252;" horiz-adv-x="572" 
d="M357 486q56 0 99.5 -29t69.5 -86.5t26 -135.5q0 -117 -55 -184.5t-140 -67.5q-78 0 -129 57l-16 -40h-158v474h157l18 -44q50 56 128 56zM304 143q30 0 51 25t21 66.5t-21 66.5t-51 25q-20 0 -36.5 -10.5t-26.5 -32t-10 -49t10 -48.5t26.5 -32t36.5 -11z" />
    <glyph glyph-name="uni0258" unicode="&#x258;" horiz-adv-x="572" 
d="M282 486q119 0 195 -69.5t76 -181.5q0 -114 -79.5 -183t-216.5 -69q-121 0 -199 62l125 102q38 -31 80 -31q70 0 88 67h-332v38q0 126 73 195.5t190 69.5zM282 355q-35 0 -53 -20.5t-22 -54.5h147q-12 75 -72 75z" />
    <glyph glyph-name="uni0259" unicode="&#x259;" horiz-adv-x="572" 
d="M257 491q137 0 216.5 -69t79.5 -183q0 -74 -35 -131t-96.5 -88.5t-139.5 -31.5q-117 0 -190 70t-73 195v38h332q-18 68 -88 68q-42 0 -80 -32l-125 102q78 62 199 62zM282 119q60 0 72 75h-147q4 -34 22 -54.5t53 -20.5z" />
    <glyph glyph-name="uni0265" unicode="&#x265;" horiz-adv-x="602" 
d="M356 474h192v-680h-192v253q-59 -59 -144 -59q-30 0 -58 9.5t-53.5 29.5t-41 57.5t-15.5 86.5v303h192v-241q0 -45 13.5 -65t44.5 -20q27 0 44.5 24.5t17.5 74.5v227z" />
    <glyph glyph-name="uni0268" unicode="&#x268;" horiz-adv-x="299" 
d="M149 552q-33 0 -56.5 22t-23.5 53.5t23.5 54t56.5 22.5q22 0 40.5 -10t29 -28t10.5 -38q0 -32 -23.5 -54t-56.5 -22zM323 360v-66h-78v-294h-191v294h-78v66h78v114h191v-114h78z" />
    <glyph glyph-name="uni026F" unicode="&#x26f;" horiz-adv-x="868" 
d="M623 474h191v-474h-169l-20 54q-41 -66 -124 -66q-86 0 -128 56q-19 -15 -34 -25.5t-46.5 -20.5t-67.5 -10q-50 0 -85.5 15.5t-54.5 44t-27.5 64t-8.5 81.5v281h192v-255q0 -71 45 -71q28 0 39 23t11 69v234h192v-255q0 -71 44 -71q24 0 36 16.5t15 50.5v259z" />
    <glyph glyph-name="uni0272" unicode="&#x272;" horiz-adv-x="606" 
d="M389 486q30 0 58 -9.5t53.5 -29.5t41 -57t15.5 -87v-303h-192v241q0 30 -6 49t-18.5 27.5t-33.5 8.5q-24 0 -40.5 -19t-20.5 -58v-286q0 -80 -35.5 -132t-91 -71t-124.5 -9v163q59 -10 59 59v501h170l20 -48q60 60 145 60z" />
    <glyph glyph-name="uni0275" unicode="&#x275;" 
d="M294 486q121 0 198 -69.5t77 -182t-77 -182t-198 -69.5q-122 0 -198.5 69.5t-76.5 182t76.5 182t198.5 69.5zM293 363q-37 0 -65 -21.5t-39 -59.5h211q-12 38 -40.5 59.5t-66.5 21.5zM293 106q38 0 66.5 21.5t40.5 59.5h-211q6 -19 16 -34t23.5 -25.5t30 -16t34.5 -5.5z
" />
    <glyph glyph-name="uni0279" unicode="&#x279;" horiz-adv-x="479" 
d="M233 474h192v-474h-170l-22 59q-16 -20 -28 -32.5t-37 -25.5t-54 -13q-22 0 -43.5 5t-31.5 10l-10 5l51 149q20 -12 48 -12q49 0 77 37t28 97v195z" />
    <glyph glyph-name="uni0289" unicode="&#x289;" horiz-adv-x="606" 
d="M360 474h192v-474h-170l-20 48q-60 -60 -145 -60q-30 0 -58.5 9.5t-53.5 29.5t-40.5 57.5t-15.5 86.5v303h192v-125h119v125zM299 148q23 0 40 19t21 58v28h-119v-20q0 -45 13.5 -65t44.5 -20z" />
    <glyph glyph-name="uni028C" unicode="&#x28c;" horiz-adv-x="547" 
d="M563 0h-203l-87 250l-86 -250h-203l210 474h158z" />
    <glyph glyph-name="uni028D" unicode="&#x28d;" horiz-adv-x="817" 
d="M813 0h-207l-57 229l-65 -229h-150l-65 229l-57 -229h-208l172 474h163l70 -249l69 249h163z" />
    <glyph glyph-name="uni028E" unicode="&#x28e;" horiz-adv-x="573" 
d="M583 0h-202l-96 247l-94 -247h-202l234 543q18 42 39.5 70.5t46.5 43.5t49.5 21t54.5 6q21 0 42.5 -3.5t32.5 -6.5l11 -4l-27 -160q-26 14 -48 14q-35 0 -50 -38l-2 -6z" />
    <glyph glyph-name="circumflex" unicode="&#x2c6;" horiz-adv-x="461" 
d="M301 641l116 -124h-86q-10 0 -18 1.5t-13 3t-13 8t-12 10t-17 15.5l-27 27l-27 -26q-20 -19 -27 -24.5t-18.5 -10t-28.5 -4.5h-86l116 124h141z" />
    <glyph glyph-name="caron" unicode="&#x2c7;" horiz-adv-x="461" 
d="M331 648h86l-116 -123h-141l-116 123h86q24 0 35.5 -6.5t37.5 -31.5l28 -26l27 26q19 18 26 24t18.5 10t28.5 4z" />
    <glyph glyph-name="uni02C9" unicode="&#x2c9;" horiz-adv-x="394" 
d="M0 523v92h394v-92h-394z" />
    <glyph glyph-name="breve" unicode="&#x2d8;" horiz-adv-x="430" 
d="M215.5 509q-82.5 0 -126.5 32.5t-45 91.5h85q7 -48 86.5 -48t85.5 48h85q-1 -59 -44.5 -91.5t-126 -32.5z" />
    <glyph glyph-name="dotaccent" unicode="&#x2d9;" horiz-adv-x="251" 
d="M125 518q-22 0 -40.5 10t-29 27.5t-10.5 38.5q0 32 23.5 54t56.5 22q16 0 31 -6t25.5 -16t17 -24t6.5 -30q0 -21 -11 -38.5t-29 -27.5t-40 -10z" />
    <glyph glyph-name="ring" unicode="&#x2da;" horiz-adv-x="366" 
d="M182.5 738q61.5 0 100.5 -37.5t39 -93t-39 -93.5t-100.5 -38t-100 38t-38.5 93.5t38.5 93t100 37.5zM182.5 552q25.5 0 41 15.5t15.5 39.5q0 12 -4 22t-11 17.5t-18 12t-24 4.5q-17 0 -29.5 -7.5t-19 -20t-6.5 -28.5q0 -24 15 -39.5t40.5 -15.5z" />
    <glyph glyph-name="ogonek" unicode="&#x2db;" horiz-adv-x="301" 
d="M252 -190q-69 -33 -128.5 -21t-77.5 60q-35 96 104 169l92 -18l-15 -7q-70 -33 -84 -76q-11 -33 19 -43q23 -7 61 8z" />
    <glyph glyph-name="tilde" unicode="&#x2dc;" horiz-adv-x="458" 
d="M299 554q-29 0 -70 23t-60 23q-35 0 -59 -41l-66 43q6 9 10 14.5t11.5 14.5t13.5 14.5t15.5 12.5t18.5 11t21 7t24 3q32 0 73 -24t59 -24q34 0 58 45l66 -44q-21 -38 -46 -58t-69 -20z" />
    <glyph glyph-name="hungarumlaut" unicode="&#x2dd;" horiz-adv-x="574" 
d="M216 556q-30 -30 -56 -38t-69 -8h-47l142 176l137 -21zM423 556q-21 -21 -42 -31.5t-37.5 -12.5t-45.5 -2h-47l142 176l137 -21z" />
    <glyph glyph-name="gravecomb" unicode="&#x300;" horiz-adv-x="0" 
d="M-239 556l-107 109l137 21l142 -176h-47q-43 0 -69 8t-56 38z" />
    <glyph glyph-name="acutecomb" unicode="&#x301;" horiz-adv-x="0" 
d="M-173 556q-30 -30 -56.5 -38t-68.5 -8h-48l142 176l137 -21z" />
    <glyph glyph-name="uni0302" unicode="&#x302;" horiz-adv-x="0" 
d="M-183 641l116 -124h-86q-24 0 -35.5 7t-37.5 31l-28 27l-27 -26q-19 -19 -26 -24.5t-18.5 -10t-28.5 -4.5h-86l116 124h141z" />
    <glyph glyph-name="tildecomb" unicode="&#x303;" horiz-adv-x="0" 
d="M-184 527q-29 0 -69.5 23t-60.5 23q-34 0 -58 -40l-67 43q12 16 19.5 25.5t22.5 23t33 20.5t40 7q31 0 72.5 -23.5t58.5 -23.5q34 0 58 44l66 -44q-21 -38 -46 -58t-69 -20z" />
    <glyph glyph-name="uni0304" unicode="&#x304;" horiz-adv-x="0" 
d="M-413 534v81h346v-81h-346z" />
    <glyph glyph-name="uni0306" unicode="&#x306;" horiz-adv-x="0" 
d="M-240.5 509q-82.5 0 -126 32.5t-45.5 91.5h85q7 -48 86.5 -48t86.5 48h85q-1 -59 -45 -91.5t-126.5 -32.5z" />
    <glyph glyph-name="uni0307" unicode="&#x307;" horiz-adv-x="0" 
d="M-151 518q-22 0 -40.5 10t-29 27.5t-10.5 38.5t10.5 38.5t29 27.5t40.5 10q16 0 31 -6t25.5 -16t17 -24t6.5 -30q0 -31 -23.5 -53.5t-56.5 -22.5z" />
    <glyph glyph-name="uni0308" unicode="&#x308;" horiz-adv-x="0" 
d="M-373 661q20 0 37 -9.5t27 -26.5t10 -37q0 -31 -21.5 -53t-52 -22t-51.5 21.5t-21 53.5q0 30 21 51.5t51 21.5zM-140.5 661q30.5 0 52 -21.5t21.5 -51.5q0 -31 -21.5 -53t-52 -22t-51.5 21.5t-21 53.5q0 30 21 51.5t51.5 21.5z" />
    <glyph glyph-name="uni030A" unicode="&#x30a;" horiz-adv-x="0" 
d="M-104 738q62 0 100.5 -37.5t38.5 -93t-38.5 -93.5t-100.5 -38t-100.5 38t-38.5 93q0 36 17 66t49 47.5t73 17.5zM-104 552q17 0 30 7.5t19.5 20t6.5 27.5q0 24 -15.5 40t-41 16t-40 -16t-14.5 -40t14.5 -39.5t40.5 -15.5z" />
    <glyph glyph-name="uni030B" unicode="&#x30b;" horiz-adv-x="0" 
d="M-387 556q-30 -30 -56 -38t-69 -8h-47l142 176l137 -21zM-180 556q-30 -30 -56 -38t-69 -8h-47l142 176l137 -21z" />
    <glyph glyph-name="uni030C" unicode="&#x30c;" horiz-adv-x="0" 
d="M-156 648h87l-116 -123h-141l-117 123h87q24 0 35.5 -6.5t37.5 -31.5l27 -26l27 26q13 12 17 15.5t12.5 10.5t13 8t12.5 2.5t18 1.5z" />
    <glyph glyph-name="uni0312" unicode="&#x312;" horiz-adv-x="0" 
d="M-94 720l19 -52q-39 -17 -50 -51q29 0 46.5 -22t12.5 -52q-5 -31 -28.5 -47.5t-54.5 -11.5q-37 6 -54 33.5t-11 65.5q7 47 41.5 84t78.5 53z" />
    <glyph glyph-name="dotbelowcomb" unicode="&#x323;" horiz-adv-x="0" 
d="M-149 -210q-33 0 -56.5 22t-23.5 54q0 15 6 29.5t17 24.5t26 16t31 6q33 0 56.5 -22.5t23.5 -54t-23.5 -53.5t-56.5 -22z" />
    <glyph glyph-name="uni0326" unicode="&#x326;" horiz-adv-x="0" 
d="M-189 -292l-19 52q39 17 50 51q-29 0 -46.5 22t-12.5 52q5 31 28.5 47.5t54.5 11.5q37 -6 54 -33.5t11 -65.5q-7 -47 -41.5 -84t-78.5 -53z" />
    <glyph glyph-name="uni0327" unicode="&#x327;" horiz-adv-x="0" 
d="M-140 -35q26 -5 49 -25.5t22 -55.5q-1 -25 -16 -44t-38.5 -29t-52.5 -13q-38 -3 -74 2.5t-53 11.5l-17 7l31 62q5 -3 13.5 -6t30 -8t37.5 -4q32 2 31 27q0 16 -26 20t-43 -7l-44 34l68 85l76 -14v-7l-39 -36q1 0 4.5 1t15 2t25.5 -3z" />
    <glyph glyph-name="uni0328" unicode="&#x328;" horiz-adv-x="0" 
d="M-69 -190q-69 -33 -128.5 -21t-77.5 60q-36 96 104 169l92 -18l-16 -7q-69 -33 -84 -76q-10 -33 20 -43q23 -7 61 8z" />
    <glyph glyph-name="uni0331" unicode="&#x331;" horiz-adv-x="0" 
d="M-413 -153v81h346v-81h-346z" />
    <glyph glyph-name="uni0335" unicode="&#x335;" horiz-adv-x="0" 
d="M-416 261v66h347v-66h-347z" />
    <glyph glyph-name="uni0336" unicode="&#x336;" horiz-adv-x="0" 
d="M-583 246v96h466v-96h-466z" />
    <glyph glyph-name="uni0337" unicode="&#x337;" horiz-adv-x="0" 
d="M-400 311l331 257v-135l-331 -256v134z" />
    <glyph glyph-name="uni0338" unicode="&#x338;" horiz-adv-x="0" 
d="M-19 710l59 -53l-633 -701l-59 52z" />
    <glyph glyph-name="uni0394" unicode="&#x394;" horiz-adv-x="627" 
d="M414 640l224 -522v-118h-649v118l224 522h201zM313 476l-123 -340h247z" />
    <glyph glyph-name="uni03A9" unicode="&#x3a9;" horiz-adv-x="838" 
d="M769 367q0 -36 -10 -70t-28.5 -63.5t-46 -54t-62.5 -43.5l138 7v-143h-302v184v30q35 6 61.5 29.5t40 55.5t13.5 67q0 57 -42 99t-111.5 42t-112 -42t-42.5 -99q0 -35 13.5 -67t40 -55.5t61.5 -29.5v-30v-184h-302v143l138 -7q-70 37 -108.5 98t-38.5 133q0 127 97 213.5
t253 86.5t253 -86.5t97 -213.5z" />
    <glyph glyph-name="uni03BC" unicode="&#x3bc;" horiz-adv-x="611" 
d="M365 474h192v-474h-170l-20 48q-60 -60 -147 -60h-1l-15 -178h-150v664h192v-241q0 -45 13.5 -65t44.5 -20q15 0 27.5 7.5t21.5 25.5t12 44v249z" />
    <glyph glyph-name="pi" unicode="&#x3c0;" horiz-adv-x="769" 
d="M703 152l17 -150q-57 -15 -113 -15q-28 0 -53.5 5t-52 19t-45.5 36t-31 59.5t-12 86.5v142h-91v-335h-191v335h-77v139h649v-139h-98v-105q0 -44 17.5 -63.5t40.5 -19.5q5 0 10.5 0.5t9.5 1t7 1t5.5 1t4.5 1t2.5 0.5h0.5z" />
    <glyph glyph-name="uni1E04" unicode="&#x1e04;" horiz-adv-x="723" 
d="M532 346q71 -11 111.5 -54.5t40.5 -108.5q0 -83 -64 -133t-170 -50h-381v640h349q62 0 107.5 -19t69.5 -55t24 -84q0 -31 -10 -57.5t-29.5 -46.5t-47.5 -32zM435 448.5q0 55.5 -72 55.5h-86v-111h83q75 0 75 55.5zM391 136q38 0 59.5 19t21.5 52t-23 51.5t-61 18.5h-111
v-141h114zM366 -58q34 0 57 -22.5t23 -54t-23 -53.5t-56.5 -22t-57 22t-23.5 54q0 21 11 38.5t29.5 27.5t39.5 10z" />
    <glyph glyph-name="uni1E05" unicode="&#x1e05;" horiz-adv-x="602" 
d="M371 486q95 0 156 -67.5t61 -184t-61 -184t-156 -67.5q-87 0 -143 57l-15 -40h-159v680h192v-235q52 41 125 41zM312 143q22 0 40 11t29 32t11 49q0 41 -23 66t-57 25q-17 0 -31.5 -6.5t-25.5 -18t-17.5 -29t-6.5 -37.5q0 -42 23.5 -67t57.5 -25zM251 -58
q33 0 56.5 -22.5t23.5 -53.5q0 -11 -2.5 -20.5t-8 -18t-13 -15.5t-16 -12t-19 -7.5t-21.5 -2.5q-22 0 -40 10t-29 27.5t-11 38.5q0 15 6.5 29.5t17 24.5t25.5 16t31 6z" />
    <glyph glyph-name="uni1E0C" unicode="&#x1e0c;" horiz-adv-x="725" 
d="M340 640q154 0 249.5 -89t95.5 -231t-95.5 -231t-249.5 -89h-271v640h271zM326 175q60 0 103.5 36t43.5 109t-43.5 109t-103.5 36h-49v-290h49zM333 -58q33 0 56.5 -22.5t23.5 -54t-23.5 -53.5t-57 -22t-57 22t-23.5 54q0 21 11 38.5t29.5 27.5t40.5 10z" />
    <glyph glyph-name="uni1E0D" unicode="&#x1e0d;" horiz-adv-x="602" 
d="M357 680h191v-680h-158l-15 40q-57 -57 -143 -57q-95 0 -156.5 67.5t-61.5 184t61.5 184t156.5 67.5q73 0 125 -41v235zM291 143q34 0 57.5 25t23.5 66.5t-23.5 66.5t-57.5 25q-22 0 -40 -10.5t-29.5 -32t-11.5 -48.5q0 -42 23.5 -67t57.5 -25zM314 -58q33 0 56.5 -22.5
t23.5 -53.5q0 -21 -10.5 -38.5t-29 -27.5t-40.5 -10q-33 0 -56.5 22t-23.5 54q0 21 11 38.5t29.5 27.5t39.5 10z" />
    <glyph glyph-name="uni1E0E" unicode="&#x1e0e;" horiz-adv-x="725" 
d="M340 640q154 0 249.5 -89t95.5 -231t-95.5 -231t-249.5 -89h-271v640h271zM326 175q60 0 103.5 36t43.5 109t-43.5 109t-103.5 36h-49v-290h49zM160 -153v81h346v-81h-346z" />
    <glyph glyph-name="uni1E0F" unicode="&#x1e0f;" horiz-adv-x="602" 
d="M357 680h191v-680h-158l-15 40q-57 -57 -143 -57q-95 0 -156.5 67.5t-61.5 184t61.5 184t156.5 67.5q73 0 125 -41v235zM291 143q34 0 57.5 25t23.5 66.5t-23.5 66.5t-57.5 25q-22 0 -40 -10.5t-29.5 -32t-11.5 -48.5q0 -42 23.5 -67t57.5 -25zM142 -153v81h346v-81h-346
z" />
    <glyph glyph-name="uni1E12" unicode="&#x1e12;" horiz-adv-x="725" 
d="M340 640q154 0 249.5 -89t95.5 -231t-95.5 -231t-249.5 -89h-271v640h271zM326 175q60 0 103.5 36t43.5 109t-43.5 109t-103.5 36h-49v-290h49zM263 -47h141l116 -123h-86q-24 0 -35.5 6.5t-37.5 31.5l-28 26l-27 -26q-19 -18 -26 -24t-18.5 -10t-28.5 -4h-87z" />
    <glyph glyph-name="uni1E13" unicode="&#x1e13;" horiz-adv-x="602" 
d="M357 680h191v-680h-158l-15 40q-57 -57 -143 -57q-95 0 -156.5 67.5t-61.5 184t61.5 184t156.5 67.5q73 0 125 -41v235zM291 143q34 0 57.5 25t23.5 66.5t-23.5 66.5t-57.5 25q-22 0 -40 -10.5t-29.5 -32t-11.5 -48.5q0 -42 23.5 -67t57.5 -25zM244 -47h142l116 -123h-87
q-24 0 -35.5 6.5t-36.5 31.5l-28 26l-27 -26q-15 -15 -20.5 -19.5t-14.5 -10.5t-17 -7t-21 -1h-87z" />
    <glyph glyph-name="uni1E24" unicode="&#x1e24;" horiz-adv-x="758" 
d="M481 640h208v-640h-208v239h-204v-239h-208v640h208v-235h204v235zM379 -58q33 0 56.5 -22.5t23.5 -54t-23.5 -53.5t-56.5 -22t-56.5 22t-23.5 53.5t23.5 54t56.5 22.5z" />
    <glyph glyph-name="uni1E25" unicode="&#x1e25;" horiz-adv-x="602" 
d="M390 486q30 0 58 -9.5t53.5 -29.5t41 -57t15.5 -87v-303h-192v241q0 30 -6 49t-18.5 27.5t-33.5 8.5q-27 0 -44.5 -24.5t-17.5 -74.5v-227h-192v680h192v-253q59 59 144 59zM297 -58q33 0 56.5 -22.5t23.5 -54t-23.5 -53.5t-56.5 -22q-22 0 -40.5 10t-29 27.5t-10.5 38.5
t10.5 38.5t29 27.5t40.5 10z" />
    <glyph glyph-name="uni1E2E" unicode="&#x1e2e;" horiz-adv-x="346" 
d="M239 896q-29 -30 -55.5 -38.5t-69.5 -8.5h-47l142 177l137 -21zM55.5 832q30.5 0 52 -21.5t21.5 -51.5q0 -31 -21.5 -53t-52 -22t-51.5 21.5t-21 53.5q0 30 21 51.5t51.5 21.5zM288 832q20 0 37 -9.5t26.5 -26.5t9.5 -37q0 -31 -21.5 -53t-52 -22t-51.5 21.5t-21 53.5
q0 30 21 51.5t52 21.5zM277 640v-640h-208v640h208z" />
    <glyph glyph-name="uni1E2F" unicode="&#x1e2f;" horiz-adv-x="299" 
d="M217 787q-30 -30 -56 -38.5t-69 -8.5h-47l142 177l137 -22zM33 706q31 0 52.5 -21.5t21.5 -51.5q0 -31 -21.5 -53t-52 -22t-51.5 21.5t-21 53.5q0 15 5.5 28.5t15 23.5t23 15.5t28.5 5.5zM266 706q19 0 36 -9.5t27 -26.5t10 -37q0 -31 -21.5 -53t-52 -22t-51.5 21.5
t-21 53.5q0 15 6 28.5t15.5 23.5t23 15.5t28.5 5.5zM54 0v474h191v-474h-191z" />
    <glyph glyph-name="uni1E36" unicode="&#x1e36;" horiz-adv-x="550" 
d="M277 173h263v-173h-471v640h208v-467zM297 -58q33 0 56.5 -22.5t23.5 -54t-23.5 -53.5t-56.5 -22q-22 0 -40.5 10t-29 27.5t-10.5 38.5t10.5 38.5t29 27.5t40.5 10z" />
    <glyph glyph-name="uni1E37" unicode="&#x1e37;" horiz-adv-x="300" 
d="M54 0v680h192v-680h-192zM149 -210q-33 0 -56.5 22t-23.5 53.5t23.5 54t56.5 22.5q16 0 31 -6t26 -16t17 -24.5t6 -29.5q0 -21 -10.5 -38.5t-29 -27.5t-40.5 -10z" />
    <glyph glyph-name="uni1E3C" unicode="&#x1e3c;" horiz-adv-x="550" 
d="M277 173h263v-173h-471v640h208v-467zM227 -47h141l116 -123h-86q-24 0 -35.5 6.5t-37.5 31.5l-28 26l-27 -26q-19 -18 -26 -24t-18.5 -10t-28.5 -4h-86z" />
    <glyph glyph-name="uni1E3D" unicode="&#x1e3d;" horiz-adv-x="300" 
d="M246 680v-680h-192v680h192zM221 -47l116 -123h-87q-24 0 -35.5 6.5t-37.5 31.5l-27 26l-27 -26q-16 -15 -21 -19.5t-14.5 -10.5t-17 -7t-20.5 -1h-87l116 123h142z" />
    <glyph glyph-name="uni1E3E" unicode="&#x1e3e;" horiz-adv-x="879" 
d="M504 737q-21 -21 -42 -31.5t-37.5 -13t-45.5 -2.5h-47l142 176l137 -21zM628 640h182v-640h-198v244l-119 -244h-107l-119 244v-244h-198v640h182l189 -382z" />
    <glyph glyph-name="uni1E3F" unicode="&#x1e3f;" horiz-adv-x="868" 
d="M539 591q-30 -30 -56.5 -38.5t-68.5 -8.5h-48l143 177l136 -22zM643 486q51 0 86.5 -15t54.5 -44t27 -64t8 -81v-282h-191v255q0 71 -45 71q-29 0 -39.5 -23t-10.5 -69v-234h-192v256q0 70 -45 70q-23 0 -35 -16.5t-15 -50.5v-259h-192v474h170l19 -54q41 66 124 66
q86 0 128 -56q19 16 34.5 26t47 20t66.5 10z" />
    <glyph glyph-name="uni1E44" unicode="&#x1e44;" horiz-adv-x="755" 
d="M377 688q-33 0 -56.5 22t-23.5 54q0 21 10.5 38.5t29 27.5t40.5 10q33 0 56.5 -22t23.5 -54q0 -21 -10.5 -38.5t-29 -27.5t-40.5 -10zM487 640h199v-640h-190l-228 324v-324h-199v640h190l228 -329v329z" />
    <glyph glyph-name="uni1E45" unicode="&#x1e45;" horiz-adv-x="606" 
d="M299 552q-33 0 -56.5 22t-23.5 53.5t23.5 54t56.5 22.5q22 0 40.5 -10t29.5 -28t11 -38.5t-11 -38t-29.5 -27.5t-40.5 -10zM389 486q30 0 58 -9.5t53.5 -29.5t41 -57t15.5 -87v-303h-192v241q0 30 -6 49t-18.5 27.5t-33.5 8.5q-24 0 -40.5 -19t-20.5 -58v-249h-192v474
h170l20 -48q60 60 145 60z" />
    <glyph glyph-name="uni1E46" unicode="&#x1e46;" horiz-adv-x="755" 
d="M487 640h199v-640h-190l-228 324v-324h-199v640h190l228 -329v329zM377 -58q33 0 56.5 -22.5t23.5 -53.5q0 -21 -10.5 -38.5t-29 -27.5t-40.5 -10q-33 0 -56.5 22t-23.5 54q0 21 10.5 38.5t29 27.5t40.5 10z" />
    <glyph glyph-name="uni1E47" unicode="&#x1e47;" horiz-adv-x="606" 
d="M389 486q30 0 58 -9.5t53.5 -29.5t41 -57t15.5 -87v-303h-192v241q0 30 -6 49t-18.5 27.5t-33.5 8.5q-24 0 -40.5 -19t-20.5 -58v-249h-192v474h170l20 -48q60 60 145 60zM300 -58q33 0 56.5 -22.5t23.5 -54t-23.5 -53.5t-56.5 -22q-22 0 -40.5 10t-29.5 27.5t-11 38.5
t11 38.5t29.5 27.5t40.5 10z" />
    <glyph glyph-name="uni1E4A" unicode="&#x1e4a;" horiz-adv-x="755" 
d="M487 640h199v-640h-190l-228 324v-324h-199v640h190l228 -329v329zM307 -47h141l116 -123h-86q-24 0 -35.5 6.5t-37.5 31.5l-27 26l-27 -26q-13 -12 -17 -15.5t-12.5 -10.5t-13.5 -8l-12.5 -2.5t-18.5 -1.5h-86z" />
    <glyph glyph-name="uni1E4B" unicode="&#x1e4b;" horiz-adv-x="606" 
d="M389 486q30 0 58 -9.5t53.5 -29.5t41 -57t15.5 -87v-303h-192v241q0 30 -6 49t-18.5 27.5t-33.5 8.5q-24 0 -40.5 -19t-20.5 -58v-249h-192v474h170l20 -48q60 60 145 60zM230 -47h141l116 -123h-86q-24 0 -35.5 6.5t-37.5 31.5l-28 26l-27 -26q-11 -11 -14 -13.5
t-11 -9.5t-11 -8t-9.5 -4t-12.5 -3h-15h-86z" />
    <glyph glyph-name="uni1E4C" unicode="&#x1e4c;" horiz-adv-x="805" 
d="M345 845l103 144l116 -21l-95 -101q-12 -13 -32.5 -17.5t-57.5 -4.5h-34zM473 692q-29 0 -70 23t-60 23q-35 0 -59 -40l-66 43q11 16 19 25.5t22.5 23t33 20.5t39.5 7q32 0 73 -23.5t58 -23.5q34 0 58 44l66 -44q-20 -38 -45 -58t-69 -20zM403 -17q-81 0 -150 27
t-115.5 72.5t-72.5 107.5t-26 132q0 69 26 131t72.5 107.5t115.5 72t150 26.5t149.5 -26.5t115 -72t72.5 -107.5t26 -131q0 -70 -26 -132t-72.5 -107.5t-115 -72.5t-149.5 -27zM403 166q67 0 109 47t42 109t-41.5 108t-109.5 46q-35 0 -64 -13t-48 -34.5t-29.5 -49.5
t-10.5 -57q0 -62 41.5 -109t110.5 -47z" />
    <glyph glyph-name="uni1E4D" unicode="&#x1e4d;" 
d="M236 709l103 144l117 -21l-96 -101q-12 -13 -32 -17.5t-58 -4.5h-34zM364 556q-29 0 -69.5 23t-60.5 23q-34 0 -58 -41l-67 44q7 9 10.5 14t11 14t14 14.5t15.5 12.5t18 11t21 7t25 3q31 0 72.5 -24t58.5 -24q34 0 58 45l66 -44q-21 -38 -46 -58t-69 -20zM294 -17
q-122 0 -198.5 69.5t-76.5 182t76.5 182t198.5 69.5q80 0 142.5 -31t97.5 -88.5t35 -131.5q0 -113 -76.5 -182.5t-198.5 -69.5zM294 143q34 0 57 25t23 67t-23 66.5t-57 24.5q-35 0 -57 -24.5t-22 -66.5t22 -67t57 -25z" />
    <glyph glyph-name="uni1E50" unicode="&#x1e50;" horiz-adv-x="805" 
d="M459 820h-34q-37 0 -57.5 4.5t-32.5 16.5l-95 102l116 20zM236 694v81h345v-81h-345zM403 -17q-81 0 -150 27t-115.5 72.5t-72.5 107.5t-26 132q0 69 26 130.5t72.5 107.5t115.5 72.5t150 26.5t149.5 -26.5t115 -72.5t72.5 -107.5t26 -130.5q0 -70 -26 -132t-72.5 -107.5
t-115 -72.5t-149.5 -27zM403 166q67 0 109 47t42 109t-41.5 107.5t-109.5 45.5q-35 0 -64 -12.5t-48 -34t-29.5 -49.5t-10.5 -57q0 -40 17.5 -75t53 -58t81.5 -23z" />
    <glyph glyph-name="uni1E51" unicode="&#x1e51;" 
d="M351 683h-34q-38 0 -58 4.5t-32 17.5l-96 101l117 21zM127 558v81h346v-81h-346zM294 -17q-122 0 -198.5 69.5t-76.5 182t76.5 182t198.5 69.5q80 0 142.5 -31t97.5 -88.5t35 -131.5q0 -113 -76.5 -182.5t-198.5 -69.5zM294 143q34 0 57 25t23 67t-23 66.5t-57 24.5
q-35 0 -57 -24.5t-22 -66.5q0 -28 10.5 -49t28 -32t40.5 -11z" />
    <glyph glyph-name="uni1E52" unicode="&#x1e52;" horiz-adv-x="805" 
d="M345 820l103 143l116 -20l-95 -102q-12 -12 -32.5 -16.5t-57.5 -4.5h-34zM236 694v81h345v-81h-345zM403 -17q-81 0 -150 27t-115.5 72.5t-72.5 107.5t-26 132q0 69 26 130.5t72.5 107.5t115.5 72.5t150 26.5t149.5 -26.5t115 -72t72.5 -107.5t26 -131q0 -70 -26 -132
t-72.5 -107.5t-115 -72.5t-149.5 -27zM403 166q67 0 109 47t42 109t-41.5 108t-109.5 46q-28 0 -52.5 -8.5t-42.5 -23.5t-31 -34.5t-19.5 -42t-6.5 -45.5q0 -62 42 -109t110 -47z" />
    <glyph glyph-name="uni1E53" unicode="&#x1e53;" 
d="M236 683l103 144l117 -21l-96 -101q-12 -13 -32 -17.5t-58 -4.5h-34zM127 558v81h346v-81h-346zM294 -17q-122 0 -198.5 69.5t-76.5 182t76.5 182t198.5 69.5q80 0 142.5 -31t97.5 -88.5t35 -131.5q0 -113 -76.5 -182.5t-198.5 -69.5zM294 143q34 0 57 25t23 67t-23 66.5
t-57 24.5q-35 0 -57 -24.5t-22 -66.5t22 -67t57 -25z" />
    <glyph glyph-name="uni1E62" unicode="&#x1e62;" horiz-adv-x="671" 
d="M336 -17q-186 0 -317 91l115 141q90 -69 198 -69q36 0 56 12.5t20 34.5t-37.5 36.5t-119.5 34.5q-90 20 -138 66t-48 112q0 69 39.5 120t100.5 74.5t135 23.5q158 0 278 -79l-111 -135q-74 49 -148 49q-32 0 -52 -11t-20 -30q0 -18 28.5 -29.5t110.5 -34.5q12 -4 19 -5
q187 -52 187 -187q0 -103 -80.5 -159t-215.5 -56zM336 -210q-33 0 -56.5 22t-23.5 54q0 20 10.5 38t29 28t40.5 10q33 0 56.5 -22.5t23.5 -54t-23.5 -53.5t-56.5 -22z" />
    <glyph glyph-name="uni1E63" unicode="&#x1e63;" horiz-adv-x="498" 
d="M14 47l91 117q59 -47 119 -47q14 0 24.5 3.5t15.5 10.5t5 16q0 13 -16.5 21.5t-40.5 13t-53 13.5t-53.5 21.5t-40.5 39t-16 64.5q0 74 60 120t168 46q62 0 115.5 -16t81.5 -38l-93 -116q-46 35 -90 36q-42 0 -42 -29q0 -15 17 -25.5t42.5 -15.5t55.5 -15t55.5 -22.5
t42.5 -39t17 -63.5q0 -69 -56.5 -114t-163.5 -45q-155 0 -245 64zM261 -214q-33 0 -56.5 22.5t-23.5 53.5q0 21 10.5 38.5t29 27.5t40.5 10q33 0 56.5 -22t23.5 -53.5t-23.5 -54t-56.5 -22.5z" />
    <glyph glyph-name="uni1E6C" unicode="&#x1e6c;" horiz-adv-x="540" 
d="M541 640v-170h-167v-470h-208v470h-167v170h542zM269 -58q33 0 56.5 -22.5t23.5 -54t-23.5 -53.5t-56.5 -22q-13 0 -25 3.5t-22 10.5t-17.5 16.5t-11.5 21t-4 24.5q0 21 11 38.5t29.5 27.5t39.5 10z" />
    <glyph glyph-name="uni1E6D" unicode="&#x1e6d;" horiz-adv-x="407" 
d="M398 2q-57 -15 -113 -15q-28 0 -53.5 5t-52 19t-45 36t-31 59.5t-12.5 86.5v142h-61v139h61v140h192v-140h98v-139h-98v-105q0 -84 64 -84q8 0 17 1t13 3l4 1zM225 -68q33 0 56.5 -22t23.5 -53.5t-23.5 -54t-56.5 -22.5t-56.5 22.5t-23.5 54t23.5 53.5t56.5 22z" />
    <glyph glyph-name="uni1E6E" unicode="&#x1e6e;" horiz-adv-x="540" 
d="M541 640v-170h-167v-470h-208v470h-167v170h542zM97 -153v81h346v-81h-346z" />
    <glyph glyph-name="uni1E6F" unicode="&#x1e6f;" horiz-adv-x="407" 
d="M91 193v142h-61v139h61v140h192v-140h98v-139h-98v-105q0 -84 64 -84q8 0 16.5 1t13.5 3l4 1l17 -149q-57 -15 -112 -15q-29 0 -54 5t-51.5 19t-45.5 36t-31.5 59.5t-12.5 86.5zM76 -163v81h300v-81h-300z" />
    <glyph glyph-name="uni1E70" unicode="&#x1e70;" horiz-adv-x="540" 
d="M541 640v-170h-167v-470h-208v470h-167v170h542zM199 -47h142l116 -123h-87q-24 0 -35.5 6.5t-37.5 31.5l-27 26l-27 -26q-19 -18 -26.5 -24t-18.5 -10t-28 -4h-87z" />
    <glyph glyph-name="uni1E71" unicode="&#x1e71;" horiz-adv-x="407" 
d="M91 193v142h-61v139h61v140h192v-140h98v-139h-98v-105q0 -84 64 -84q8 0 16.5 1t13.5 3l4 1l17 -149q-57 -15 -112 -15q-29 0 -54 5t-51.5 19t-45.5 36t-31.5 59.5t-12.5 86.5zM297 -57l116 -123h-87q-24 0 -35.5 6.5t-36.5 31.5l-28 26l-27 -25q-15 -15 -20.5 -19.5
t-14.5 -11t-17 -7.5t-21 -1h-87l116 123h142z" />
    <glyph glyph-name="Wgrave" unicode="&#x1e80;" horiz-adv-x="980" 
d="M562 690q-42 0 -68.5 8t-56.5 39l-106 108l137 21l142 -176h-48zM760 640h221l-209 -640h-193l-89 297l-89 -297h-194l-208 640h221l95 -357l91 357h168l91 -357z" />
    <glyph glyph-name="wgrave" unicode="&#x1e81;" horiz-adv-x="817" 
d="M478 554q-43 0 -69.5 8.5t-55.5 38.5l-107 108l137 22l142 -177h-47zM606 474h207l-172 -474h-164l-68 250l-70 -250h-163l-172 474h208l57 -229l64 229h151l65 -229z" />
    <glyph glyph-name="Wacute" unicode="&#x1e82;" horiz-adv-x="980" 
d="M557 737q-30 -31 -56 -39t-69 -8h-47l142 176l137 -21zM760 640h221l-209 -640h-193l-89 297l-89 -297h-194l-208 640h221l95 -357l91 357h168l91 -357z" />
    <glyph glyph-name="wacute" unicode="&#x1e83;" horiz-adv-x="817" 
d="M472 601q-30 -30 -56 -38.5t-69 -8.5h-47l142 177l137 -22zM606 474h207l-172 -474h-164l-68 250l-70 -250h-163l-172 474h208l57 -229l65 229h150l65 -229z" />
    <glyph glyph-name="Wdieresis" unicode="&#x1e84;" horiz-adv-x="980" 
d="M373.5 694q-30.5 0 -51.5 21.5t-21 53.5q0 15 5.5 28.5t15.5 23.5t23.5 15.5t27.5 5.5q20 0 37 -10t27 -27t10 -36q0 -32 -21.5 -53.5t-52 -21.5zM605.5 694q-30.5 0 -51.5 21.5t-21 53.5q0 15 6 28.5t15.5 23.5t23 15.5t28.5 5.5q30 0 51.5 -21.5t21.5 -51.5
q0 -32 -21.5 -53.5t-52 -21.5zM760 640h221l-209 -640h-193l-89 297l-89 -297h-194l-208 640h221l95 -357l91 357h168l91 -357z" />
    <glyph glyph-name="wdieresis" unicode="&#x1e85;" horiz-adv-x="817" 
d="M288.5 558q-30.5 0 -51.5 21.5t-21 53.5q0 30 21 51.5t51.5 21.5t52 -21.5t21.5 -51.5q0 -31 -21.5 -53t-52 -22zM521 558q-30 0 -51 21.5t-21 53.5q0 30 21 51.5t51 21.5t52 -21.5t22 -51.5q0 -31 -22 -53t-52 -22zM606 474h207l-172 -474h-163l-69 250l-70 -250h-163
l-172 474h208l57 -229l65 229h150l65 -229z" />
    <glyph glyph-name="uni1E92" unicode="&#x1e92;" horiz-adv-x="586" 
d="M306 176h241v-176h-508v153l237 311h-219v176h481v-144zM297.5 -58q33.5 0 57 -22.5t23.5 -54t-23.5 -53.5t-57.5 -22q-21 0 -39.5 10t-29.5 27.5t-11 38.5q0 31 23.5 53.5t57 22.5z" />
    <glyph glyph-name="uni1E93" unicode="&#x1e93;" horiz-adv-x="496" 
d="M276 155h196v-155h-448v125l174 194h-157v155h416v-121zM248 -58q33 0 56.5 -22.5t23.5 -53.5q0 -21 -11 -38.5t-29.5 -27.5t-39.5 -10q-33 0 -56.5 22t-23.5 53.5t23.5 54t56.5 22.5z" />
    <glyph glyph-name="uni1E9E" unicode="&#x1e9e;" horiz-adv-x="722" 
d="M369 -4l-27 163q61 -9 95 5t34 46q0 54 -101 54h-28v101l87 101h-46q-34 0 -58.5 -17t-36 -46t-11.5 -67v-336h-208v348q0 64 17 114.5t46 83.5t70 54.5t85.5 30.5t96.5 9h250v-133l-104 -125q28 -5 51.5 -14.5t48 -28t39 -52t14.5 -77.5q0 -78 -45.5 -131.5t-116 -73
t-152.5 -9.5z" />
    <glyph glyph-name="uni1EA0" unicode="&#x1ea0;" horiz-adv-x="697" 
d="M708 0h-224l-27 88h-217l-27 -88h-224l252 640h215zM284 230h129l-65 208zM347 -58q33 0 56.5 -22.5t23.5 -54t-23.5 -53.5t-56.5 -22t-56.5 22t-23.5 53.5t23.5 54t56.5 22.5z" />
    <glyph glyph-name="uni1EA1" unicode="&#x1ea1;" horiz-adv-x="570" 
d="M271 486q55 0 98.5 -11.5t78.5 -37t54 -71t19 -107.5v-259h-171l-21 53q-50 -65 -149 -65q-70 0 -115.5 38.5t-45.5 103.5q0 86 80 127.5t210 9.5l21 -5v14q0 36 -25 56t-63 20q-51 0 -98 -34l-72 111q84 57 199 57zM329 172v13l-3 1q-50 13 -80 -1.5t-30 -42.5
q0 -20 13.5 -30.5t35.5 -10.5q29 0 46.5 19t17.5 52zM283 -58q33 0 56.5 -22.5t23.5 -54t-23.5 -53.5t-56.5 -22t-56.5 22t-23.5 53.5t23.5 54t56.5 22.5z" />
    <glyph glyph-name="uni1EA4" unicode="&#x1ea4;" horiz-adv-x="697" 
d="M626 777q-6 -7 -14 -11t-19.5 -6.5t-24.5 -3.5t-32 -1h-34l103 144l117 -21zM319 729q-20 -19 -27 -25t-18.5 -10t-28.5 -4h-86l116 123h141l116 -123h-86q-24 0 -35.5 6.5t-37.5 31.5l-27 26zM241 640h215l252 -640h-224l-27 88h-217l-27 -88h-224zM284 230h129l-65 208
z" />
    <glyph glyph-name="uni1EA5" unicode="&#x1ea5;" horiz-adv-x="570" 
d="M541 763l116 -21l-95 -101q-12 -13 -32.5 -17.5t-57.5 -4.5h-34zM254 593q-15 -15 -20 -19.5t-14.5 -11t-17.5 -7.5t-21 -1h-86l116 123h141l116 -123h-86q-24 0 -35.5 6.5t-37.5 31.5l-28 26zM271 486q55 0 98.5 -11.5t78.5 -37t54 -71t19 -107.5v-259h-171l-21 53
q-50 -65 -149 -65q-70 0 -115.5 38.5t-45.5 103.5q0 86 80 127.5t210 9.5l21 -5v14q0 36 -25 56t-63 20q-51 0 -98 -34l-72 111q84 57 199 57zM329 172v13l-3 1q-50 13 -80 -1.5t-30 -42.5q0 -20 13.5 -30.5t35.5 -10.5q29 0 46.5 19t17.5 52z" />
    <glyph glyph-name="uni1EA6" unicode="&#x1ea6;" horiz-adv-x="697" 
d="M158 755q-37 0 -57.5 4.5t-31.5 17.5l-96 101l117 21l103 -144h-35zM245 690h-86l116 123h141l116 -123h-86q-24 0 -35.5 6.5t-37.5 31.5l-27 26l-27 -25q-20 -19 -27 -25t-18.5 -10t-28.5 -4zM484 0l-27 88h-217l-27 -88h-224l252 640h215l252 -640h-224zM284 230h129
l-65 208z" />
    <glyph glyph-name="uni1EA7" unicode="&#x1ea7;" horiz-adv-x="570" 
d="M128 619h-34q-37 0 -57.5 4.5t-32.5 17.5l-95 101l116 21zM181 554h-86l116 123h141l116 -123h-86q-24 0 -35.5 6.5t-37.5 31.5l-28 26l-27 -25q-19 -19 -26 -25t-18.5 -10t-28.5 -4zM271 486q55 0 98.5 -11.5t78.5 -37t54 -71t19 -107.5v-259h-171l-21 53
q-50 -65 -149 -65q-70 0 -115.5 38.5t-45.5 103.5q0 86 80 127.5t210 9.5l21 -5v14q0 36 -25 56t-63 20q-51 0 -98 -34l-72 111q84 57 199 57zM329 172v13l-3 1q-50 13 -80 -1.5t-30 -42.5q0 -20 13.5 -30.5t35.5 -10.5q29 0 46.5 19t17.5 52z" />
    <glyph glyph-name="uni1EAA" unicode="&#x1eaa;" horiz-adv-x="697" 
d="M290 893q-34 0 -58 -40l-67 43q12 16 20 25.5t22.5 23t32.5 20.5t40 7q31 0 72.5 -24t58.5 -24q34 0 58 45l66 -44q-21 -38 -46 -58t-69 -20q-29 0 -69.5 23t-60.5 23zM319 729q-20 -19 -27 -25t-18.5 -10t-28.5 -4h-86l116 123h141l116 -123h-86q-24 0 -35.5 6.5
t-37.5 31.5l-27 26zM484 0l-27 88h-217l-27 -88h-224l252 640h215l252 -640h-224zM284 230h129l-65 208z" />
    <glyph glyph-name="uni1EAB" unicode="&#x1eab;" horiz-adv-x="570" 
d="M226 757q-35 0 -58 -40l-67 43q11 16 19 25.5t23 23t33 20.5t40 7q31 0 72 -23.5t59 -23.5q34 0 58 44l66 -44q-21 -38 -46 -58t-69 -20q-29 0 -69.5 23t-60.5 23zM254 593q-19 -19 -26 -25t-18.5 -10t-28.5 -4h-86l116 123h141l116 -123h-86q-24 0 -35.5 6.5t-37.5 31.5
l-28 26zM271 486q55 0 98.5 -11.5t78.5 -37t54 -71t19 -107.5v-259h-171l-21 53q-50 -65 -149 -65q-70 0 -115.5 38.5t-45.5 103.5q0 86 80 127.5t210 9.5l21 -5v14q0 36 -25 56t-63 20q-51 0 -98 -34l-72 111q84 57 199 57zM329 172v13l-3 1q-50 13 -80 -1.5t-30 -42.5
q0 -20 13.5 -30.5t35.5 -10.5q29 0 46.5 19t17.5 52z" />
    <glyph glyph-name="uni1EAC" unicode="&#x1eac;" horiz-adv-x="697" 
d="M319 729q-20 -19 -27 -25t-18.5 -10t-28.5 -4h-86l116 123h141l116 -123h-86q-24 0 -35.5 6.5t-37.5 31.5l-27 26zM708 0h-224l-27 88h-217l-27 -88h-224l252 640h215zM284 230h129l-65 208zM347 -58q33 0 56.5 -22.5t23.5 -54t-23.5 -53.5t-56.5 -22t-56.5 22
t-23.5 53.5t23.5 54t56.5 22.5z" />
    <glyph glyph-name="uni1EAD" unicode="&#x1ead;" horiz-adv-x="570" 
d="M254 593q-15 -15 -20 -19.5t-14.5 -11t-17.5 -7.5t-21 -1h-86l116 123h141l116 -123h-86q-24 0 -35.5 6.5t-37.5 31.5l-28 26zM271 486q55 0 98.5 -11.5t78.5 -37t54 -71t19 -107.5v-259h-171l-21 53q-50 -65 -149 -65q-70 0 -115.5 38.5t-45.5 103.5q0 86 80 127.5
t210 9.5l21 -5v14q0 36 -25 56t-63 20q-51 0 -98 -34l-72 111q84 57 199 57zM329 172v13l-3 1q-50 13 -80 -1.5t-30 -42.5q0 -20 13.5 -30.5t35.5 -10.5q29 0 46.5 19t17.5 52zM283 -58q33 0 56.5 -22.5t23.5 -54t-23.5 -53.5t-56.5 -22q-22 0 -40.5 10t-29 27.5t-10.5 38.5
q0 31 23.5 53.5t56.5 22.5z" />
    <glyph glyph-name="uni1EAE" unicode="&#x1eae;" horiz-adv-x="697" 
d="M414 846q-12 -13 -32 -17.5t-58 -4.5h-34l103 144l117 -21zM348.5 690q-82.5 0 -126.5 32.5t-45 90.5h85q7 -47 86 -47t86 47h85q-1 -58 -44.5 -90.5t-126 -32.5zM484 0l-27 88h-217l-27 -88h-224l252 640h215l252 -640h-224zM284 230h129l-65 208z" />
    <glyph glyph-name="uni1EAF" unicode="&#x1eaf;" horiz-adv-x="570" 
d="M350 710q-12 -13 -32.5 -17.5t-57.5 -4.5h-34l103 144l116 -21zM283.5 554q-82.5 0 -126 32.5t-44.5 90.5h85q6 -47 85.5 -47t86.5 47h85q-1 -58 -45 -90.5t-126.5 -32.5zM271 486q55 0 98.5 -11.5t78.5 -37t54 -71t19 -107.5v-259h-171l-21 53q-50 -65 -149 -65
q-70 0 -115.5 38.5t-45.5 103.5q0 86 80 127.5t210 9.5l21 -5v14q0 36 -25 56t-63 20q-51 0 -98 -34l-72 111q84 57 199 57zM329 172v13l-3 1q-50 13 -80 -1.5t-30 -42.5q0 -20 13.5 -30.5t35.5 -10.5q29 0 46.5 19t17.5 52z" />
    <glyph glyph-name="uni1EB0" unicode="&#x1eb0;" horiz-adv-x="697" 
d="M370 824q-37 0 -57.5 4.5t-31.5 17.5l-96 101l117 21l103 -144h-35zM348.5 690q-82.5 0 -126.5 32.5t-45 90.5h85q7 -47 86 -47t86 47h85q-1 -58 -44.5 -90.5t-126 -32.5zM484 0l-27 88h-217l-27 -88h-224l252 640h215l252 -640h-224zM284 230h129l-65 208z" />
    <glyph glyph-name="uni1EB1" unicode="&#x1eb1;" horiz-adv-x="570" 
d="M306 688q-37 0 -57.5 4.5t-32.5 17.5l-95 101l116 21l103 -144h-34zM283.5 554q-82.5 0 -126 32.5t-44.5 90.5h85q6 -47 85.5 -47t86.5 47h85q-1 -58 -45 -90.5t-126.5 -32.5zM271 486q55 0 98.5 -11.5t78.5 -37t54 -71t19 -107.5v-259h-171l-21 53q-50 -65 -149 -65
q-70 0 -115.5 38.5t-45.5 103.5q0 86 80 127.5t210 9.5l21 -5v13q0 37 -25 57t-63 20q-51 0 -98 -34l-72 111q84 57 199 57zM329 172v13l-3 1q-50 13 -80 -1.5t-30 -42.5q0 -20 13.5 -30.5t35.5 -10.5q29 0 46.5 19t17.5 52z" />
    <glyph glyph-name="uni1EB4" unicode="&#x1eb4;" horiz-adv-x="697" 
d="M290 891q-34 0 -58 -41l-67 44q12 16 20 25.5t22.5 23t32.5 20.5t40 7q31 0 72.5 -24t58.5 -24q34 0 58 45l66 -44q-13 -25 -25.5 -40t-35.5 -26.5t-54 -11.5q-29 0 -69.5 23t-60.5 23zM348 766q79 0 86 47h85q-1 -58 -44.5 -90.5t-126 -32.5t-126.5 32.5t-45 90.5h85
q7 -47 86 -47zM484 0l-27 88h-217l-27 -88h-224l252 640h215l252 -640h-224zM284 230h129l-65 208z" />
    <glyph glyph-name="uni1EB5" unicode="&#x1eb5;" horiz-adv-x="570" 
d="M226 755q-35 0 -58 -40l-67 43q9 12 14.5 19.5t17.5 20t22.5 19t26.5 12t34 5.5q31 0 72 -24t59 -24q34 0 58 45l66 -44q-21 -38 -46 -58t-69 -20q-29 0 -69.5 23t-60.5 23zM283.5 630q79.5 0 86.5 47h85q-1 -58 -45 -90.5t-126.5 -32.5t-126 32.5t-44.5 90.5h84
q7 -47 86.5 -47zM271 486q55 0 98.5 -11.5t78.5 -37t54 -71t19 -107.5v-259h-171l-21 53q-50 -65 -149 -65q-70 0 -115.5 38.5t-45.5 103.5q0 86 80 127.5t210 9.5l21 -5v14q0 36 -25 56t-63 20q-51 0 -98 -34l-72 111q84 57 199 57zM329 172v13l-3 1q-50 13 -80 -1.5
t-30 -42.5q0 -20 13.5 -30.5t35.5 -10.5q29 0 46.5 19t17.5 52z" />
    <glyph glyph-name="uni1EB6" unicode="&#x1eb6;" horiz-adv-x="697" 
d="M348.5 690q-82.5 0 -126.5 32.5t-45 90.5h85q7 -47 86 -47t86 47h85q-1 -58 -44.5 -90.5t-126 -32.5zM708 0h-224l-27 88h-217l-27 -88h-224l252 640h215zM284 230h129l-65 208zM347 -58q33 0 56.5 -22.5t23.5 -54t-23.5 -53.5t-56.5 -22t-56.5 22t-23.5 54q0 21 11 38.5
t29.5 27.5t39.5 10z" />
    <glyph glyph-name="uni1EB7" unicode="&#x1eb7;" horiz-adv-x="570" 
d="M283.5 554q-82.5 0 -126 32.5t-44.5 90.5h85q6 -47 85.5 -47t86.5 47h85q-1 -58 -45 -90.5t-126.5 -32.5zM271 486q55 0 98.5 -11.5t78.5 -37t54 -71t19 -107.5v-259h-171l-21 53q-50 -65 -149 -65q-70 0 -115.5 38.5t-45.5 103.5q0 86 80 127.5t210 9.5l21 -5v14
q0 36 -25 56t-63 20q-51 0 -98 -34l-72 111q84 57 199 57zM329 172v13l-3 1q-50 13 -80 -1.5t-30 -42.5q0 -20 13.5 -30.5t35.5 -10.5q29 0 46.5 19t17.5 52zM283 -58q33 0 56.5 -22.5t23.5 -54t-23.5 -53.5t-56.5 -22q-22 0 -40.5 10t-29 27.5t-10.5 38t10.5 38.5t29 28
t40.5 10z" />
    <glyph glyph-name="uni1EB8" unicode="&#x1eb8;" horiz-adv-x="607" 
d="M568 475h-291v-88h241v-134h-241v-88h291v-165h-499v640h499v-165zM326 -58q33 0 56.5 -22.5t23.5 -54t-23.5 -53.5t-56.5 -22t-56.5 22t-23.5 53.5t23.5 54t56.5 22.5z" />
    <glyph glyph-name="uni1EB9" unicode="&#x1eb9;" horiz-adv-x="572" 
d="M553 221v-38h-332q18 -67 87 -67q43 0 81 31l124 -102q-78 -62 -199 -62q-136 0 -215.5 69t-79.5 183q0 112 76 181.5t195 69.5q116 0 189.5 -69.5t73.5 -195.5zM290 355q-60 0 -72 -75h146q-3 34 -21.5 54.5t-52.5 20.5zM290 -62q33 0 56.5 -22t23.5 -53.5t-23.5 -54
t-56.5 -22.5q-22 0 -40.5 10t-29 28t-10.5 38.5t10.5 38t29 27.5t40.5 10z" />
    <glyph glyph-name="uni1EBC" unicode="&#x1ebc;" horiz-adv-x="607" 
d="M267 738q-35 0 -59 -40l-66 43q11 16 19 25.5t22.5 23t33 20.5t39.5 7q32 0 73 -23.5t59 -23.5q34 0 58 44l66 -44q-21 -38 -46 -58t-69 -20q-29 0 -70 23t-60 23zM568 475h-291v-88h241v-134h-241v-88h291v-165h-499v640h499v-165z" />
    <glyph glyph-name="uni1EBD" unicode="&#x1ebd;" horiz-adv-x="572" 
d="M231 602q-35 0 -59 -40l-66 43q11 16 19 25.5t22.5 23.5t33 20.5t39.5 6.5q32 0 73 -23.5t59 -23.5q34 0 58 44l65 -44q-20 -37 -45 -57.5t-69 -20.5q-29 0 -70 23t-60 23zM553 221v-38h-332q17 -67 87 -67q43 0 81 31l124 -102q-78 -62 -199 -62q-136 0 -215.5 69
t-79.5 183q0 112 76 181.5t195 69.5q116 0 189.5 -69.5t73.5 -195.5zM290 355q-60 0 -72 -75h146q-3 34 -21.5 54.5t-52.5 20.5z" />
    <glyph glyph-name="uni1EBE" unicode="&#x1ebe;" horiz-adv-x="607" 
d="M599 899l116 -21l-95 -101q-8 -9 -20.5 -14t-28.5 -6.5t-41 -1.5h-34zM301 729q-20 -18 -27 -24t-18 -10t-28 -4h-87l116 123h141l117 -123h-87q-24 0 -35.5 6.5t-37.5 31.5l-27 26zM568 640v-165h-291v-88h241v-134h-241v-88h291v-165h-499v640h499z" />
    <glyph glyph-name="uni1EBF" unicode="&#x1ebf;" horiz-adv-x="572" 
d="M548 763l116 -21l-95 -101q-12 -13 -32.5 -17.5t-57.5 -4.5h-34zM262 593q-20 -19 -27 -25t-18.5 -10t-28.5 -4h-86l116 123h141l116 -123h-86q-24 0 -35.5 6.5t-37.5 31.5l-28 26zM290 486q116 0 189.5 -69.5t73.5 -195.5v-38h-332q18 -67 87 -67q43 0 81 31l124 -101
q-78 -63 -199 -63q-136 0 -215.5 69t-79.5 183q0 112 76 181.5t195 69.5zM290 355q-60 0 -72 -75h146q-3 34 -21.5 54.5t-52.5 20.5z" />
    <glyph glyph-name="uni1EC0" unicode="&#x1ec0;" horiz-adv-x="607" 
d="M157 755h-34q-38 0 -58 4.5t-32 17.5l-96 101l117 21zM228 691h-87l116 123h141l117 -123h-87q-24 0 -35.5 6.5t-37.5 31.5l-27 26l-27 -26q-16 -15 -21 -19.5t-14.5 -10.5t-17 -7t-20.5 -1zM568 475h-291v-88h241v-134h-241v-88h291v-165h-499v640h499v-165z" />
    <glyph glyph-name="uni1EC1" unicode="&#x1ec1;" horiz-adv-x="572" 
d="M135 619h-34q-37 0 -57.5 4.5t-32.5 17.5l-95 101l116 21zM188 554h-86l116 123h141l116 -123h-86q-24 0 -35.5 6.5t-37.5 31.5l-28 26l-26 -25q-20 -19 -27 -25t-18.5 -10t-28.5 -4zM553 221v-38h-332q18 -67 87 -67q43 0 81 31l124 -102q-78 -62 -199 -62
q-136 0 -215.5 69t-79.5 183q0 112 76 181.5t195 69.5q116 0 189.5 -69.5t73.5 -195.5zM290 355q-60 0 -72 -75h146q-3 34 -21.5 54.5t-52.5 20.5z" />
    <glyph glyph-name="uni1EC4" unicode="&#x1ec4;" horiz-adv-x="607" 
d="M273 894q-35 0 -59 -41l-66 43q11 17 19 26.5t22.5 23t33 20t39.5 6.5q31 0 72.5 -23.5t58.5 -23.5q34 0 58 45l66 -44q-20 -38 -45.5 -58t-69.5 -20q-29 0 -69.5 23t-59.5 23zM301 729q-20 -18 -27 -24t-18.5 -10t-27.5 -4h-87l116 123h141l117 -123h-87q-13 0 -21 1
t-17 7t-14.5 10.5t-20.5 19.5l-27 26zM568 475h-291v-88h241v-134h-241v-88h291v-165h-499v640h499v-165z" />
    <glyph glyph-name="uni1EC5" unicode="&#x1ec5;" horiz-adv-x="572" 
d="M233 757q-35 0 -58 -40l-67 43q11 16 19 25.5t23 23t33 20.5t40 7q31 0 72.5 -23.5t58.5 -23.5q34 0 58 44l66 -44q-21 -38 -46 -58t-69 -20q-29 0 -69.5 23t-60.5 23zM261 593q-19 -19 -26 -25t-18.5 -10t-28.5 -4h-86l116 123h141l116 -123h-86q-24 0 -35.5 6.5
t-37.5 31.5l-28 26zM553 221v-38h-332q17 -67 87 -67q43 0 81 31l124 -101q-78 -63 -199 -63q-136 0 -215.5 69t-79.5 183q0 112 76 181.5t195 69.5q116 0 189.5 -69.5t73.5 -195.5zM290 355q-60 0 -72 -74h146q-3 33 -21.5 53.5t-52.5 20.5z" />
    <glyph glyph-name="uni1EC6" unicode="&#x1ec6;" horiz-adv-x="607" 
d="M298 729q-16 -15 -21 -19.5t-14.5 -11t-17.5 -7.5t-21 -1h-86l116 123h141l116 -123h-86q-24 0 -35.5 6.5t-37.5 31.5l-28 26zM568 475h-291v-88h241v-134h-241v-88h291v-165h-499v640h499v-165zM326 -58q33 0 56.5 -22.5t23.5 -54t-23.5 -53.5t-56.5 -22t-56.5 22
t-23.5 53.5t23.5 54t56.5 22.5z" />
    <glyph glyph-name="uni1EC7" unicode="&#x1ec7;" horiz-adv-x="572" 
d="M262 593q-20 -19 -27 -25t-18.5 -10t-28.5 -4h-86l116 123h141l116 -123h-86q-24 0 -35.5 6.5t-37.5 31.5l-28 26zM553 221v-38h-332q18 -67 87 -67q43 0 81 31l124 -102q-78 -62 -199 -62q-136 0 -215.5 69t-79.5 183q0 112 76 181.5t195 69.5q116 0 189.5 -69.5
t73.5 -195.5zM290 355q-60 0 -72 -75h146q-3 34 -21.5 54.5t-52.5 20.5zM290 -62q33 0 56.5 -22t23.5 -54q0 -10 -3 -20t-8 -18.5t-12.5 -15.5t-16 -11.5t-19 -7.5t-21.5 -3q-22 0 -40.5 10t-29 28t-10.5 38.5t10.5 38t29 27.5t40.5 10z" />
    <glyph glyph-name="uni1ECA" unicode="&#x1eca;" horiz-adv-x="346" 
d="M277 640v-640h-208v640h208zM171 -210q-21 0 -39.5 10t-29.5 27.5t-11 38.5t11 38.5t29.5 27.5t40 10t40 -10t29 -27.5t10.5 -38.5q0 -32 -23 -54t-57 -22z" />
    <glyph glyph-name="uni1ECB" unicode="&#x1ecb;" horiz-adv-x="299" 
d="M149 524q-41 0 -70.5 28t-29.5 67t29.5 66.5t70.5 27.5q27 0 49.5 -12.5t36 -34.5t13.5 -47q0 -39 -29 -67t-70 -28zM54 0v474h191v-474h-191zM139 -210q-33 0 -56.5 22t-23.5 54q0 21 10.5 38.5t29 27.5t40 10t40 -10t29.5 -27.5t11 -38.5t-11 -38.5t-29.5 -27.5
t-39.5 -10z" />
    <glyph glyph-name="uni1ECC" unicode="&#x1ecc;" horiz-adv-x="805" 
d="M403 -17q-81 0 -150 27t-115.5 72.5t-72.5 107.5t-26 132q0 69 26 130.5t72.5 107.5t115.5 72.5t150 26.5t149.5 -26.5t115 -72t72.5 -107.5t26 -131q0 -70 -26 -132t-72.5 -107.5t-115 -72.5t-149.5 -27zM403 166q67 0 109 47t42 109t-41.5 108t-109.5 46
q-28 0 -52.5 -8.5t-42.5 -23.5t-31 -34.5t-19.5 -42t-6.5 -45.5q0 -40 17.5 -75t53 -58t81.5 -23zM402 -210q-33 0 -56.5 22t-23.5 54q0 21 10.5 38.5t29 27.5t40.5 10q33 0 56.5 -22.5t23.5 -53.5q0 -11 -3 -20.5t-8 -18t-12.5 -15.5t-16 -12t-19 -7.5t-21.5 -2.5z" />
    <glyph glyph-name="uni1ECD" unicode="&#x1ecd;" 
d="M294 -17q-122 0 -198.5 69.5t-76.5 182t76.5 182t198.5 69.5q80 0 142.5 -31t97.5 -88.5t35 -131.5q0 -113 -76.5 -182.5t-198.5 -69.5zM294 143q34 0 57 25t23 67q0 17 -4 31.5t-11.5 25.5t-17 18.5t-22 11.5t-25.5 4q-35 0 -57 -24.5t-22 -66.5t22 -67t57 -25z
M293.5 -210q-33.5 0 -56.5 22t-23 54q0 21 10.5 38.5t29 27.5t40.5 10q33 0 56.5 -22.5t23.5 -54t-23.5 -53.5t-57 -22z" />
    <glyph glyph-name="uni1ED0" unicode="&#x1ed0;" horiz-adv-x="805" 
d="M681 777q-7 -7 -15 -11t-19 -6.5t-24.5 -3.5t-31.5 -1h-34l103 144l116 -21zM373 729q-15 -15 -20 -19.5t-14.5 -11t-17.5 -7.5t-21 -1h-86l116 123h141l116 -123h-86q-24 0 -35.5 6.5t-37.5 31.5l-28 26zM403 659q81 0 149.5 -26.5t115 -72t72.5 -107.5t26 -131
q0 -70 -26 -132t-72.5 -107.5t-115 -72.5t-149.5 -27t-150 27t-115.5 72.5t-72.5 107.5t-26 132q0 69 26 130.5t72.5 107.5t115.5 72.5t150 26.5zM403 166q67 0 109 47t42 109t-41.5 108t-109.5 46q-35 0 -64 -13t-48 -34.5t-29.5 -49.5t-10.5 -57q0 -40 17.5 -75t53 -58
t81.5 -23z" />
    <glyph glyph-name="uni1ED1" unicode="&#x1ed1;" 
d="M551 763l117 -21l-96 -101q-12 -13 -32 -17.5t-58 -4.5h-34zM265 592q-20 -18 -27 -24t-18.5 -10t-28.5 -4h-86l116 123h141l117 -123h-87q-24 0 -35.5 6.5t-37.5 31.5l-27 26zM294 486q80 0 142.5 -31t97.5 -88.5t35 -131.5q0 -113 -76.5 -182.5t-198.5 -69.5
t-198.5 69.5t-76.5 182t76.5 182t198.5 69.5zM294 143q34 0 57 25t23 67t-23 66.5t-57 24.5q-35 0 -57 -24.5t-22 -66.5t22 -67t57 -25z" />
    <glyph glyph-name="uni1ED2" unicode="&#x1ed2;" horiz-adv-x="805" 
d="M213 755q-37 0 -57.5 4.5t-32.5 17.5l-95 101l116 21l103 -144h-34zM300 690h-86l116 123h141l116 -123h-86q-17 0 -28.5 4t-18.5 10t-26 24l-28 26l-27 -25q-19 -19 -26 -25t-18.5 -10t-28.5 -4zM403 659q81 0 149.5 -26.5t115 -72.5t72.5 -107.5t26 -130.5
q0 -70 -26 -132t-72.5 -107.5t-115 -72.5t-149.5 -27t-150 27t-115.5 72.5t-72.5 107.5t-26 132q0 69 26 130.5t72.5 107.5t115.5 72.5t150 26.5zM403 166q67 0 109 47t42 109t-41.5 108t-109.5 46q-28 0 -52.5 -8.5t-42.5 -23.5t-31 -34.5t-19.5 -42t-6.5 -45.5
q0 -62 42 -109t110 -47z" />
    <glyph glyph-name="uni1ED3" unicode="&#x1ed3;" 
d="M139 619h-34q-38 0 -58 4.5t-32 17.5l-96 101l117 21zM191 554h-86l116 123h141l117 -123h-87q-24 0 -35.5 6.5t-37.5 31.5l-27 26l-27 -26q-20 -18 -27 -24t-18.5 -10t-28.5 -4zM294 486q80 0 142.5 -31t97.5 -88.5t35 -132t-35 -131.5t-97.5 -88.5t-142.5 -31.5
q-122 0 -198.5 69.5t-76.5 182t76.5 182t198.5 69.5zM294 143q34 0 57 25t23 67q0 17 -4 31.5t-11.5 25.5t-17.5 18.5t-22 11.5t-25 4q-35 0 -57 -24.5t-22 -66.5t22 -67t57 -25z" />
    <glyph glyph-name="uni1ED6" unicode="&#x1ed6;" horiz-adv-x="805" 
d="M345 893q-35 0 -58 -40l-67 43q11 16 19 25.5t23 23t33 20.5t40 7q31 0 72 -24t59 -24q34 0 58 45l66 -44q-21 -38 -46 -58t-69 -20q-29 0 -69.5 23t-60.5 23zM373 729q-15 -15 -20 -19.5t-14.5 -11t-17.5 -7.5t-21 -1h-86l116 123h141l116 -123h-86q-24 0 -35.5 6.5
t-37.5 31.5l-28 26zM403 659q81 0 149.5 -26.5t115 -72t72.5 -107.5t26 -131q0 -70 -26 -132t-72.5 -107.5t-115 -72.5t-149.5 -27t-150 27t-115.5 72.5t-72.5 107.5t-26 132q0 69 26 130.5t72.5 107.5t115.5 72.5t150 26.5zM403 166q67 0 109 47t42 109t-41.5 108
t-109.5 46q-35 0 -64 -13t-48 -34.5t-29.5 -49.5t-10.5 -57q0 -40 17.5 -75t53 -58t81.5 -23z" />
    <glyph glyph-name="uni1ED7" unicode="&#x1ed7;" 
d="M236 757q-34 0 -58 -41l-66 43q11 17 19 26.5t22.5 23t33 20.5t39.5 7q31 0 72.5 -24t58.5 -24q34 0 58 45l66 -44q-20 -38 -45.5 -58t-69.5 -20q-29 0 -69.5 23t-60.5 23zM265 592q-20 -18 -27 -24t-18.5 -10t-28.5 -4h-86l116 123h141l117 -123h-87q-24 0 -35.5 6.5
t-37.5 31.5l-27 26zM294 486q80 0 142.5 -31t97.5 -88.5t35 -131.5q0 -113 -76.5 -182.5t-198.5 -69.5t-198.5 69.5t-76.5 182t76.5 182t198.5 69.5zM294 143q34 0 57 25t23 67t-23 66.5t-57 24.5q-35 0 -57 -24.5t-22 -66.5t22 -67t57 -25z" />
    <glyph glyph-name="uni1ED8" unicode="&#x1ed8;" horiz-adv-x="805" 
d="M373 729q-15 -15 -20 -19.5t-14.5 -11t-17.5 -7.5t-21 -1h-86l116 123h141l116 -123h-86q-24 0 -35.5 6.5t-37.5 31.5l-28 26zM403 659q81 0 149.5 -26.5t115 -72t72.5 -107.5t26 -131q0 -70 -26 -132t-72.5 -107.5t-115 -72.5t-149.5 -27t-150 27t-115.5 72.5
t-72.5 107.5t-26 132q0 69 26 130.5t72.5 107.5t115.5 72.5t150 26.5zM403 166q67 0 109 47t42 109t-41.5 108t-109.5 46q-35 0 -64 -13t-48 -34.5t-29.5 -49.5t-10.5 -57q0 -40 17.5 -75t53 -58t81.5 -23zM402 -58q33 0 56.5 -22.5t23.5 -53.5q0 -21 -10.5 -38.5t-29 -27.5
t-40.5 -10q-33 0 -56.5 22t-23.5 54q0 21 10.5 38.5t29 27.5t40.5 10z" />
    <glyph glyph-name="uni1ED9" unicode="&#x1ed9;" 
d="M265 592q-16 -14 -21 -19t-14.5 -11t-17.5 -7t-21 -1h-86l116 123h141l117 -123h-87q-24 0 -35.5 6.5t-37.5 31.5l-27 26zM294 486q80 0 142.5 -31t97.5 -88.5t35 -131.5q0 -113 -76.5 -182.5t-198.5 -69.5t-198.5 69.5t-76.5 182t76.5 182t198.5 69.5zM294 143
q34 0 57 25t23 67t-23 66.5t-57 24.5q-35 0 -57 -24.5t-22 -66.5q0 -28 10.5 -49t28 -32t40.5 -11zM293.5 -58q33.5 0 57 -22.5t23.5 -53.5q0 -11 -3 -20.5t-8 -18t-12.5 -15.5t-16.5 -12t-19.5 -7.5t-20.5 -2.5q-22 0 -40.5 10t-29 27.5t-10.5 38.5q0 31 23 53.5t56.5 22.5
z" />
    <glyph glyph-name="uni1EE4" unicode="&#x1ee4;" horiz-adv-x="747" 
d="M373 -17q-142 0 -225.5 69t-83.5 202v386h208v-363q0 -54 27 -82.5t74.5 -28.5t74.5 28.5t27 82.5v363h208v-386q0 -89 -39.5 -151t-108.5 -91t-162 -29zM373 -210q-33 0 -56.5 22t-23.5 53.5t23.5 54t56.5 22.5t56.5 -22.5t23.5 -54t-23.5 -53.5t-56.5 -22z" />
    <glyph glyph-name="uni1EE5" unicode="&#x1ee5;" horiz-adv-x="606" 
d="M360 474h192v-474h-170l-20 48q-60 -60 -145 -60q-30 0 -58.5 9.5t-53.5 29.5t-40.5 57.5t-15.5 86.5v303h192v-241q0 -45 13.5 -65t44.5 -20q23 0 40 19t21 58v249zM292 -58q33 0 56.5 -22.5t23.5 -53.5q0 -21 -11 -38.5t-29 -27.5t-40 -10t-40.5 10t-29 27.5
t-10.5 38.5t10.5 38.5t29 27.5t40.5 10z" />
    <glyph glyph-name="Ygrave" unicode="&#x1ef2;" horiz-adv-x="629" 
d="M387 690q-42 0 -68.5 8t-56.5 39l-106 108l136 21l142 -176h-47zM650 640l-232 -359v-281h-208v285l-231 355h233l102 -172l105 172h231z" />
    <glyph glyph-name="ygrave" unicode="&#x1ef3;" horiz-adv-x="563" 
d="M353 554q-43 0 -69 8.5t-56 38.5l-107 108l137 22l142 -177h-47zM376 474h202l-233 -543q-35 -80 -81.5 -110.5t-108.5 -30.5q-21 0 -42.5 3.5t-32.5 6.5l-11 4l27 160q25 -14 47 -14q36 0 50 38l3 6l-212 480h203l96 -247z" />
    <glyph glyph-name="uni1EF4" unicode="&#x1ef4;" horiz-adv-x="629" 
d="M650 640l-232 -359v-281h-208v285l-231 355h233l102 -172l105 172h231zM314 -58q33 0 56.5 -22.5t23.5 -54t-23.5 -53.5t-56.5 -22t-56.5 22t-23.5 53.5t23.5 54t56.5 22.5z" />
    <glyph glyph-name="uni1EF5" unicode="&#x1ef5;" horiz-adv-x="563" 
d="M376 474h202l-233 -543q-35 -80 -81.5 -110.5t-108.5 -30.5q-21 0 -42.5 3.5t-32.5 6.5l-11 4l27 160q25 -14 47 -14q36 0 50 38l3 6l-212 480h203l96 -247zM458 -58q34 0 57 -22.5t23 -54t-23 -53.5t-56.5 -22t-57 22t-23.5 54q0 21 11 38.5t29.5 27.5t39.5 10z" />
    <glyph glyph-name="uni1EF8" unicode="&#x1ef8;" horiz-adv-x="629" 
d="M255 738q-35 0 -59 -40l-66 43q11 16 19 25.5t22.5 23t33 20.5t39.5 7q31 0 72.5 -23.5t58.5 -23.5q34 0 58 44l66 -44q-20 -38 -45 -58t-70 -20q-29 0 -69.5 23t-59.5 23zM650 640l-232 -359v-281h-208v285l-231 355h233l102 -172l104 172h232z" />
    <glyph glyph-name="uni1EF9" unicode="&#x1ef9;" horiz-adv-x="563" 
d="M220 602q-34 0 -58 -40l-67 43q12 16 20 25.5t22.5 23.5t32.5 20.5t40 6.5q31 0 72.5 -23.5t58.5 -23.5q34 0 58 44l66 -44q-21 -37 -46 -57.5t-69 -20.5q-29 0 -69.5 23t-60.5 23zM376 474h202l-233 -543q-35 -80 -81.5 -110.5t-108.5 -30.5q-21 0 -42.5 3.5t-32.5 6.5
l-11 4l27 160q25 -14 47 -14q36 0 50 38l3 6l-212 480h203l96 -247z" />
    <glyph glyph-name="uni2009" unicode="&#x2009;" horiz-adv-x="10" 
 />
    <glyph glyph-name="endash" unicode="&#x2013;" horiz-adv-x="560" 
d="M48 215v143h465v-143h-465z" />
    <glyph glyph-name="emdash" unicode="&#x2014;" horiz-adv-x="839" 
d="M48 215v143h744v-143h-744z" />
    <glyph glyph-name="quoteleft" unicode="&#x2018;" horiz-adv-x="292" 
d="M211 661l27 -71q-17 -7 -31 -17.5t-24 -24t-15 -27.5q41 -1 64.5 -31.5t16.5 -71.5q-6 -42 -38.5 -64.5t-75.5 -15.5q-33 5 -55.5 24.5t-31 48.5t-2.5 63q10 63 57 114.5t108 72.5z" />
    <glyph glyph-name="quoteright" unicode="&#x2019;" horiz-adv-x="292" 
d="M81 337l-27 71q25 11 44 29t26 40q-41 1 -64.5 31.5t-16.5 71.5q6 42 38.5 64.5t75.5 15.5q25 -4 44 -16t30 -30.5t15.5 -41.5t-0.5 -48q-10 -63 -57 -114.5t-108 -72.5z" />
    <glyph glyph-name="quotesinglbase" unicode="&#x201a;" horiz-adv-x="302" 
d="M86 -156l-27 71q25 10 44 28.5t26 40.5q-41 1 -64.5 31.5t-16.5 71.5q6 41 38.5 64t75.5 16q50 -8 73.5 -46t15.5 -90q-10 -64 -57 -115t-108 -72z" />
    <glyph glyph-name="quotedblleft" unicode="&#x201c;" horiz-adv-x="539" 
d="M211 661l27 -71q-17 -7 -31 -17.5t-24 -23.5t-15 -28q41 -1 64.5 -31.5t16.5 -70.5q-6 -42 -38.5 -65t-75.5 -16q-33 5 -55.5 25t-31 48.5t-2.5 62.5q7 43 31.5 81.5t59 65.5t74.5 40zM458 661l27 -71q-17 -7 -31 -17.5t-24 -23.5t-15 -28q41 -1 64.5 -31.5t16.5 -70.5
q-7 -42 -39 -65t-75 -16q-50 8 -74 46t-15 90q5 32 20.5 62.5t38 54.5t49.5 42t57 28z" />
    <glyph glyph-name="quotedblright" unicode="&#x201d;" horiz-adv-x="539" 
d="M81 338l-27 71q25 10 44 28.5t26 40.5q-41 1 -64.5 31t-16.5 71q6 42 38.5 65t75.5 16q50 -8 73.5 -46t15.5 -90q-10 -64 -57 -115.5t-108 -71.5zM328 338l-27 71q25 10 44 28.5t26 40.5q-41 1 -64.5 31t-16.5 71q6 42 38.5 65t75.5 16q25 -4 44 -16.5t30 -30.5t15.5 -41
t-0.5 -48q-7 -43 -31.5 -81.5t-59.5 -65.5t-74 -40z" />
    <glyph glyph-name="quotedblbase" unicode="&#x201e;" horiz-adv-x="549" 
d="M86 -152l-27 71q25 11 44 29.5t26 40.5q-41 1 -64.5 31t-16.5 71q6 42 38.5 65t75.5 16q50 -8 73.5 -46t15.5 -90q-10 -64 -57 -115.5t-108 -72.5zM333 -152l-27 71q25 11 44 29.5t26 40.5q-41 1 -64.5 31t-16.5 71q6 42 38.5 65t75.5 16q50 -8 73.5 -46t15.5 -90
q-10 -64 -57 -115.5t-108 -72.5z" />
    <glyph glyph-name="dagger" unicode="&#x2020;" horiz-adv-x="459" 
d="M436 511v-114h-136v-532h-141v532h-136v114h136v169h141v-169h136z" />
    <glyph glyph-name="daggerdbl" unicode="&#x2021;" horiz-adv-x="459" 
d="M451 148v-114h-151v-169h-141v169h-120v114h120v249h-136v114h136v169h141v-169h136v-114h-136v-249h151z" />
    <glyph glyph-name="bullet" unicode="&#x2022;" horiz-adv-x="369" 
d="M183 196q-55 0 -94 37t-39 89t39 89t94 37q36 0 66.5 -16.5t48.5 -46t18 -63.5t-18 -63t-48.5 -46t-66.5 -17z" />
    <glyph glyph-name="ellipsis" unicode="&#x2026;" horiz-adv-x="908" 
d="M148 -13q-41 0 -70 27.5t-29 66.5t29 67t70 28t70.5 -28t29.5 -67t-29.5 -66.5t-70.5 -27.5zM454 -13q-41 0 -70 27.5t-29 66.5t29 67t70 28t70 -28t29 -67t-29 -66.5t-70 -27.5zM759 -13q-27 0 -49.5 12.5t-36 34.5t-13.5 47q0 39 29 67t70 28q27 0 50 -13t36.5 -34.5
t13.5 -47.5q0 -39 -29.5 -66.5t-70.5 -27.5z" />
    <glyph glyph-name="perthousand" unicode="&#x2030;" horiz-adv-x="1389" 
d="M231 250q-55 0 -98 23.5t-68.5 69t-25.5 107.5q0 93 54 146.5t137.5 53.5t137.5 -53.5t54 -146.5t-54 -146.5t-137 -53.5zM223 0l408 640h114l-409 -640h-113zM230.5 362q50.5 0 50.5 88t-50.5 88t-50.5 -88t50.5 -88zM746 -10q-84 0 -137.5 53.5t-53.5 146.5t53.5 146.5
t137.5 53.5t138 -53.5t54 -146.5t-54 -146.5t-138 -53.5zM1159 -10q-55 0 -98 23.5t-68.5 69t-25.5 107.5t25.5 107.5t68.5 69t98 23.5q83 0 137 -53.5t54 -146.5t-54 -146.5t-137 -53.5zM746 102q50 0 50 88t-50 88t-50 -88t50 -88zM1158.5 102q50.5 0 50.5 88t-50.5 88
t-50.5 -88t50.5 -88z" />
    <glyph glyph-name="second" unicode="&#x2033;" horiz-adv-x="600" 
 />
    <glyph glyph-name="guilsinglleft" unicode="&#x2039;" horiz-adv-x="352" 
d="M333 420l-138 -178l138 -178h-175l-139 178l139 178h175z" />
    <glyph glyph-name="guilsinglright" unicode="&#x203a;" horiz-adv-x="352" 
d="M194 420l139 -178l-139 -178h-175l139 178l-139 178h175z" />
    <glyph glyph-name="fraction" unicode="&#x2044;" horiz-adv-x="170" 
d="M-172 0l409 640h113l-409 -640h-113z" />
    <glyph glyph-name="uni2070" unicode="&#x2070;" horiz-adv-x="441" 
d="M220.5 350q-83.5 0 -137.5 53.5t-54 146.5t54 146.5t137.5 53.5t137.5 -53.5t54 -146.5t-54 -146.5t-137.5 -53.5zM220.5 462q50.5 0 50.5 88t-50.5 88t-50.5 -88t50.5 -88z" />
    <glyph glyph-name="uni2074" unicode="&#x2074;" horiz-adv-x="395" 
d="M396 523v-108h-46v-55h-131l3 55h-184l-29 78l139 247h153l-141 -217h68l3 55h119v-55h46z" />
    <glyph glyph-name="uni2075" unicode="&#x2075;" horiz-adv-x="396" 
d="M220 604v-1q67 0 107 -33.5t40 -84.5q0 -55 -45.5 -95t-121.5 -40q-103 0 -181 45l49 100q50 -39 100 -40q17 0 29 4t18 11.5t6 17.5q0 31 -43 31q-11 0 -21.5 -4.5t-16.5 -8.5l-6 -4l-88 46l31 192h261v-105h-156l-6 -37q18 6 44 6z" />
    <glyph glyph-name="uni2076" unicode="&#x2076;" horiz-adv-x="417" 
d="M221 350q-40 0 -76.5 14t-60.5 39q-55 61 -55 141q0 60 28 107.5t74.5 73t102.5 25.5q31 0 58.5 -7t38.5 -14l12 -7l-52 -88q-13 15 -49 15q-35 0 -57.5 -22t-23.5 -57q28 39 87 39q65 0 102.5 -36t37.5 -87q0 -58 -44.5 -97t-122.5 -39zM217 447q15 0 26 10.5t11 25
t-11 25t-26 10.5t-25.5 -10.5t-10.5 -25t10.5 -25t25.5 -10.5z" />
    <glyph glyph-name="uni2077" unicode="&#x2077;" horiz-adv-x="362" 
d="M19 740h324v-80q-51 -54 -80 -100.5t-40.5 -93t-11.5 -106.5h-145q0 76 25 140t79 131h-151v109z" />
    <glyph glyph-name="uni2078" unicode="&#x2078;" horiz-adv-x="414" 
d="M326 567q14 -6 26.5 -17.5t22.5 -32.5t10 -45q0 -51 -42 -86.5t-135.5 -35.5t-136 35.5t-42.5 86.5q0 35 18.5 60t40.5 35q-15 10 -28.5 30t-13.5 47q0 48 41.5 77t119.5 29q77 0 117.5 -29t40.5 -77q0 -27 -12.5 -47t-26.5 -30zM207 663q-13 0 -21.5 -8t-8.5 -21
q0 -9 4 -15.5t11 -10.5t15 -4t14 4t10 10.5t4 15.5q0 13 -8 21t-20 8zM207 439q10 0 19 4.5t14 12.5t5 18q0 16 -11 26t-27 10t-27 -10t-11 -25.5t11 -25.5t27 -10z" />
    <glyph glyph-name="uni2079" unicode="&#x2079;" horiz-adv-x="417" 
d="M196 750q40 0 76.5 -14t60.5 -39q55 -61 55 -141q0 -91 -59.5 -148.5t-145.5 -57.5q-31 0 -58.5 7t-38.5 14l-12 7l52 88q14 -15 49 -15t57.5 22t23.5 57q-28 -39 -87 -39q-65 0 -102.5 36t-37.5 87q0 58 45 97t122 39zM200 653q-15 0 -26 -10.5t-11 -25t11 -24.5t26 -10
t25.5 10t10.5 24.5t-10.5 25t-25.5 10.5z" />
    <glyph glyph-name="uni2080" unicode="&#x2080;" horiz-adv-x="441" 
d="M220.5 -110q-83.5 0 -137.5 53.5t-54 146.5t54 146.5t137.5 53.5t137.5 -53.5t54 -146.5t-54 -146.5t-137.5 -53.5zM220.5 2q50.5 0 50.5 88t-50.5 88t-50.5 -88t50.5 -88z" />
    <glyph glyph-name="uni2081" unicode="&#x2081;" horiz-adv-x="279" 
d="M250 -100h-138v236l-65 -37l-48 106l133 75h118v-380z" />
    <glyph glyph-name="uni2082" unicode="&#x2082;" horiz-adv-x="415" 
d="M234 0h152v-100h-357v27q0 31 13.5 57t34 42t44.5 31t44.5 25.5t34 24t13.5 27.5q0 25 -26 25q-10 0 -20.5 -6.5t-18 -14t-21.5 -22.5l-92 84q19 20 34.5 33.5t38.5 27.5t52 21.5t63 7.5q65 0 108.5 -33.5t43.5 -91.5q0 -25 -10 -47t-27.5 -39.5t-33.5 -30t-38.5 -27
t-31.5 -21.5z" />
    <glyph glyph-name="uni2083" unicode="&#x2083;" horiz-adv-x="395" 
d="M257 123q45 -3 76.5 -30.5t32.5 -78.5q0 -55 -46 -87t-125 -34q-105 -4 -176 45l50 102q52 -41 93 -40q19 0 30.5 8t11.5 19q1 20 -23 26q-23 6 -61 -3l-24 63l73 62h-124v105h304v-70z" />
    <glyph glyph-name="uni2084" unicode="&#x2084;" horiz-adv-x="395" 
d="M396 63v-108h-46v-55h-131l3 55h-184l-29 78l139 247h153l-141 -217h68l3 55h119v-55h46z" />
    <glyph glyph-name="uni2085" unicode="&#x2085;" horiz-adv-x="396" 
d="M220 144v-1q67 0 107 -33.5t40 -84.5q0 -55 -45.5 -95t-121.5 -40q-103 0 -181 45l49 100q50 -39 100 -40q17 0 29 4t18 11.5t6 17.5q0 31 -43 31q-11 0 -21.5 -4.5t-16.5 -8.5l-6 -4l-88 46l31 192h261v-105h-156l-6 -37q18 6 44 6z" />
    <glyph glyph-name="uni2086" unicode="&#x2086;" horiz-adv-x="417" 
d="M221 -110q-40 0 -76.5 14t-60.5 39q-55 61 -55 141q0 91 59.5 148.5t145.5 57.5q31 0 58.5 -7t38.5 -14l12 -7l-52 -88q-13 15 -49 15q-17 0 -32 -6t-25.5 -16.5t-17 -25t-6.5 -31.5q28 39 87 39q65 0 102.5 -36t37.5 -87q0 -58 -44.5 -97t-122.5 -39zM217 -13
q15 0 26 10.5t11 25t-11 25t-26 10.5t-25.5 -10.5t-10.5 -25t10.5 -25t25.5 -10.5z" />
    <glyph glyph-name="uni2087" unicode="&#x2087;" horiz-adv-x="362" 
d="M19 280h324v-80q-51 -54 -80 -100.5t-40.5 -93t-11.5 -106.5h-145q0 76 25 140t79 131h-151v109z" />
    <glyph glyph-name="uni2088" unicode="&#x2088;" horiz-adv-x="414" 
d="M326 107q22 -9 40.5 -34.5t18.5 -60.5q0 -51 -42 -86.5t-135.5 -35.5t-136 35.5t-42.5 86.5q0 35 18.5 60t40.5 35q-15 10 -28.5 30t-13.5 47q0 48 41.5 77t119.5 29q77 0 117.5 -29t40.5 -77q0 -27 -12.5 -47t-26.5 -30zM207 203q-13 0 -21.5 -8t-8.5 -21q0 -9 4 -15.5
t11 -10.5t15 -4q12 0 20 8.5t8 21.5t-8 21t-20 8zM207 -21q16 0 27 10t11 25.5t-11 25.5t-27 10t-27 -10t-11 -25.5t11 -25.5t27 -10z" />
    <glyph glyph-name="uni2089" unicode="&#x2089;" horiz-adv-x="417" 
d="M196 290q40 0 76.5 -14t60.5 -39q55 -61 55 -141q0 -91 -59.5 -148.5t-145.5 -57.5q-31 0 -58.5 7t-38.5 14l-12 7l52 88q14 -15 49 -15t57.5 22t23.5 57q-28 -39 -87 -39q-65 0 -102.5 36t-37.5 87q0 58 45 97t122 39zM200 193q-15 0 -26 -10.5t-11 -25t11 -24.5t26 -10
t25.5 10t10.5 24.5t-10.5 25t-25.5 10.5z" />
    <glyph glyph-name="Euro" unicode="&#x20ac;" horiz-adv-x="517" 
d="M373 133q35 0 60 14l65 -144q-63 -20 -119 -20q-126 0 -212 63t-115 172h-60v91h47v13v19h-47v91h62q30 106 115.5 167.5t209.5 61.5q59 0 119 -20l-65 -140q-23 10 -60 10q-90 0 -128 -79h162l-37 -91h-147v-19v-13h134l-36 -91h-78q39 -85 130 -85z" />
    <glyph glyph-name="uni2113" unicode="&#x2113;" horiz-adv-x="586" 
d="M431 204l86 -114q-3 -4 -8 -11t-23 -24.5t-39 -31t-56 -24.5t-73 -11q-80 0 -127 35t-64 114l-30 -8l-28 111q23 4 49 12v152q0 124 59.5 190t155.5 66q93 0 137.5 -49.5t43.5 -124.5q-1 -67 -47.5 -134.5t-116.5 -116.5q-24 -15 -50 -29q3 -31 14 -44t33 -12
q21 1 42 14.5t31 26.5zM338 479q-19 0 -28.5 -22t-9.5 -54v-62q26 22 44.5 49.5t21.5 52.5q4 36 -28 36z" />
    <glyph glyph-name="uni2116" unicode="&#x2116;" horiz-adv-x="1151" 
d="M910 312q-55 0 -99 22.5t-68.5 62.5t-24.5 90q0 76 54 124.5t138.5 48.5t138 -48.5t53.5 -124.5t-53.5 -125.5t-138.5 -49.5zM487 311v329h199v-640h-190l-228 324v-324h-199v640h190zM910.5 539q-21.5 0 -34.5 -13.5t-13 -38.5t13 -39.5t34 -14.5t34 14.5t13 39.5
t-12.5 38.5t-34 13.5zM723 162v106h376v-106h-376z" />
    <glyph glyph-name="trademark" unicode="&#x2122;" horiz-adv-x="670" 
d="M269 640v-81h-69v-199h-87v199h-69v81h225zM541 640h85v-280h-85v151l-78 -95l-78 95v-151h-85v280h85l78 -109z" />
    <glyph glyph-name="uni2126" unicode="&#x2126;" horiz-adv-x="838" 
d="M769 367q0 -36 -10 -70t-28.5 -63.5t-46 -54t-62.5 -43.5l138 7v-143h-302v184v30q35 6 61.5 29.5t40 55.5t13.5 67q0 57 -42 99t-111.5 42t-112 -42t-42.5 -99q0 -35 13.5 -67t40 -55.5t61.5 -29.5v-30v-184h-302v143l138 -7q-70 37 -108.5 98t-38.5 133q0 127 97 213.5
t253 86.5t253 -86.5t97 -213.5z" />
    <glyph glyph-name="estimated" unicode="&#x212e;" horiz-adv-x="768" 
d="M384 -12q-154 0 -249.5 91.5t-95.5 241.5q0 99 44.5 175.5t122.5 117.5t178 41q155 0 246 -89.5t99 -253.5h-541q-5 0 -7.5 -1t-4.5 -5t-2 -11v-163q0 -11 9.5 -25.5t28.5 -31t43.5 -30t58.5 -22.5t70 -9q64 0 123 29.5t98 76.5h68q-65 -75 -129 -103.5t-160 -28.5z
M189 332h388q10 0 13 3.5t3 12.5v170q0 19 -19.5 39.5t-49.5 36.5t-68.5 26t-72.5 10q-29 0 -57 -5.5t-50.5 -15t-42 -21t-32 -23.5t-20 -22.5t-7.5 -17.5v-184q0 -9 15 -9z" />
    <glyph glyph-name="partialdiff" unicode="&#x2202;" horiz-adv-x="574" 
d="M279 -15q-109 0 -174.5 66t-65.5 162q0 90 56 150t135 60q88 0 136 -51q0 35 -20.5 72t-58 68.5t-83.5 50.5l65 129q123 -49 194.5 -148.5t71.5 -238.5q0 -144 -71.5 -232t-184.5 -88zM274 131q33 0 57.5 24t30.5 65q-9 25 -34 43t-55 18q-35 0 -55 -23t-20 -54
q0 -28 20 -50.5t56 -22.5z" />
    <glyph glyph-name="emptyset" unicode="&#x2205;" horiz-adv-x="623" 
d="M524 440q60 -75 60 -176q0 -115 -77 -194.5t-195 -79.5q-86 0 -153 45l-45 -51l-60 54l46 51q-61 75 -61 175q0 115 77.5 194.5t195.5 79.5q85 0 153 -44l45 50l60 -54zM131 264q0 -58 32 -105l239 265q-41 24 -90 24q-78 0 -129.5 -53.5t-51.5 -130.5zM312 80
q77 0 128.5 54t51.5 130q0 59 -31 106l-240 -266q41 -24 91 -24z" />
    <glyph glyph-name="uni2206" unicode="&#x2206;" horiz-adv-x="627" 
d="M414 640l224 -522v-118h-649v118l224 522h201zM313 476l-123 -340h247z" />
    <glyph glyph-name="product" unicode="&#x220f;" horiz-adv-x="770" 
d="M701 640v-149h-83v-591h-160v591h-145v-591h-161v591h-83v149h632z" />
    <glyph glyph-name="summation" unicode="&#x2211;" horiz-adv-x="667" 
d="M598 690v-149h-340l187 -271l-186 -271h339v-149h-529v125l197 295l-197 295v125h529z" />
    <glyph glyph-name="minus" unicode="&#x2212;" horiz-adv-x="560" 
d="M48 215v143h465v-143h-465z" />
    <glyph glyph-name="uni2215" unicode="&#x2215;" horiz-adv-x="170" 
d="M-172 0l409 640h113l-409 -640h-113z" />
    <glyph glyph-name="uni2219" unicode="&#x2219;" horiz-adv-x="277" 
d="M138 183q-41 0 -70 27.5t-29 66.5t29 67t70 28t70.5 -28t29.5 -67t-29.5 -66.5t-70.5 -27.5z" />
    <glyph glyph-name="radical" unicode="&#x221a;" horiz-adv-x="557" 
d="M409 690h159l-203 -840h-140l-139 267l-45 -20l-57 109l167 88l120 -243z" />
    <glyph glyph-name="infinity" unicode="&#x221e;" horiz-adv-x="713" 
d="M523 458q45 0 79.5 -16.5t53.5 -42.5t28.5 -54.5t9.5 -57.5t-9.5 -57.5t-28.5 -54.5t-53.5 -42t-79.5 -16q-75 0 -166 89q-92 -89 -167 -89q-45 0 -79.5 16t-53.5 42t-28.5 54.5t-9.5 57.5t9.5 57.5t28.5 54.5t53.5 42.5t79.5 16.5q75 0 167 -89q91 89 166 89zM143 287
q0 -25 14 -36.5t35 -11.5q33 0 84 48q-51 49 -84 49q-10 0 -18.5 -2.5t-15.5 -8t-11 -15.5t-4 -23zM521 239q21 0 35 11.5t14 36.5q0 17 -7 28.5t-17.5 16t-24.5 4.5q-33 0 -84 -49q51 -48 84 -48z" />
    <glyph glyph-name="integral" unicode="&#x222b;" horiz-adv-x="367" 
d="M107 -150q-53 0 -86 22.5t-32 57.5q0 23 14 38.5t38 15.5q10 0 17.5 -3t12 -7.5t8 -9t7 -7.5t7.5 -3q16 0 16 70v460q0 95 45.5 150.5t114.5 55.5q52 0 85 -22.5t33 -57.5q-1 -23 -14.5 -38.5t-38.5 -15.5q-15 0 -25 7.5t-16 15t-11 7.5q-16 0 -16 -66v-464
q0 -95 -45.5 -150.5t-113.5 -55.5z" />
    <glyph glyph-name="approxequal" unicode="&#x2248;" horiz-adv-x="619" 
d="M407 293q-29 0 -59.5 14t-60 28.5t-54.5 14.5t-49 -13.5t-35 -26.5l-11 -14l-90 97q23 23 36.5 35t36 28.5t46 23.5t50.5 7q34 0 64 -14t59 -28.5t60 -14.5q14 0 27 5.5t22 13t16.5 15t10.5 12.5l4 5l90 -97q-77 -91 -163 -91zM409 89q-35 0 -89.5 28.5t-84.5 28.5
q-26 0 -49.5 -13.5t-34.5 -26.5l-11 -13l-91 96q19 19 29 28.5t29 24.5t33.5 22.5t35.5 13.5t43 6q34 0 64 -14.5t59 -28.5t60 -14q14 0 27 5t22 12.5t16 15t11 12.5l4 6l90 -97q-77 -92 -163 -92z" />
    <glyph glyph-name="notequal" unicode="&#x2260;" horiz-adv-x="560" 
d="M513 321h-150l-42 -63h192v-133h-281l-50 -76h-121l51 76h-64v133h152l42 63h-194v132h282l47 72h122l-48 -72h62v-132z" />
    <glyph glyph-name="lessequal" unicode="&#x2264;" horiz-adv-x="560" 
d="M513 644v-165l-288 -71l288 -70v-166l-464 164v145zM47 6v133h465v-133h-465z" />
    <glyph glyph-name="greaterequal" unicode="&#x2265;" horiz-adv-x="560" 
d="M512 481v-145l-464 -164v166l287 70l-287 71v165zM49 139h465v-133h-465v133z" />
    <glyph glyph-name="lozenge" unicode="&#x25ca;" horiz-adv-x="602" 
d="M234 -37l-195 357l195 357h134l195 -357l-195 -357h-134zM301 127l102 193l-102 193l-102 -193z" />
    <glyph glyph-name="uniE132" unicode="&#xe132;" horiz-adv-x="615" 
d="M217 601q-30 -30 -56 -38.5t-69 -8.5h-47l142 177l137 -22zM535 591q-30 -30 -56.5 -38.5t-69.5 -8.5h-47l142 177l137 -22zM54 0v474h191v-474h-191zM563 474v-437q0 -61 -15.5 -107.5t-39 -72.5t-55 -41.5t-57.5 -20t-54 -4.5q-14 0 -27 1t-19 2l-7 1l11 157
q6 -1 14 -1q23 0 40 14t17 52v457h192z" />
    <glyph glyph-name="uniF8FF" unicode="&#xf8ff;" horiz-adv-x="778" 
d="M69 0v640h640v-640h-640zM151 250h168v-168h140v168h168v140h-168v168h-140v-168h-168v-140z" />
    <glyph glyph-name="Jacute" horiz-adv-x="376" 
d="M266 727q-30 -31 -56 -39t-69 -8h-47l142 176l137 -21zM68 -210q-53 0 -88 7l24 180q20 -4 33 -4q29 0 45.5 19t16.5 55v593h208v-569q0 -139 -65 -210t-174 -71z" />
    <glyph glyph-name="i.loclTRK" horiz-adv-x="299" 
d="M149 552q-33 0 -56.5 22t-23.5 53.5t23.5 54t56.5 22.5q22 0 40.5 -10t29 -28t10.5 -38q0 -32 -23.5 -54t-56.5 -22zM54 0v474h191v-474h-191z" />
    <glyph glyph-name="jacute" horiz-adv-x="315" 
d="M235 591q-21 -21 -42 -31.5t-37.5 -13t-45.5 -2.5h-47l142 177l137 -22zM264 474v-437q0 -52 -10.5 -93t-29.5 -67t-41 -44t-48.5 -26.5t-48 -12t-44.5 -3.5q-13 0 -26.5 1t-19.5 2l-6 1l11 157q6 -1 14 -1q22 0 39.5 14t17.5 52v457h192z" />
    <glyph glyph-name="i.TRK" horiz-adv-x="299" 
d="M149 552q-33 0 -56.5 22t-23.5 53.5t23.5 54t56.5 22.5q22 0 40.5 -10t29 -28t10.5 -38q0 -32 -23.5 -54t-56.5 -22zM54 0v474h191v-474h-191z" />
    <glyph glyph-name="f_f_ij" horiz-adv-x="1370" 
d="M914 713q41 0 70 -27.5t29 -66.5t-29 -66.5t-70 -27.5t-70 27.5t-29 66.5t29 66.5t70 27.5zM1221 524q-41 0 -70 28t-29 67t29 66.5t70 27.5q27 0 50 -12.5t36.5 -34.5t13.5 -47q0 -39 -29.5 -67t-70.5 -28zM681 546q-19 0 -32.5 -14t-13.5 -39v-19h87v-138h-87v-336
h-191v336h-169v-336h-191v336h-61v138h61q3 110 61 171t143 61q84 0 151 -39l-74 -138q-20 17 -44 17q-19 0 -32.5 -14t-13.5 -39v-19h169q3 110 61 171t143 61q65 0 115 -27l-44 -141q-14 8 -38 8zM814 0v474h192v-474h-192zM1127 17v457h191v-437q0 -61 -15.5 -107.5
t-38.5 -72.5t-55 -41.5t-58 -20t-54 -4.5q-14 0 -27 1t-19 2l-6 1l10 157q6 -1 15 -1q22 0 39.5 14t17.5 52z" />
    <glyph glyph-name="f_i" horiz-adv-x="698" 
d="M547 524q-41 0 -70 28t-29 67t29 66.5t70 27.5q27 0 49.5 -12.5t36 -34.5t13.5 -47q0 -39 -29 -67t-70 -28zM317 546q-19 0 -32.5 -14t-13.5 -39v-19h88v-139h-88v-335h-192v335h-56v139h57q3 110 60.5 171t143.5 61q64 0 115 -27l-44 -141q-14 8 -38 8zM447 0v474h191
v-474h-191z" />
    <glyph glyph-name="f_ij" horiz-adv-x="1008" 
d="M547 713q27 0 49.5 -12.5t36 -34.5t13.5 -47q0 -39 -29 -67t-70 -28t-70 28t-29 67t29 66.5t70 27.5zM859 524q-41 0 -70 28t-29 67t29 66.5t70 27.5q27 0 50 -12.5t36 -34.5t13 -47q0 -39 -29 -67t-70 -28zM317 546q-19 0 -32.5 -14t-13.5 -39v-19h88v-139h-88v-335
h-192v335h-56v139h57q3 110 60.5 171t143.5 61q64 0 115 -27l-44 -141q-14 8 -38 8zM447 0v474h191v-474h-191zM764 17v457h192v-437q0 -61 -16 -107.5t-39 -72.5t-54.5 -41.5t-58 -20t-53.5 -4.5q-14 0 -27 1t-19 2l-7 1l11 157q6 -1 14 -1q23 0 40 14t17 52z" />
    <glyph glyph-name="f_l" horiz-adv-x="710" 
d="M320 546q-19 0 -32.5 -14t-13.5 -39v-19h88v-139h-88v-335h-192v335h-59v139h60q3 110 60.5 171t143.5 61q64 0 115 -27l-45 -140q-14 7 -37 7zM464 680h192v-680h-192v680z" />
    <glyph glyph-name="zero.lf" horiz-adv-x="649" 
d="M324.5 -17q-126.5 0 -206 90.5t-79.5 247.5q0 159 79.5 249t206.5 90q83 0 147 -39t101 -116.5t37 -183.5q0 -157 -79.5 -247.5t-206 -90.5zM324.5 143q48.5 0 71.5 48t23 131q0 178 -94.5 178t-94.5 -178q0 -83 23 -131t71.5 -48z" />
    <glyph glyph-name="one.lf" horiz-adv-x="474" 
d="M257 640h158v-640h-191v437l-132 -72l-63 146l227 129h1z" />
    <glyph glyph-name="two.lf" horiz-adv-x="593" 
d="M326 160h228v-160h-515v129l247 219q20 18 32 31.5t18.5 28.5t6.5 31q0 27 -18 44t-48 17q-52 0 -94 -71l-142 86q81 144 244 145q108 0 180.5 -55.5t72.5 -153.5q0 -59 -27.5 -107t-89.5 -102z" />
    <glyph glyph-name="three.lf" horiz-adv-x="591" 
d="M552 192q0 -92 -68.5 -146t-186.5 -59q-159 -6 -268 79l87 148q73 -68 154 -67q39 1 62 17t24 41q2 45 -57 60q-36 8 -100 4l-41 91l133 120h-218v160h451v-122l-156 -142q36 -3 67.5 -15t58.5 -33.5t42.5 -56.5t15.5 -79z" />
    <glyph glyph-name="four.lf" horiz-adv-x="639" 
d="M619 256v-160h-71v-96h-192v96h-276l-51 137l208 407h203l-201 -384h117v110h192v-110h71z" />
    <glyph glyph-name="five.lf" horiz-adv-x="596" 
d="M353 408q63 -1 110 -27.5t70.5 -71t23.5 -99.5q0 -30 -7 -57.5t-21.5 -53t-38 -46.5t-54 -37t-71.5 -24.5t-89 -8.5q-140 0 -247 75l85 150q43 -32 76.5 -48t73.5 -17q39 0 61.5 17t22.5 43.5t-18 41.5t-47 15q-21 0 -39.5 -7t-25.5 -14l-8 -6l-136 80l53 327h380v-160
h-220l-13 -84q34 12 79 12z" />
    <glyph glyph-name="six.lf" horiz-adv-x="608" 
d="M307 -17q-65 0 -117.5 18.5t-84.5 50.5t-49 72t-17 84q0 25 3 46t13 48.5t18 46t30.5 57t37 61.5t50 80t58.5 93h209l-161 -241q34 22 97 16q71 -7 123 -62t52 -145q0 -96 -75.5 -160.5t-186.5 -64.5zM303.5 132q30.5 0 52.5 21.5t22 52t-22 52t-52 21.5
q-31 0 -52.5 -21.5t-21.5 -52t21.5 -52t52 -21.5z" />
    <glyph glyph-name="seven.lf" horiz-adv-x="561" 
d="M29 640h503v-126l-249 -514h-204l247 480h-297v160z" />
    <glyph glyph-name="eight.lf" horiz-adv-x="618" 
d="M470 350q41 -16 75 -58.5t34 -102.5q0 -39 -13.5 -73.5t-43 -65.5t-84.5 -49t-129 -18q-60 0 -107 12t-77 32t-50 47.5t-28 55.5t-8 59q0 60 34 102.5t76 58.5q-17 10 -33 26t-30 45.5t-14 60.5q0 39 14.5 71.5t43.5 56t74.5 37t104.5 13.5q116 0 177 -49t61 -129
q0 -45 -25 -80.5t-52 -51.5zM309.5 519q-26.5 0 -45 -16t-18.5 -41q0 -24 18.5 -40t44.5 -16t44.5 16t18.5 40q0 25 -18 41t-44.5 16zM309 124q33 0 56 20.5t23 50.5t-22.5 50t-56.5 20q-22 0 -40 -9t-28.5 -25t-10.5 -36q0 -30 23 -50.5t56 -20.5z" />
    <glyph glyph-name="nine.lf" horiz-adv-x="608" 
d="M300 657q66 0 118.5 -18.5t84.5 -50.5t49 -72t17 -84q0 -25 -3 -46t-13 -48.5t-18 -46t-30.5 -57t-37 -61.5t-50 -80t-58.5 -93h-209l161 241q-34 -22 -97 -16q-71 7 -123 62t-52 145q0 96 75.5 160.5t185.5 64.5zM304 508q-30 0 -52 -21.5t-22 -52t22 -52t52 -21.5
q20 0 37 10t27 27t10 37q0 30 -22 51.5t-52 21.5z" />
    <glyph glyph-name="zero.osf" horiz-adv-x="678" 
d="M339 -12q-57 0 -110.5 19.5t-96 54.5t-68 90t-25.5 120q0 66 25.5 121t68 90.5t96 55.5t110.5 20t110.5 -20t96 -55.5t68 -90.5t25.5 -121q0 -65 -25.5 -120t-68 -90t-96 -54.5t-110.5 -19.5zM339 155q45 0 73.5 32.5t28.5 84.5q0 35 -13 62.5t-36 42.5t-53 15
q-45 0 -73.5 -33.5t-28.5 -86.5q0 -52 28.5 -84.5t73.5 -32.5z" />
    <glyph glyph-name="one.osf" horiz-adv-x="474" 
d="M257 544h158v-544h-191v340l-132 -72l-63 147l227 129h1z" />
    <glyph glyph-name="two.osf" horiz-adv-x="593" 
d="M340 143h214v-143h-515v127l108 65q89 53 136.5 90.5t47.5 66.5q0 21 -15 35.5t-39 14.5q-49 0 -90 -71l-142 85q81 145 244 146q101 0 169.5 -48.5t68.5 -134.5q0 -65 -55 -127.5t-132 -105.5z" />
    <glyph glyph-name="three.osf" horiz-adv-x="601" 
d="M562 96q0 -92 -68.5 -146t-186.5 -58q-159 -6 -268 78l87 148q73 -68 154 -66q26 0 45.5 7.5t30 20.5t10.5 29q2 45 -57 60q-36 9 -100 4l-41 92l133 119h-218v160h451v-122l-156 -142q36 -2 67.5 -14t58.5 -34t42.5 -56.5t15.5 -79.5z" />
    <glyph glyph-name="four.osf" horiz-adv-x="669" 
d="M629 160v-159h-71v-97h-192v97h-276l-51 136l208 407h203l-201 -384h117v111h192v-111h71z" />
    <glyph glyph-name="five.osf" horiz-adv-x="606" 
d="M363 311q95 -1 149.5 -56.5t54.5 -140.5q0 -46 -16.5 -85.5t-49.5 -71.5t-88 -51t-127 -19q-140 0 -247 75l85 149q43 -31 76.5 -47t73.5 -17q39 -1 61.5 16.5t22.5 44t-18 41.5t-47 15q-21 0 -39.5 -7t-25.5 -14l-8 -7l-136 81l53 327h380v-160h-220l-13 -85
q34 13 79 12z" />
    <glyph glyph-name="six.osf" horiz-adv-x="625" 
d="M327 -17q-130 0 -211 89q-77 87 -77 235q0 79 24.5 146t66.5 112t99 70t120 25q106 0 183 -48l-89 -132q-40 24 -83 24q-29 0 -53 -11.5t-40.5 -32t-25.5 -48.5t-9 -60q45 64 139 64q101 0 158 -60t57 -147q0 -96 -69.5 -161t-189.5 -65zM318 127q32 0 54.5 22.5t22.5 54
t-22.5 54t-54.5 22.5t-55 -22.5t-23 -54t23 -54t55 -22.5z" />
    <glyph glyph-name="seven.osf" horiz-adv-x="581" 
d="M39 544h503v-126q-53 -65 -89.5 -117.5t-69 -117t-49 -134t-16.5 -145.5h-190q0 110 56.5 243.5t140.5 236.5h-286v160z" />
    <glyph glyph-name="eight.osf" horiz-adv-x="618" 
d="M470 350q41 -16 75 -58.5t34 -102.5q0 -39 -13.5 -73.5t-43 -65.5t-84.5 -49t-129 -18q-60 0 -107 12t-77 32t-50 47.5t-28 55.5t-8 59q0 60 34 102.5t76 58.5q-17 10 -33 26t-30 45.5t-14 60.5q0 39 14.5 71.5t43.5 56t74.5 37t104.5 13.5q116 0 177 -49t61 -129
q0 -45 -25 -80.5t-52 -51.5zM309.5 519q-26.5 0 -45 -16t-18.5 -41q0 -24 18.5 -40t44.5 -16t44.5 16t18.5 40q0 25 -18 41t-44.5 16zM309 124q33 0 56 20.5t23 50.5t-22.5 50t-56.5 20q-22 0 -40 -9t-28.5 -25t-10.5 -36q0 -30 23 -50.5t56 -20.5z" />
    <glyph glyph-name="nine.osf" horiz-adv-x="625" 
d="M298 565q131 0 211 -89q77 -87 77 -235q0 -79 -24.5 -146t-66.5 -112t-98.5 -70t-120.5 -25q-105 0 -183 48l89 132q40 -24 84 -24q57 0 91.5 42.5t36.5 109.5q-45 -64 -140 -64q-101 0 -158 59.5t-57 147.5q0 96 69.5 161t189.5 65zM307 421q-32 0 -54.5 -22.5
t-22.5 -54.5q0 -21 10.5 -38.5t28 -27.5t38.5 -10q33 0 55.5 22t22.5 54q0 21 -10.5 39t-28.5 28t-39 10z" />
    <glyph glyph-name="zero.tf" 
d="M294 -17q-127 0 -206 90.5t-79 247.5q0 159 79 249t206 90q83 0 147 -39t101.5 -116.5t37.5 -183.5q0 -157 -79.5 -247.5t-206.5 -90.5zM294 143q48 0 71.5 48t23.5 131q0 178 -94.5 178t-94.5 -178q0 -83 23 -131t71 -48z" />
    <glyph glyph-name="one.tf" 
d="M283 640h158v-640h-191v437l-132 -72l-63 146l227 129h1z" />
    <glyph glyph-name="two.tf" 
d="M277 160h261v-160h-525v37q0 47 17.5 89.5t45 73.5t61 58.5t66.5 50t60.5 43.5t45 43t17.5 44q0 32 -21.5 47t-50.5 14q-51 -3 -91 -71l-142 86q81 144 243 145q115 0 186.5 -54t71.5 -157q0 -43 -19 -81.5t-50 -67.5t-62.5 -52.5t-65 -47t-48.5 -40.5z" />
    <glyph glyph-name="three.tf" 
d="M553 192q1 -92 -68 -146t-187 -59q-159 -6 -268 79l87 148q73 -68 154 -67q39 1 62.5 17t24.5 41q1 45 -58 60q-36 8 -100 4l-40 91l132 120h-218v160h451v-122l-156 -142q36 -3 68 -15t58.5 -33.5t42 -56.5t15.5 -79z" />
    <glyph glyph-name="four.tf" 
d="M585 256v-160h-72v-96h-192v96h-276l-51 137l209 407h202l-200 -384h116v110h192v-110h72z" />
    <glyph glyph-name="five.tf" 
d="M354 408q63 -1 110 -27.5t70.5 -71t23.5 -99.5q0 -36 -10 -68.5t-32 -61.5t-54.5 -50.5t-80 -34t-104.5 -12.5q-140 0 -247 75l85 150q42 -32 76 -48t74 -17q38 0 61 17t23 43.5t-18 41.5t-48 15q-20 0 -38.5 -7t-25.5 -14l-8 -6l-136 80l52 327h381v-160h-221l-12 -84
q34 12 79 12z" />
    <glyph glyph-name="six.tf" 
d="M306 -17q-130 0 -211 89q-77 87 -77 235q0 53 11 101t31.5 86.5t49 69.5t62.5 52t74 32.5t82 11.5q105 0 183 -48l-89 -132q-40 24 -83 24q-29 0 -53 -11.5t-40.5 -32t-25.5 -48.5t-10 -60q46 64 140 64q101 0 158 -60t57 -147q0 -96 -69.5 -161t-189.5 -65zM297 127
q21 0 38.5 10t28 28t10.5 39q0 31 -22.5 53.5t-54.5 22.5q-33 0 -55.5 -22.5t-22.5 -54t23 -54t55 -22.5z" />
    <glyph glyph-name="seven.tf" 
d="M41 640h503v-125q-53 -65 -89.5 -118t-69 -117.5t-49 -134t-16.5 -145.5h-190q0 111 56.5 244.5t140.5 235.5h-286v160z" />
    <glyph glyph-name="eight.tf" 
d="M455 350q41 -16 75 -58.5t34 -102.5q0 -39 -13.5 -73.5t-43 -65.5t-84.5 -49t-129 -18t-128.5 18t-84 49t-43.5 65.5t-14 73.5q0 60 34 102.5t76 58.5q-28 16 -52.5 51.5t-24.5 80.5q0 39 14.5 71.5t43.5 56t74.5 37t104.5 13.5q116 0 177 -49t61 -129q0 -45 -25 -80.5
t-52 -51.5zM294 519q-17 0 -31.5 -7t-22.5 -20t-8 -30q0 -24 18 -40t44 -16t44.5 16t18.5 40q0 25 -18 41t-45 16zM294 124q33 0 56 20.5t23 50.5t-22.5 50t-56.5 20t-56.5 -20t-22.5 -50t23 -50.5t56 -20.5z" />
    <glyph glyph-name="nine.tf" 
d="M282 659q131 0 212 -89q76 -86 76 -234q0 -79 -24.5 -146t-66.5 -112t-98.5 -70t-120.5 -25q-105 0 -183 48l89 132q40 -24 84 -24q58 0 92.5 42.5t35.5 109.5q-45 -64 -140 -64q-101 0 -158 59.5t-57 146.5q0 96 69.5 161t189.5 65zM292 516q-32 0 -55 -22.5t-23 -54.5
t23 -54.5t55 -22.5t54.5 22.5t22.5 54.5t-22.5 54.5t-54.5 22.5z" />
    <glyph glyph-name="zero.tosf" 
d="M294 -12q-57 0 -110.5 19.5t-96 54.5t-68 90t-25.5 120q0 66 25.5 121t68 90.5t96 55.5t110.5 20t110.5 -20t96 -55.5t68 -90.5t25.5 -121q0 -65 -25.5 -120t-68 -90t-96 -54.5t-110.5 -19.5zM294 155q45 0 73.5 32.5t28.5 84.5q0 35 -13 62.5t-36 42.5t-53 15t-53 -15
t-36 -42.5t-13 -62.5q0 -52 28.5 -84.5t73.5 -32.5z" />
    <glyph glyph-name="one.tosf" 
d="M291 544h159v-544h-192v340l-132 -72l-62 147l227 129v0z" />
    <glyph glyph-name="two.tosf" 
d="M338 143h214v-143h-515v127l107 65q90 53 137 90.5t47 66.5q0 21 -14.5 35.5t-38.5 14.5q-50 0 -90 -71l-142 85q81 145 243 146q102 0 170 -48.5t68 -134.5q0 -65 -55 -127.5t-131 -105.5z" />
    <glyph glyph-name="three.tosf" 
d="M556 96q0 -92 -69 -146t-187 -58q-158 -6 -267 78l86 148q73 -68 154 -66q26 0 45.5 7.5t30 20.5t11.5 29q2 45 -58 60q-36 9 -100 4l-40 92l132 119h-218v160h451v-122l-156 -142q36 -2 68 -14t58.5 -34t42.5 -56.5t16 -79.5z" />
    <glyph glyph-name="four.tosf" horiz-adv-x="651" 
d="M621 160v-159h-72v-97h-192v97h-276l-51 136l209 407h202l-200 -384h116v111h192v-111h72z" />
    <glyph glyph-name="five.tosf" 
d="M354 311q95 -1 149.5 -56.5t54.5 -140.5q0 -46 -16.5 -85.5t-49.5 -71.5t-88.5 -51t-126.5 -19q-140 0 -247 75l85 149q42 -31 76 -47t73 -17t62 16.5t23 44t-18 41.5t-48 15q-21 0 -39 -7t-26 -14l-7 -7l-136 81l52 327h381v-160h-221l-12 -85q34 13 79 12z" />
    <glyph glyph-name="six.tosf" 
d="M299 -17q-66 0 -118.5 18.5t-84.5 50.5t-48.5 72t-16.5 84q-1 25 2 46t13.5 48.5t18.5 46t30.5 57t36.5 61.5t50 80t58 93h210l-162 -241q35 22 98 16q70 -7 122 -62t52 -145q0 -96 -75.5 -160.5t-185.5 -64.5zM295.5 132q30.5 0 52 21.5t21.5 52t-21.5 52t-52.5 21.5
q-30 0 -52 -21.5t-22 -52t22 -52t52.5 -21.5z" />
    <glyph glyph-name="seven.tosf" 
d="M43 539h502v-126q-53 -64 -89 -117t-68.5 -117.5t-49 -134t-16.5 -145.5h-190q0 110 56.5 243.5t139.5 236.5h-285v160z" />
    </font>
</defs>
</svg>
